<svg width="122" height="40" viewBox="0 0 122 40" fill="none" xmlns="http://www.w3.org/2000/svg">
<path d="M18.0435 0C18.2517 0.0361838 18.4632 0.0611104 18.6682 0.110964C19.6669 0.351385 20.3054 0.985004 20.6077 1.94991C21.1706 3.74543 21.7206 5.54497 22.2697 7.34451C24.2205 13.741 26.1696 20.1391 28.1187 26.5364C28.1573 26.6618 28.1926 26.7889 28.2529 26.9923C27.6603 26.7197 27.128 26.4681 26.5909 26.2276C24.4335 25.2643 22.1958 24.5576 19.8671 24.1499C19.5632 24.0968 19.4932 23.9167 19.4225 23.6771C17.9003 18.5317 16.3782 13.3864 14.8392 8.24589C14.7709 8.01673 14.5875 7.7562 14.3849 7.64845C14.048 7.46914 13.7103 7.6975 13.5808 8.13332C13.1619 9.54047 12.7534 10.9508 12.3409 12.3604C11.2305 16.1525 10.1168 19.9429 9.01361 23.7374C8.94526 23.973 8.83912 24.0912 8.59548 24.1346C5.72007 24.6476 2.9894 25.5948 0.379342 26.8974C0.334313 26.92 0.286068 26.936 0.16626 26.9843C0.384971 26.2566 0.58358 25.5844 0.788621 24.9146C3.06177 17.4856 5.33652 10.0583 7.6145 2.63177C7.72787 2.26189 7.84447 1.8888 8.0085 1.54063C8.41617 0.677039 9.10929 0.18896 10.0629 0.0723676C10.1795 0.0586982 10.2937 0.0249266 10.4095 0C12.9544 0 15.4985 0 18.0435 0Z" fill="white" fill-opacity="0.7"/>
<path d="M56.5294 26.2172C55.702 26.2172 54.9276 26.2172 54.1533 26.2172C53.3902 26.2172 52.6272 26.2092 51.8641 26.222C51.606 26.2261 51.4733 26.1698 51.454 25.8795C51.409 25.2202 51.3318 24.5624 51.2618 23.8428C50.6604 24.8334 49.8482 25.5329 48.8174 25.9318C46.3062 26.9047 43.7637 27.0294 41.3008 25.8465C38.5517 24.5254 38.6401 21.3831 39.7176 19.9052C40.3625 19.0207 41.2743 18.5406 42.2834 18.2134C43.668 17.7639 45.1066 17.6208 46.5467 17.4937C48.0391 17.3618 49.5306 17.2308 51.0166 17.0997C51.2803 15.785 50.6378 14.7164 49.3722 14.3819C48.4483 14.1383 47.5148 14.1519 46.5949 14.4076C45.4965 14.7132 44.9642 15.2857 44.6916 16.4259H39.4997C39.5463 15.744 39.7594 15.1225 40.0915 14.5435C40.8304 13.2562 41.9602 12.4127 43.3279 11.9214C46.3473 10.8367 49.4213 10.8013 52.4687 11.7493C54.7765 12.4666 55.981 14.1616 56.1257 16.5473C56.2174 18.0525 56.1796 19.5666 56.186 21.0767C56.1925 22.7725 56.1716 24.4699 56.5294 26.2172ZM51.1074 19.4742C49.8466 19.6068 48.6067 19.7114 47.3749 19.8786C46.6906 19.9711 46.0087 20.1287 45.3478 20.3305C44.8509 20.4825 44.4633 20.8234 44.3041 21.3589C44.0259 22.2925 44.5461 23.1183 45.6244 23.4279C46.4381 23.6618 47.2647 23.645 48.0913 23.5091C50.2768 23.1504 51.4379 21.6171 51.1066 19.4742H51.1074Z" fill="white" fill-opacity="0.7"/>
<path d="M112.657 11.1133C114.541 11.1237 116.207 11.3786 117.779 12.1103C120.793 13.5127 122.181 16.2409 121.981 19.4339C121.746 23.1746 119.274 25.6262 115.541 26.382C113.094 26.8782 110.664 26.7704 108.318 25.8385C105.164 24.5865 103.428 21.6983 103.659 18.3163C103.908 14.6553 106.305 12.1908 110.035 11.3995C110.505 11.2998 110.984 11.2283 111.461 11.1776C111.913 11.1302 112.37 11.1278 112.657 11.1133ZM116.907 18.8904C116.873 18.8848 116.839 18.8791 116.805 18.8743C116.805 18.6741 116.815 18.4731 116.804 18.2737C116.681 15.9892 115.289 14.603 113.008 14.4896C110.913 14.3851 109.396 15.4779 108.973 17.4832C108.833 18.1522 108.818 18.8655 108.861 19.5521C108.986 21.5913 110.19 22.918 112.125 23.2357C114.136 23.5661 115.888 22.6342 116.505 20.8379C116.719 20.2163 116.777 19.5417 116.907 18.8912V18.8904Z" fill="white" fill-opacity="0.7"/>
<path d="M58.2003 23.2798C59.1113 22.528 59.9862 21.8068 60.8811 21.0686C61.1079 21.2761 61.3145 21.4795 61.5372 21.6644C62.8559 22.7612 64.4215 23.2292 66.0932 23.3329C67.0356 23.3916 67.9884 23.3241 68.9332 23.2565C69.25 23.234 69.5741 23.0692 69.8587 22.9067C70.2286 22.6961 70.354 22.331 70.3146 21.9097C70.2752 21.4859 70.0404 21.1949 69.644 21.1032C68.9565 20.9432 68.2594 20.8153 67.5614 20.7108C65.8182 20.4495 64.0363 20.431 62.3349 19.9043C61.3089 19.5867 60.3818 19.1058 59.7313 18.2029C58.7615 16.8584 58.5758 14.0755 60.742 12.5702C61.8613 11.7927 63.1269 11.4308 64.4512 11.2668C66.8257 10.9725 69.1793 11.0682 71.4805 11.7959C72.8121 12.2172 74.0834 12.9795 74.7226 13.7281C73.9443 14.5161 73.1675 15.3017 72.3819 16.097C70.2696 14.4574 67.8107 14.1696 65.2409 14.3778C64.8766 14.4076 64.5107 14.5354 64.1666 14.6705C63.7839 14.8209 63.6013 15.1401 63.6029 15.559C63.6045 15.9844 63.8112 16.3197 64.1972 16.4218C64.9031 16.6092 65.6276 16.7386 66.3513 16.8472C68.0688 17.1053 69.8008 17.2822 71.5071 17.5998C72.558 17.7952 73.5044 18.3074 74.1485 19.2208C75.5693 21.2342 74.8473 24.207 72.6408 25.4782C71.2586 26.2743 69.7349 26.5452 68.1742 26.624C65.9661 26.7358 63.7855 26.5661 61.6973 25.7604C60.3392 25.2362 59.1579 24.457 58.2027 23.2815L58.2003 23.2798Z" fill="white" fill-opacity="0.7"/>
<path d="M88.8415 22.315C88.8415 23.5259 88.8463 24.7143 88.8311 25.902C88.8303 25.9896 88.6976 26.1327 88.6043 26.1545C86.4301 26.6683 84.2502 26.7575 82.1113 26.0298C80.1783 25.3721 79.1563 23.9167 79.0534 21.9282C78.9408 19.7676 78.9955 17.5974 78.977 15.432C78.9754 15.2591 78.977 15.087 78.977 14.8707H75.7245V11.5563H78.977C78.977 10.5448 79.0052 9.57182 78.9641 8.60209C78.9465 8.17271 79.1024 8.00305 79.4836 7.86957C80.8956 7.37345 82.2955 6.84436 83.7002 6.32894C83.7983 6.29276 83.898 6.26381 84.0564 6.21155V11.5483H88.8544V14.8514H84.1014C84.0902 15.0211 84.0741 15.161 84.0741 15.3009C84.0725 16.852 84.0693 18.4039 84.0741 19.955C84.0789 21.5712 84.7857 22.3527 86.3858 22.4894C86.7831 22.5232 87.1883 22.5031 87.5871 22.475C87.986 22.4468 88.3816 22.3761 88.8431 22.3158L88.8415 22.315Z" fill="white" fill-opacity="0.7"/>
<path d="M96.6178 26.1955H91.5561V11.574H96.1362V15.2849C97.327 12.2245 99.5536 10.9251 102.789 11.213V15.7987C102.234 15.7729 101.7 15.711 101.171 15.7335C100.626 15.7569 100.071 15.8067 99.5455 15.9434C97.7974 16.3985 96.9797 17.6609 96.72 19.3551C96.6492 19.8151 96.6251 20.2863 96.6219 20.7526C96.6106 22.4107 96.617 24.0695 96.617 25.7275C96.617 25.8722 96.617 26.0162 96.617 26.1947L96.6178 26.1955Z" fill="white" fill-opacity="0.7"/>
<path d="M21.0202 28.3368C21.4311 29.7528 21.2373 31.1101 20.5048 32.4006C19.9628 33.3559 19.1619 34.0546 18.2541 34.6448C17.7829 34.9512 17.3069 35.2495 16.8454 35.5695C15.5331 36.4805 15.0547 37.7317 15.5194 39.5176C15.5548 39.6551 15.6007 39.7901 15.6634 40C14.1654 39.245 13.2648 38.1201 13.0091 36.536C12.8933 35.8156 12.9415 35.0694 12.8451 34.3441C12.7043 33.2795 12.1527 32.7922 11.1661 32.7641C10.2302 32.7375 9.40438 33.3639 9.18728 34.2645C9.16637 34.3513 9.14385 34.4374 9.11893 34.5371C7.39899 32.9996 6.97524 29.6595 7.66675 27.6139C9.19773 29.2928 11.2522 29.6627 13.3613 29.871C15.3136 30.0631 17.2378 29.8838 19.0928 29.2261C19.7409 28.9961 20.3488 28.6512 21.0202 28.3368Z" fill="white" fill-opacity="0.7"/>
</svg>
