<svg width="135" height="30" viewBox="0 0 135 30" fill="none" xmlns="http://www.w3.org/2000/svg">
<path d="M60.471 7.11037C59.2274 3.18253 56.8448 0.54948 52.4786 0.114899C48.7616 -0.255773 45.7336 1.20263 43.9058 4.40574C43.7767 4.63198 43.6029 4.83138 43.4495 5.04356C43.4022 5.02822 43.3537 5.0116 43.3064 4.99626V0.64023H41.738V30H43.4457V18.6191C44.1027 19.3451 44.6344 20.043 45.2748 20.6194C47.2061 22.3552 49.5848 22.7936 52.0619 22.662C55.4388 22.4817 58.1256 21.054 59.6645 17.9059C61.367 14.4228 61.6393 10.803 60.4697 7.10909L60.471 7.11037ZM58.2304 17.0635C56.8563 19.8922 53.7095 21.5589 50.739 21.2458C46.0557 20.7511 44.3532 17.8611 43.7614 14.9903C43.2028 12.2768 43.2987 9.59387 44.072 6.91864C44.936 3.92771 47.3505 1.87239 50.4603 1.59375C54.2412 1.25631 56.9624 2.87704 58.4707 6.36519C59.1724 7.98848 59.529 9.68207 59.5124 11.4523C59.5341 13.4246 59.0906 15.2958 58.2316 17.0623L58.2304 17.0635Z" fill="white" fill-opacity="0.7"/>
<path d="M19.1781 11.7068H1.84476C1.41785 15.6449 3.60993 20.8419 9.00895 21.1602C9.97142 21.2165 10.9722 21.1065 11.9168 20.8995C14.5537 20.323 16.2626 18.6933 17.0372 16.0961C17.3785 14.9521 17.8655 14.6773 18.98 15.0582C18.9072 15.4135 18.8509 15.7855 18.7538 16.1459C17.7427 19.9025 14.5703 22.4512 10.6156 22.6851C7.90716 22.8461 5.45434 22.1291 3.37986 20.3716C1.56484 18.8326 0.754478 16.739 0.258544 14.4523C-0.24378 12.1337 0.0591486 9.90585 0.543578 7.63964C1.35139 3.86262 4.67465 0.688905 8.57309 0.0996651C12.3297 -0.467846 16.1501 1.49416 17.946 4.92862C19.0439 7.02995 19.2497 9.29488 19.1781 11.7055V11.7068ZM17.537 10.1653C17.344 6.95198 16.3623 4.17705 13.4775 2.54099C10.7537 0.995668 7.95701 1.25897 5.39043 2.97173C2.87753 4.64998 1.95341 7.21017 1.78725 10.1653H17.537Z" fill="white" fill-opacity="0.7"/>
<path d="M94.3018 11.6927H76.7473C75.7759 16.96 80.3748 21.867 85.5987 21.224C88.6944 20.8431 90.7318 19.1585 91.8324 16.2762C91.9384 15.9988 92.0317 15.7138 92.1685 15.4518C92.4318 14.9469 92.9559 14.7168 93.4582 14.9533C93.6077 15.0236 93.7266 15.3994 93.6857 15.6C93.1067 18.4287 91.5396 20.5389 88.9296 21.7826C82.9452 24.6317 76.4175 21.2189 75.2084 14.6376C74.6281 11.4792 74.9093 8.41412 76.2271 5.46025C77.8657 1.78677 81.7769 -0.41042 85.7342 0.143031C90.4391 0.800015 93.0914 3.51103 93.8455 8.44352C94.0053 9.49035 94.142 10.541 94.3043 11.6939L94.3018 11.6927ZM92.3538 10.1384C92.4459 6.11596 89.7464 1.33941 84.4815 1.57843C80.0412 1.7791 76.2833 5.87311 76.755 10.1384H92.3551H92.3538Z" fill="white" fill-opacity="0.7"/>
<path d="M113.477 6.95445C113.339 6.9634 113.233 6.97618 113.128 6.9749C111.959 6.9634 112.134 7.10527 111.992 5.98942C111.712 3.7884 110.069 2.18429 107.655 1.74971C105.478 1.35858 103.378 1.58738 101.375 2.57797C100.063 3.22728 99.3186 4.40448 99.3928 5.79514C99.4759 7.38136 100.238 8.53044 101.704 8.97653C104.021 9.68208 106.368 10.2931 108.703 10.9385C109.256 11.0919 109.816 11.2197 110.371 11.3667C112.492 11.9278 113.868 13.4617 114.203 15.4339C114.712 18.4363 113.221 20.4047 111.674 21.2355C108.325 23.0339 104.867 23.0531 101.379 21.6982C99.1231 20.8214 97.8027 19.0984 97.2365 16.7811C97.1125 16.2749 97.0869 15.7445 97.0103 15.177H98.4035C98.7652 16.1484 99.0004 17.1109 99.4592 17.9506C100.523 19.896 102.356 20.7588 104.444 21.141C106.59 21.5334 108.639 21.187 110.572 20.1772C112.186 19.3336 112.78 17.9391 112.63 16.1957C112.494 14.6248 111.608 13.6061 110.123 13.1459C107.829 12.4366 105.515 11.7872 103.222 11.074C102.331 10.7967 101.465 10.4337 100.602 10.0732C98.5811 9.22833 97.6493 7.70346 97.7644 5.50883C97.8705 3.48164 98.7665 1.99384 100.652 1.13235C103.975 -0.387408 107.284 -0.397633 110.563 1.22438C112.679 2.2712 113.857 4.6141 113.478 6.95317L113.477 6.95445Z" fill="white" fill-opacity="0.7"/>
<path d="M117.407 15.2166C117.468 15.1834 117.485 15.1668 117.503 15.1655C118.292 15.105 118.816 15.4433 119.077 16.1804C120.862 21.2202 127.109 23.0864 131.391 19.8462C132.684 18.8671 133.138 17.5084 132.913 15.9452C132.702 14.4727 131.792 13.546 130.382 13.1217C128.083 12.4302 125.772 11.7745 123.478 11.0651C122.587 10.789 121.717 10.4311 120.855 10.0732C118.766 9.20917 117.738 7.31874 118.062 5.05764C118.316 3.27842 119.187 1.98746 120.838 1.20905C124.219 -0.386121 127.577 -0.395069 130.906 1.31386C132.944 2.35941 134.178 4.83013 133.762 6.93784H132.375C132.326 6.60424 132.271 6.25402 132.224 5.90252C131.963 3.99931 130.611 2.49617 128.763 1.97595C126.537 1.35092 124.361 1.40972 122.19 2.23287C120.54 2.85917 119.588 4.23449 119.656 6.02906C119.715 7.57438 120.731 8.75286 122.41 9.20405C125.202 9.95434 128.019 10.6203 130.78 11.4677C132.964 12.1375 134.235 13.7301 134.527 16.0206C134.819 18.3047 133.599 20.5326 131.498 21.5142C128.221 23.0455 124.881 23.1388 121.536 21.7532C118.872 20.6489 117.191 17.9494 117.406 15.2179L117.407 15.2166Z" fill="white" fill-opacity="0.7"/>
<path d="M20.7362 0.672195C21.8048 0.212051 22.9411 0.585279 23.7105 1.62444C25.5345 4.08877 27.3572 6.55437 29.1824 9.0187C29.3077 9.18742 29.4432 9.34847 29.6093 9.55682C30.0823 8.92667 30.5271 8.33743 30.968 7.74436C32.5172 5.65965 34.0676 3.57494 35.6129 1.48767C36.2469 0.631294 37.2017 0.319418 38.3214 0.653023C38.2128 0.821742 38.122 0.984071 38.0108 1.12978C35.7523 4.09388 33.4912 7.05542 31.2288 10.017C30.7418 10.6535 30.7469 11.0139 31.2403 11.6696C33.7455 15.007 36.2469 18.3481 38.7496 21.688C38.8365 21.803 38.9094 21.9296 38.9912 22.0548C37.9213 22.483 36.8221 22.1226 36.1319 21.164C34.0804 18.3123 32.0213 15.4658 29.9634 12.6193C29.842 12.4519 29.7026 12.296 29.5326 12.0876C28.6673 13.261 27.8352 14.3845 27.0082 15.5144C25.6125 17.4214 24.2218 19.3323 22.8273 21.2394C22.224 22.0651 21.3114 22.368 20.1278 22.0842C20.2812 21.858 20.4077 21.6561 20.5509 21.4643C23.0689 18.0835 25.5818 14.6976 28.119 11.3309C28.4155 10.9372 28.4219 10.6944 28.1164 10.3007C25.7646 7.27399 23.4396 4.22681 21.1069 1.18474C20.9804 1.01986 20.8628 0.847306 20.7362 0.672195Z" fill="white" fill-opacity="0.7"/>
<path d="M64.8679 0.615954H66.3302V4.75981C68.3586 1.78293 71.2217 0.587834 74.7355 0.545654V1.9427C73.9877 2.03984 73.2425 2.07947 72.5242 2.23796C68.93 3.03043 66.3851 6.19776 66.3762 9.87636C66.3672 13.7109 66.3762 17.5442 66.3762 21.3787C66.3762 21.61 66.3762 21.8414 66.3762 22.1188H64.8679V0.615954Z" fill="white" fill-opacity="0.7"/>
</svg>
