<svg width="117" height="30" viewBox="0 0 117 30" fill="none" xmlns="http://www.w3.org/2000/svg">
<path d="M33.2061 0C33.5247 1.46422 32.9709 2.68568 32.2653 3.97541C33.6385 3.61883 34.9434 3.29261 36.2407 2.95121C39.594 2.07116 42.9473 1.18352 46.3006 0.29588C46.4751 0.25036 46.6572 0.1138 46.8014 0.288293C46.9152 0.424853 46.8014 0.599346 46.7558 0.743492C46.3538 1.79804 45.9365 2.83741 45.5496 3.89954C45.4206 4.24094 45.1778 4.30922 44.8744 4.38509C40.6865 5.48515 36.4987 6.60798 32.3033 7.67769C31.7874 7.80667 31.4308 8.28463 31.4687 8.80811C31.537 9.70333 31.4839 10.6061 31.4839 11.5848C35.5807 10.5075 39.632 9.4378 43.8198 8.33773C43.2812 9.72609 42.788 11.0158 42.2873 12.298C42.1659 12.609 41.8245 12.5711 41.5742 12.6394C38.4105 13.4891 35.2393 14.3312 32.0681 15.143C31.6963 15.234 31.4536 15.583 31.4763 15.9623C31.5218 16.7437 31.5218 17.5328 31.4763 18.3142C31.4384 18.8832 31.6053 18.9666 32.1288 18.8301C34.7462 18.1169 37.3636 17.4341 39.9885 16.7437C40.163 16.6982 40.3375 16.6603 40.641 16.592C40.1099 17.9576 39.6168 19.2322 39.1313 20.4991C39.0402 20.7343 38.8354 20.7571 38.6305 20.8102C34.9662 21.7737 31.3094 22.7448 27.6451 23.7083C25.9001 24.1711 24.4207 25.1877 22.9034 26.0905C21.3861 26.9933 19.8384 27.9872 18.359 29.0265C16.4851 30.3542 14.6491 30.2101 12.6387 29.2769C11.2958 28.6472 10.8861 27.5927 10.651 26.2119C11.3793 26.5305 11.9862 26.925 12.6918 27.0768C13.4884 27.2513 13.678 27.1602 13.6856 26.3636C13.6856 25.8781 13.9511 25.9084 14.2546 25.9388C14.816 25.9919 15.2333 25.916 15.0891 25.1877C15.0285 24.8539 15.2333 24.8311 15.4988 24.8235C17.3879 24.7477 18.2528 23.109 17.79 21.6068C17.1679 19.5812 15.1271 17.6238 12.8663 18.0562C12.6614 18.0942 12.4414 18.1625 12.4793 17.8059C12.6235 16.4858 12.6387 15.1354 13.5187 14.0126C13.7994 13.6484 14.1484 13.436 14.5733 13.2918C17.2817 12.3814 18.7383 10.3179 19.6032 7.73839C19.6108 7.70804 19.5804 7.65494 19.5653 7.60183C19.277 7.51838 19.1177 7.76115 18.928 7.89012C16.9858 9.20261 15.0512 10.5379 13.1014 11.8428C12.8207 12.0324 12.6159 12.3207 12.5324 12.6545C12.0621 14.4829 11.5765 16.3037 11.0986 18.1245C11.0151 18.4583 10.9468 18.7846 10.5372 18.8984C10.3323 18.9591 10.2792 19.1184 10.3247 19.3384C10.4006 19.6646 10.4461 20.006 10.522 20.4536L8.90602 19.8998C8.84533 20.4081 8.94395 20.8709 9.02741 21.3944C8.54945 21.364 8.1777 21.144 7.79078 20.9999C7.53283 20.9012 7.25213 20.7798 7.03212 21.0302C6.77417 21.3261 7.12316 21.4854 7.23696 21.6599C7.53284 22.1227 7.87423 22.5475 8.26874 23.071C7.33558 23.0255 6.53898 22.7372 5.78032 22.3579C5.46168 22.1986 5.18856 22.1075 4.81681 22.282C4.17195 22.5855 3.51191 22.4641 2.8898 22.1379C2.66979 22.0241 2.44978 21.8875 2.25252 21.7358C1.5849 21.2275 0.780712 20.6812 0.644152 19.9226C0.545525 19.3839 1.34212 18.8149 1.76698 18.2763C2.50288 17.3431 3.27672 16.4251 4.09608 15.4161C2.7229 15.6057 1.56214 16.3265 0.0675659 16.4479C2.06286 14.9533 3.89883 13.5498 5.78032 12.2069C6.63002 11.6 7.25213 10.8337 7.79837 9.96887C8.83015 8.33015 9.9378 6.75212 11.4324 5.47756C13.4049 3.80091 15.8099 3.20157 18.2604 2.71602C19.937 2.38221 21.6213 2.5036 23.2751 2.74637C25.9001 3.13329 28.2899 2.45808 30.6039 1.35042C31.4687 0.933159 32.3184 0.470373 33.2213 0.00758665L33.2061 0ZM25.4449 16.9334C26.4312 16.6831 27.3112 16.4555 28.1913 16.2354C28.2975 16.2051 28.381 16.1292 28.4265 16.0306C28.7072 15.3023 28.9955 14.5664 29.3217 13.7091C28.3354 13.9746 27.5009 14.1946 26.674 14.4071C26.5071 14.4526 26.3705 14.5133 26.3098 14.6802C26.0367 15.3933 25.7636 16.1141 25.4525 16.9334H25.4449ZM21.5833 17.7604C22.5468 17.5176 23.4041 17.2976 24.269 17.0776C24.4131 17.0396 24.5345 16.9334 24.5876 16.7969C24.8608 16.0913 25.1339 15.3857 25.4525 14.5436C24.4511 14.8092 23.6014 15.0368 22.7365 15.2644C22.5848 15.3023 22.4937 15.3857 22.4406 15.5223C22.1675 16.2354 21.8868 16.9562 21.5757 17.7679L21.5833 17.7604ZM26.4843 11.3117C25.4753 11.5696 24.618 11.7897 23.7683 12.0021C23.6317 12.04 23.5179 12.1386 23.4648 12.2676C23.1917 12.9808 22.9186 13.6939 22.5999 14.5209C23.571 14.2705 24.4207 14.0429 25.278 13.8229C25.4373 13.785 25.5663 13.6636 25.6194 13.5118C25.8698 12.829 26.1429 12.1614 26.4767 11.3117H26.4843ZM19.6487 7.46527C19.6487 7.46527 19.6184 7.43492 19.6032 7.41975C19.588 7.4501 19.5653 7.47286 19.5577 7.5032C19.5577 7.51079 19.5804 7.53355 19.5956 7.54872C19.6108 7.51837 19.626 7.49562 19.6411 7.46527H19.6487Z" fill="white" fill-opacity="0.7"/>
<path d="M106.69 19.1942C107.206 21.6219 106.341 22.942 105.454 23.8145C104.498 24.6794 103.451 25.4532 102.366 26.3257L103.876 29.3755C104.247 29.1631 104.566 28.9962 104.877 28.8065C107.472 27.2133 109.111 24.778 110.324 22.1075C112.494 17.3127 114.482 12.4345 116.538 7.59422C116.568 7.52594 116.538 7.44248 116.538 7.26799C115.468 7.26799 114.429 7.29075 113.389 7.2604C112.851 7.24523 112.608 7.44248 112.449 8.03424C111.91 10.0599 111.204 12.04 110.499 14.0201C110.059 15.2719 109.68 16.5389 109.285 17.8059C109.202 17.7983 109.118 17.7907 109.035 17.7831V7.23006H102.108C102.26 4.69611 103.375 3.70985 105.871 3.89952L106.698 1.02417C103.678 -0.0758921 100.568 1.13039 99.1492 3.9678C98.7244 4.8175 98.4437 5.76583 98.254 6.69899C97.4271 10.773 96.6532 14.8622 95.8642 18.9514C95.629 20.1577 95.4166 21.364 95.1814 22.6234H99.1113C99.9155 18.4507 100.72 14.2932 101.531 10.113H105.158L106.683 19.1942H106.69Z" fill="white" fill-opacity="0.7"/>
<path d="M84.6892 3.26226C85.2657 3.23192 87.1321 3.32295 87.8376 3.16364L87.1169 7.28319H95.6974C95.356 9.08881 95.0222 10.8034 94.696 12.518C94.1042 15.6057 93.4973 18.6859 92.9359 21.7737C92.8145 22.4489 92.5793 22.7372 91.8434 22.6841C90.8875 22.6082 89.924 22.6689 88.8011 22.6689C89.6053 18.4432 90.3943 14.3236 91.1985 10.1358H86.5327C86.1306 12.2524 85.7209 14.3843 85.3264 16.5161C85.2278 17.0472 85.1368 17.5783 85.0988 18.1093C85.0002 19.3915 85.3492 19.7556 86.6162 19.7556C86.8058 19.7556 87.0031 19.7556 87.3141 19.7556C87.17 20.6509 87.0562 21.4854 86.8817 22.3048C86.8362 22.5248 86.6086 22.7069 86.3886 22.722C85.4023 22.7827 84.3933 22.9269 83.4374 22.7751C81.6621 22.502 80.691 20.9619 81.0096 18.9211C81.3966 16.4023 81.9049 13.9063 82.3525 11.4027C82.4283 10.9931 82.4966 10.5834 82.5725 10.113L80.8351 10.022C80.9945 9.14951 81.4421 7.75356 81.6621 7.05559H83.9381L84.6967 3.26226H84.6892Z" fill="white" fill-opacity="0.7"/>
<path d="M70.0166 7.57147C69.1593 12.6925 67.7027 17.5176 67.6799 22.6082H64.3038C64.3418 21.8268 64.3721 21.0757 64.4176 20.097C64.1445 20.4233 64.0155 20.6129 63.8486 20.7647C62.7258 21.8116 61.8154 23.2607 59.7443 22.6234C58.3711 22.1985 57.4152 20.9543 57.2103 19.528C57.0965 18.7466 57.0813 17.9348 57.1041 17.1534C57.1344 16.1672 57.271 15.1809 57.5593 14.2326C59.1753 8.95983 62.6575 6.48658 67.3916 7.08592C68.2489 7.19214 69.0986 7.39698 70.0166 7.56388V7.57147ZM65.8363 10.1282C64.3873 9.74884 63.5679 10.2723 62.9079 11.1296C61.7699 12.609 61.2768 14.3464 61.0188 16.152C60.905 16.9486 60.9202 17.7907 61.034 18.5873C61.0871 18.9515 61.474 19.4522 61.8078 19.5432C62.1492 19.6343 62.6879 19.3991 62.9913 19.1411C63.3403 18.8452 63.6438 18.39 63.7728 17.95C64.4859 15.3781 65.1384 12.7911 65.8363 10.1282Z" fill="white" fill-opacity="0.7"/>
<path d="M60.0553 0.834486L59.1525 3.87673C56.5958 3.82363 55.306 4.99197 55.4502 7.29832H58.2648L57.7413 10.0826C57.013 10.0826 56.3075 10.113 55.6095 10.075C55.0329 10.0371 54.775 10.1737 54.6612 10.8109C53.9859 14.5132 53.2349 18.2003 52.5521 21.9026C52.4383 22.5171 52.2031 22.6992 51.6113 22.6765C50.6023 22.6309 49.5857 22.6613 48.4629 22.6613C48.7967 20.8708 49.1077 19.1866 49.4339 17.5024C50.1699 13.7242 50.8527 9.93089 51.6644 6.1679C52.2183 3.59603 53.4852 1.45659 56.2923 0.880005C57.4455 0.644819 58.6821 0.842072 60.0553 0.842072V0.834486Z" fill="white" fill-opacity="0.7"/>
<path d="M70.449 19.4142C71.2456 19.5887 71.9208 19.8011 72.6112 19.877C73.4078 19.9605 74.1588 19.7632 74.5458 18.959C74.9327 18.1548 74.7202 17.4113 74.174 16.7513C73.9616 16.4934 73.7036 16.2657 73.4457 16.0457C71.5111 14.407 70.8814 12.6242 71.5414 10.5758C72.1863 8.56529 74.0071 7.23763 76.3893 7.04796C77.7473 6.93416 79.0371 7.15418 79.8868 7.67007L79.075 10.3633C78.5819 10.2495 78.1342 10.113 77.6715 10.0447C76.5562 9.87779 75.6534 10.2571 75.3272 10.993C74.9782 11.782 75.2437 12.609 76.1693 13.3601C77.7246 14.6194 79.0219 16.0609 78.5894 18.7921C78.3618 20.2412 77.4059 21.5157 76.0631 22.1151C74.1361 22.9724 72.1939 23.0634 70.2441 22.3882C69.7055 22.2061 69.5158 21.9557 69.751 21.3943C70.0241 20.7495 70.2214 20.0667 70.4565 19.4066L70.449 19.4142Z" fill="white" fill-opacity="0.7"/>
<path d="M96.5547 2.90567C96.5698 4.33955 95.576 5.4472 94.2787 5.4472C93.1862 5.4472 92.4731 4.6506 92.4731 3.42915C92.4731 2.04079 93.4669 0.917969 94.7035 0.917969C95.8036 0.917969 96.5471 1.71457 96.5547 2.89809V2.90567Z" fill="white" fill-opacity="0.7"/>
</svg>
