<svg width="56" height="30" viewBox="0 0 56 30" fill="none" xmlns="http://www.w3.org/2000/svg">
<g clip-path="url(#clip0_9741_32425)">
<path d="M0.0488892 0H2.72497V19.1737C2.82272 19.2296 2.91782 19.2829 3.01556 19.3388C5.8026 16.1889 8.58699 13.039 11.374 9.88906C11.4559 9.9503 11.5378 10.0115 11.6224 10.0728C11.448 10.3177 11.2948 10.5813 11.0966 10.8077C9.56179 12.5624 8.06657 14.3543 6.46303 16.0398C5.66259 16.8812 5.55692 17.4723 6.27283 18.4787C8.61341 21.7778 10.8325 25.162 13.0964 28.5169C13.3368 28.8737 13.5535 29.2438 13.7965 29.6272C11.3186 30.1172 11.2578 30.0905 9.91843 28.1095C7.92656 25.162 5.93468 22.2171 3.65751 18.8515C3.28238 19.8287 2.83064 20.4784 2.80951 21.1441C2.72761 23.9611 2.77516 26.7809 2.77516 29.7071H0.0488892V0Z" fill="white" fill-opacity="0.7"/>
<path d="M34.9674 18.4095C34.9753 23.6496 33.665 27.0977 29.6971 29.0441C25.6949 31.0092 19.9729 29.8482 17.664 26.4188C15.6431 23.4126 15.6589 20.0124 16.4911 16.6122C17.3681 13.0203 19.6797 10.7518 23.2566 10.0222C27.0237 9.25536 30.5425 9.81718 33.1657 12.9937C34.7006 14.8522 34.9806 17.1421 34.97 18.4069L34.9674 18.4095ZM18.7022 20.2547C18.8422 21.4769 18.9135 22.7124 19.1328 23.9185C19.6902 26.9912 21.727 29.0734 24.5035 29.5074C27.0422 29.9042 29.5281 28.6128 30.878 25.817C32.7959 21.8497 32.8884 17.6693 31.1369 13.6594C29.3194 9.50032 24.1257 8.8959 21.1511 12.336C19.1936 14.6019 18.7867 17.3711 18.6996 20.2547H18.7022Z" fill="white" fill-opacity="0.7"/>
<path d="M49.6423 26.9167C47.7455 29.6885 45.1249 30.1704 42.2216 29.827C39.144 29.4648 37.0253 25.9714 38.1771 23.1091C38.7213 21.7538 39.955 21.1174 41.2653 20.9098C43.6376 20.537 46.0389 20.3613 48.4297 20.119C48.8497 20.0764 49.2777 20.1136 49.8087 20.1136C49.8087 17.6107 49.9329 15.2357 49.7638 12.8819C49.6528 11.3216 48.3505 10.1846 46.6228 10.2565C44.5569 10.3417 42.5096 10.8423 40.4569 11.1938C40.058 11.2603 39.6829 11.46 39.2629 11.4387C42.8741 9.72932 46.6228 9.04502 50.4956 10.4402C52.0568 11.0047 52.6591 12.3653 52.6486 14.0322C52.6248 17.8664 52.6406 21.7006 52.6459 25.5374C52.6459 26.0646 52.6539 26.5972 52.712 27.1217C52.8969 28.8365 53.3011 29.2305 54.9812 29.4089C55.1688 29.4302 55.3537 29.4941 55.7632 29.5926C52.6723 30.229 50.6382 29.3424 49.6449 26.9167H49.6423ZM49.8457 20.3373C47.6028 20.5902 45.5555 20.6888 43.5663 21.0855C41.6774 21.4609 40.943 22.526 40.7845 24.4191C40.5758 26.9273 41.7672 29.0814 43.598 29.5048C46.0389 30.0719 49.5472 27.7315 49.8166 25.2312C49.9751 23.7615 49.8457 22.2597 49.8457 20.3373Z" fill="white" fill-opacity="0.7"/>
</g>
<defs>
<clipPath id="clip0_9741_32425">
<rect width="55.7143" height="30" fill="white" transform="translate(0.0488892)"/>
</clipPath>
</defs>
</svg>
