<svg width="117" height="31" viewBox="0 0 117 31" fill="none" xmlns="http://www.w3.org/2000/svg">
<path d="M33.2059 0.109863C33.5245 1.57409 32.9707 2.79554 32.2651 4.08527C33.6383 3.7287 34.9432 3.40247 36.2406 3.06107C39.5939 2.18102 42.9472 1.29338 46.3005 0.405743C46.475 0.360223 46.657 0.223663 46.8012 0.398156C46.915 0.534716 46.8012 0.709209 46.7557 0.853355C46.3536 1.9079 45.9363 2.94727 45.5494 4.0094C45.4204 4.3508 45.1776 4.41908 44.8742 4.49495C40.6863 5.59502 36.4985 6.71784 32.3031 7.78756C31.7872 7.91653 31.4306 8.39449 31.4685 8.91797C31.5368 9.8132 31.4837 10.716 31.4837 11.6947C35.5805 10.6174 39.6318 9.54766 43.8196 8.4476C43.281 9.83595 42.7878 11.1257 42.2871 12.4078C42.1657 12.7189 41.8243 12.681 41.574 12.7492C38.4103 13.5989 35.2391 14.4411 32.0679 15.2528C31.6961 15.3439 31.4534 15.6929 31.4761 16.0722C31.5217 16.8536 31.5217 17.6426 31.4761 18.424C31.4382 18.993 31.6051 19.0765 32.1286 18.9399C34.746 18.2268 37.3634 17.544 39.9884 16.8536C40.1629 16.8081 40.3373 16.7702 40.6408 16.7019C40.1098 18.0675 39.6166 19.342 39.1311 20.609C39.04 20.8442 38.8352 20.867 38.6304 20.9201C34.966 21.8836 31.3092 22.8547 27.6449 23.8182C25.8999 24.2809 24.4205 25.2976 22.9032 26.2004C21.3859 27.1032 19.8382 28.097 18.3588 29.1364C16.4849 30.4641 14.6489 30.3199 12.6385 29.3868C11.2956 28.7571 10.886 27.7025 10.6508 26.3218C11.3791 26.6404 11.986 27.0349 12.6916 27.1866C13.4882 27.3611 13.6778 27.2701 13.6854 26.4735C13.6854 25.9879 13.951 26.0183 14.2544 26.0486C14.8158 26.1017 15.2331 26.0259 15.089 25.2976C15.0283 24.9637 15.2331 24.941 15.4986 24.9334C17.3877 24.8575 18.2526 23.2188 17.7898 21.7167C17.1677 19.691 15.1269 17.7337 12.8661 18.1661C12.6612 18.204 12.4412 18.2723 12.4792 17.9157C12.6233 16.5957 12.6385 15.2452 13.5185 14.1224C13.7992 13.7583 14.1482 13.5458 14.5731 13.4017C17.2815 12.4913 18.7381 10.4277 19.603 7.84825C19.6106 7.8179 19.5803 7.7648 19.5651 7.71169C19.2768 7.62824 19.1175 7.87101 18.9278 7.99998C16.9856 9.31248 15.051 10.6477 13.1013 11.9526C12.8206 12.1423 12.6157 12.4306 12.5323 12.7644C12.0619 14.5928 11.5763 16.4136 11.0984 18.2344C11.0149 18.5682 10.9466 18.8944 10.537 19.0082C10.3321 19.0689 10.279 19.2282 10.3245 19.4482C10.4004 19.7745 10.4459 20.1159 10.5218 20.5635L8.90584 20.0097C8.84514 20.518 8.94377 20.9808 9.02722 21.5042C8.54926 21.4739 8.17752 21.2539 7.7906 21.1097C7.53265 21.0111 7.25195 20.8897 7.03193 21.1401C6.77399 21.4359 7.12297 21.5953 7.23677 21.7698C7.53265 22.2325 7.87405 22.6574 8.26856 23.1809C7.3354 23.1354 6.5388 22.8471 5.78013 22.4677C5.46149 22.3084 5.18838 22.2174 4.81663 22.3919C4.17176 22.6953 3.51172 22.5739 2.88962 22.2477C2.66961 22.1339 2.44959 21.9974 2.25234 21.8456C1.58471 21.3373 0.780528 20.7911 0.643969 20.0324C0.545342 19.4938 1.34194 18.9248 1.76679 18.3861C2.5027 17.453 3.27654 16.535 4.0959 15.5259C2.72271 15.7156 1.56195 16.4363 0.0673828 16.5577C2.06267 15.0632 3.89864 13.6596 5.78013 12.3168C6.62984 11.7099 7.25195 10.9436 7.79818 10.0787C8.82997 8.44001 9.93762 6.86199 11.4322 5.58743C13.4047 3.91078 15.8097 3.31143 18.2602 2.82589C19.9368 2.49207 21.6211 2.61346 23.275 2.85623C25.8999 3.24315 28.2897 2.56794 30.6037 1.46029C31.4685 1.04302 32.3183 0.580236 33.2211 0.11745L33.2059 0.109863ZM25.4447 17.0433C26.431 16.7929 27.3111 16.5653 28.1911 16.3453C28.2973 16.315 28.3808 16.2391 28.4263 16.1405C28.707 15.4121 28.9953 14.6762 29.3215 13.8189C28.3353 14.0845 27.5007 14.3045 26.6738 14.5169C26.5069 14.5624 26.3703 14.6231 26.3096 14.79C26.0365 15.5032 25.7634 16.2239 25.4523 17.0433H25.4447ZM21.5831 17.8702C22.5466 17.6274 23.4039 17.4074 24.2688 17.1874C24.413 17.1495 24.5343 17.0433 24.5875 16.9067C24.8606 16.2012 25.1337 15.4956 25.4523 14.6535C24.4509 14.919 23.6012 15.1466 22.7363 15.3742C22.5846 15.4121 22.4935 15.4956 22.4404 15.6322C22.1673 16.3453 21.8866 17.066 21.5756 17.8778L21.5831 17.8702ZM26.4841 11.4216C25.4751 11.6795 24.6178 11.8995 23.7681 12.112C23.6315 12.1499 23.5177 12.2485 23.4646 12.3775C23.1915 13.0906 22.9184 13.8038 22.5997 14.6307C23.5708 14.3804 24.4205 14.1528 25.2778 13.9327C25.4372 13.8948 25.5661 13.7734 25.6192 13.6217C25.8696 12.9389 26.1427 12.2713 26.4765 11.4216H26.4841ZM19.6485 7.57513C19.6485 7.57513 19.6182 7.54479 19.603 7.52961C19.5878 7.55996 19.5651 7.58272 19.5575 7.61307C19.5575 7.62065 19.5803 7.64341 19.5954 7.65859C19.6106 7.62824 19.6258 7.60548 19.641 7.57513H19.6485Z" fill="white" fill-opacity="0.7"/>
<path d="M106.691 19.3042C107.206 21.7319 106.342 23.052 105.454 23.9245C104.498 24.7894 103.451 25.5632 102.366 26.4357L103.876 29.4855C104.248 29.2731 104.566 29.1062 104.877 28.9165C107.472 27.3233 109.111 24.888 110.325 22.2175C112.494 17.4227 114.482 12.5445 116.538 7.7042C116.568 7.63592 116.538 7.55247 116.538 7.37798C115.468 7.37798 114.429 7.40074 113.39 7.37039C112.851 7.35522 112.608 7.55247 112.449 8.14423C111.91 10.1699 111.205 12.15 110.499 14.1301C110.059 15.3819 109.68 16.6489 109.285 17.9158C109.202 17.9083 109.118 17.9007 109.035 17.8931V7.34004H102.108C102.26 4.8061 103.375 3.81983 105.871 4.0095L106.698 1.13416C103.679 0.0340933 100.568 1.24037 99.1495 4.07778C98.7246 4.92749 98.4439 5.87582 98.2542 6.80898C97.4273 10.883 96.6535 14.9722 95.8644 19.0614C95.6293 20.2677 95.4168 21.474 95.1816 22.7334H99.1115C99.9157 18.5607 100.72 14.4032 101.532 10.223H105.158L106.683 19.3042H106.691Z" fill="white" fill-opacity="0.7"/>
<path d="M84.689 3.37231C85.2656 3.34196 87.1319 3.433 87.8374 3.27368L87.1167 7.39324H95.6972C95.3558 9.19886 95.022 10.9134 94.6958 12.628C94.104 15.7158 93.4971 18.796 92.9357 21.8837C92.8143 22.559 92.5791 22.8472 91.8432 22.7941C90.8873 22.7183 89.9238 22.779 88.8009 22.779C89.6051 18.5532 90.3941 14.4337 91.1983 10.2458H86.5325C86.1304 12.3625 85.7208 14.4943 85.3263 16.6262C85.2276 17.1573 85.1366 17.6883 85.0987 18.2194C85 19.5015 85.349 19.8657 86.616 19.8657C86.8057 19.8657 87.0029 19.8657 87.314 19.8657C87.1698 20.7609 87.056 21.5955 86.8815 22.4148C86.836 22.6348 86.6084 22.8169 86.3884 22.8321C85.4021 22.8928 84.3931 23.0369 83.4372 22.8852C81.6619 22.6121 80.6908 21.072 81.0095 19.0312C81.3964 16.5124 81.9047 14.0164 82.3523 11.5128C82.4282 11.1031 82.4964 10.6934 82.5723 10.2231L80.835 10.132C80.9943 9.25955 81.4419 7.86361 81.6619 7.16564H83.9379L84.6966 3.37231H84.689Z" fill="white" fill-opacity="0.7"/>
<path d="M70.0167 7.68139C69.1594 12.8024 67.7028 17.6275 67.68 22.7181H64.304C64.3419 21.9367 64.3722 21.1856 64.4178 20.207C64.1446 20.5332 64.0157 20.7229 63.8488 20.8746C62.7259 21.9215 61.8155 23.3706 59.7444 22.7333C58.3712 22.3085 57.4153 21.0643 57.2104 19.638C57.0966 18.8565 57.0815 18.0448 57.1042 17.2633C57.1346 16.2771 57.2711 15.2908 57.5594 14.3425C59.1754 9.06975 62.6577 6.5965 67.3917 7.19585C68.249 7.30206 69.0987 7.5069 70.0167 7.67381V7.68139ZM65.8365 10.2381C64.3874 9.85876 63.5681 10.3822 62.908 11.2395C61.77 12.7189 61.2769 14.4563 61.0189 16.2619C60.9051 17.0585 60.9203 17.9006 61.0341 18.6972C61.0872 19.0614 61.4741 19.5621 61.808 19.6531C62.1494 19.7442 62.688 19.509 62.9915 19.251C63.3405 18.9552 63.6439 18.5 63.7729 18.0599C64.486 15.4881 65.1385 12.901 65.8365 10.2381Z" fill="white" fill-opacity="0.7"/>
<path d="M60.0553 0.944593L59.1525 3.98684C56.5958 3.93374 55.306 5.10208 55.4502 7.40842H58.2648L57.7414 10.1927C57.013 10.1927 56.3075 10.2231 55.6095 10.1851C55.0329 10.1472 54.775 10.2838 54.6612 10.921C53.986 14.6233 53.2349 18.3104 52.5521 22.0127C52.4383 22.6273 52.2031 22.8093 51.6114 22.7866C50.6023 22.7411 49.5857 22.7714 48.4629 22.7714C48.7967 20.9809 49.1078 19.2967 49.434 17.6125C50.1699 13.8343 50.8527 10.041 51.6645 6.27801C52.2183 3.70614 53.4853 1.5667 56.2923 0.990113C57.4455 0.754927 58.6821 0.95218 60.0553 0.95218V0.944593Z" fill="white" fill-opacity="0.7"/>
<path d="M70.4491 19.5242C71.2457 19.6987 71.921 19.9111 72.6113 19.987C73.4079 20.0704 74.159 19.8732 74.5459 19.069C74.9329 18.2648 74.7204 17.5213 74.1742 16.8613C73.9618 16.6033 73.7038 16.3757 73.4459 16.1557C71.5113 14.517 70.8816 12.7341 71.5416 10.6857C72.1865 8.67528 74.0073 7.34762 76.3895 7.15795C77.7475 7.04415 79.0372 7.26416 79.8869 7.78005L79.0752 10.4733C78.582 10.3595 78.1344 10.223 77.6716 10.1547C76.5564 9.98777 75.6536 10.3671 75.3274 11.103C74.9784 11.892 75.2439 12.719 76.1695 13.47C77.7247 14.7294 79.0221 16.1709 78.5896 18.9021C78.362 20.3511 77.4061 21.6257 76.0633 22.225C74.1363 23.0823 72.1941 23.1734 70.2443 22.4982C69.7056 22.3161 69.516 22.0657 69.7512 21.5043C70.0243 20.8594 70.2215 20.1766 70.4567 19.5166L70.4491 19.5242Z" fill="white" fill-opacity="0.7"/>
<path d="M96.5548 3.01554C96.5699 4.44941 95.5761 5.55707 94.2788 5.55707C93.1863 5.55707 92.4731 4.76047 92.4731 3.53901C92.4731 2.15066 93.467 1.02783 94.7036 1.02783C95.8037 1.02783 96.5472 1.82443 96.5548 3.00795V3.01554Z" fill="white" fill-opacity="0.7"/>
</svg>
