<svg width="150" height="30" viewBox="0 0 150 30" fill="none" xmlns="http://www.w3.org/2000/svg">
<path d="M56.5741 0C56.5823 0.164054 56.598 0.327526 56.598 0.49158C56.5997 1.79936 56.5991 3.10655 56.5991 4.41433V4.79014H35.826V12.4873H52.5106V17.2722H35.8242V25.1689H56.5724V29.9741H56.1896C47.8996 29.9741 39.6097 29.9741 31.3197 29.9741C29.1091 29.9741 26.8984 29.9724 24.6883 29.9805C24.4743 29.9811 24.3358 29.9224 24.1991 29.7519C19.3071 23.6668 14.41 17.5857 9.51395 11.5041C8.22014 9.89675 6.92632 8.28937 5.63193 6.68257C5.57841 6.61625 5.52023 6.55401 5.40912 6.42777V29.9334C5.29393 29.9421 5.21888 29.9526 5.14384 29.9526C3.583 29.9538 2.02158 29.9538 0.460742 29.9526C0.393841 29.9526 0.327521 29.9369 0.26062 29.9288C0.26062 19.9517 0.26062 9.97587 0.26062 0C2.41659 0 4.56732 0 6.71806 0C6.77274 0.0785364 6.82277 0.161145 6.88327 0.235609C14.4071 9.57388 21.932 18.9116 29.457 28.2487C29.838 28.721 30.2202 29.1928 30.6018 29.6646C30.6234 29.6594 30.6443 29.6542 30.6658 29.6489C30.6658 29.5372 30.6658 29.4261 30.6658 29.3144C30.6647 19.6876 30.6635 10.0602 30.6635 0.433404C30.6635 0.28913 30.6781 0.144274 30.6862 0C39.3153 0 47.945 0 56.5741 0Z" fill="white" fill-opacity="0.7"/>
<path d="M69.5472 0C71.2453 2.11292 72.9434 4.22642 74.6421 6.33876C75.8382 7.82513 77.036 9.30976 78.2542 10.8217C78.3374 10.724 78.4125 10.6408 78.4829 10.5535C81.2357 7.13692 83.9891 3.72088 86.7373 0.300765C86.8764 0.127403 87.016 0.0517758 87.2446 0.0523576C89.29 0.0599203 91.3355 0.0535211 93.3809 0.0523576C93.4548 0.0523576 93.5287 0.0587569 93.659 0.0645744C89.6362 5.06472 85.6442 10.0259 81.6313 15.0138C85.639 19.9878 89.6443 24.9594 93.6817 29.9701C93.5374 29.9765 93.4455 29.984 93.3536 29.984C91.3081 29.9846 89.2627 29.9811 87.2167 29.9893C87.0096 29.9898 86.8833 29.9206 86.7571 29.7635C78.8581 19.9453 70.955 10.1306 63.0542 0.314727C62.9774 0.21932 62.9222 0.105879 62.8564 0.0011635C65.0863 0.0011635 67.3167 0.0011635 69.5466 0.0011635L69.5472 0Z" fill="white" fill-opacity="0.7"/>
<path d="M125.221 0C125.217 1.47183 125.213 2.94308 125.209 4.41491C125.209 4.52893 125.209 4.64354 125.209 4.80003H114.925V29.9538H109.776V4.8105H99.2746V0C107.923 0 116.572 0 125.221 0Z" fill="white" fill-opacity="0.7"/>
<path d="M149.189 26.6151C149.142 26.8013 149.102 26.9904 149.046 27.1736C148.723 28.2283 148.014 28.9485 147.012 29.3447C145.212 30.0562 143.389 30.0533 141.61 29.2819C140.333 28.7281 139.646 27.6943 139.484 26.315C139.471 26.212 139.482 26.1061 139.482 25.9851H141.704C141.717 26.0421 141.732 26.0956 141.74 26.1503C141.843 26.8286 142.219 27.3214 142.835 27.5878C143.872 28.0375 144.929 28.0445 145.957 27.5459C146.492 27.2859 146.835 26.8566 146.882 26.2341C146.929 25.6238 146.633 25.1957 146.116 24.9484C145.648 24.7244 145.146 24.565 144.649 24.4091C143.737 24.1235 142.815 23.8675 141.901 23.5836C141.71 23.5243 141.539 23.401 141.36 23.3044C139.211 22.1391 139.445 19.3665 140.975 18.1268C142.049 17.2565 143.296 16.9738 144.642 17.0029C145.765 17.0273 146.811 17.2914 147.709 17.9971C148.532 18.644 148.971 19.4928 149.016 20.5702H146.819C146.805 20.5225 146.786 20.4695 146.775 20.4148C146.649 19.8057 146.282 19.3846 145.717 19.1594C144.813 18.7993 143.899 18.7958 143.01 19.2129C142.46 19.4712 142.132 19.9087 142.124 20.5358C142.117 21.1403 142.443 21.5737 142.971 21.7773C143.706 22.0618 144.471 22.2793 145.235 22.483C146.166 22.7308 147.084 22.9932 147.874 23.5743C148.558 24.0781 149.011 24.7262 149.144 25.5785C149.15 25.6151 149.174 25.6483 149.189 25.6832V26.6128V26.6151Z" fill="white" fill-opacity="0.7"/>
<path d="M76.463 21.4212C75.8586 22.1734 75.2588 22.9198 74.6584 23.6656C73.0068 25.7169 71.3558 27.7687 69.6978 29.8147C69.6245 29.9049 69.4826 29.9922 69.3721 29.9928C67.2399 30.0026 65.1078 29.9997 62.9757 29.9992C62.9472 29.9992 62.9187 29.9916 62.8227 29.9788C66.2521 25.7221 69.6589 21.494 73.0912 17.2344C74.2221 18.6387 75.3362 20.0233 76.463 21.4224V21.4212Z" fill="white" fill-opacity="0.7"/>
<path d="M129.423 26.3464H131.66C131.669 26.39 131.682 26.4336 131.689 26.4784C131.834 27.4569 132.436 27.9654 133.443 27.9572C134.387 27.9497 134.986 27.4063 135.104 26.4371C135.134 26.1881 135.144 25.9351 135.144 25.6837C135.147 22.9722 135.145 20.2601 135.145 17.5485V17.1838H137.428V17.5101C137.428 20.2705 137.437 23.0304 137.419 25.7908C137.416 26.2789 137.365 26.7862 137.225 27.2504C136.784 28.7065 135.72 29.4832 134.263 29.7426C133.293 29.9154 132.33 29.8433 131.408 29.4611C130.108 28.9223 129.333 27.7175 129.422 26.3469L129.423 26.3464Z" fill="white" fill-opacity="0.7"/>
<path d="M126.345 27.1206C127.089 27.1148 127.721 27.721 127.72 28.4395C127.719 29.1649 127.102 29.7758 126.362 29.7839C125.618 29.792 125.001 29.1934 124.995 28.4581C124.989 27.7216 125.59 27.127 126.345 27.1206Z" fill="white" fill-opacity="0.7"/>
</svg>
