<svg width="360" height="279" viewBox="0 0 360 279" fill="none" xmlns="http://www.w3.org/2000/svg">
<mask id="mask0_9741_31803" style="mask-type:alpha" maskUnits="userSpaceOnUse" x="0" y="0" width="360" height="279">
<rect x="360" y="278.077" width="360" height="278.077" transform="rotate(-180 360 278.077)" fill="white" fill-opacity="0.05"/>
</mask>
<g mask="url(#mask0_9741_31803)">
<path d="M349.32 453.026L349.32 -164.786" stroke="white" stroke-width="0.5" stroke-miterlimit="10"/>
<path d="M337.239 453.026L337.239 -164.786" stroke="white" stroke-width="0.5" stroke-miterlimit="10"/>
<path d="M325.158 453.026L325.158 -164.786" stroke="white" stroke-width="0.5" stroke-miterlimit="10"/>
<path d="M313.077 453.026L313.077 -164.786" stroke="white" stroke-width="0.5" stroke-miterlimit="10"/>
<path d="M300.997 453.026L300.997 -164.786" stroke="white" stroke-width="0.5" stroke-miterlimit="10"/>
<path d="M288.916 453.026L288.916 -164.786" stroke="white" stroke-width="0.5" stroke-miterlimit="10"/>
<path d="M276.835 453.026L276.835 -164.786" stroke="white" stroke-width="0.5" stroke-miterlimit="10"/>
<path d="M264.754 453.026L264.754 -164.786" stroke="white" stroke-width="0.5" stroke-miterlimit="10"/>
<path d="M252.674 453.026L252.674 -164.786" stroke="white" stroke-width="0.5" stroke-miterlimit="10"/>
<path d="M240.593 453.026L240.593 -164.786" stroke="white" stroke-width="0.5" stroke-miterlimit="10"/>
<path d="M228.512 453.026L228.512 -164.786" stroke="white" stroke-width="0.5" stroke-miterlimit="10"/>
<path d="M216.431 453.026L216.431 -164.786" stroke="white" stroke-width="0.5" stroke-miterlimit="10"/>
<path d="M204.351 453.026L204.351 -164.786" stroke="white" stroke-width="0.5" stroke-miterlimit="10"/>
<path d="M192.27 453.026L192.27 -164.786" stroke="white" stroke-width="0.5" stroke-miterlimit="10"/>
<path d="M180.189 453.026L180.189 -164.786" stroke="white" stroke-width="0.5" stroke-miterlimit="10"/>
<path d="M168.109 453.026L168.109 -164.786" stroke="white" stroke-width="0.5" stroke-miterlimit="10"/>
<path d="M156.028 453.026L156.028 -164.786" stroke="white" stroke-width="0.5" stroke-miterlimit="10"/>
<path d="M143.947 453.026L143.947 -164.786" stroke="white" stroke-width="0.5" stroke-miterlimit="10"/>
<path d="M131.867 453.026L131.867 -164.786" stroke="white" stroke-width="0.5" stroke-miterlimit="10"/>
<path d="M119.786 453.026L119.786 -164.786" stroke="white" stroke-width="0.5" stroke-miterlimit="10"/>
<path d="M107.705 453.026L107.705 -164.786" stroke="white" stroke-width="0.5" stroke-miterlimit="10"/>
<path d="M95.6243 453.026L95.6244 -164.786" stroke="white" stroke-width="0.5" stroke-miterlimit="10"/>
<path d="M83.5436 453.026L83.5436 -164.786" stroke="white" stroke-width="0.5" stroke-miterlimit="10"/>
<path d="M71.463 453.026L71.4631 -164.786" stroke="white" stroke-width="0.5" stroke-miterlimit="10"/>
<path d="M59.3822 453.026L59.3823 -164.786" stroke="white" stroke-width="0.5" stroke-miterlimit="10"/>
<path d="M47.3015 453.026L47.3015 -164.786" stroke="white" stroke-width="0.5" stroke-miterlimit="10"/>
<path d="M35.2207 453.026L35.2208 -164.786" stroke="white" stroke-width="0.5" stroke-miterlimit="10"/>
<path d="M23.1398 453.026L23.1399 -164.786" stroke="white" stroke-width="0.5" stroke-miterlimit="10"/>
<path d="M11.059 453.026L11.059 -164.786" stroke="white" stroke-width="0.5" stroke-miterlimit="10"/>
<path d="M578.077 57.9983L64.4734 -202.818" stroke="white" stroke-width="0.5" stroke-miterlimit="10"/>
<path d="M572.036 67.2046L58.4329 -193.612" stroke="white" stroke-width="0.5" stroke-miterlimit="10"/>
<path d="M565.996 76.4036L52.3926 -184.413" stroke="white" stroke-width="0.5" stroke-miterlimit="10"/>
<path d="M559.956 85.61L46.3521 -175.207" stroke="white" stroke-width="0.5" stroke-miterlimit="10"/>
<path d="M553.915 94.8088L40.3116 -166.008" stroke="white" stroke-width="0.5" stroke-miterlimit="10"/>
<path d="M547.875 104.008L34.2714 -156.801" stroke="white" stroke-width="0.5" stroke-miterlimit="10"/>
<path d="M541.834 113.214L28.2309 -147.602" stroke="white" stroke-width="0.5" stroke-miterlimit="10"/>
<path d="M535.794 122.413L22.1906 -138.403" stroke="white" stroke-width="0.5" stroke-miterlimit="10"/>
<path d="M529.754 131.62L16.1503 -129.197" stroke="white" stroke-width="0.5" stroke-miterlimit="10"/>
<path d="M523.713 140.818L10.1101 -119.998" stroke="white" stroke-width="0.5" stroke-miterlimit="10"/>
<path d="M517.673 150.025L4.06959 -110.792" stroke="white" stroke-width="0.5" stroke-miterlimit="10"/>
<path d="M511.633 159.224L-1.97088 -101.593" stroke="white" stroke-width="0.5" stroke-miterlimit="10"/>
<path d="M505.592 168.423L-8.01116 -92.3861" stroke="white" stroke-width="0.5" stroke-miterlimit="10"/>
<path d="M499.552 177.629L-14.0514 -83.1874" stroke="white" stroke-width="0.5" stroke-miterlimit="10"/>
<path d="M493.512 186.828L-20.0917 -73.9887" stroke="white" stroke-width="0.5" stroke-miterlimit="10"/>
<path d="M487.471 196.034L-26.1322 -64.7823" stroke="white" stroke-width="0.5" stroke-miterlimit="10"/>
<path d="M481.431 205.233L-32.1727 -55.5833" stroke="white" stroke-width="0.5" stroke-miterlimit="10"/>
<path d="M475.39 214.44L-38.2129 -46.3768" stroke="white" stroke-width="0.5" stroke-miterlimit="10"/>
<path d="M469.35 223.639L-44.2534 -37.1778" stroke="white" stroke-width="0.5" stroke-miterlimit="10"/>
<path d="M463.31 232.837L-50.2937 -27.9715" stroke="white" stroke-width="0.5" stroke-miterlimit="10"/>
<path d="M457.269 242.044L-56.3342 -18.7727" stroke="white" stroke-width="0.5" stroke-miterlimit="10"/>
<path d="M451.229 251.243L-62.3744 -9.56643" stroke="white" stroke-width="0.5" stroke-miterlimit="10"/>
<path d="M445.189 260.449L-68.4147 -0.367257" stroke="white" stroke-width="0.5" stroke-miterlimit="10"/>
<path d="M439.148 269.648L-74.4552 8.83124" stroke="white" stroke-width="0.5" stroke-miterlimit="10"/>
<path d="M433.108 278.855L-80.4955 18.0381" stroke="white" stroke-width="0.5" stroke-miterlimit="10"/>
<path d="M427.068 288.053L-86.5359 27.2367" stroke="white" stroke-width="0.5" stroke-miterlimit="10"/>
<path d="M421.027 297.26L-92.5762 36.4433" stroke="white" stroke-width="0.5" stroke-miterlimit="10"/>
<path d="M414.987 306.458L-98.6165 45.6418" stroke="white" stroke-width="0.5" stroke-miterlimit="10"/>
<path d="M408.946 315.658L-104.657 54.8485" stroke="white" stroke-width="0.5" stroke-miterlimit="10"/>
<path d="M402.906 324.864L-110.697 64.0472" stroke="white" stroke-width="0.5" stroke-miterlimit="10"/>
<path d="M396.866 334.063L-116.738 73.2463" stroke="white" stroke-width="0.5" stroke-miterlimit="10"/>
<path d="M390.825 343.269L-122.778 82.4527" stroke="white" stroke-width="0.5" stroke-miterlimit="10"/>
<path d="M384.785 352.468L-128.818 91.6514" stroke="white" stroke-width="0.5" stroke-miterlimit="10"/>
<path d="M378.745 361.674L-134.859 100.858" stroke="white" stroke-width="0.5" stroke-miterlimit="10"/>
<path d="M372.704 370.873L-140.899 110.057" stroke="white" stroke-width="0.5" stroke-miterlimit="10"/>
<path d="M366.664 380.072L-146.94 119.263" stroke="white" stroke-width="0.5" stroke-miterlimit="10"/>
<path d="M360.624 389.279L-152.98 128.462" stroke="white" stroke-width="0.5" stroke-miterlimit="10"/>
<path d="M354.583 398.478L-159.02 137.661" stroke="white" stroke-width="0.5" stroke-miterlimit="10"/>
<path d="M348.543 407.684L-165.061 146.867" stroke="white" stroke-width="0.5" stroke-miterlimit="10"/>
<path d="M342.503 416.883L-171.101 156.066" stroke="white" stroke-width="0.5" stroke-miterlimit="10"/>
<path d="M336.462 426.089L-177.141 165.273" stroke="white" stroke-width="0.5" stroke-miterlimit="10"/>
<path d="M330.422 435.288L-183.182 174.472" stroke="white" stroke-width="0.5" stroke-miterlimit="10"/>
<path d="M324.381 444.495L-189.222 183.678" stroke="white" stroke-width="0.5" stroke-miterlimit="10"/>
<path d="M318.341 453.694L-195.262 192.877" stroke="white" stroke-width="0.5" stroke-miterlimit="10"/>
<path d="M312.301 462.893L-201.303 202.084" stroke="white" stroke-width="0.5" stroke-miterlimit="10"/>
<path d="M306.26 472.099L-207.343 211.282" stroke="white" stroke-width="0.5" stroke-miterlimit="10"/>
<path d="M300.22 481.298L-213.383 220.481" stroke="white" stroke-width="0.5" stroke-miterlimit="10"/>
<path d="M294.18 490.504L-219.424 229.688" stroke="white" stroke-width="0.5" stroke-miterlimit="10"/>
<path d="M-219.424 57.9982L294.18 -202.818" stroke="white" stroke-width="0.5" stroke-miterlimit="10"/>
<path d="M-213.383 67.2046L300.22 -193.612" stroke="white" stroke-width="0.5" stroke-miterlimit="10"/>
<path d="M-207.343 76.4036L306.26 -184.413" stroke="white" stroke-width="0.5" stroke-miterlimit="10"/>
<path d="M-201.303 85.61L312.301 -175.207" stroke="white" stroke-width="0.5" stroke-miterlimit="10"/>
<path d="M-195.262 94.8088L318.341 -166.008" stroke="white" stroke-width="0.5" stroke-miterlimit="10"/>
<path d="M-189.222 104.008L324.381 -156.801" stroke="white" stroke-width="0.5" stroke-miterlimit="10"/>
<path d="M-183.182 113.214L330.422 -147.602" stroke="white" stroke-width="0.5" stroke-miterlimit="10"/>
<path d="M-177.141 122.413L336.462 -138.403" stroke="white" stroke-width="0.5" stroke-miterlimit="10"/>
<path d="M-171.101 131.62L342.503 -129.197" stroke="white" stroke-width="0.5" stroke-miterlimit="10"/>
<path d="M-165.061 140.818L348.543 -119.998" stroke="white" stroke-width="0.5" stroke-miterlimit="10"/>
<path d="M-159.02 150.025L354.583 -110.792" stroke="white" stroke-width="0.5" stroke-miterlimit="10"/>
<path d="M-152.98 159.224L360.624 -101.593" stroke="white" stroke-width="0.5" stroke-miterlimit="10"/>
<path d="M-146.94 168.423L366.664 -92.3862" stroke="white" stroke-width="0.5" stroke-miterlimit="10"/>
<path d="M-140.899 177.629L372.704 -83.1874" stroke="white" stroke-width="0.5" stroke-miterlimit="10"/>
<path d="M-134.859 186.828L378.745 -73.9886" stroke="white" stroke-width="0.5" stroke-miterlimit="10"/>
<path d="M-128.818 196.034L384.785 -64.7822" stroke="white" stroke-width="0.5" stroke-miterlimit="10"/>
<path d="M-122.778 205.233L390.825 -55.5832" stroke="white" stroke-width="0.5" stroke-miterlimit="10"/>
<path d="M-116.738 214.44L396.866 -46.3768" stroke="white" stroke-width="0.5" stroke-miterlimit="10"/>
<path d="M-110.697 223.639L402.906 -37.1778" stroke="white" stroke-width="0.5" stroke-miterlimit="10"/>
<path d="M-104.657 232.837L408.946 -27.9716" stroke="white" stroke-width="0.5" stroke-miterlimit="10"/>
<path d="M-98.6165 242.044L414.987 -18.7727" stroke="white" stroke-width="0.5" stroke-miterlimit="10"/>
<path d="M-92.5762 251.242L421.027 -9.56639" stroke="white" stroke-width="0.5" stroke-miterlimit="10"/>
<path d="M-86.536 260.449L427.068 -0.367213" stroke="white" stroke-width="0.5" stroke-miterlimit="10"/>
<path d="M-80.4955 269.648L433.108 8.83129" stroke="white" stroke-width="0.5" stroke-miterlimit="10"/>
<path d="M-74.4552 278.855L439.148 18.0381" stroke="white" stroke-width="0.5" stroke-miterlimit="10"/>
<path d="M-68.4147 288.053L445.189 27.2366" stroke="white" stroke-width="0.5" stroke-miterlimit="10"/>
<path d="M-62.3745 297.26L451.229 36.4433" stroke="white" stroke-width="0.5" stroke-miterlimit="10"/>
<path d="M-56.334 306.458L457.269 45.6418" stroke="white" stroke-width="0.5" stroke-miterlimit="10"/>
<path d="M-50.2937 315.657L463.31 54.8484" stroke="white" stroke-width="0.5" stroke-miterlimit="10"/>
<path d="M-44.2534 324.864L469.35 64.0472" stroke="white" stroke-width="0.5" stroke-miterlimit="10"/>
<path d="M-38.2129 334.063L475.391 73.2462" stroke="white" stroke-width="0.5" stroke-miterlimit="10"/>
<path d="M-32.1727 343.269L481.431 82.4526" stroke="white" stroke-width="0.5" stroke-miterlimit="10"/>
<path d="M-26.1322 352.468L487.471 91.6514" stroke="white" stroke-width="0.5" stroke-miterlimit="10"/>
<path d="M-20.0917 361.674L493.512 100.858" stroke="white" stroke-width="0.5" stroke-miterlimit="10"/>
<path d="M-14.0514 370.873L499.552 110.057" stroke="white" stroke-width="0.5" stroke-miterlimit="10"/>
<path d="M-8.01116 380.072L505.592 119.263" stroke="white" stroke-width="0.5" stroke-miterlimit="10"/>
<path d="M-1.97089 389.279L511.633 128.462" stroke="white" stroke-width="0.5" stroke-miterlimit="10"/>
<path d="M4.06957 398.478L517.673 137.661" stroke="white" stroke-width="0.5" stroke-miterlimit="10"/>
<path d="M10.11 407.684L523.714 146.867" stroke="white" stroke-width="0.5" stroke-miterlimit="10"/>
<path d="M16.1503 416.883L529.754 156.066" stroke="white" stroke-width="0.5" stroke-miterlimit="10"/>
<path d="M22.1906 426.089L535.794 165.273" stroke="white" stroke-width="0.5" stroke-miterlimit="10"/>
<path d="M28.2309 435.288L541.834 174.472" stroke="white" stroke-width="0.5" stroke-miterlimit="10"/>
<path d="M34.2714 444.495L547.875 183.678" stroke="white" stroke-width="0.5" stroke-miterlimit="10"/>
<path d="M40.3116 453.693L553.915 192.877" stroke="white" stroke-width="0.5" stroke-miterlimit="10"/>
<path d="M46.3521 462.893L559.956 202.084" stroke="white" stroke-width="0.5" stroke-miterlimit="10"/>
<path d="M52.3926 472.099L565.996 211.282" stroke="white" stroke-width="0.5" stroke-miterlimit="10"/>
<path d="M58.4329 481.298L572.036 220.481" stroke="white" stroke-width="0.5" stroke-miterlimit="10"/>
<path d="M64.4733 490.504L578.077 229.688" stroke="white" stroke-width="0.5" stroke-miterlimit="10"/>
<rect x="-3.05176e-05" y="278" width="278" height="58" transform="rotate(-90 -3.05176e-05 278)" fill="url(#paint0_linear_9741_31803)"/>
<rect x="371" width="275" height="80" transform="rotate(90 371 0)" fill="url(#paint1_linear_9741_31803)"/>
</g>
<path d="M56.2589 164.17C57.9389 177.97 67.7989 191.5 85.9089 202.14C126.519 226.01 193.089 226.28 234.229 202.52C252.889 191.75 262.989 177.96 264.599 163.91V153.66H56.2589V164.16V164.17Z" fill="black" stroke="white" stroke-width="0.75" stroke-linecap="round" stroke-linejoin="round"/>
<path d="M234.229 195.02C275.369 171.27 274.909 132.83 233.559 109.39C192.619 86.17 126.969 86.44 86.5589 109.77C46.1489 133.1 45.6989 171.01 85.9089 194.64C126.519 218.51 193.089 218.78 234.229 195.02Z" fill="black" stroke="white" stroke-width="0.75" stroke-linecap="round" stroke-linejoin="round"/>
<path opacity="0.3" d="M237.149 131.6C236.079 132.29 234.259 132.39 233.089 131.81C231.899 131.21 231.889 130.15 233.069 129.47C234.249 128.79 236.009 128.78 237.099 129.37C238.189 129.96 238.189 130.93 237.149 131.6Z" fill="black" stroke="white" stroke-width="0.75" stroke-linecap="round" stroke-linejoin="round"/>
<path opacity="0.3" d="M246.009 137.82C244.939 138.51 243.119 138.61 241.949 138.03C240.759 137.43 240.749 136.37 241.929 135.69C243.109 135.01 244.869 135 245.959 135.59C247.049 136.18 247.049 137.15 246.009 137.82Z" fill="black" stroke="white" stroke-width="0.75" stroke-linecap="round" stroke-linejoin="round"/>
<path opacity="0.3" d="M250.499 153.2C249.429 153.89 247.609 153.99 246.439 153.41C245.249 152.81 245.239 151.75 246.419 151.07C247.559 150.41 249.359 150.38 250.449 150.97C251.539 151.56 251.539 152.53 250.499 153.2Z" fill="black" stroke="white" stroke-width="0.75" stroke-linecap="round" stroke-linejoin="round"/>
<path opacity="0.3" d="M255.119 145.75C254.049 146.44 252.229 146.54 251.059 145.96C249.869 145.36 249.859 144.3 251.039 143.62C252.219 142.94 253.979 142.93 255.069 143.52C256.159 144.11 256.159 145.08 255.119 145.75Z" fill="black" stroke="white" stroke-width="0.75" stroke-linecap="round" stroke-linejoin="round"/>
<g opacity="0.3">
<path d="M235.619 194.67L225.909 189.85C224.449 189.13 224.049 187.24 225.069 185.98C225.809 185.08 227.069 184.79 228.119 185.29L240.299 191.08" fill="black"/>
<path d="M235.619 194.67L225.909 189.85C224.449 189.13 224.049 187.24 225.069 185.98C225.809 185.08 227.069 184.79 228.119 185.29L240.299 191.08" stroke="white" stroke-width="0.75" stroke-linecap="round" stroke-linejoin="round"/>
</g>
<g opacity="0.3">
<path d="M242.759 189.46L230.839 183.54C229.379 182.82 228.979 180.93 229.999 179.67C230.739 178.77 231.999 178.48 233.049 178.98L247.159 185.69" fill="black"/>
<path d="M242.759 189.46L230.839 183.54C229.379 182.82 228.979 180.93 229.999 179.67C230.739 178.77 231.999 178.48 233.049 178.98L247.159 185.69" stroke="white" stroke-width="0.75" stroke-linecap="round" stroke-linejoin="round"/>
</g>
<g opacity="0.3">
<path d="M250.159 183.18L236.459 176.38C234.999 175.66 234.599 173.77 235.619 172.51C236.359 171.61 237.619 171.32 238.669 171.82L254.029 179.12" fill="black"/>
<path d="M250.159 183.18L236.459 176.38C234.999 175.66 234.599 173.77 235.619 172.51C236.359 171.61 237.619 171.32 238.669 171.82L254.029 179.12" stroke="white" stroke-width="0.75" stroke-linecap="round" stroke-linejoin="round"/>
</g>
<g opacity="0.3">
<path d="M255.879 176.98L241.709 169.94C240.249 169.22 239.849 167.33 240.869 166.07C241.609 165.17 242.869 164.88 243.919 165.38L258.879 172.49" fill="black"/>
<path d="M255.879 176.98L241.709 169.94C240.249 169.22 239.849 167.33 240.869 166.07C241.609 165.17 242.869 164.88 243.919 165.38L258.879 172.49" stroke="white" stroke-width="0.75" stroke-linecap="round" stroke-linejoin="round"/>
</g>
<g opacity="0.3">
<path d="M260.509 169.28L247.679 162.91C246.219 162.19 245.819 160.3 246.839 159.04C247.579 158.14 248.839 157.85 249.889 158.35L262.729 164.45" fill="black"/>
<path d="M260.509 169.28L247.679 162.91C246.219 162.19 245.819 160.3 246.839 159.04C247.579 158.14 248.839 157.85 249.889 158.35L262.729 164.45" stroke="white" stroke-width="0.75" stroke-linecap="round" stroke-linejoin="round"/>
</g>
<g opacity="0.3">
<path d="M243.919 158.1L242.239 155.6L235.049 132.73" fill="black"/>
<path d="M243.919 158.1L242.239 155.6L235.049 132.73" stroke="white" stroke-width="0.75" stroke-linecap="round" stroke-linejoin="round"/>
</g>
<path opacity="0.3" d="M243.919 138.41L247.169 150.02" stroke="white" stroke-width="0.75" stroke-linecap="round" stroke-linejoin="round"/>
<g opacity="0.3">
<path d="M253.869 146.23L257.099 155.6L261.149 158.1H264.009" fill="black"/>
<path d="M253.869 146.23L257.099 155.6L261.149 158.1H264.009" stroke="white" stroke-width="0.75" stroke-linecap="round" stroke-linejoin="round"/>
</g>
<path opacity="0.3" d="M137.559 202.92C136.489 203.61 134.669 203.71 133.499 203.13C132.309 202.53 132.299 201.47 133.479 200.79C134.659 200.11 136.419 200.1 137.509 200.69C138.599 201.28 138.599 202.25 137.559 202.92Z" fill="black" stroke="white" stroke-width="0.75" stroke-linecap="round" stroke-linejoin="round"/>
<path opacity="0.3" d="M226.599 195.94C225.529 196.63 223.709 196.73 222.539 196.15C221.369 195.57 221.339 194.49 222.519 193.81C223.699 193.13 225.459 193.12 226.549 193.71C227.609 194.29 227.639 195.27 226.599 195.94Z" fill="black" stroke="white" stroke-width="0.75" stroke-linecap="round" stroke-linejoin="round"/>
<path opacity="0.3" d="M215.319 195.94C214.249 196.63 212.429 196.73 211.259 196.15C210.089 195.57 210.059 194.49 211.239 193.81C212.419 193.13 214.179 193.12 215.269 193.71C216.329 194.29 216.359 195.27 215.319 195.94Z" fill="black" stroke="white" stroke-width="0.75" stroke-linecap="round" stroke-linejoin="round"/>
<g opacity="0.3">
<path d="M138.589 201.98L181.139 206.9L221.819 196.22" fill="black"/>
<path d="M138.589 201.98L181.139 206.9L221.819 196.22" stroke="white" stroke-width="0.75" stroke-linecap="round" stroke-linejoin="round"/>
</g>
<g opacity="0.3">
<path d="M178.109 198.78L179.119 200.89L182.169 202.6L210.619 195.67" fill="black"/>
<path d="M178.109 198.78L179.119 200.89L182.169 202.6L210.619 195.67" stroke="white" stroke-width="0.75" stroke-linecap="round" stroke-linejoin="round"/>
</g>
<g opacity="0.3">
<path d="M114.939 206.9L116.079 196.76L118.649 193.83L130.609 194.91L133.209 197.6" fill="black"/>
<path d="M114.939 206.9L116.079 196.76L118.649 193.83L130.609 194.91L133.209 197.6" stroke="white" stroke-width="0.75" stroke-linecap="round" stroke-linejoin="round"/>
</g>
<g opacity="0.3">
<path d="M58.1889 140.08L61.9189 139.44L67.5689 135.04L75.8489 123.56" fill="black"/>
<path d="M58.1889 140.08L61.9189 139.44L67.5689 135.04L75.8489 123.56" stroke="white" stroke-width="0.75" stroke-linecap="round" stroke-linejoin="round"/>
</g>
<g opacity="0.3">
<path d="M72.8589 137.52L86.1189 120.67L84.6589 117.98L76.2389 116.48" fill="black"/>
<path d="M72.8589 137.52L86.1189 120.67L84.6589 117.98L76.2389 116.48" stroke="white" stroke-width="0.75" stroke-linecap="round" stroke-linejoin="round"/>
</g>
<path opacity="0.3" d="M79.0089 123.06C77.9389 123.75 76.1189 123.85 74.9489 123.27C73.7789 122.69 73.7489 121.61 74.9289 120.93C76.0689 120.27 77.8689 120.24 78.9589 120.83C80.0489 121.42 80.0489 122.39 79.0089 123.06Z" fill="black" stroke="white" stroke-width="0.75" stroke-linecap="round" stroke-linejoin="round"/>
<path opacity="0.3" d="M105.849 187.63C104.779 188.32 102.959 188.42 101.789 187.84C100.599 187.24 100.589 186.18 101.769 185.5C102.909 184.84 104.709 184.81 105.799 185.4C106.889 185.99 106.889 186.96 105.849 187.63Z" fill="black" stroke="white" stroke-width="0.75" stroke-linecap="round" stroke-linejoin="round"/>
<path opacity="0.3" d="M116.149 188.47C115.079 189.16 113.259 189.26 112.089 188.68C110.899 188.08 110.889 187.02 112.069 186.34C113.209 185.68 115.009 185.65 116.099 186.24C117.189 186.83 117.189 187.8 116.149 188.47Z" fill="black" stroke="white" stroke-width="0.75" stroke-linecap="round" stroke-linejoin="round"/>
<path opacity="0.3" d="M74.4089 140.17C73.3389 140.86 71.5189 140.96 70.3489 140.38C69.1789 139.8 69.1489 138.72 70.3289 138.04C71.5089 137.36 73.2689 137.35 74.3589 137.94C75.4489 138.53 75.4489 139.5 74.4089 140.17Z" fill="black" stroke="white" stroke-width="0.75" stroke-linecap="round" stroke-linejoin="round"/>
<g opacity="0.3">
<path d="M67.0289 179.4L77.1889 174.33L83.1389 174.4L101.679 185.11" fill="black"/>
<path d="M67.0289 179.4L77.1889 174.33L83.1389 174.4L101.679 185.11" stroke="white" stroke-width="0.75" stroke-linecap="round" stroke-linejoin="round"/>
</g>
<g opacity="0.3">
<path d="M71.5689 184.09L79.7389 180.14H85.0189L103.259 190.63L109.249 190.27L112.089 188.68" fill="black"/>
<path d="M71.5689 184.09L79.7389 180.14H85.0189L103.259 190.63L109.249 190.27L112.089 188.68" stroke="white" stroke-width="0.75" stroke-linecap="round" stroke-linejoin="round"/>
</g>
<g opacity="0.3">
<path d="M73.9389 143.24L82.0389 166.02L77.8589 171.14L63.5789 174.99" fill="black"/>
<path d="M73.9389 143.24L82.0389 166.02L77.8589 171.14L63.5789 174.99" stroke="white" stroke-width="0.75" stroke-linecap="round" stroke-linejoin="round"/>
</g>
<path opacity="0.3" d="M62.1589 172.83L74.6389 169.82C77.0989 169.23 78.4789 166.62 77.5889 164.25L70.0689 144.2C69.3289 142.24 67.2589 141.11 65.2189 141.57L57.1789 143.36L56.0089 150.6L57.0889 161.06L62.1589 172.83Z" fill="white"/>
<path opacity="0.3" d="M128.299 209.78L129.469 200.37C129.659 198.83 128.559 197.42 127.009 197.24L120.849 196.54C119.489 196.39 118.209 197.24 117.839 198.57L116.909 206.94L128.299 209.77V209.78Z" fill="white"/>
<path opacity="0.3" d="M252.929 125.75L247.469 127.09C247.279 127.14 247.079 127.16 246.879 127.16H241.679C241.209 127.16 240.749 127.03 240.349 126.78L224.169 116.64C222.559 115.63 222.619 113.27 224.279 112.34L231.039 107.99L239.639 113.12L247.519 119.13L253.889 125.49L252.949 125.75H252.929Z" fill="white"/>
<g opacity="0.3">
<path d="M230.509 124.49L220.789 118.88L220.149 111.4L227.979 106.44" fill="black"/>
<path d="M230.509 124.49L220.789 118.88L220.149 111.4L227.979 106.44" stroke="white" stroke-width="0.75" stroke-linecap="round" stroke-linejoin="round"/>
</g>
<path d="M81.1189 152.46C82.3889 162.92 89.8689 173.19 103.599 181.26C134.389 199.36 184.869 199.56 216.069 181.55C230.219 173.38 237.879 162.92 239.099 152.27V144.5H81.1189V152.46Z" fill="black" stroke="white" stroke-width="0.75" stroke-linecap="round" stroke-linejoin="round"/>
<path d="M216.079 175.85C247.279 157.84 246.929 128.69 215.579 110.91C184.539 93.3 134.749 93.5 104.109 111.2C73.4589 128.89 73.1189 157.64 103.609 175.56C134.399 193.66 184.879 193.86 216.079 175.85Z" fill="black" stroke="white" stroke-width="0.75" stroke-linecap="round" stroke-linejoin="round"/>
<path d="M87.0289 143.94C88.2089 153.61 95.1189 163.09 107.809 170.55C136.269 187.28 182.919 187.47 211.749 170.82C224.829 163.27 231.899 153.61 233.029 143.76V136.58H87.0289V143.94Z" fill="black" stroke="white" stroke-width="0.75" stroke-linecap="round" stroke-linejoin="round"/>
<path d="M211.749 165.57C240.579 148.92 240.259 121.99 211.279 105.56C182.589 89.29 136.579 89.47 108.259 105.82C79.9389 122.17 79.6189 148.74 107.799 165.3C136.259 182.03 182.909 182.22 211.739 165.57H211.749Z" fill="black" stroke="white" stroke-width="0.75" stroke-linecap="round" stroke-linejoin="round"/>
<path d="M92.5889 135.95C93.6789 144.88 100.059 153.63 111.769 160.52C138.039 175.96 181.109 176.14 207.729 160.77C219.799 153.8 226.339 144.88 227.379 135.79V129.16H92.5889V135.95Z" fill="black" stroke="white" stroke-width="0.75" stroke-linecap="round" stroke-linejoin="round"/>
<path d="M207.739 155.91C234.359 140.54 234.059 115.68 207.309 100.51C180.819 85.49 138.349 85.66 112.199 100.75C86.0489 115.85 85.7589 140.37 111.779 155.66C138.049 171.1 181.119 171.28 207.739 155.91Z" fill="black" stroke="white" stroke-width="0.75" stroke-linecap="round" stroke-linejoin="round"/>
<path d="M129.059 106.35L127.439 109.19L122.499 110.25L119.089 108.39V49.15L120.789 46.22L125.819 45.23L129.059 47.11V106.35Z" fill="black" stroke="white" stroke-width="0.75" stroke-linecap="round" stroke-linejoin="round"/>
<path d="M119.089 49.51L122.499 51.36L127.439 50.31L129.059 47.46" fill="black"/>
<path d="M119.089 49.51L122.499 51.36L127.439 50.31L129.059 47.46" stroke="white" stroke-width="0.75" stroke-linecap="round" stroke-linejoin="round"/>
<path d="M122.499 51.36V110.25" stroke="white" stroke-width="0.75" stroke-linecap="round" stroke-linejoin="round"/>
<path d="M127.439 50.31V109.19" stroke="white" stroke-width="0.75" stroke-linecap="round" stroke-linejoin="round"/>
<path d="M156.349 97.87L154.719 100.71L149.779 101.77L146.379 99.92V40.68L148.079 37.75L153.099 36.76L156.349 38.63V97.87Z" fill="black" stroke="white" stroke-width="0.75" stroke-linecap="round" stroke-linejoin="round"/>
<path d="M146.379 41.03L149.779 42.89L154.719 41.83L156.349 38.99" fill="black"/>
<path d="M146.379 41.03L149.779 42.89L154.719 41.83L156.349 38.99" stroke="white" stroke-width="0.75" stroke-linecap="round" stroke-linejoin="round"/>
<path d="M149.779 42.89V101.77" stroke="white" stroke-width="0.75" stroke-linecap="round" stroke-linejoin="round"/>
<path d="M154.719 41.83V100.71" stroke="white" stroke-width="0.75" stroke-linecap="round" stroke-linejoin="round"/>
<path d="M183.089 97.11L181.469 99.96L176.529 101.01L173.119 99.16V39.92L174.819 36.99L179.849 36L183.089 37.87V97.11Z" fill="black" stroke="white" stroke-width="0.75" stroke-linecap="round" stroke-linejoin="round"/>
<path d="M173.119 40.27L176.529 42.13L181.469 41.07L183.089 38.23" fill="black"/>
<path d="M173.119 40.27L176.529 42.13L181.469 41.07L183.089 38.23" stroke="white" stroke-width="0.75" stroke-linecap="round" stroke-linejoin="round"/>
<path d="M176.529 42.13V101.01" stroke="white" stroke-width="0.75" stroke-linecap="round" stroke-linejoin="round"/>
<path d="M181.469 41.07V99.96" stroke="white" stroke-width="0.75" stroke-linecap="round" stroke-linejoin="round"/>
<path d="M204.329 106.35L202.699 109.19L197.759 110.25L194.359 108.39V49.15L196.059 46.22L201.089 45.23L204.329 47.11V106.35Z" fill="black" stroke="white" stroke-width="0.75" stroke-linecap="round" stroke-linejoin="round"/>
<path d="M194.359 49.51L197.759 51.36L202.699 50.31L204.329 47.46" fill="black"/>
<path d="M194.359 49.51L197.759 51.36L202.699 50.31L204.329 47.46" stroke="white" stroke-width="0.75" stroke-linecap="round" stroke-linejoin="round"/>
<path d="M197.759 51.36V110.25" stroke="white" stroke-width="0.75" stroke-linecap="round" stroke-linejoin="round"/>
<path d="M202.699 50.31V109.19" stroke="white" stroke-width="0.75" stroke-linecap="round" stroke-linejoin="round"/>
<path d="M129.499 151.51L127.869 154.35L122.929 155.41L119.529 153.55V94.31L121.229 91.38L126.249 90.4L129.499 92.27V151.51Z" fill="black" stroke="white" stroke-width="0.75" stroke-linecap="round" stroke-linejoin="round"/>
<path d="M119.529 94.67L122.929 96.52L127.869 95.47L129.499 92.62" fill="black"/>
<path d="M119.529 94.67L122.929 96.52L127.869 95.47L129.499 92.62" stroke="white" stroke-width="0.75" stroke-linecap="round" stroke-linejoin="round"/>
<path d="M122.929 96.52V155.41" stroke="white" stroke-width="0.75" stroke-linecap="round" stroke-linejoin="round"/>
<path d="M127.869 95.47V154.35" stroke="white" stroke-width="0.75" stroke-linecap="round" stroke-linejoin="round"/>
<path d="M166.309 159.17L164.689 162.01L159.749 163.07L156.349 161.21V101.98L158.039 99.05L163.069 98.06L166.309 99.93V159.17Z" fill="black" stroke="white" stroke-width="0.75" stroke-linecap="round" stroke-linejoin="round"/>
<path d="M156.349 102.33L159.749 104.19L164.689 103.13L166.309 100.29" fill="black"/>
<path d="M156.349 102.33L159.749 104.19L164.689 103.13L166.309 100.29" stroke="white" stroke-width="0.75" stroke-linecap="round" stroke-linejoin="round"/>
<path d="M159.749 104.19V163.07" stroke="white" stroke-width="0.75" stroke-linecap="round" stroke-linejoin="round"/>
<path d="M164.689 103.13V162.01" stroke="white" stroke-width="0.75" stroke-linecap="round" stroke-linejoin="round"/>
<path d="M198.189 150.63L196.559 153.48L191.619 154.53L188.219 152.68V93.44L189.919 90.51L194.939 89.52L198.189 91.4V150.63Z" fill="black" stroke="white" stroke-width="0.75" stroke-linecap="round" stroke-linejoin="round"/>
<path d="M188.219 93.79L191.619 95.65L196.559 94.59L198.189 91.75" fill="black"/>
<path d="M188.219 93.79L191.619 95.65L196.559 94.59L198.189 91.75" stroke="white" stroke-width="0.75" stroke-linecap="round" stroke-linejoin="round"/>
<path d="M191.619 95.65V154.53" stroke="white" stroke-width="0.75" stroke-linecap="round" stroke-linejoin="round"/>
<path d="M196.559 94.59V153.48" stroke="white" stroke-width="0.75" stroke-linecap="round" stroke-linejoin="round"/>
<path d="M220.699 133.78L219.069 136.62L214.129 137.68L210.729 135.83V76.59L212.429 73.66L217.449 72.67L220.699 74.54V133.78Z" fill="black" stroke="white" stroke-width="0.75" stroke-linecap="round" stroke-linejoin="round"/>
<path d="M210.729 76.94L214.129 78.8L219.069 77.74L220.699 74.9" fill="black"/>
<path d="M210.729 76.94L214.129 78.8L219.069 77.74L220.699 74.9" stroke="white" stroke-width="0.75" stroke-linecap="round" stroke-linejoin="round"/>
<path d="M214.129 78.8V137.68" stroke="white" stroke-width="0.75" stroke-linecap="round" stroke-linejoin="round"/>
<path d="M219.069 77.74V136.62" stroke="white" stroke-width="0.75" stroke-linecap="round" stroke-linejoin="round"/>
<path d="M108.399 131.65L106.779 134.5L101.839 135.55L98.439 133.7V74.46L100.139 71.53L105.159 70.54L108.399 72.42V131.65Z" fill="black" stroke="white" stroke-width="0.75" stroke-linecap="round" stroke-linejoin="round"/>
<path d="M98.439 74.82L101.839 76.67L106.779 75.61L108.399 72.77" fill="black"/>
<path d="M98.439 74.82L101.839 76.67L106.779 75.61L108.399 72.77" stroke="white" stroke-width="0.75" stroke-linecap="round" stroke-linejoin="round"/>
<path d="M101.839 76.67V135.55" stroke="white" stroke-width="0.75" stroke-linecap="round" stroke-linejoin="round"/>
<path d="M106.779 75.61V134.5" stroke="white" stroke-width="0.75" stroke-linecap="round" stroke-linejoin="round"/>
<defs>
<linearGradient id="paint0_linear_9741_31803" x1="139" y1="278" x2="139" y2="336" gradientUnits="userSpaceOnUse">
<stop stop-color="#00050B"/>
<stop offset="1" stop-color="#00050B" stop-opacity="0"/>
</linearGradient>
<linearGradient id="paint1_linear_9741_31803" x1="508.5" y1="0" x2="508.5" y2="80" gradientUnits="userSpaceOnUse">
<stop stop-color="#00050B"/>
<stop offset="1" stop-color="#00050B" stop-opacity="0"/>
</linearGradient>
</defs>
</svg>
