<svg width="24" height="25" viewBox="0 0 24 25" fill="none" xmlns="http://www.w3.org/2000/svg">
<path d="M8.25 15.5H9C9 15.0858 8.66421 14.75 8.25 14.75V15.5ZM20.25 9.5C20.25 9.91421 20.5858 10.25 21 10.25C21.4142 10.25 21.75 9.91421 21.75 9.5H20.25ZM8.25 18.5V19.25C8.66421 19.25 9 18.9142 9 18.5H8.25ZM6 21.5H5.25V22.25H6V21.5ZM10.5 22.25C10.9142 22.25 11.25 21.9142 11.25 21.5C11.25 21.0858 10.9142 20.75 10.5 20.75V22.25ZM4 4.25H20V2.75H4V4.25ZM3.75 14.5V4.5H2.25V14.5H3.75ZM8.25 14.75H4V16.25H8.25V14.75ZM20.25 4.5V9.5H21.75V4.5H20.25ZM7.5 15.5V18.5H9V15.5H7.5ZM6.75 21.5V19.5H5.25V21.5H6.75ZM10.5 20.75H6V22.25H10.5V20.75ZM7 19.25H8.25V17.75H7V19.25ZM6.75 19.5C6.75 19.3619 6.86193 19.25 7 19.25V17.75C6.0335 17.75 5.25 18.5335 5.25 19.5H6.75ZM2.25 14.5C2.25 15.4665 3.0335 16.25 4 16.25V14.75C3.86193 14.75 3.75 14.6381 3.75 14.5H2.25ZM20 4.25C20.1381 4.25 20.25 4.36193 20.25 4.5H21.75C21.75 3.5335 20.9665 2.75 20 2.75V4.25ZM4 2.75C3.0335 2.75 2.25 3.5335 2.25 4.5H3.75C3.75 4.36193 3.86193 4.25 4 4.25V2.75Z" fill="#2588E4"/>
<circle cx="15.75" cy="16.25" r="5.25" stroke="#2588E4" stroke-width="1.5"/>
<path d="M13.125 16.2501L15.3125 18.0001L18.375 14.5001" stroke="#2588E4" stroke-width="1.5" stroke-linecap="round" stroke-linejoin="round"/>
</svg>
