<svg width="24" height="24" viewBox="0 0 24 24" fill="none" xmlns="http://www.w3.org/2000/svg">
<path d="M9 6.75V3H21V11H17.25" stroke="#2588E4" stroke-width="1.5" stroke-linecap="round" stroke-linejoin="round"/>
<path d="M17 11V13" stroke="#2588E4" stroke-width="1.5" stroke-linecap="round"/>
<path d="M15.75 13H18C18.5523 13 19 13.4477 19 14V15H15.75" stroke="#2588E4" stroke-width="1.5" stroke-linecap="round" stroke-linejoin="round"/>
<path d="M13.2659 15.2444C13.495 14.1088 13.5235 12.9595 13.4865 11.8084C13.4865 11.2132 13.484 10.6177 13.4887 10.0225C13.4895 9.91926 13.462 9.8869 13.3471 9.88552C12.9947 9.88139 12.6427 9.87657 12.2899 9.85213C11.4441 9.82542 10.4118 9.62551 10.0014 9.5289C9.44589 9.40258 8.8998 9.23711 8.36555 9.02186C8.29346 8.99294 8.23234 8.99225 8.15879 9.02255C7.32481 9.3654 6.45094 9.57538 5.55548 9.71341C4.77346 9.83389 3.98596 9.88897 3.19406 9.89723C3.09965 9.89826 3.02573 9.89379 3.02499 10.0287C3.01621 11.5502 2.93021 13.0727 3.13844 14.5897C3.22407 15.2124 3.35946 15.8255 3.56293 16.4231C3.87361 17.336 4.44412 18.0977 5.14416 18.78C6.03303 19.6457 7.05035 20.3555 8.15001 20.9658C8.23783 21.0147 8.29492 21.0089 8.37799 20.9627C9.01217 20.6109 9.61817 20.2209 10.1938 19.7893C10.9293 19.2371 11.5964 18.6227 12.153 17.9057C12.7708 17.1098 13.0738 16.1969 13.2659 15.2444Z" stroke="#2588E4" stroke-width="1.5" stroke-miterlimit="10" stroke-linecap="round" stroke-linejoin="round"/>
</svg>
