<svg width="20" height="21" viewBox="0 0 20 21" fill="none" xmlns="http://www.w3.org/2000/svg">
<path d="M6.25 13.5H7C7 13.0858 6.66421 12.75 6.25 12.75V13.5ZM18.25 7.5C18.25 7.91421 18.5858 8.25 19 8.25C19.4142 8.25 19.75 7.91421 19.75 7.5H18.25ZM6.25 16.5V17.25C6.66421 17.25 7 16.9142 7 16.5H6.25ZM4 19.5H3.25V20.25H4V19.5ZM8.5 20.25C8.91421 20.25 9.25 19.9142 9.25 19.5C9.25 19.0858 8.91421 18.75 8.5 18.75V20.25ZM2 2.25H18V0.75H2V2.25ZM1.75 12.5V2.5H0.25V12.5H1.75ZM6.25 12.75H2V14.25H6.25V12.75ZM18.25 2.5V7.5H19.75V2.5H18.25ZM5.5 13.5V16.5H7V13.5H5.5ZM4.75 19.5V17.5H3.25V19.5H4.75ZM8.5 18.75H4V20.25H8.5V18.75ZM5 17.25H6.25V15.75H5V17.25ZM4.75 17.5C4.75 17.3619 4.86193 17.25 5 17.25V15.75C4.0335 15.75 3.25 16.5335 3.25 17.5H4.75ZM0.25 12.5C0.25 13.4665 1.0335 14.25 2 14.25V12.75C1.86193 12.75 1.75 12.6381 1.75 12.5H0.25ZM18 2.25C18.1381 2.25 18.25 2.36193 18.25 2.5H19.75C19.75 1.5335 18.9665 0.75 18 0.75V2.25ZM2 0.75C1.0335 0.75 0.25 1.5335 0.25 2.5H1.75C1.75 2.36193 1.86193 2.25 2 2.25V0.75Z" fill="#2588E4"/>
<circle cx="13.75" cy="14.25" r="5.25" stroke="#2588E4" stroke-width="1.5"/>
<path d="M11.125 14.2501L13.3125 16.0001L16.375 12.5001" stroke="#2588E4" stroke-width="1.5" stroke-linecap="round" stroke-linejoin="round"/>
</svg>
