<svg width="121" height="30" viewBox="0 0 121 30" fill="none" xmlns="http://www.w3.org/2000/svg">
<path d="M85.1747 29.7668H77.8755C77.8755 27.4092 77.8947 25.1284 77.8717 22.8515C77.8525 20.805 77.8525 18.7584 77.7104 16.7195C77.6182 15.3872 76.8849 14.4388 75.4335 14.3005C74.0205 14.1661 72.8186 14.6499 72.3195 16.0092C71.9355 17.0613 71.755 18.2401 71.7282 19.3651C71.6552 22.7978 71.7013 26.2343 71.7013 29.7476H64.1026C64.1026 26.2112 64.1102 22.7709 64.0987 19.3344C64.0987 18.4397 64.2792 17.4184 63.9144 16.685C63.4575 15.7673 62.6588 14.7306 61.7642 14.3927C60.4933 13.9127 59.1455 14.5348 58.6195 15.894C58.1933 16.996 57.9552 18.2362 57.9245 19.4188C57.8362 22.8016 57.8938 26.192 57.8938 29.713H50.4448V8.99794H57.8093C57.8592 9.7198 57.9092 10.4532 57.9898 11.6281C59.7599 9.20144 61.9677 8.23768 64.6593 8.31447C67.4469 8.3951 69.6163 9.4203 70.845 12.3116C72.8225 9.23984 75.5448 8.05721 78.9391 8.36055C82.4025 8.66772 84.9021 10.6336 85.1018 14.0778C85.4013 19.2269 85.1786 24.4027 85.1786 29.7668H85.1747Z" fill="white" fill-opacity="0.7"/>
<path d="M21.0712 17.3915C24.7842 19.1156 25.963 22.2449 25.1182 29.5173H17.6001C17.4811 27.5705 17.4005 25.62 17.2354 23.6771C17.0012 20.9471 15.9529 19.9181 13.2114 19.8681C9.75951 19.8029 6.30764 19.8451 2.8596 19.8413C2.1723 19.8413 1.48115 19.8413 0.68634 19.8413V13.7093C3.73889 13.7093 6.71848 13.7285 9.69808 13.7016C11.4835 13.6862 13.2805 13.7016 15.0544 13.5096C17.3083 13.2639 18.3374 12.0889 18.3719 10.0501C18.4065 7.99584 17.2584 6.49068 15.1159 6.23342C13.1576 5.99536 11.1648 6.05296 9.1874 6.02992C6.38827 6.00304 3.58914 6.02224 0.68634 6.02224V0.136003C1.2239 0.101446 1.76913 0.0361711 2.31821 0.0323314C6.53802 0.024652 10.7578 -0.0559814 14.97 0.0707282C16.7977 0.124484 18.6983 0.354865 20.4146 0.953855C25.3448 2.66635 27.7446 8.42972 25.2795 13.045C24.3311 14.8151 22.4036 16.0592 21.0712 17.3954V17.3915Z" fill="white" fill-opacity="0.7"/>
<path d="M108.566 13.7668C108.804 13.6247 108.931 13.5863 108.996 13.5019C110.163 11.9967 111.043 9.71208 112.552 9.17069C114.637 8.42195 117.194 8.98254 119.989 8.98254C117.39 12.4229 114.959 15.6406 112.471 18.9388C115.155 22.5481 117.801 26.1037 120.669 29.9587C117.873 29.9587 115.466 30.0163 113.066 29.9127C112.567 29.8896 111.987 29.3444 111.626 28.8951C110.478 27.4591 109.415 25.9539 108.167 24.2722C106.984 25.881 105.982 27.4207 104.788 28.7876C104.285 29.3636 103.39 29.8512 102.638 29.9127C100.668 30.0701 98.6827 29.9664 96.2369 29.9664C99.0629 26.2573 101.701 22.7977 104.389 19.2729C101.943 15.9055 99.5428 12.6072 96.8858 8.95183C99.7156 8.95183 102.223 8.90191 104.723 9.00174C105.149 9.0171 105.625 9.62377 105.947 10.0577C106.857 11.2748 107.698 12.5381 108.566 13.7821V13.7668Z" fill="white" fill-opacity="0.7"/>
<path d="M88.0084 9.08252H95.3768V29.8667H88.0084V9.08252Z" fill="white" fill-opacity="0.7"/>
<path d="M95.3921 6.89389H87.9662V0.473938H95.3921V6.89389Z" fill="white" fill-opacity="0.7"/>
<path d="M10.6004 29.5595H0.709381V25.0555C3.47779 25.0555 6.15405 24.9403 8.80343 25.14C9.44082 25.1899 10.2241 26.1882 10.5351 26.9216C10.8308 27.6166 10.6004 28.5381 10.6004 29.5595Z" fill="white" fill-opacity="0.7"/>
<path d="M40.0393 7.76928C33.4312 6.84392 27.7676 10.7374 26.8423 16.8425C25.8324 23.5005 29.388 28.5996 35.7158 29.5748C42.1818 30.5732 47.4076 27.6204 48.3176 22.2833C47.3039 22.1796 46.3056 22.0567 45.2996 21.9838C43.8252 21.8724 42.5043 21.6344 41.2488 23.1319C40.07 24.5372 38.0695 24.3106 36.3916 23.6733C34.9901 23.1434 34.1338 22.0759 34.153 20.2291H48.4712C49.3658 13.6632 45.8525 8.58714 40.0431 7.77312L40.0393 7.76928ZM34.2068 16.4086C34.8211 13.9435 35.8847 13.0258 37.9697 13.0757C39.878 13.1218 40.8456 14.0241 41.3947 16.4086H34.2068Z" fill="white" fill-opacity="0.7"/>
</svg>
