<svg width="1440" height="611" viewBox="0 0 1440 611" fill="none" xmlns="http://www.w3.org/2000/svg">
<g opacity="0.15" filter="url(#filter0_f_9653_22765)">
<path d="M1092.31 467.457C1160.37 467.457 1215.55 412.282 1215.55 344.22C1215.55 276.158 1160.37 220.982 1092.31 220.982C1024.25 220.982 969.073 276.158 969.073 344.22C969.073 412.282 1024.25 467.457 1092.31 467.457Z" stroke="white" stroke-width="1.34612" stroke-miterlimit="10"/>
<path d="M1092.31 456.81C1154.49 456.81 1204.89 406.411 1204.89 344.234" stroke="white" stroke-width="1.34612" stroke-miterlimit="10"/>
<path d="M979.734 344.22C979.734 375.208 992.253 403.274 1012.53 423.641" stroke="white" stroke-width="1.34612" stroke-miterlimit="10"/>
<path d="M1092.31 231.644C1059.87 231.644 1030.63 245.361 1010.09 267.316" stroke="white" stroke-width="1.34612" stroke-miterlimit="10"/>
<path d="M1204.89 344.22C1204.89 314.484 1193.35 287.441 1174.52 267.316" stroke="white" stroke-width="1.34612" stroke-miterlimit="10"/>
<path d="M281.382 442.489C281.588 439.031 278.952 436.06 275.493 435.854C272.035 435.648 269.065 438.285 268.858 441.743C268.652 445.201 271.289 448.172 274.747 448.378C278.205 448.584 281.176 445.947 281.382 442.489Z" stroke="white" stroke-width="1.34612" stroke-miterlimit="10"/>
<path d="M310.389 448.53H350.53V435.608H310.389V448.53Z" fill="white"/>
<path d="M310.402 442.069H281.366" stroke="white" stroke-width="1.34612" stroke-miterlimit="10"/>
<path d="M281.377 407.409C281.583 403.951 278.946 400.98 275.488 400.774C272.03 400.568 269.059 403.204 268.853 406.663C268.647 410.121 271.283 413.091 274.742 413.298C278.2 413.504 281.171 410.867 281.377 407.409Z" stroke="white" stroke-width="1.34612" stroke-miterlimit="10"/>
<path d="M310.388 413.464H350.53V400.541H310.388V413.464Z" fill="white"/>
<path d="M310.402 406.989H281.366" stroke="white" stroke-width="1.34612" stroke-miterlimit="10"/>
<path d="M281.385 372.33C281.591 368.872 278.955 365.901 275.496 365.695C272.038 365.489 269.067 368.125 268.861 371.584C268.655 375.042 271.292 378.013 274.75 378.219C278.208 378.425 281.179 375.788 281.385 372.33Z" stroke="white" stroke-width="1.34612" stroke-miterlimit="10"/>
<path d="M310.389 378.37H350.53V365.448H310.389V378.37Z" fill="white"/>
<path d="M310.402 371.923H281.366" stroke="white" stroke-width="1.34612" stroke-miterlimit="10"/>
<path d="M281.38 337.25C281.586 333.791 278.95 330.821 275.491 330.615C272.033 330.409 269.063 333.045 268.857 336.503C268.65 339.962 271.287 342.932 274.745 343.138C278.204 343.344 281.174 340.708 281.38 337.25Z" stroke="white" stroke-width="1.34612" stroke-miterlimit="10"/>
<path d="M310.389 343.304H350.53V330.381H310.389V343.304Z" fill="white"/>
<path d="M310.403 336.843H281.367" stroke="white" stroke-width="1.34612" stroke-miterlimit="10"/>
<path d="M281.375 302.17C281.581 298.711 278.944 295.741 275.486 295.535C272.028 295.329 269.057 297.965 268.851 301.423C268.645 304.882 271.282 307.852 274.74 308.058C278.198 308.264 281.169 305.628 281.375 302.17Z" stroke="white" stroke-width="1.34612" stroke-miterlimit="10"/>
<path d="M310.388 308.224H350.53V295.301H310.388V308.224Z" fill="white"/>
<path d="M310.402 301.763H281.366" stroke="white" stroke-width="1.34612" stroke-miterlimit="10"/>
<path d="M281.369 267.09C281.575 263.631 278.939 260.661 275.481 260.455C272.022 260.249 269.052 262.885 268.846 266.344C268.64 269.802 271.276 272.772 274.734 272.978C278.193 273.185 281.163 270.548 281.369 267.09Z" stroke="white" stroke-width="1.34612" stroke-miterlimit="10"/>
<path d="M310.389 273.158H350.53V260.235H310.389V273.158Z" fill="white"/>
<path d="M310.403 266.683H281.367" stroke="white" stroke-width="1.34612" stroke-miterlimit="10"/>
<path d="M281.391 232.01C281.597 228.552 278.961 225.582 275.503 225.375C272.044 225.169 269.074 227.806 268.868 231.264C268.662 234.722 271.298 237.693 274.756 237.899C278.215 238.105 281.185 235.469 281.391 232.01Z" stroke="white" stroke-width="1.34612" stroke-miterlimit="10"/>
<path d="M310.389 238.064H350.53V225.142H310.389V238.064Z" fill="white"/>
<path d="M310.403 231.616H281.367" stroke="white" stroke-width="1.34612" stroke-miterlimit="10"/>
<path d="M1117.05 188.339H1196.02L1256.4 248.712V305.775L1279.03 328.403H1439.56" stroke="white" stroke-width="1.34612" stroke-miterlimit="10"/>
<path d="M1138.08 168.578H1217.04L1277.43 228.965V286.013L1300.06 308.642H1439.33" stroke="white" stroke-width="1.34612" stroke-miterlimit="10"/>
<path d="M1251.11 351.462V419.522L1299.76 468.171H1439.33" stroke="white" stroke-width="1.34612" stroke-miterlimit="10"/>
<path d="M1406.86 299.609C1410.32 299.609 1413.13 296.801 1413.13 293.336C1413.13 289.872 1410.32 287.063 1406.86 287.063C1403.39 287.063 1400.59 289.872 1400.59 293.336C1400.59 296.801 1403.39 299.609 1406.86 299.609Z" fill="white"/>
<path d="M1385.97 299.609C1389.43 299.609 1392.24 296.801 1392.24 293.336C1392.24 289.872 1389.43 287.063 1385.97 287.063C1382.5 287.063 1379.69 289.872 1379.69 293.336C1379.69 296.801 1382.5 299.609 1385.97 299.609Z" fill="white"/>
<path d="M1365.09 299.609C1368.55 299.609 1371.36 296.801 1371.36 293.336C1371.36 289.872 1368.55 287.063 1365.09 287.063C1361.62 287.063 1358.82 289.872 1358.82 293.336C1358.82 296.801 1361.62 299.609 1365.09 299.609Z" fill="white"/>
<path d="M1174.52 273.589C1177.98 273.589 1180.79 270.78 1180.79 267.316C1180.79 263.851 1177.98 261.043 1174.52 261.043C1171.05 261.043 1168.24 263.851 1168.24 267.316C1168.24 270.78 1171.05 273.589 1174.52 273.589Z" fill="white"/>
<path d="M1294.82 597.021C1298.28 597.021 1301.09 594.213 1301.09 590.749C1301.09 587.284 1298.28 584.476 1294.82 584.476C1291.36 584.476 1288.55 587.284 1288.55 590.749C1288.55 594.213 1291.36 597.021 1294.82 597.021Z" fill="white"/>
<path d="M1219.18 449.365C1222.65 449.365 1225.46 446.557 1225.46 443.092C1225.46 439.628 1222.65 436.819 1219.18 436.819C1215.72 436.819 1212.91 439.628 1212.91 443.092C1212.91 446.557 1215.72 449.365 1219.18 449.365Z" fill="white"/>
<path d="M1138.08 174.851C1141.54 174.851 1144.35 172.042 1144.35 168.578C1144.35 165.113 1141.54 162.305 1138.08 162.305C1134.61 162.305 1131.81 165.113 1131.81 168.578C1131.81 172.042 1134.61 174.851 1138.08 174.851Z" fill="white"/>
<path d="M1219.18 443.092L1269.74 493.639V578.391" stroke="white" stroke-width="1.34612" stroke-miterlimit="10"/>
<path d="M1294.82 597.021V537.724L1328.84 503.708H1439.33" stroke="white" stroke-width="1.34612" stroke-miterlimit="10"/>
<path d="M1278.3 351.462V400.528L1312.59 434.827H1439.33V351.462H1278.3Z" fill="white"/>
<path d="M1288.7 357.735V400.111L1320.77 429.726H1439.33V357.735H1288.7Z" stroke="#00050B" stroke-width="1.34612" stroke-miterlimit="10"/>
<path d="M1336.75 429.726V402.547" stroke="#00050B" stroke-width="1.34612" stroke-miterlimit="10"/>
<path d="M1345.22 429.726V402.547" stroke="#00050B" stroke-width="1.34612" stroke-miterlimit="10"/>
<path d="M1353.67 429.726V402.547" stroke="#00050B" stroke-width="1.34612" stroke-miterlimit="10"/>
<path d="M1362.14 429.726V402.547" stroke="#00050B" stroke-width="1.34612" stroke-miterlimit="10"/>
<path d="M1370.61 429.726V402.547" stroke="#00050B" stroke-width="1.34612" stroke-miterlimit="10"/>
<path d="M1379.06 429.726V402.547" stroke="#00050B" stroke-width="1.34612" stroke-miterlimit="10"/>
<path d="M1387.53 429.726V402.547" stroke="#00050B" stroke-width="1.34612" stroke-miterlimit="10"/>
<path d="M1395.98 429.726V402.547" stroke="#00050B" stroke-width="1.34612" stroke-miterlimit="10"/>
<path d="M1404.45 429.726V402.547" stroke="#00050B" stroke-width="1.34612" stroke-miterlimit="10"/>
<path d="M1412.9 429.726V402.547" stroke="#00050B" stroke-width="1.34612" stroke-miterlimit="10"/>
<path d="M1421.37 429.726V402.547" stroke="#00050B" stroke-width="1.34612" stroke-miterlimit="10"/>
<path d="M1429.82 429.726V402.547" stroke="#00050B" stroke-width="1.34612" stroke-miterlimit="10"/>
<path d="M361.46 23.7216C364.925 23.7216 367.733 20.9131 367.733 17.4487C367.733 13.9843 364.925 11.1758 361.46 11.1758C357.996 11.1758 355.188 13.9843 355.188 17.4487C355.188 20.9131 357.996 23.7216 361.46 23.7216Z" fill="white"/>
<path d="M367.828 41.3961C371.293 41.3961 374.101 38.5876 374.101 35.1231C374.101 31.6587 371.293 28.8502 367.828 28.8502C364.364 28.8502 361.555 31.6587 361.555 35.1231C361.555 38.5876 364.364 41.3961 367.828 41.3961Z" fill="white"/>
<path d="M389.218 66.1109C392.682 66.1109 395.491 63.3024 395.491 59.838C395.491 56.3736 392.682 53.5651 389.218 53.5651C385.753 53.5651 382.945 56.3736 382.945 59.838C382.945 63.3024 385.753 66.1109 389.218 66.1109Z" fill="white"/>
<path d="M144.547 327.501C146.673 327.501 148.397 325.777 148.397 323.651C148.397 321.525 146.673 319.801 144.547 319.801C142.42 319.801 140.697 321.525 140.697 323.651C140.697 325.777 142.42 327.501 144.547 327.501Z" fill="white"/>
<path d="M160.848 327.501C162.975 327.501 164.698 325.777 164.698 323.651C164.698 321.525 162.975 319.801 160.848 319.801C158.722 319.801 156.999 321.525 156.999 323.651C156.999 325.777 158.722 327.501 160.848 327.501Z" fill="white"/>
<path d="M177.15 327.501C179.276 327.501 181 325.777 181 323.651C181 321.525 179.276 319.801 177.15 319.801C175.023 319.801 173.3 321.525 173.3 323.651C173.3 325.777 175.023 327.501 177.15 327.501Z" fill="white"/>
<path d="M188.996 172.374H132.687C128.926 172.374 125.876 175.423 125.876 179.185V235.493C125.876 239.255 128.926 242.305 132.687 242.305H188.996C192.757 242.305 195.807 239.255 195.807 235.493V179.185C195.807 175.423 192.757 172.374 188.996 172.374Z" stroke="white" stroke-width="1.34612" stroke-miterlimit="10"/>
<path d="M178.428 182.941H143.254C139.492 182.941 136.443 185.99 136.443 189.752V224.926C136.443 228.688 139.492 231.738 143.254 231.738H178.428C182.19 231.738 185.24 228.688 185.24 224.926V189.752C185.24 185.99 182.19 182.941 178.428 182.941Z" fill="white"/>
<path d="M144.547 321.955V242.305" stroke="white" stroke-width="1.34612" stroke-miterlimit="10"/>
<path d="M160.848 321.955V242.305" stroke="white" stroke-width="1.34612" stroke-miterlimit="10"/>
<path d="M177.15 321.955V242.305" stroke="white" stroke-width="1.34612" stroke-miterlimit="10"/>
<path d="M125.876 223.648H32.7783" stroke="white" stroke-width="1.34612" stroke-miterlimit="10"/>
<path d="M125.876 207.346H32.7783" stroke="white" stroke-width="1.34612" stroke-miterlimit="10"/>
<path d="M125.876 191.031H32.7783" stroke="white" stroke-width="1.34612" stroke-miterlimit="10"/>
<path d="M221.612 223.648H195.807" stroke="white" stroke-width="1.34612" stroke-miterlimit="10"/>
<path d="M221.612 207.346H195.807" stroke="white" stroke-width="1.34612" stroke-miterlimit="10"/>
<path d="M221.612 191.031H195.807" stroke="white" stroke-width="1.34612" stroke-miterlimit="10"/>
<path d="M32.3337 225.635C34.0235 224.345 34.3472 221.929 33.0566 220.239C31.7661 218.549 29.35 218.225 27.6602 219.516C25.9704 220.806 25.6468 223.223 26.9373 224.912C28.2279 226.602 30.6439 226.926 32.3337 225.635Z" fill="white"/>
<path d="M32.3225 209.336C34.0123 208.046 34.3359 205.63 33.0454 203.94C31.7548 202.25 29.3388 201.926 27.649 203.217C25.9592 204.507 25.6355 206.923 26.9261 208.613C28.2166 210.303 30.6327 210.627 32.3225 209.336Z" fill="white"/>
<path d="M32.322 193.043C34.0118 191.752 34.3354 189.336 33.0449 187.646C31.7544 185.956 29.3383 185.633 27.6485 186.923C25.9587 188.214 25.6351 190.63 26.9256 192.32C28.2162 194.009 30.6322 194.333 32.322 193.043Z" fill="white"/>
<path d="M226.713 225.655C228.402 224.365 228.726 221.949 227.436 220.259C226.145 218.569 223.729 218.246 222.039 219.536C220.349 220.827 220.026 223.243 221.316 224.933C222.607 226.622 225.023 226.946 226.713 225.655Z" fill="white"/>
<path d="M226.726 209.348C228.416 208.058 228.739 205.642 227.449 203.952C226.158 202.262 223.742 201.939 222.052 203.229C220.363 204.52 220.039 206.936 221.329 208.625C222.62 210.315 225.036 210.639 226.726 209.348Z" fill="white"/>
<path d="M226.711 194.115C228.401 192.825 228.725 190.408 227.434 188.719C226.144 187.029 223.727 186.705 222.038 187.996C220.348 189.286 220.024 191.702 221.315 193.392C222.605 195.082 225.021 195.406 226.711 194.115Z" fill="white"/>
<path d="M356.561 17.4486H175.736L143.914 49.2844V172.374" stroke="white" stroke-width="1.34612" stroke-miterlimit="10"/>
<path d="M367.707 35.1232H194.623L162.8 66.9455V170.853" stroke="white" stroke-width="1.34612" stroke-miterlimit="10"/>
<path d="M389.218 59.8381H216.133L184.311 91.6604V172.374" stroke="white" stroke-width="1.34612" stroke-miterlimit="10"/>
<path d="M174.471 188.433H147.212C144.298 188.433 141.935 190.796 141.935 193.71V220.969C141.935 223.883 144.298 226.246 147.212 226.246H174.471C177.385 226.246 179.748 223.883 179.748 220.969V193.71C179.748 190.796 177.385 188.433 174.471 188.433Z" stroke="#00050B" stroke-width="1.34612" stroke-miterlimit="10"/>
<path d="M149.11 191.071H172.573C175.077 191.071 177.109 193.104 177.109 195.608V219.071C177.109 221.575 175.077 223.607 172.573 223.607H149.11C146.606 223.607 144.574 221.575 144.574 219.071V195.608C144.574 193.104 146.606 191.071 149.11 191.071Z" stroke="#00050B" stroke-width="1.34612" stroke-miterlimit="10"/>
<path d="M168.44 196.806H153.243C151.622 196.806 150.308 198.12 150.308 199.74V214.938C150.308 216.559 151.622 217.873 153.243 217.873H168.44C170.061 217.873 171.375 216.559 171.375 214.938V199.74C171.375 198.12 170.061 196.806 168.44 196.806Z" stroke="#00050B" stroke-width="1.34612" stroke-miterlimit="10"/>
<path d="M76.3164 416.062C80.9979 408.599 78.7431 398.754 71.2801 394.073C63.8172 389.391 53.9721 391.646 49.2906 399.109C44.6091 406.572 46.8639 416.417 54.3269 421.099C61.7898 425.78 71.6349 423.525 76.3164 416.062Z" stroke="white" stroke-width="1.34612" stroke-miterlimit="10"/>
<path d="M116.78 455.824C121.461 448.361 119.206 438.516 111.743 433.834C104.281 429.153 94.4355 431.407 89.754 438.87C85.0725 446.333 87.3273 456.178 94.7902 460.86C102.253 465.541 112.098 463.287 116.78 455.824Z" stroke="white" stroke-width="1.34612" stroke-miterlimit="10"/>
<path d="M156.143 496.023C160.824 488.56 158.569 478.715 151.106 474.033C143.643 469.352 133.798 471.607 129.117 479.07C124.435 486.533 126.69 496.378 134.153 501.059C141.616 505.741 151.461 503.486 156.143 496.023Z" stroke="white" stroke-width="1.34612" stroke-miterlimit="10"/>
<path d="M195.831 535.803C200.512 528.34 198.257 518.495 190.794 513.813C183.331 509.132 173.486 511.386 168.805 518.849C164.123 526.312 166.378 536.157 173.841 540.839C181.304 545.52 191.149 543.266 195.831 535.803Z" stroke="white" stroke-width="1.34612" stroke-miterlimit="10"/>
<path d="M103.261 282.137V354.908L251.51 503.156H330.46" stroke="white" stroke-width="1.34612" stroke-miterlimit="10"/>
<path d="M293.307 535.073H250.231L200.222 585.081H150.308L37.6514 472.424" stroke="white" stroke-width="1.34612" stroke-miterlimit="10"/>
<path d="M29.9917 497.058L139.229 606.296" stroke="white" stroke-width="1.34612" stroke-miterlimit="10"/>
<path d="M65.2605 282.137V327.501L0.47168 392.29" stroke="white" stroke-width="1.34612" stroke-miterlimit="10"/>
<path d="M37.6513 478.697C41.1158 478.697 43.9243 475.889 43.9243 472.424C43.9243 468.96 41.1158 466.151 37.6513 466.151C34.1869 466.151 31.3784 468.96 31.3784 472.424C31.3784 475.889 34.1869 478.697 37.6513 478.697Z" fill="white"/>
<path d="M29.9917 503.331C33.4561 503.331 36.2646 500.523 36.2646 497.058C36.2646 493.594 33.4561 490.785 29.9917 490.785C26.5272 490.785 23.7188 493.594 23.7188 497.058C23.7188 500.523 26.5272 503.331 29.9917 503.331Z" fill="white"/>
<path d="M103.261 288.41C106.725 288.41 109.534 285.601 109.534 282.137C109.534 278.672 106.725 275.864 103.261 275.864C99.7963 275.864 96.9878 278.672 96.9878 282.137C96.9878 285.601 99.7963 288.41 103.261 288.41Z" fill="white"/>
<path d="M194.016 432.633C197.481 432.633 200.289 429.824 200.289 426.36C200.289 422.895 197.481 420.087 194.016 420.087C190.552 420.087 187.743 422.895 187.743 426.36C187.743 429.824 190.552 432.633 194.016 432.633Z" fill="white"/>
<path d="M207.02 444.29C210.484 444.29 213.293 441.482 213.293 438.018C213.293 434.553 210.484 431.745 207.02 431.745C203.556 431.745 200.747 434.553 200.747 438.018C200.747 441.482 203.556 444.29 207.02 444.29Z" fill="white"/>
<path d="M219.566 454.804C223.03 454.804 225.839 451.995 225.839 448.531C225.839 445.066 223.03 442.258 219.566 442.258C216.101 442.258 213.293 445.066 213.293 448.531C213.293 451.995 216.101 454.804 219.566 454.804Z" fill="white"/>
<path d="M295.877 541.292C299.342 541.292 302.15 538.483 302.15 535.019C302.15 531.555 299.342 528.746 295.877 528.746C292.413 528.746 289.604 531.555 289.604 535.019C289.604 538.483 292.413 541.292 295.877 541.292Z" fill="white"/>
<path d="M65.2602 288.41C68.7247 288.41 71.5332 285.601 71.5332 282.137C71.5332 278.672 68.7247 275.864 65.2602 275.864C61.7958 275.864 58.9873 278.672 58.9873 282.137C58.9873 285.601 61.7958 288.41 65.2602 288.41Z" fill="white"/>
<path d="M126.737 378.384L113.115 391.994V407.595L180.138 474.605H195.807L209.389 461.036L126.737 378.384Z" fill="white"/>
<path d="M1256.2 61.8306V111.422L1272.45 127.669H1316.82V77.984L1300.66 61.8306H1256.2Z" fill="white"/>
<path d="M1261.03 68.0361V108.77L1274.68 122.419H1312V80.6627L1298.4 67.0669L1261.03 68.0361Z" stroke="#00050B" stroke-width="1.34612" stroke-miterlimit="10"/>
<path d="M1256.2 30.9502H1304.24L1341.38 68.0897V111.421L1356.7 126.74H1439.56" stroke="white" stroke-width="1.34612" stroke-miterlimit="10"/>
<path d="M1256.2 37.2231C1259.67 37.2231 1262.47 34.4146 1262.47 30.9502C1262.47 27.4857 1259.67 24.6772 1256.2 24.6772C1252.74 24.6772 1249.93 27.4857 1249.93 30.9502C1249.93 34.4146 1252.74 37.2231 1256.2 37.2231Z" fill="white"/>
<path d="M1272.54 10.8125H1320.59L1357.73 47.9385V91.2836L1372.87 106.428H1439.56" stroke="white" stroke-width="1.34612" stroke-miterlimit="10"/>
<path d="M1272.54 17.0854C1276.01 17.0854 1278.82 14.2769 1278.82 10.8125C1278.82 7.34804 1276.01 4.53955 1272.54 4.53955C1269.08 4.53955 1266.27 7.34804 1266.27 10.8125C1266.27 14.2769 1269.08 17.0854 1272.54 17.0854Z" fill="white"/>
<path d="M1265.73 72.9763V106.185L1276.86 117.318H1307.29V83.2607L1296.21 72.1821L1265.73 72.9763Z" stroke="#00050B" stroke-width="1.34612" stroke-miterlimit="10"/>
<path d="M1215.55 61.8306V122.419L1283.98 190.856H1439.33" stroke="white" stroke-width="1.34612" stroke-miterlimit="10"/>
<rect y="606" width="131" height="1439" transform="rotate(-90 0 606)" fill="url(#paint0_linear_9653_22765)"/>
</g>
<defs>
<filter id="filter0_f_9653_22765" x="-4.00439" y="0.539551" width="1448" height="610.232" filterUnits="userSpaceOnUse" color-interpolation-filters="sRGB">
<feFlood flood-opacity="0" result="BackgroundImageFix"/>
<feBlend mode="normal" in="SourceGraphic" in2="BackgroundImageFix" result="shape"/>
<feGaussianBlur stdDeviation="2" result="effect1_foregroundBlur_9653_22765"/>
</filter>
<linearGradient id="paint0_linear_9653_22765" x1="8.33953e-08" y1="1225.88" x2="123.406" y2="1225.88" gradientUnits="userSpaceOnUse">
<stop stop-color="#00050B"/>
<stop offset="1" stop-color="#00050B" stop-opacity="0"/>
</linearGradient>
</defs>
</svg>
