<svg width="24" height="24" viewBox="0 0 24 24" fill="none" xmlns="http://www.w3.org/2000/svg">
<path d="M10.5 16.8L11.25 17.55L13.5 15.3" stroke="#FEB928" stroke-width="1.5" stroke-linecap="round" stroke-linejoin="round"/>
<path d="M6 7.80005L6.75 8.55005L9 6.30005" stroke="#FEB928" stroke-width="1.5" stroke-linecap="round" stroke-linejoin="round"/>
<path d="M15 7.80005L15.75 8.55005L18 6.30005" stroke="#FEB928" stroke-width="1.5" stroke-linecap="round" stroke-linejoin="round"/>
<path d="M16.5 18H18.75V11.25" stroke="#FEB928" stroke-width="1.5" stroke-linecap="round" stroke-linejoin="round"/>
<path d="M7.5 17.25H4.5V10.5" stroke="#FEB928" stroke-width="1.5" stroke-linecap="round" stroke-linejoin="round"/>
<path d="M7.5 3L11.3971 5.25V9.75L7.5 12L3.60289 9.75V5.25L7.5 3Z" stroke="#FEB928" stroke-width="1.5" stroke-linejoin="round"/>
<path d="M12 12L15.8971 14.25V18.75L12 21L8.10289 18.75V14.25L12 12Z" stroke="#FEB928" stroke-width="1.5" stroke-linejoin="round"/>
<path d="M16.5 3L20.3971 5.25V9.75L16.5 12L12.6029 9.75V5.25L16.5 3Z" stroke="#FEB928" stroke-width="1.5" stroke-linejoin="round"/>
</svg>
