<svg width="242" height="209" viewBox="0 0 242 209" fill="none" xmlns="http://www.w3.org/2000/svg">
<g clip-path="url(#clip0_9633_86827)">
<path d="M240.953 133.439V139.949L118.213 207.607L1.04736 139.949V133.439" fill="#00050B"/>
<path d="M240.953 133.439V139.949L118.213 207.607L1.04736 139.949V133.439" stroke="#FEB928" stroke-width="1.08033" stroke-linecap="round" stroke-linejoin="round"/>
<path d="M240.953 133.438L120.993 64.1821L1.04736 133.438L117.651 201.226L240.953 133.438Z" fill="#00050B" stroke="#FEB928" stroke-width="1.08033" stroke-linecap="round" stroke-linejoin="round"/>
<path d="M15.7538 135.484C13.7804 136.622 10.5106 136.665 8.422 135.57C6.29015 134.461 6.17492 132.589 8.22034 131.408C10.2658 130.226 13.6364 130.226 15.6962 131.379C17.7561 132.531 17.7272 134.332 15.7394 135.47L15.7538 135.484Z" fill="#00050B" stroke="#FEB928" stroke-width="1.08033" stroke-linecap="round" stroke-linejoin="round"/>
<path d="M121.396 195.291C119.423 196.429 116.153 196.472 114.064 195.377C111.976 194.283 111.817 192.396 113.863 191.214C115.908 190.033 119.279 190.033 121.338 191.186C123.398 192.338 123.369 194.139 121.382 195.276L121.396 195.291Z" fill="#00050B" stroke="#FEB928" stroke-width="1.08033" stroke-linecap="round" stroke-linejoin="round"/>
<path d="M232.929 135.484C230.956 136.622 227.686 136.665 225.597 135.57C223.465 134.461 223.35 132.589 225.396 131.408C227.441 130.226 230.812 130.226 232.872 131.379C234.931 132.531 234.903 134.332 232.915 135.47L232.929 135.484Z" fill="#00050B" stroke="#FEB928" stroke-width="1.08033" stroke-linecap="round" stroke-linejoin="round"/>
<path opacity="0.3" d="M224.82 142.398L208.687 133.093L180.166 149.816V160.62L186.317 164.927" stroke="#FEB928" stroke-width="1.08033" stroke-linecap="round" stroke-linejoin="round"/>
<path opacity="0.3" d="M190.811 162.075L185.928 158.646L186.202 151.473L208.644 138.293L219.851 144.732L190.811 162.075Z" fill="#FEB928"/>
<path opacity="0.3" d="M35.8626 153.216L46.0897 147.166C47.559 146.302 47.5446 144.141 46.0609 143.248C44.534 142.326 42.6327 142.326 41.1202 143.219L29.6543 150.033" stroke="#FEB928" stroke-width="1.08033" stroke-linecap="round" stroke-linejoin="round"/>
<path opacity="0.3" d="M46.3345 143.306L55.899 137.587" stroke="#FEB928" stroke-width="1.08033" stroke-linecap="round" stroke-linejoin="round"/>
<path opacity="0.3" d="M62.7562 136.939C64.8304 135.743 64.8016 133.813 62.6842 132.646C60.5667 131.48 57.1529 131.494 55.0643 132.69C52.9756 133.885 53.0188 135.815 55.1507 136.982C57.2825 138.149 60.682 138.12 62.7562 136.924V136.939Z" stroke="#FEB928" stroke-width="1.08033" stroke-linecap="round" stroke-linejoin="round"/>
<path opacity="0.3" d="M61.114 135.959C62.2952 135.282 62.2808 134.187 61.0708 133.51C59.8608 132.833 57.9162 132.848 56.7351 133.539C55.5539 134.231 55.5683 135.325 56.7783 135.988C57.9882 136.651 59.9184 136.636 61.0996 135.959H61.114Z" fill="#FEB928"/>
<path opacity="0.3" d="M47.991 159.453L58.2181 153.403C59.6874 152.539 59.673 150.378 58.1893 149.485C56.6625 148.563 54.7611 148.563 53.2486 149.456L41.7827 156.269" stroke="#FEB928" stroke-width="1.08033" stroke-linecap="round" stroke-linejoin="round"/>
<path opacity="0.3" d="M58.4634 149.557L68.0279 143.824" stroke="#FEB928" stroke-width="1.08033" stroke-linecap="round" stroke-linejoin="round"/>
<path opacity="0.3" d="M74.8846 143.19C76.9589 141.995 76.93 140.064 74.8126 138.898C72.6952 137.731 69.2813 137.745 67.1927 138.941C65.104 140.136 65.1473 142.067 67.2791 143.233C69.411 144.4 72.8104 144.371 74.8846 143.176V143.19Z" stroke="#FEB928" stroke-width="1.08033" stroke-linecap="round" stroke-linejoin="round"/>
<path opacity="0.3" d="M73.2278 142.21C74.4089 141.533 74.3945 140.439 73.1846 139.762C71.9746 139.099 70.03 139.099 68.8488 139.791C67.6677 140.482 67.6821 141.577 68.892 142.239C70.102 142.902 72.0322 142.887 73.2134 142.21H73.2278Z" fill="#FEB928"/>
<path opacity="0.3" d="M59.9324 166.151L70.1595 160.101C71.6288 159.237 71.6144 157.076 70.1307 156.183C68.6039 155.261 66.7025 155.261 65.19 156.155L53.7241 162.968" stroke="#FEB928" stroke-width="1.08033" stroke-linecap="round" stroke-linejoin="round"/>
<path opacity="0.3" d="M70.4043 156.241L79.9688 150.522" stroke="#FEB928" stroke-width="1.08033" stroke-linecap="round" stroke-linejoin="round"/>
<path opacity="0.3" d="M86.8251 149.889C88.8993 148.693 88.8705 146.763 86.753 145.596C84.6356 144.415 81.2217 144.444 79.1331 145.639C77.0445 146.835 77.0877 148.765 79.2195 149.932C81.3514 151.099 84.7508 151.07 86.8251 149.874V149.889Z" stroke="#FEB928" stroke-width="1.08033" stroke-linecap="round" stroke-linejoin="round"/>
<path opacity="0.3" d="M85.1692 148.909C86.3503 148.232 86.3359 147.137 85.126 146.46C83.916 145.783 81.9714 145.797 80.7902 146.489C79.6091 147.18 79.6235 148.275 80.8334 148.938C82.0434 149.6 83.9736 149.586 85.1548 148.909H85.1692Z" fill="#FEB928"/>
<path opacity="0.3" d="M25.1314 147.569L34.9408 141.779C36.41 140.915 36.3956 138.754 34.912 137.861C33.3851 136.939 31.4837 136.939 29.9713 137.832L19.5713 144.012" stroke="#FEB928" stroke-width="1.08033" stroke-linecap="round" stroke-linejoin="round"/>
<path opacity="0.3" d="M35.1855 137.919L44.7501 132.186" stroke="#FEB928" stroke-width="1.08033" stroke-linecap="round" stroke-linejoin="round"/>
<path opacity="0.3" d="M51.6073 131.552C53.6815 130.356 53.6527 128.426 51.5353 127.259C49.4178 126.078 46.004 126.107 43.9153 127.302C41.8267 128.498 41.8699 130.428 44.0018 131.595C46.1192 132.762 49.533 132.733 51.6073 131.537V131.552Z" stroke="#FEB928" stroke-width="1.08033" stroke-linecap="round" stroke-linejoin="round"/>
<path opacity="0.3" d="M49.9504 130.572C51.1316 129.895 51.1172 128.801 49.9072 128.124C48.6972 127.461 46.7526 127.461 45.5715 128.152C44.3903 128.844 44.4047 129.938 45.6147 130.601C46.8247 131.264 48.7549 131.249 49.936 130.572H49.9504Z" fill="#FEB928"/>
<path opacity="0.3" d="M140.583 170.53L110.377 153.086L99.0835 152.323L66.3999 169.824" stroke="#FEB928" stroke-width="1.08033" stroke-linecap="round" stroke-linejoin="round"/>
<path opacity="0.3" d="M124.291 169.565L110.334 161.426L100.25 160.836L74.1064 174.477" stroke="#FEB928" stroke-width="1.08033" stroke-linecap="round" stroke-linejoin="round"/>
<path opacity="0.3" d="M132.848 173.785C134.922 172.59 134.893 170.659 132.775 169.493C130.658 168.326 127.244 168.34 125.156 169.536C123.067 170.731 123.11 172.662 125.242 173.828C127.374 174.995 130.773 174.966 132.848 173.771V173.785Z" stroke="#FEB928" stroke-width="1.08033" stroke-linecap="round" stroke-linejoin="round"/>
<path opacity="0.3" d="M192.972 136.017C195.046 134.821 195.017 132.891 192.9 131.724C190.782 130.558 187.368 130.572 185.28 131.768C183.191 132.963 183.234 134.893 185.366 136.06C187.498 137.227 190.897 137.198 192.972 136.002V136.017Z" stroke="#FEB928" stroke-width="1.08033" stroke-linecap="round" stroke-linejoin="round"/>
<path opacity="0.3" d="M146.95 92.8326C149.024 91.637 148.995 89.7068 146.878 88.5401C144.76 87.3733 141.346 87.3877 139.258 88.5833C137.169 89.7788 137.212 91.709 139.344 92.8758C141.476 94.0425 144.875 94.0137 146.95 92.8182" stroke="#FEB928" stroke-width="1.08033" stroke-linecap="round" stroke-linejoin="round"/>
<path opacity="0.3" d="M180.915 145.97L167.231 137.861V113.69L151.862 103.665" stroke="#FEB928" stroke-width="1.08033" stroke-linecap="round" stroke-linejoin="round"/>
<path opacity="0.3" d="M186.749 140.641L173.064 132.531V108.346L146.949 92.8326" stroke="#FEB928" stroke-width="1.08033" stroke-linecap="round" stroke-linejoin="round"/>
<path opacity="0.3" d="M184.444 131.782L177.991 127.95V103.78L159.106 93.0341" stroke="#FEB928" stroke-width="1.08033" stroke-linecap="round" stroke-linejoin="round"/>
<path opacity="0.3" d="M103.491 191.747L122.577 179.893L102.814 168.772H94.8775L79.4937 176.954" fill="#FEB928"/>
<path d="M52.9751 120.431V32.2189L59.3418 29.0355L64.8731 32.2189V120.921L58.9241 124.105L52.9751 120.431Z" fill="#00050B" stroke="#FEB928" stroke-width="1.08033" stroke-linecap="round" stroke-linejoin="round"/>
<path d="M52.9751 32.2189L58.9241 35.6471L64.8731 32.2189" fill="#00050B"/>
<path d="M52.9751 32.2189L58.9241 35.6471L64.8731 32.2189" stroke="#FEB928" stroke-width="1.08033" stroke-linecap="round" stroke-linejoin="round"/>
<path d="M58.9238 35.6471V124.104" stroke="#FEB928" stroke-width="1.08033" stroke-linecap="round" stroke-linejoin="round"/>
<path d="M100.826 92.8181V5.51308L107.207 2.31531L112.724 5.51308V88.9146" fill="#00050B"/>
<path d="M100.826 92.8181V5.51308L107.207 2.31531L112.724 5.51308V88.9146" stroke="#FEB928" stroke-width="1.08033" stroke-linecap="round" stroke-linejoin="round"/>
<path d="M100.826 5.51282L106.775 8.94106L112.724 5.51282" fill="#00050B"/>
<path d="M100.826 5.51282L106.775 8.94106L112.724 5.51282" stroke="#FEB928" stroke-width="1.08033" stroke-linecap="round" stroke-linejoin="round"/>
<path d="M106.775 8.94141V89.8077" stroke="#FEB928" stroke-width="1.08033" stroke-linecap="round" stroke-linejoin="round"/>
<path d="M93.149 102.008C91.2044 106.157 90.1097 112.667 89.8792 118.559L84.4487 122.491" stroke="#FEB928" stroke-width="1.08033" stroke-linecap="round" stroke-linejoin="round"/>
<path d="M93.9849 96.4912L105.969 90.038C112.811 87.7477 121.31 88.8713 130.457 93.9704C152.236 106.113 169.738 136.449 169.738 162.046C169.738 162.723 169.752 161.801 169.738 162.463L161.455 166.828" stroke="#FEB928" stroke-width="1.08033" stroke-linecap="round" stroke-linejoin="round"/>
<path d="M161.441 166.842C161.441 141.246 143.939 110.91 122.16 98.767C100.38 86.6241 82.9942 96.6208 81.5825 120.777L84.449 122.477C85.803 100.121 102.339 91.1327 122.088 102.152C142.283 113.416 158.531 141.548 158.531 165.301L161.441 166.842Z" stroke="#FEB928" stroke-width="1.08033" stroke-linecap="round" stroke-linejoin="round"/>
<path d="M109.657 136.247C110.867 130.557 115.721 128.526 121.425 131.71C127.489 135.095 132.444 143.248 133.006 150.522L109.657 136.262V136.247Z" stroke="#FEB928" stroke-width="1.08033" stroke-linecap="round" stroke-linejoin="round"/>
<path d="M125.847 128.455C124.738 127.893 123.341 127.518 122.333 127.345" stroke="#FEB928" stroke-width="1.08033" stroke-linecap="round" stroke-linejoin="round"/>
<path d="M134.26 136.795C133.208 135.052 131.969 133.453 130.615 132.056" stroke="#FEB928" stroke-width="1.08033" stroke-linecap="round" stroke-linejoin="round"/>
<path d="M95.7134 100.179L116.6 129.448C116.6 129.448 117.824 128.094 121.526 130.197" stroke="#FEB928" stroke-width="1.08033" stroke-linecap="round" stroke-linejoin="round"/>
<path d="M98.522 98.8102L121.915 130.269L123.6 129.448L100.611 98.1332" stroke="#FEB928" stroke-width="1.08033" stroke-linecap="round" stroke-linejoin="round"/>
<path d="M132.689 109.887L128.267 133.51C127.46 132.142 125.458 131.134 125.458 131.134L130.125 107.669" stroke="#FEB928" stroke-width="1.08033" stroke-linecap="round" stroke-linejoin="round"/>
<path d="M128.267 133.511L130.284 132.704L134.346 111.443" stroke="#FEB928" stroke-width="1.08033" stroke-linecap="round" stroke-linejoin="round"/>
<path d="M133.784 142.369L151.113 135.181L148.578 130.27L131.854 138.206C131.854 138.206 132.761 138.912 133.77 142.369H133.784Z" stroke="#FEB928" stroke-width="1.08033" stroke-linecap="round" stroke-linejoin="round"/>
<path d="M133.006 150.508L137.904 147.512C137.745 145.553 137.284 143.536 136.564 141.563" stroke="#FEB928" stroke-width="1.08033" stroke-linecap="round" stroke-linejoin="round"/>
<path d="M59.9036 42.6188C59.9036 42.6188 52.8311 38.8593 52.8311 38.5424C52.8311 38.2255 52.8311 30.9225 52.8311 30.9225L106.127 1.40784L112.725 4.67764V12.8449L59.9036 42.6332V42.6188Z" fill="#00050B" stroke="#FEB928" stroke-width="1.08033" stroke-linecap="round" stroke-linejoin="round"/>
<path d="M52.8311 30.9082L59.846 34.7254V42.619" fill="#00050B"/>
<path d="M52.8311 30.9082L59.846 34.7254V42.619" stroke="#FEB928" stroke-width="1.08033" stroke-linecap="round" stroke-linejoin="round"/>
<path d="M59.8462 34.7253L112.725 4.66333" stroke="#FEB928" stroke-width="1.08033" stroke-linecap="round" stroke-linejoin="round"/>
<path d="M157.911 72.3782C157.911 72.3782 164.984 68.6186 164.984 68.3017C164.984 67.9848 164.984 60.6818 164.984 60.6818L91.752 18.9379L85.5005 22.6398" fill="#00050B"/>
<path d="M157.911 72.3782C157.911 72.3782 164.984 68.6186 164.984 68.3017C164.984 67.9848 164.984 60.6818 164.984 60.6818L91.752 18.9379L85.5005 22.6398" stroke="#FEB928" stroke-width="1.08033" stroke-linecap="round" stroke-linejoin="round"/>
<path d="M157.969 64.4845L85.5005 22.6542V30.2885L157.969 72.3782V64.4845L164.984 60.6674L157.969 64.4845Z" fill="#00050B"/>
<path d="M157.969 64.4845L85.5005 22.6542V30.2885L157.969 72.3782V64.4845ZM157.969 64.4845L164.984 60.6674" stroke="#FEB928" stroke-width="1.08033" stroke-linecap="round" stroke-linejoin="round"/>
<path d="M120.733 44.5776L124.276 42.9211C125.616 42.4458 127.316 42.7195 129.174 43.843C133.337 46.3638 136.578 52.2408 136.477 56.9222C136.434 59.0252 135.713 60.5521 134.561 61.3732L131.695 62.6407" fill="#00050B"/>
<path d="M120.733 44.5776L124.276 42.9211C125.616 42.4458 127.316 42.7195 129.174 43.843C133.337 46.3638 136.578 52.2408 136.477 56.9222C136.434 59.0252 135.713 60.5521 134.561 61.3732L131.695 62.6407" stroke="#FEB928" stroke-width="1.08033" stroke-linecap="round" stroke-linejoin="round"/>
<path d="M133.337 58.3914C133.236 63.0152 129.909 64.8445 125.847 62.4966C121.727 60.1199 118.356 54.3293 118.356 49.5182C118.356 44.7072 121.828 42.7482 126.048 45.3122C130.211 47.8329 133.452 53.7099 133.351 58.3914H133.337Z" fill="#00050B" stroke="#FEB928" stroke-width="1.08033" stroke-linecap="round" stroke-linejoin="round"/>
<path d="M117.305 50.7859L119.61 49.7055C120.474 49.4031 121.598 49.5759 122.808 50.3105C125.516 51.9526 127.633 55.7842 127.561 58.8379C127.532 60.2064 127.057 61.2147 126.308 61.7332L124.435 62.5543" fill="#00050B"/>
<path d="M117.305 50.7859L119.61 49.7055C120.474 49.4031 121.598 49.5759 122.808 50.3105C125.516 51.9526 127.633 55.7842 127.561 58.8379C127.532 60.2064 127.057 61.2147 126.308 61.7332L124.435 62.5543" stroke="#FEB928" stroke-width="1.08033" stroke-linecap="round" stroke-linejoin="round"/>
<path d="M125.53 59.8029C125.458 62.8135 123.297 64.009 120.647 62.4822C117.996 60.9553 115.764 57.1525 115.764 54.0268C115.764 50.901 118.025 49.619 120.776 51.2899C123.528 52.9609 125.602 56.7636 125.53 59.8174V59.8029Z" fill="#00050B" stroke="#FEB928" stroke-width="1.08033" stroke-linecap="round" stroke-linejoin="round"/>
<path d="M119.25 126.899L121.555 125.818C122.419 125.516 123.543 125.689 124.752 126.423C127.461 128.066 129.578 131.897 129.506 134.951C129.477 136.319 129.002 137.328 128.253 137.846L126.38 138.667" fill="#00050B"/>
<path d="M119.25 126.899L121.555 125.818C122.419 125.516 123.543 125.689 124.752 126.423C127.461 128.066 129.578 131.897 129.506 134.951C129.477 136.319 129.002 137.328 128.253 137.846L126.38 138.667" stroke="#FEB928" stroke-width="1.08033" stroke-linecap="round" stroke-linejoin="round"/>
<path d="M127.475 135.916C127.403 138.926 125.242 140.122 122.592 138.595C119.942 137.068 117.709 133.265 117.709 130.14C117.709 127.014 119.97 125.732 122.722 127.403C125.473 129.074 127.547 132.877 127.475 135.93V135.916Z" fill="#00050B" stroke="#FEB928" stroke-width="1.08033" stroke-linecap="round" stroke-linejoin="round"/>
<path d="M117.694 130.126L115.764 54.0127" stroke="#FEB928" stroke-width="1.08033" stroke-linecap="round" stroke-linejoin="round"/>
<path d="M127.576 58.8383L129.506 134.951" stroke="#FEB928" stroke-width="1.08033" stroke-linecap="round" stroke-linejoin="round"/>
<path d="M155.837 139.2L164.004 134.836" stroke="#FEB928" stroke-width="1.08033" stroke-linecap="round" stroke-linejoin="round"/>
<path d="M149.874 127.345L158.041 122.981" stroke="#FEB928" stroke-width="1.08033" stroke-linecap="round" stroke-linejoin="round"/>
<path d="M146.273 121.656L154.44 117.291" stroke="#FEB928" stroke-width="1.08033" stroke-linecap="round" stroke-linejoin="round"/>
<path d="M142.196 116.384L150.364 112.019" stroke="#FEB928" stroke-width="1.08033" stroke-linecap="round" stroke-linejoin="round"/>
<path d="M139.027 112.033L147.194 107.669" stroke="#FEB928" stroke-width="1.08033" stroke-linecap="round" stroke-linejoin="round"/>
<path d="M127.576 101.778L135.743 97.4131" stroke="#FEB928" stroke-width="1.08033" stroke-linecap="round" stroke-linejoin="round"/>
<path d="M120.373 97.4132L128.54 93.0487" stroke="#FEB928" stroke-width="1.08033" stroke-linecap="round" stroke-linejoin="round"/>
<path d="M112.825 94.5755L120.992 90.2109" stroke="#FEB928" stroke-width="1.08033" stroke-linecap="round" stroke-linejoin="round"/>
<path d="M105.45 93.2935L113.617 88.9146" stroke="#FEB928" stroke-width="1.08033" stroke-linecap="round" stroke-linejoin="round"/>
<path d="M132.689 106.142L140.857 101.777" stroke="#FEB928" stroke-width="1.08033" stroke-linecap="round" stroke-linejoin="round"/>
<path d="M153.158 133.035L161.325 128.671" stroke="#FEB928" stroke-width="1.08033" stroke-linecap="round" stroke-linejoin="round"/>
<path d="M160.763 157.811L168.83 153.504" stroke="#FEB928" stroke-width="1.08033" stroke-linecap="round" stroke-linejoin="round"/>
<path d="M161.44 162.118L169.506 157.811" stroke="#FEB928" stroke-width="1.08033" stroke-linecap="round" stroke-linejoin="round"/>
<path d="M159.928 152.337L167.995 148.03" stroke="#FEB928" stroke-width="1.08033" stroke-linecap="round" stroke-linejoin="round"/>
<path d="M158.041 145.841L166.367 141.39" stroke="#FEB928" stroke-width="1.08033" stroke-linecap="round" stroke-linejoin="round"/>
</g>
<defs>
<clipPath id="clip0_9633_86827">
<rect width="241" height="207.279" fill="white" transform="translate(0.5 0.860352)"/>
</clipPath>
</defs>
</svg>
