<svg width="24" height="24" viewBox="0 0 24 24" fill="none" xmlns="http://www.w3.org/2000/svg">
<path d="M7.50073 13.7466C8.44174 13.7466 9.20458 12.9965 9.20458 12.0713C9.20458 11.146 8.44174 10.396 7.50073 10.396C6.55972 10.396 5.79688 11.146 5.79688 12.0713C5.79688 12.9965 6.55972 13.7466 7.50073 13.7466Z" stroke="#FEB928" stroke-width="1.5" stroke-linecap="round" stroke-linejoin="round"/>
<path d="M8.41467 7.76102V8.32957C8.41467 8.43778 8.48321 8.53554 8.58651 8.57351L9.32404 8.84782C9.42443 8.88483 9.53835 8.85921 9.61171 8.78138L9.966 8.4074C10.0703 8.2973 10.2479 8.29635 10.3531 8.40645L11.2084 9.29677C11.304 9.39644 11.3049 9.55115 11.2113 9.65176L10.7557 10.1434C10.6833 10.2213 10.6659 10.3342 10.7113 10.4291L11.0202 11.0841C11.0636 11.1761 11.1582 11.2359 11.2615 11.2359H11.7345C11.8813 11.2359 12 11.3527 12 11.4969V12.5961C12 12.7404 11.8813 12.8571 11.7345 12.8571H11.2374C11.1225 12.8571 11.0202 12.9302 10.9844 13.0374L10.7335 13.7939C10.7035 13.8831 10.7248 13.9809 10.7894 14.0502L11.1978 14.4935C11.2972 14.6017 11.2876 14.7697 11.1756 14.8655L10.2344 15.6752C10.1262 15.7682 9.96214 15.7597 9.86464 15.6562L9.53641 15.3088C9.46498 15.2329 9.35396 15.2053 9.25453 15.2395L8.56913 15.4749C8.46198 15.5119 8.39054 15.6106 8.39054 15.7217V16.239C8.39054 16.3833 8.2718 16.5 8.12507 16.5H6.87397C6.72723 16.5 6.60849 16.3833 6.60849 16.239V15.7217C6.60849 15.6106 6.53706 15.5119 6.4299 15.4749L5.7445 15.2395C5.64507 15.2053 5.53406 15.2319 5.46262 15.3088L5.1344 15.6562C5.0369 15.7597 4.87279 15.7682 4.76467 15.6752L3.82345 14.8655C3.71147 14.7697 3.70181 14.6017 3.80124 14.4935L4.20959 14.0502C4.2733 13.9809 4.29454 13.8831 4.26558 13.7939L4.01459 13.0374C3.97887 12.9302 3.87654 12.8571 3.76166 12.8571H3.26547C3.11874 12.8571 3 12.7404 3 12.5961V11.4969C3 11.3527 3.11874 11.2359 3.26547 11.2359H3.7385C3.84179 11.2359 3.93639 11.1771 3.97983 11.0841L4.28875 10.4291C4.33412 10.3333 4.31578 10.2213 4.24434 10.1434L3.78869 9.65176C3.69506 9.55115 3.69602 9.39549 3.79159 9.29677L4.64689 8.40645C4.75212 8.2973 4.92974 8.2973 5.034 8.4074L5.38829 8.78138C5.46165 8.85921 5.57557 8.88483 5.67596 8.84782L6.41349 8.57351C6.51679 8.53554 6.58533 8.43778 6.58533 8.32957V7.76102C6.58533 7.61675 6.70406 7.5 6.8508 7.5H8.1492C8.29593 7.5 8.41467 7.61675 8.41467 7.76102Z" stroke="#FEB928" stroke-width="1.5" stroke-linecap="round" stroke-linejoin="round"/>
<path d="M19.7039 6.35056C20.6449 6.35056 21.4077 5.60051 21.4077 4.67528C21.4077 3.75005 20.6449 3 19.7039 3C18.7628 3 18 3.75005 18 4.67528C18 5.60051 18.7628 6.35056 19.7039 6.35056Z" stroke="#FEB928" stroke-width="1.5" stroke-linecap="round" stroke-linejoin="round"/>
<path d="M19.7039 13.8506C20.6449 13.8506 21.4077 13.1005 21.4077 12.1753C21.4077 11.25 20.6449 10.5 19.7039 10.5C18.7628 10.5 18 11.25 18 12.1753C18 13.1005 18.7628 13.8506 19.7039 13.8506Z" stroke="#FEB928" stroke-width="1.5" stroke-linecap="round" stroke-linejoin="round"/>
<path d="M19.7039 21.3506C20.6449 21.3506 21.4077 20.6005 21.4077 19.6753C21.4077 18.75 20.6449 18 19.7039 18C18.7628 18 18 18.75 18 19.6753C18 20.6005 18.7628 21.3506 19.7039 21.3506Z" stroke="#FEB928" stroke-width="1.5" stroke-linecap="round" stroke-linejoin="round"/>
<path d="M12 12H15M15 12V7.5V5.5C15 4.94772 15.4477 4.5 16 4.5H18M15 12V16.5V18.5C15 19.0523 15.4477 19.5 16 19.5H18M15 12H18" stroke="#FEB928" stroke-width="1.5" stroke-linecap="round" stroke-linejoin="round"/>
</svg>
