<svg width="24" height="24" viewBox="0 0 24 24" fill="none" xmlns="http://www.w3.org/2000/svg">
<path d="M13.8679 8.02483C12.8023 6.36027 10.9913 5.26489 8.93636 5.26489C5.6578 5.26489 3 8.05328 3 11.4929C3 14.5705 5.12771 17.1267 7.92403 17.6308" stroke="white" stroke-width="1.5" stroke-linecap="round"/>
<path d="M8.93599 5.26474V3M6.77731 3H11.0947" stroke="white" stroke-width="1.5" stroke-linecap="round" stroke-linejoin="round"/>
<path d="M13.5328 6.71422L14.3047 5.92267M13.5502 5.11292L15.0591 6.73243" stroke="white" stroke-width="1.5" stroke-linecap="round" stroke-linejoin="round"/>
<path d="M4.56467 6.79972L3.81368 5.9864M3.03845 6.77429L4.58891 5.19851" stroke="white" stroke-width="1.5" stroke-linecap="round" stroke-linejoin="round"/>
<path d="M10.8255 8.6618L8.93656 12.0589" stroke="white" stroke-width="1.5" stroke-linecap="round" stroke-linejoin="round"/>
<path d="M15.9486 12.5478C16.2373 13.5881 17.9931 15.1485 18.835 15.7986V20.0247C18.835 20.5448 17.3918 20.8916 16.6702 20.9999H13.4231C11.98 20.9999 11.8597 20.1331 11.98 19.6996C11.7394 19.5913 11.2584 19.3095 11.2584 19.0494C11.2584 18.7894 11.4989 18.5076 11.6192 18.3993C11.2584 18.3993 10.5368 18.2693 10.5368 17.7491C10.5368 17.229 11.0179 16.8822 11.2584 16.7739C11.0179 16.7739 10.5368 16.5788 10.5368 15.7986C10.5368 15.0184 11.2584 14.8234 11.6192 14.8234H14.5055L13.7839 12.2227C13.6636 11.6809 13.6396 10.5973 14.5055 10.5973C15.5879 10.5973 15.5879 11.2475 15.9486 12.5478Z" stroke="white" stroke-width="1.5" stroke-linecap="round" stroke-linejoin="round"/>
<path d="M18.8353 15.4736H21V20.675H18.8353V15.4736Z" stroke="white" stroke-width="1.5" stroke-linecap="round" stroke-linejoin="round"/>
</svg>
