<svg width="315" height="780" viewBox="0 0 315 780" fill="none" xmlns="http://www.w3.org/2000/svg">
<g filter="url(#filter0_f_9742_36130)">
<path d="M302.296 546.289C322.848 540.808 337.994 522.066 337.994 499.798C337.994 477.531 322.136 457.914 300.854 452.948" stroke="white" stroke-opacity="0.15" stroke-width="1.15227" stroke-miterlimit="10"/>
<path d="M279.161 452.871C257.725 457.734 241.73 476.897 241.73 499.79C241.73 522.684 258.163 542.361 280.028 546.898" stroke="white" stroke-opacity="0.15" stroke-width="1.15227" stroke-miterlimit="10"/>
<path d="M301.532 535.867C316.764 530.943 327.774 516.653 327.774 499.798C327.774 482.943 316.61 468.456 301.224 463.626" stroke="white" stroke-opacity="0.15" stroke-width="1.15227" stroke-miterlimit="10"/>
<path d="M278.861 463.506C263.277 468.216 251.933 482.677 251.933 499.79C251.933 516.902 263.792 532.016 279.916 536.373" stroke="white" stroke-opacity="0.15" stroke-width="1.15227" stroke-miterlimit="10"/>
<path d="M279.573 545.251C260.514 550.38 246.493 567.767 246.493 588.439C246.493 613.134 266.521 633.163 291.235 633.163C315.949 633.163 335.977 613.142 335.977 588.439C335.977 567.664 321.801 550.192 302.597 545.174" stroke="white" stroke-opacity="0.15" stroke-width="1.15227" stroke-miterlimit="10"/>
<path d="M279.916 554.352C265.629 559.087 255.314 572.554 255.314 588.431C255.314 608.254 271.395 624.328 291.226 624.328C311.058 624.328 327.139 608.254 327.139 588.431C327.139 572.443 316.687 558.899 302.236 554.25" stroke="white" stroke-opacity="0.15" stroke-width="1.15227" stroke-miterlimit="10"/>
<path d="M255.323 484.144L278.869 490.835" stroke="white" stroke-opacity="0.15" stroke-width="1.15227" stroke-miterlimit="10"/>
<path d="M252.723 492.087C253.89 492.876 278.861 498.452 278.861 498.452L259.399 522.366" stroke="white" stroke-opacity="0.15" stroke-width="1.15227" stroke-miterlimit="10"/>
<path d="M267.096 530.103L279.719 514.114" stroke="white" stroke-opacity="0.15" stroke-width="1.15227" stroke-miterlimit="10"/>
<path d="M318.386 474.829C318.386 474.829 305.394 490.08 302.605 494.369L327.147 502.732" stroke="white" stroke-opacity="0.15" stroke-width="1.15227" stroke-miterlimit="10"/>
<path d="M301.43 480.01L310.5 468.001" stroke="white" stroke-opacity="0.15" stroke-width="1.15227" stroke-miterlimit="10"/>
<path d="M300.846 502.74L325.843 511.764" stroke="white" stroke-opacity="0.15" stroke-width="1.15227" stroke-miterlimit="10"/>
<path d="M563.826 522.365C564.358 515.417 564.624 508.401 564.624 501.324C564.624 353.704 447.593 233.412 301.215 228.094" stroke="white" stroke-opacity="0.15" stroke-width="1.15227" stroke-miterlimit="10"/>
<path d="M138.489 728.28C182.082 757.624 234.582 774.753 291.089 774.753C347.596 774.753 397.994 758.31 441.054 730.038" stroke="white" stroke-opacity="0.15" stroke-width="1.15227" stroke-miterlimit="10"/>
<path d="M88.1089 684.817C95.8063 693.266 104.053 701.234 112.814 708.705" stroke="white" stroke-opacity="0.15" stroke-width="1.15227" stroke-miterlimit="10"/>
<path d="M25.0028 564.945C31.0526 590.309 40.4404 614.138 52.7974 636.028" stroke="white" stroke-opacity="0.15" stroke-width="1.15227" stroke-miterlimit="10"/>
<path d="M275.694 228.335C131.787 236.32 17.5542 355.489 17.5542 501.325C17.5542 508.402 17.8203 515.418 18.3523 522.366" stroke="white" stroke-opacity="0.15" stroke-width="1.15227" stroke-miterlimit="10"/>
<path d="M546.87 521.774C547.402 515.032 547.676 508.213 547.676 501.334C547.676 362.119 436.712 248.818 298.375 244.967" stroke="white" stroke-opacity="0.15" stroke-width="1.15227" stroke-miterlimit="10"/>
<path d="M147.912 714.187C188.81 741.729 238.074 757.804 291.089 757.804C344.104 757.804 392.433 742.038 433.091 714.976" stroke="white" stroke-opacity="0.15" stroke-width="1.15227" stroke-miterlimit="10"/>
<path d="M91.4902 662.79C100.372 673.683 110.18 683.848 120.855 693.223" stroke="white" stroke-opacity="0.15" stroke-width="1.15227" stroke-miterlimit="10"/>
<path d="M42.4141 564.73C46.7819 581.903 52.763 598.277 60.2373 613.726" stroke="white" stroke-opacity="0.15" stroke-width="1.15227" stroke-miterlimit="10"/>
<path d="M277.248 245.224C141.982 252.412 34.5107 364.324 34.5107 501.325C34.5107 508.41 34.7939 515.427 35.3602 522.366" stroke="white" stroke-opacity="0.15" stroke-width="1.15227" stroke-miterlimit="10"/>
<path d="M306.896 15.9363C306.896 15.9363 309.316 24.308 306.896 29.9092C304.476 35.5103 295.749 43.7534 295.749 43.7534L302.536 564.731V571.241H280.242L275.394 43.7534L273.549 41.8235C266.77 34.7126 263.972 24.5654 266.59 15.1043C267.963 10.1464 270.666 5.90052 275.78 4.99988" stroke="white" stroke-opacity="0.15" stroke-width="1.15227" stroke-miterlimit="10"/>
<path d="M300.855 421.073H278.87V435.132H300.855V421.073Z" stroke="white" stroke-opacity="0.15" stroke-width="1.15227" stroke-miterlimit="10"/>
<path d="M291.235 593.037C293.775 593.037 295.835 590.979 295.835 588.439C295.835 585.9 293.775 583.842 291.235 583.842C288.695 583.842 286.635 585.9 286.635 588.439C286.635 590.979 288.695 593.037 291.235 593.037Z" stroke="white" stroke-opacity="0.15" stroke-width="1.15227" stroke-miterlimit="10"/>
<path d="M315.374 460.384L463.486 313.45" stroke="white" stroke-opacity="0.15" stroke-width="1.15227" stroke-miterlimit="10"/>
<path d="M40.3633 446.643L241.721 499.798" stroke="white" stroke-opacity="0.15" stroke-width="1.15227" stroke-miterlimit="10"/>
<path d="M42.3109 435.132L242.562 490.835" stroke="white" stroke-opacity="0.15" stroke-width="1.15227" stroke-miterlimit="10"/>
<path d="M46.4301 423.844L245.969 480.01" stroke="white" stroke-opacity="0.15" stroke-width="1.15227" stroke-miterlimit="10"/>
<path d="M228.755 252.481C229.845 256.872 278.869 421.073 278.869 421.073" stroke="white" stroke-opacity="0.15" stroke-width="1.15227" stroke-miterlimit="10"/>
<path d="M213.798 256.701L268.152 456.842" stroke="white" stroke-opacity="0.15" stroke-width="1.15227" stroke-miterlimit="10"/>
<path d="M221.607 252.481L279.161 452.87" stroke="white" stroke-opacity="0.15" stroke-width="1.15227" stroke-miterlimit="10"/>
<path d="M315.374 626.077L353.955 750.041" stroke="white" stroke-opacity="0.15" stroke-width="1.15227" stroke-miterlimit="10"/>
<path d="M116.719 772.257L227.485 566.034" stroke="white" stroke-opacity="0.15" stroke-width="1.15227" stroke-miterlimit="10"/>
<path d="M88.1089 753.335L189.204 564.73" stroke="white" stroke-opacity="0.15" stroke-width="1.15227" stroke-miterlimit="10"/>
<path d="M46.43 477.754H103.856V511.661L93.6781 521.834H60.2458L46.43 511.661V477.754Z" stroke="white" stroke-opacity="0.15" stroke-width="1.15227" stroke-miterlimit="10"/>
<path d="M88.1089 521.834H60.2457V629.612H88.1089V521.834Z" stroke="white" stroke-opacity="0.15" stroke-width="1.15227" stroke-miterlimit="10"/>
<path d="M88.1089 664.479H60.2457V772.257H88.1089V664.479Z" stroke="white" stroke-opacity="0.15" stroke-width="1.15227" stroke-miterlimit="10"/>
<path d="M60.2457 629.612L53.8184 636.028H42.3109V652.857H51.2783L61.2154 662.79H93.1976L103.855 652.128V637.598L88.1089 629.612" stroke="white" stroke-opacity="0.15" stroke-width="1.15227" stroke-miterlimit="10"/>
<path d="M88.1089 575.718H60.2457V581.654H88.1089V575.718Z" stroke="white" stroke-opacity="0.15" stroke-width="1.15227" stroke-miterlimit="10"/>
<path d="M88.1089 683.376H60.2457V689.312H88.1089V683.376Z" stroke="white" stroke-opacity="0.15" stroke-width="1.15227" stroke-miterlimit="10"/>
<path d="M60.2458 532.488H33.5926V553.803H60.2458V532.488Z" stroke="white" stroke-opacity="0.15" stroke-width="1.15227" stroke-miterlimit="10"/>
<path d="M121.79 534.915H88.1089V553.803H121.79V534.915Z" stroke="white" stroke-opacity="0.15" stroke-width="1.15227" stroke-miterlimit="10"/>
<path d="M42.311 547.747C44.8512 547.747 46.9105 545.688 46.9105 543.149C46.9105 540.61 44.8512 538.552 42.311 538.552C39.7707 538.552 37.7115 540.61 37.7115 543.149C37.7115 545.688 39.7707 547.747 42.311 547.747Z" stroke="white" stroke-opacity="0.15" stroke-width="1.15227" stroke-miterlimit="10"/>
<path d="M108.464 547.747C111.004 547.747 113.063 545.688 113.063 543.149C113.063 540.61 111.004 538.552 108.464 538.552C105.923 538.552 103.864 540.61 103.864 543.149C103.864 545.688 105.923 547.747 108.464 547.747Z" stroke="white" stroke-opacity="0.15" stroke-width="1.15227" stroke-miterlimit="10"/>
<path d="M4.99994 523.421C7.90897 524.39 60.2458 523.421 60.2458 523.421" stroke="white" stroke-opacity="0.15" stroke-width="1.15227" stroke-miterlimit="10"/>
<path d="M88.1089 523.635H248.037" stroke="white" stroke-opacity="0.15" stroke-width="1.15227" stroke-miterlimit="10"/>
<path d="M4.99994 564.731C7.90897 565.7 60.2458 564.731 60.2458 564.731" stroke="white" stroke-opacity="0.15" stroke-width="1.15227" stroke-miterlimit="10"/>
<path d="M88.1089 564.945H251.942" stroke="white" stroke-opacity="0.15" stroke-width="1.15227" stroke-miterlimit="10"/>
<path d="M296.255 73.2953H275.669V82.5076H296.255V73.2953Z" stroke="white" stroke-opacity="0.15" stroke-width="1.15227" stroke-miterlimit="10"/>
<path d="M285.511 29.0343C288.89 29.0343 291.63 26.2961 291.63 22.9184C291.63 19.5408 288.89 16.8026 285.511 16.8026C282.132 16.8026 279.393 19.5408 279.393 22.9184C279.393 26.2961 282.132 29.0343 285.511 29.0343Z" stroke="white" stroke-opacity="0.15" stroke-width="1.15227" stroke-miterlimit="10"/>
</g>
<defs>
<filter id="filter0_f_9742_36130" x="0.81781" y="0.432495" width="574.182" height="778.897" filterUnits="userSpaceOnUse" color-interpolation-filters="sRGB">
<feFlood flood-opacity="0" result="BackgroundImageFix"/>
<feBlend mode="normal" in="SourceGraphic" in2="BackgroundImageFix" result="shape"/>
<feGaussianBlur stdDeviation="2" result="effect1_foregroundBlur_9742_36130"/>
</filter>
</defs>
</svg>
