<svg width="311" height="676" viewBox="0 0 311 676" fill="none" xmlns="http://www.w3.org/2000/svg">
<g filter="url(#filter0_f_9742_36234)">
<path d="M102.792 204.602H9.81378V210.657H102.792V204.602Z" stroke="white" stroke-opacity="0.15" stroke-width="0.987027" stroke-miterlimit="10"/>
<path d="M102.792 294.47H9.81378V300.525H102.792V294.47Z" stroke="white" stroke-opacity="0.15" stroke-width="0.987027" stroke-miterlimit="10"/>
<path d="M102.792 346.072H9.81378V352.127H102.792V346.072Z" stroke="white" stroke-opacity="0.15" stroke-width="0.987027" stroke-miterlimit="10"/>
<path d="M17.0909 210.878V294.47" stroke="white" stroke-opacity="0.15" stroke-width="0.987027" stroke-miterlimit="10"/>
<path d="M52.4254 210.878V372.141" stroke="white" stroke-opacity="0.15" stroke-width="0.987027" stroke-miterlimit="10"/>
<path d="M57.9016 210.878V372.141" stroke="white" stroke-opacity="0.15" stroke-width="0.987027" stroke-miterlimit="10"/>
<path d="M95.1472 210.878V294.47" stroke="white" stroke-opacity="0.15" stroke-width="0.987027" stroke-miterlimit="10"/>
<path d="M17.0909 300.525V346.072" stroke="white" stroke-opacity="0.15" stroke-width="0.987027" stroke-miterlimit="10"/>
<path d="M95.1472 300.525V346.072" stroke="white" stroke-opacity="0.15" stroke-width="0.987027" stroke-miterlimit="10"/>
<path d="M17.0909 352.126V395.851H43.296" stroke="white" stroke-opacity="0.15" stroke-width="0.987027" stroke-miterlimit="10"/>
<path d="M95.1473 352.126V395.851H68.4866" stroke="white" stroke-opacity="0.15" stroke-width="0.987027" stroke-miterlimit="10"/>
<path d="M55.5713 392.934C61.4212 392.934 66.1635 388.194 66.1635 382.347C66.1635 376.499 61.4212 371.759 55.5713 371.759C49.7213 371.759 44.979 376.499 44.979 382.347C44.979 388.194 49.7213 392.934 55.5713 392.934Z" stroke="white" stroke-opacity="0.15" stroke-width="0.987027" stroke-miterlimit="10"/>
<path d="M46.3391 387.541L38.1799 423.956H43.2959L48.4046 418.849H61.5549L64.1056 423.956H73.6026L65.7154 385.374" stroke="white" stroke-opacity="0.15" stroke-width="0.987027" stroke-miterlimit="10"/>
<path d="M94.302 188.004H17.0909V204.602H94.302V188.004Z" stroke="white" stroke-opacity="0.15" stroke-width="0.987027" stroke-miterlimit="10"/>
<path d="M75.749 173.177H36.5848V188.005H75.749V173.177Z" stroke="white" stroke-opacity="0.15" stroke-width="0.987027" stroke-miterlimit="10"/>
<path d="M68.4939 160.495H44.6926V173.185H68.4939V160.495Z" stroke="white" stroke-opacity="0.15" stroke-width="0.987027" stroke-miterlimit="10"/>
<path d="M61.7018 5H56.1668V160.496H61.7018V5Z" stroke="white" stroke-opacity="0.15" stroke-width="0.987027" stroke-miterlimit="10"/>
<path d="M58.1809 418.849H48.4045V639.458H58.1809V418.849Z" stroke="white" stroke-opacity="0.15" stroke-width="0.987027" stroke-miterlimit="10"/>
<path d="M69.2584 639.459H38.1799V670.524H69.2584V639.459Z" stroke="white" stroke-opacity="0.15" stroke-width="0.987027" stroke-miterlimit="10"/>
<path d="M53.7264 659.165C56.0323 659.165 57.9016 657.296 57.9016 654.991C57.9016 652.686 56.0323 650.818 53.7264 650.818C51.4205 650.818 49.5513 652.686 49.5513 654.991C49.5513 657.296 51.4205 659.165 53.7264 659.165Z" stroke="white" stroke-opacity="0.15" stroke-width="0.987027" stroke-miterlimit="10"/>
<path d="M-68.0001 195.911C-58.04 196.072 17.0908 188.012 17.0908 188.012" stroke="white" stroke-opacity="0.15" stroke-width="0.987027" stroke-miterlimit="10"/>
<path d="M-68.0001 175.844L43.2958 166.836" stroke="white" stroke-opacity="0.15" stroke-width="0.987027" stroke-miterlimit="10"/>
<path d="M125.638 643.559H102.792V670.532H125.638V643.559Z" stroke="white" stroke-opacity="0.15" stroke-width="0.987027" stroke-miterlimit="10"/>
<path d="M142.456 620.782H86.4149V643.559H142.456V620.782Z" stroke="white" stroke-opacity="0.15" stroke-width="0.987027" stroke-miterlimit="10"/>
<path d="M135.605 507.256H93.4716V620.782H135.605V507.256Z" stroke="white" stroke-opacity="0.15" stroke-width="0.987027" stroke-miterlimit="10"/>
<path d="M125.638 493.875H102.792V507.255H125.638V493.875Z" stroke="white" stroke-opacity="0.15" stroke-width="0.987027" stroke-miterlimit="10"/>
<path d="M121.904 441.906H109.452V493.876H121.904V441.906Z" stroke="white" stroke-opacity="0.15" stroke-width="0.987027" stroke-miterlimit="10"/>
<path d="M198.799 643.559H175.953V670.532H198.799V643.559Z" stroke="white" stroke-opacity="0.15" stroke-width="0.987027" stroke-miterlimit="10"/>
<path d="M215.617 620.782H159.576V643.559H215.617V620.782Z" stroke="white" stroke-opacity="0.15" stroke-width="0.987027" stroke-miterlimit="10"/>
<path d="M208.766 507.256H166.632V620.782H208.766V507.256Z" stroke="white" stroke-opacity="0.15" stroke-width="0.987027" stroke-miterlimit="10"/>
<path d="M198.799 493.875H175.953V507.255H198.799V493.875Z" stroke="white" stroke-opacity="0.15" stroke-width="0.987027" stroke-miterlimit="10"/>
<path d="M195.065 441.906H182.613V493.876H195.065V441.906Z" stroke="white" stroke-opacity="0.15" stroke-width="0.987027" stroke-miterlimit="10"/>
<path d="M306 429.459H57.9015V441.906H306V429.459Z" stroke="white" stroke-opacity="0.15" stroke-width="0.987027" stroke-miterlimit="10"/>
<path d="M48.4046 429.459H-68V441.906H48.4046V429.459Z" stroke="white" stroke-opacity="0.15" stroke-width="0.987027" stroke-miterlimit="10"/>
</g>
<defs>
<filter id="filter0_f_9742_36234" x="-72.9252" y="0.0748744" width="383.85" height="675.382" filterUnits="userSpaceOnUse" color-interpolation-filters="sRGB">
<feFlood flood-opacity="0" result="BackgroundImageFix"/>
<feBlend mode="normal" in="SourceGraphic" in2="BackgroundImageFix" result="shape"/>
<feGaussianBlur stdDeviation="2.21586" result="effect1_foregroundBlur_9742_36234"/>
</filter>
</defs>
</svg>
