<svg width="16" height="17" viewBox="0 0 16 17" fill="none" xmlns="http://www.w3.org/2000/svg">
<path d="M6 13.9999V5.44482C6 5.16868 6.22386 4.94482 6.5 4.94482H10.5365C10.6594 4.94482 10.7779 4.99006 10.8696 5.07189L13.833 7.71845C13.9393 7.81331 14 7.94896 14 8.09138V13.9999C14 14.276 13.7761 14.4999 13.5 14.4999H6.5C6.22386 14.4999 6 14.276 6 13.9999Z" stroke="white" stroke-linecap="round"/>
<path d="M10.5 8.28909V4.94482L14 8.28909H10.5Z" stroke="white" stroke-linecap="round" stroke-linejoin="round"/>
<path d="M9.5 4.46723L7.36816 2.62196C7.27729 2.5433 7.16112 2.50001 7.04093 2.50001H4.61364H2.5C2.22386 2.50001 2 2.72386 2 3.00001L2.00001 11.1335C2.00001 11.4096 2.22386 11.6335 2.50001 11.6335H5.50001" stroke="white" stroke-linecap="round"/>
</svg>
