<svg width="361" height="279" viewBox="0 0 361 279" fill="none" xmlns="http://www.w3.org/2000/svg">
<mask id="mask0_9636_88056" style="mask-type:alpha" maskUnits="userSpaceOnUse" x="0" y="0" width="361" height="279">
<rect x="360.5" y="278.949" width="360" height="278.077" transform="rotate(-180 360.5 278.949)" fill="white" fill-opacity="0.05"/>
</mask>
<g mask="url(#mask0_9636_88056)">
<path d="M349.819 453.898L349.819 -163.913" stroke="white" stroke-width="0.5" stroke-miterlimit="10"/>
<path d="M337.738 453.898L337.738 -163.913" stroke="white" stroke-width="0.5" stroke-miterlimit="10"/>
<path d="M325.658 453.898L325.658 -163.913" stroke="white" stroke-width="0.5" stroke-miterlimit="10"/>
<path d="M313.577 453.898L313.577 -163.913" stroke="white" stroke-width="0.5" stroke-miterlimit="10"/>
<path d="M301.496 453.898L301.496 -163.913" stroke="white" stroke-width="0.5" stroke-miterlimit="10"/>
<path d="M289.416 453.898L289.416 -163.913" stroke="white" stroke-width="0.5" stroke-miterlimit="10"/>
<path d="M277.335 453.898L277.335 -163.913" stroke="white" stroke-width="0.5" stroke-miterlimit="10"/>
<path d="M265.254 453.898L265.254 -163.913" stroke="white" stroke-width="0.5" stroke-miterlimit="10"/>
<path d="M253.173 453.898L253.173 -163.913" stroke="white" stroke-width="0.5" stroke-miterlimit="10"/>
<path d="M241.093 453.898L241.093 -163.913" stroke="white" stroke-width="0.5" stroke-miterlimit="10"/>
<path d="M229.012 453.898L229.012 -163.913" stroke="white" stroke-width="0.5" stroke-miterlimit="10"/>
<path d="M216.931 453.898L216.931 -163.913" stroke="white" stroke-width="0.5" stroke-miterlimit="10"/>
<path d="M204.851 453.898L204.851 -163.913" stroke="white" stroke-width="0.5" stroke-miterlimit="10"/>
<path d="M192.77 453.898L192.77 -163.913" stroke="white" stroke-width="0.5" stroke-miterlimit="10"/>
<path d="M180.689 453.898L180.689 -163.913" stroke="white" stroke-width="0.5" stroke-miterlimit="10"/>
<path d="M168.608 453.898L168.608 -163.913" stroke="white" stroke-width="0.5" stroke-miterlimit="10"/>
<path d="M156.527 453.898L156.527 -163.913" stroke="white" stroke-width="0.5" stroke-miterlimit="10"/>
<path d="M144.447 453.898L144.447 -163.913" stroke="white" stroke-width="0.5" stroke-miterlimit="10"/>
<path d="M132.366 453.898L132.366 -163.913" stroke="white" stroke-width="0.5" stroke-miterlimit="10"/>
<path d="M120.286 453.898L120.286 -163.913" stroke="white" stroke-width="0.5" stroke-miterlimit="10"/>
<path d="M108.205 453.898L108.205 -163.913" stroke="white" stroke-width="0.5" stroke-miterlimit="10"/>
<path d="M96.124 453.898L96.1241 -163.913" stroke="white" stroke-width="0.5" stroke-miterlimit="10"/>
<path d="M84.0435 453.898L84.0435 -163.913" stroke="white" stroke-width="0.5" stroke-miterlimit="10"/>
<path d="M71.9629 453.898L71.9629 -163.913" stroke="white" stroke-width="0.5" stroke-miterlimit="10"/>
<path d="M59.8818 453.898L59.8819 -163.913" stroke="white" stroke-width="0.5" stroke-miterlimit="10"/>
<path d="M47.8013 453.898L47.8013 -163.913" stroke="white" stroke-width="0.5" stroke-miterlimit="10"/>
<path d="M35.7202 453.898L35.7203 -163.913" stroke="white" stroke-width="0.5" stroke-miterlimit="10"/>
<path d="M23.6396 453.898L23.6397 -163.913" stroke="white" stroke-width="0.5" stroke-miterlimit="10"/>
<path d="M11.5586 453.898L11.5586 -163.913" stroke="white" stroke-width="0.5" stroke-miterlimit="10"/>
<path d="M578.577 58.8708L64.9732 -201.946" stroke="white" stroke-width="0.5" stroke-miterlimit="10"/>
<path d="M572.536 68.0772L58.9327 -192.739" stroke="white" stroke-width="0.5" stroke-miterlimit="10"/>
<path d="M566.496 77.2761L52.8927 -183.54" stroke="white" stroke-width="0.5" stroke-miterlimit="10"/>
<path d="M560.456 86.4826L46.8521 -174.334" stroke="white" stroke-width="0.5" stroke-miterlimit="10"/>
<path d="M554.415 95.6814L40.8116 -165.135" stroke="white" stroke-width="0.5" stroke-miterlimit="10"/>
<path d="M548.375 104.88L34.7711 -155.929" stroke="white" stroke-width="0.5" stroke-miterlimit="10"/>
<path d="M542.334 114.087L28.731 -146.73" stroke="white" stroke-width="0.5" stroke-miterlimit="10"/>
<path d="M536.294 123.286L22.6905 -137.531" stroke="white" stroke-width="0.5" stroke-miterlimit="10"/>
<path d="M530.254 132.492L16.6505 -128.324" stroke="white" stroke-width="0.5" stroke-miterlimit="10"/>
<path d="M524.213 141.691L10.6099 -119.126" stroke="white" stroke-width="0.5" stroke-miterlimit="10"/>
<path d="M518.173 150.897L4.56942 -109.919" stroke="white" stroke-width="0.5" stroke-miterlimit="10"/>
<path d="M512.132 160.096L-1.47111 -100.72" stroke="white" stroke-width="0.5" stroke-miterlimit="10"/>
<path d="M506.092 169.295L-7.51115 -91.5136" stroke="white" stroke-width="0.5" stroke-miterlimit="10"/>
<path d="M500.052 178.502L-13.5517 -82.3148" stroke="white" stroke-width="0.5" stroke-miterlimit="10"/>
<path d="M494.012 187.701L-19.5917 -73.1161" stroke="white" stroke-width="0.5" stroke-miterlimit="10"/>
<path d="M487.971 196.907L-25.6322 -63.9098" stroke="white" stroke-width="0.5" stroke-miterlimit="10"/>
<path d="M481.931 206.106L-31.6728 -54.7107" stroke="white" stroke-width="0.5" stroke-miterlimit="10"/>
<path d="M475.891 215.312L-37.7128 -45.5042" stroke="white" stroke-width="0.5" stroke-miterlimit="10"/>
<path d="M469.85 224.511L-43.7533 -36.3052" stroke="white" stroke-width="0.5" stroke-miterlimit="10"/>
<path d="M463.81 233.71L-49.7939 -27.099" stroke="white" stroke-width="0.5" stroke-miterlimit="10"/>
<path d="M457.769 242.917L-55.8344 -17.9001" stroke="white" stroke-width="0.5" stroke-miterlimit="10"/>
<path d="M451.729 252.115L-61.8744 -8.69386" stroke="white" stroke-width="0.5" stroke-miterlimit="10"/>
<path d="M445.688 261.322L-67.915 0.505301" stroke="white" stroke-width="0.5" stroke-miterlimit="10"/>
<path d="M439.648 270.52L-73.9555 9.70382" stroke="white" stroke-width="0.5" stroke-miterlimit="10"/>
<path d="M433.608 279.727L-79.9955 18.9107" stroke="white" stroke-width="0.5" stroke-miterlimit="10"/>
<path d="M427.567 288.926L-86.0361 28.1092" stroke="white" stroke-width="0.5" stroke-miterlimit="10"/>
<path d="M421.527 298.133L-92.0761 37.3159" stroke="white" stroke-width="0.5" stroke-miterlimit="10"/>
<path d="M415.487 307.331L-98.1166 46.5144" stroke="white" stroke-width="0.5" stroke-miterlimit="10"/>
<path d="M409.446 316.53L-104.157 55.7211" stroke="white" stroke-width="0.5" stroke-miterlimit="10"/>
<path d="M403.406 325.736L-110.197 64.9198" stroke="white" stroke-width="0.5" stroke-miterlimit="10"/>
<path d="M397.366 334.935L-116.238 74.1188" stroke="white" stroke-width="0.5" stroke-miterlimit="10"/>
<path d="M391.325 344.142L-122.278 83.3252" stroke="white" stroke-width="0.5" stroke-miterlimit="10"/>
<path d="M385.285 353.341L-128.318 92.524" stroke="white" stroke-width="0.5" stroke-miterlimit="10"/>
<path d="M379.245 362.547L-134.359 101.73" stroke="white" stroke-width="0.5" stroke-miterlimit="10"/>
<path d="M373.204 371.746L-140.399 110.929" stroke="white" stroke-width="0.5" stroke-miterlimit="10"/>
<path d="M367.164 380.945L-146.44 120.136" stroke="white" stroke-width="0.5" stroke-miterlimit="10"/>
<path d="M361.124 390.151L-152.48 129.335" stroke="white" stroke-width="0.5" stroke-miterlimit="10"/>
<path d="M355.083 399.35L-158.52 138.534" stroke="white" stroke-width="0.5" stroke-miterlimit="10"/>
<path d="M349.043 408.557L-164.56 147.74" stroke="white" stroke-width="0.5" stroke-miterlimit="10"/>
<path d="M343.002 417.756L-170.601 156.939" stroke="white" stroke-width="0.5" stroke-miterlimit="10"/>
<path d="M336.962 426.962L-176.642 166.145" stroke="white" stroke-width="0.5" stroke-miterlimit="10"/>
<path d="M330.922 436.161L-182.682 175.344" stroke="white" stroke-width="0.5" stroke-miterlimit="10"/>
<path d="M324.881 445.367L-188.722 184.551" stroke="white" stroke-width="0.5" stroke-miterlimit="10"/>
<path d="M318.841 454.566L-194.763 193.75" stroke="white" stroke-width="0.5" stroke-miterlimit="10"/>
<path d="M312.801 463.765L-200.803 202.956" stroke="white" stroke-width="0.5" stroke-miterlimit="10"/>
<path d="M306.76 472.972L-206.843 212.155" stroke="white" stroke-width="0.5" stroke-miterlimit="10"/>
<path d="M300.72 482.171L-212.883 221.354" stroke="white" stroke-width="0.5" stroke-miterlimit="10"/>
<path d="M294.68 491.377L-218.924 230.56" stroke="white" stroke-width="0.5" stroke-miterlimit="10"/>
<path d="M-218.924 58.8708L294.68 -201.946" stroke="white" stroke-width="0.5" stroke-miterlimit="10"/>
<path d="M-212.884 68.0772L300.72 -192.739" stroke="white" stroke-width="0.5" stroke-miterlimit="10"/>
<path d="M-206.843 77.2762L306.76 -183.54" stroke="white" stroke-width="0.5" stroke-miterlimit="10"/>
<path d="M-200.803 86.4826L312.8 -174.334" stroke="white" stroke-width="0.5" stroke-miterlimit="10"/>
<path d="M-194.763 95.6814L318.841 -165.135" stroke="white" stroke-width="0.5" stroke-miterlimit="10"/>
<path d="M-188.722 104.88L324.881 -155.929" stroke="white" stroke-width="0.5" stroke-miterlimit="10"/>
<path d="M-182.682 114.087L330.922 -146.73" stroke="white" stroke-width="0.5" stroke-miterlimit="10"/>
<path d="M-176.642 123.286L336.962 -137.531" stroke="white" stroke-width="0.5" stroke-miterlimit="10"/>
<path d="M-170.601 132.492L343.002 -128.324" stroke="white" stroke-width="0.5" stroke-miterlimit="10"/>
<path d="M-164.56 141.691L349.043 -119.126" stroke="white" stroke-width="0.5" stroke-miterlimit="10"/>
<path d="M-158.52 150.897L355.083 -109.919" stroke="white" stroke-width="0.5" stroke-miterlimit="10"/>
<path d="M-152.48 160.096L361.124 -100.72" stroke="white" stroke-width="0.5" stroke-miterlimit="10"/>
<path d="M-146.44 169.295L367.164 -91.5136" stroke="white" stroke-width="0.5" stroke-miterlimit="10"/>
<path d="M-140.399 178.502L373.204 -82.3148" stroke="white" stroke-width="0.5" stroke-miterlimit="10"/>
<path d="M-134.359 187.701L379.245 -73.116" stroke="white" stroke-width="0.5" stroke-miterlimit="10"/>
<path d="M-128.318 196.907L385.285 -63.9097" stroke="white" stroke-width="0.5" stroke-miterlimit="10"/>
<path d="M-122.278 206.106L391.325 -54.7107" stroke="white" stroke-width="0.5" stroke-miterlimit="10"/>
<path d="M-116.238 215.312L397.366 -45.5042" stroke="white" stroke-width="0.5" stroke-miterlimit="10"/>
<path d="M-110.197 224.511L403.406 -36.3052" stroke="white" stroke-width="0.5" stroke-miterlimit="10"/>
<path d="M-104.157 233.71L409.446 -27.099" stroke="white" stroke-width="0.5" stroke-miterlimit="10"/>
<path d="M-98.1166 242.916L415.487 -17.9001" stroke="white" stroke-width="0.5" stroke-miterlimit="10"/>
<path d="M-92.0766 252.115L421.527 -8.69381" stroke="white" stroke-width="0.5" stroke-miterlimit="10"/>
<path d="M-86.0361 261.322L427.567 0.505346" stroke="white" stroke-width="0.5" stroke-miterlimit="10"/>
<path d="M-79.9955 270.52L433.608 9.70386" stroke="white" stroke-width="0.5" stroke-miterlimit="10"/>
<path d="M-73.9555 279.727L439.648 18.9107" stroke="white" stroke-width="0.5" stroke-miterlimit="10"/>
<path d="M-67.915 288.926L445.688 28.1092" stroke="white" stroke-width="0.5" stroke-miterlimit="10"/>
<path d="M-61.8745 298.132L451.729 37.3159" stroke="white" stroke-width="0.5" stroke-miterlimit="10"/>
<path d="M-55.8339 307.331L457.77 46.5144" stroke="white" stroke-width="0.5" stroke-miterlimit="10"/>
<path d="M-49.7939 316.53L463.81 55.721" stroke="white" stroke-width="0.5" stroke-miterlimit="10"/>
<path d="M-43.7534 325.736L469.85 64.9198" stroke="white" stroke-width="0.5" stroke-miterlimit="10"/>
<path d="M-37.7133 334.935L475.89 74.1188" stroke="white" stroke-width="0.5" stroke-miterlimit="10"/>
<path d="M-31.6728 344.142L481.931 83.3252" stroke="white" stroke-width="0.5" stroke-miterlimit="10"/>
<path d="M-25.6323 353.341L487.971 92.524" stroke="white" stroke-width="0.5" stroke-miterlimit="10"/>
<path d="M-19.5917 362.547L494.012 101.73" stroke="white" stroke-width="0.5" stroke-miterlimit="10"/>
<path d="M-13.5517 371.746L500.052 110.929" stroke="white" stroke-width="0.5" stroke-miterlimit="10"/>
<path d="M-7.51117 380.945L506.092 120.136" stroke="white" stroke-width="0.5" stroke-miterlimit="10"/>
<path d="M-1.47113 390.151L512.132 129.335" stroke="white" stroke-width="0.5" stroke-miterlimit="10"/>
<path d="M4.56939 399.35L518.173 138.534" stroke="white" stroke-width="0.5" stroke-miterlimit="10"/>
<path d="M10.6099 408.556L524.213 147.74" stroke="white" stroke-width="0.5" stroke-miterlimit="10"/>
<path d="M16.65 417.756L530.253 156.939" stroke="white" stroke-width="0.5" stroke-miterlimit="10"/>
<path d="M22.6905 426.962L536.294 166.145" stroke="white" stroke-width="0.5" stroke-miterlimit="10"/>
<path d="M28.7305 436.161L542.334 175.344" stroke="white" stroke-width="0.5" stroke-miterlimit="10"/>
<path d="M34.7711 445.367L548.375 184.551" stroke="white" stroke-width="0.5" stroke-miterlimit="10"/>
<path d="M40.8116 454.566L554.415 193.749" stroke="white" stroke-width="0.5" stroke-miterlimit="10"/>
<path d="M46.8521 463.765L560.456 202.956" stroke="white" stroke-width="0.5" stroke-miterlimit="10"/>
<path d="M52.8926 472.971L566.496 212.155" stroke="white" stroke-width="0.5" stroke-miterlimit="10"/>
<path d="M58.9327 482.17L572.536 221.354" stroke="white" stroke-width="0.5" stroke-miterlimit="10"/>
<path d="M64.9732 491.377L578.577 230.56" stroke="white" stroke-width="0.5" stroke-miterlimit="10"/>
<rect x="0.5" y="278.873" width="278" height="58" transform="rotate(-90 0.5 278.873)" fill="url(#paint0_linear_9636_88056)"/>
<rect x="371.5" y="0.872559" width="275" height="80" transform="rotate(90 371.5 0.872559)" fill="url(#paint1_linear_9636_88056)"/>
</g>
<path d="M56.7588 165.043C58.4388 178.843 68.2988 192.373 86.4088 203.013C127.019 226.883 193.589 227.153 234.729 203.393C253.389 192.623 263.489 178.833 265.099 164.783V154.533H56.7588V165.033V165.043Z" fill="black" stroke="white" stroke-width="0.75" stroke-linecap="round" stroke-linejoin="round"/>
<path d="M234.729 195.893C275.869 172.143 275.409 133.703 234.059 110.263C193.119 87.0425 127.469 87.3125 87.0589 110.643C46.6489 133.973 46.1989 171.883 86.4089 195.513C127.019 219.383 193.589 219.653 234.729 195.893Z" fill="black" stroke="white" stroke-width="0.75" stroke-linecap="round" stroke-linejoin="round"/>
<path opacity="0.3" d="M237.649 132.473C236.579 133.163 234.759 133.263 233.589 132.683C232.399 132.083 232.389 131.023 233.569 130.343C234.749 129.663 236.509 129.653 237.599 130.243C238.689 130.833 238.689 131.803 237.649 132.473Z" fill="black" stroke="white" stroke-width="0.75" stroke-linecap="round" stroke-linejoin="round"/>
<path opacity="0.3" d="M246.509 138.693C245.439 139.383 243.619 139.483 242.449 138.903C241.259 138.303 241.249 137.243 242.429 136.563C243.609 135.883 245.369 135.873 246.459 136.463C247.549 137.053 247.549 138.023 246.509 138.693Z" fill="black" stroke="white" stroke-width="0.75" stroke-linecap="round" stroke-linejoin="round"/>
<path opacity="0.3" d="M250.999 154.073C249.929 154.763 248.109 154.863 246.939 154.283C245.749 153.683 245.739 152.623 246.919 151.943C248.059 151.283 249.859 151.253 250.949 151.843C252.039 152.433 252.039 153.403 250.999 154.073Z" fill="black" stroke="white" stroke-width="0.75" stroke-linecap="round" stroke-linejoin="round"/>
<path opacity="0.3" d="M255.619 146.623C254.549 147.313 252.729 147.413 251.559 146.833C250.369 146.233 250.359 145.173 251.539 144.493C252.719 143.813 254.479 143.803 255.569 144.393C256.659 144.983 256.659 145.953 255.619 146.623Z" fill="black" stroke="white" stroke-width="0.75" stroke-linecap="round" stroke-linejoin="round"/>
<g opacity="0.3">
<path d="M236.119 195.543L226.409 190.723C224.949 190.003 224.549 188.113 225.569 186.853C226.309 185.953 227.569 185.663 228.619 186.163L240.799 191.953" fill="black"/>
<path d="M236.119 195.543L226.409 190.723C224.949 190.003 224.549 188.113 225.569 186.853C226.309 185.953 227.569 185.663 228.619 186.163L240.799 191.953" stroke="white" stroke-width="0.75" stroke-linecap="round" stroke-linejoin="round"/>
</g>
<g opacity="0.3">
<path d="M243.259 190.333L231.339 184.413C229.879 183.693 229.479 181.803 230.499 180.543C231.239 179.643 232.499 179.353 233.549 179.853L247.659 186.563" fill="black"/>
<path d="M243.259 190.333L231.339 184.413C229.879 183.693 229.479 181.803 230.499 180.543C231.239 179.643 232.499 179.353 233.549 179.853L247.659 186.563" stroke="white" stroke-width="0.75" stroke-linecap="round" stroke-linejoin="round"/>
</g>
<g opacity="0.3">
<path d="M250.659 184.053L236.959 177.253C235.499 176.533 235.099 174.643 236.119 173.383C236.859 172.483 238.119 172.193 239.169 172.693L254.529 179.993" fill="black"/>
<path d="M250.659 184.053L236.959 177.253C235.499 176.533 235.099 174.643 236.119 173.383C236.859 172.483 238.119 172.193 239.169 172.693L254.529 179.993" stroke="white" stroke-width="0.75" stroke-linecap="round" stroke-linejoin="round"/>
</g>
<g opacity="0.3">
<path d="M256.379 177.853L242.209 170.813C240.749 170.093 240.349 168.203 241.369 166.943C242.109 166.043 243.369 165.753 244.419 166.253L259.379 173.363" fill="black"/>
<path d="M256.379 177.853L242.209 170.813C240.749 170.093 240.349 168.203 241.369 166.943C242.109 166.043 243.369 165.753 244.419 166.253L259.379 173.363" stroke="white" stroke-width="0.75" stroke-linecap="round" stroke-linejoin="round"/>
</g>
<g opacity="0.3">
<path d="M261.009 170.153L248.179 163.783C246.719 163.063 246.319 161.173 247.339 159.913C248.079 159.013 249.339 158.723 250.389 159.223L263.229 165.323" fill="black"/>
<path d="M261.009 170.153L248.179 163.783C246.719 163.063 246.319 161.173 247.339 159.913C248.079 159.013 249.339 158.723 250.389 159.223L263.229 165.323" stroke="white" stroke-width="0.75" stroke-linecap="round" stroke-linejoin="round"/>
</g>
<g opacity="0.3">
<path d="M244.419 158.973L242.739 156.473L235.549 133.603" fill="black"/>
<path d="M244.419 158.973L242.739 156.473L235.549 133.603" stroke="white" stroke-width="0.75" stroke-linecap="round" stroke-linejoin="round"/>
</g>
<path opacity="0.3" d="M244.419 139.283L247.669 150.893" stroke="white" stroke-width="0.75" stroke-linecap="round" stroke-linejoin="round"/>
<g opacity="0.3">
<path d="M254.369 147.103L257.599 156.473L261.649 158.973H264.509" fill="black"/>
<path d="M254.369 147.103L257.599 156.473L261.649 158.973H264.509" stroke="white" stroke-width="0.75" stroke-linecap="round" stroke-linejoin="round"/>
</g>
<path opacity="0.3" d="M138.059 203.793C136.989 204.483 135.169 204.583 133.999 204.003C132.809 203.403 132.799 202.343 133.979 201.663C135.159 200.983 136.919 200.973 138.009 201.563C139.099 202.153 139.099 203.123 138.059 203.793Z" fill="black" stroke="white" stroke-width="0.75" stroke-linecap="round" stroke-linejoin="round"/>
<path opacity="0.3" d="M227.099 196.813C226.029 197.503 224.209 197.603 223.039 197.023C221.869 196.443 221.839 195.363 223.019 194.683C224.199 194.003 225.959 193.993 227.049 194.583C228.109 195.163 228.139 196.143 227.099 196.813Z" fill="black" stroke="white" stroke-width="0.75" stroke-linecap="round" stroke-linejoin="round"/>
<path opacity="0.3" d="M215.819 196.813C214.749 197.503 212.929 197.603 211.759 197.023C210.589 196.443 210.559 195.363 211.739 194.683C212.919 194.003 214.679 193.993 215.769 194.583C216.829 195.163 216.859 196.143 215.819 196.813Z" fill="black" stroke="white" stroke-width="0.75" stroke-linecap="round" stroke-linejoin="round"/>
<g opacity="0.3">
<path d="M139.089 202.853L181.639 207.773L222.319 197.093" fill="black"/>
<path d="M139.089 202.853L181.639 207.773L222.319 197.093" stroke="white" stroke-width="0.75" stroke-linecap="round" stroke-linejoin="round"/>
</g>
<g opacity="0.3">
<path d="M178.609 199.653L179.619 201.763L182.669 203.473L211.119 196.543" fill="black"/>
<path d="M178.609 199.653L179.619 201.763L182.669 203.473L211.119 196.543" stroke="white" stroke-width="0.75" stroke-linecap="round" stroke-linejoin="round"/>
</g>
<g opacity="0.3">
<path d="M115.439 207.773L116.579 197.633L119.149 194.703L131.109 195.783L133.709 198.473" fill="black"/>
<path d="M115.439 207.773L116.579 197.633L119.149 194.703L131.109 195.783L133.709 198.473" stroke="white" stroke-width="0.75" stroke-linecap="round" stroke-linejoin="round"/>
</g>
<g opacity="0.3">
<path d="M58.689 140.953L62.419 140.313L68.069 135.913L76.349 124.433" fill="black"/>
<path d="M58.689 140.953L62.419 140.313L68.069 135.913L76.349 124.433" stroke="white" stroke-width="0.75" stroke-linecap="round" stroke-linejoin="round"/>
</g>
<g opacity="0.3">
<path d="M73.3589 138.393L86.6189 121.543L85.1589 118.853L76.7389 117.353" fill="black"/>
<path d="M73.3589 138.393L86.6189 121.543L85.1589 118.853L76.7389 117.353" stroke="white" stroke-width="0.75" stroke-linecap="round" stroke-linejoin="round"/>
</g>
<path opacity="0.3" d="M79.509 123.933C78.439 124.623 76.619 124.723 75.449 124.143C74.279 123.563 74.249 122.483 75.429 121.803C76.569 121.143 78.369 121.113 79.459 121.703C80.549 122.293 80.549 123.263 79.509 123.933Z" fill="black" stroke="white" stroke-width="0.75" stroke-linecap="round" stroke-linejoin="round"/>
<path opacity="0.3" d="M106.349 188.503C105.279 189.193 103.459 189.293 102.289 188.713C101.099 188.113 101.089 187.053 102.269 186.373C103.409 185.713 105.209 185.683 106.299 186.273C107.389 186.863 107.389 187.833 106.349 188.503Z" fill="black" stroke="white" stroke-width="0.75" stroke-linecap="round" stroke-linejoin="round"/>
<path opacity="0.3" d="M116.649 189.343C115.579 190.033 113.759 190.133 112.589 189.553C111.399 188.953 111.389 187.893 112.569 187.213C113.709 186.553 115.509 186.523 116.599 187.113C117.689 187.703 117.689 188.673 116.649 189.343Z" fill="black" stroke="white" stroke-width="0.75" stroke-linecap="round" stroke-linejoin="round"/>
<path opacity="0.3" d="M74.9089 141.043C73.8389 141.733 72.0189 141.833 70.8489 141.253C69.6789 140.673 69.6489 139.593 70.8289 138.913C72.0089 138.233 73.7689 138.223 74.8589 138.813C75.9489 139.403 75.9489 140.373 74.9089 141.043Z" fill="black" stroke="white" stroke-width="0.75" stroke-linecap="round" stroke-linejoin="round"/>
<g opacity="0.3">
<path d="M67.5288 180.273L77.6888 175.203L83.6388 175.273L102.179 185.983" fill="black"/>
<path d="M67.5288 180.273L77.6888 175.203L83.6388 175.273L102.179 185.983" stroke="white" stroke-width="0.75" stroke-linecap="round" stroke-linejoin="round"/>
</g>
<g opacity="0.3">
<path d="M72.0688 184.963L80.2388 181.013H85.5188L103.759 191.503L109.749 191.143L112.589 189.553" fill="black"/>
<path d="M72.0688 184.963L80.2388 181.013H85.5188L103.759 191.503L109.749 191.143L112.589 189.553" stroke="white" stroke-width="0.75" stroke-linecap="round" stroke-linejoin="round"/>
</g>
<g opacity="0.3">
<path d="M74.4386 144.113L82.5386 166.893L78.3586 172.013L64.0786 175.863" fill="black"/>
<path d="M74.4386 144.113L82.5386 166.893L78.3586 172.013L64.0786 175.863" stroke="white" stroke-width="0.75" stroke-linecap="round" stroke-linejoin="round"/>
</g>
<path opacity="0.3" d="M62.6588 173.703L75.1388 170.693C77.5988 170.103 78.9788 167.493 78.0888 165.123L70.5688 145.073C69.8288 143.113 67.7588 141.983 65.7188 142.443L57.6788 144.233L56.5088 151.473L57.5888 161.933L62.6588 173.703Z" fill="white"/>
<path opacity="0.3" d="M128.799 210.653L129.969 201.243C130.159 199.703 129.059 198.293 127.509 198.113L121.349 197.413C119.989 197.263 118.709 198.113 118.339 199.443L117.409 207.813L128.799 210.643V210.653Z" fill="white"/>
<path opacity="0.3" d="M253.429 126.623L247.969 127.963C247.779 128.013 247.579 128.033 247.379 128.033H242.179C241.709 128.033 241.249 127.903 240.849 127.653L224.669 117.513C223.059 116.503 223.119 114.143 224.779 113.213L231.539 108.863L240.139 113.993L248.019 120.003L254.389 126.363L253.449 126.623H253.429Z" fill="white"/>
<g opacity="0.3">
<path d="M231.009 125.363L221.289 119.753L220.649 112.273L228.479 107.313" fill="black"/>
<path d="M231.009 125.363L221.289 119.753L220.649 112.273L228.479 107.313" stroke="white" stroke-width="0.75" stroke-linecap="round" stroke-linejoin="round"/>
</g>
<path d="M81.6187 153.333C82.8887 163.793 90.3687 174.063 104.099 182.133C134.889 200.233 185.369 200.433 216.569 182.423C230.719 174.253 238.379 163.793 239.599 153.143V145.373H81.6187V153.333Z" fill="black" stroke="white" stroke-width="0.75" stroke-linecap="round" stroke-linejoin="round"/>
<path d="M216.579 176.723C247.779 158.713 247.429 129.563 216.079 111.783C185.039 94.1726 135.249 94.3725 104.609 112.073C73.9588 129.763 73.6188 158.513 104.109 176.433C134.899 194.533 185.379 194.733 216.579 176.723Z" fill="black" stroke="white" stroke-width="0.75" stroke-linecap="round" stroke-linejoin="round"/>
<path d="M87.5288 144.813C88.7088 154.483 95.6188 163.963 108.309 171.423C136.769 188.153 183.419 188.343 212.249 171.693C225.329 164.143 232.399 154.483 233.529 144.633V137.453H87.5288V144.813Z" fill="black" stroke="white" stroke-width="0.75" stroke-linecap="round" stroke-linejoin="round"/>
<path d="M212.249 166.443C241.079 149.793 240.759 122.863 211.779 106.433C183.089 90.1625 137.079 90.3425 108.759 106.693C80.4388 123.043 80.1188 149.613 108.299 166.173C136.759 182.903 183.409 183.093 212.239 166.443H212.249Z" fill="black" stroke="white" stroke-width="0.75" stroke-linecap="round" stroke-linejoin="round"/>
<path d="M93.0889 136.823C94.1789 145.753 100.559 154.503 112.269 161.393C138.539 176.833 181.609 177.013 208.229 161.643C220.299 154.673 226.839 145.753 227.879 136.663V130.033H93.0889V136.823Z" fill="black" stroke="white" stroke-width="0.75" stroke-linecap="round" stroke-linejoin="round"/>
<path d="M208.239 156.783C234.859 141.413 234.559 116.553 207.809 101.383C181.319 86.3625 138.849 86.5325 112.699 101.623C86.549 116.723 86.259 141.243 112.279 156.533C138.549 171.973 181.619 172.153 208.239 156.783Z" fill="black" stroke="white" stroke-width="0.75" stroke-linecap="round" stroke-linejoin="round"/>
<path d="M129.559 107.223L127.939 110.063L122.999 111.123L119.589 109.263V50.0225L121.289 47.0925L126.319 46.1025L129.559 47.9825V107.223Z" fill="black" stroke="white" stroke-width="0.75" stroke-linecap="round" stroke-linejoin="round"/>
<path d="M119.589 50.3825L122.999 52.2325L127.939 51.1825L129.559 48.3325" fill="black"/>
<path d="M119.589 50.3825L122.999 52.2325L127.939 51.1825L129.559 48.3325" stroke="white" stroke-width="0.75" stroke-linecap="round" stroke-linejoin="round"/>
<path d="M122.999 52.2325V111.123" stroke="white" stroke-width="0.75" stroke-linecap="round" stroke-linejoin="round"/>
<path d="M127.939 51.1826V110.063" stroke="white" stroke-width="0.75" stroke-linecap="round" stroke-linejoin="round"/>
<path d="M156.849 98.7426L155.219 101.583L150.279 102.643L146.879 100.793V41.5526L148.579 38.6226L153.599 37.6326L156.849 39.5026V98.7426Z" fill="black" stroke="white" stroke-width="0.75" stroke-linecap="round" stroke-linejoin="round"/>
<path d="M146.879 41.9025L150.279 43.7625L155.219 42.7025L156.849 39.8625" fill="black"/>
<path d="M146.879 41.9025L150.279 43.7625L155.219 42.7025L156.849 39.8625" stroke="white" stroke-width="0.75" stroke-linecap="round" stroke-linejoin="round"/>
<path d="M150.279 43.7626V102.643" stroke="white" stroke-width="0.75" stroke-linecap="round" stroke-linejoin="round"/>
<path d="M155.219 42.7026V101.583" stroke="white" stroke-width="0.75" stroke-linecap="round" stroke-linejoin="round"/>
<path d="M183.589 97.9826L181.969 100.833L177.029 101.883L173.619 100.033V40.7926L175.319 37.8626L180.349 36.8726L183.589 38.7426V97.9826Z" fill="black" stroke="white" stroke-width="0.75" stroke-linecap="round" stroke-linejoin="round"/>
<path d="M173.619 41.1426L177.029 43.0026L181.969 41.9426L183.589 39.1026" fill="black"/>
<path d="M173.619 41.1426L177.029 43.0026L181.969 41.9426L183.589 39.1026" stroke="white" stroke-width="0.75" stroke-linecap="round" stroke-linejoin="round"/>
<path d="M177.029 43.0026V101.883" stroke="white" stroke-width="0.75" stroke-linecap="round" stroke-linejoin="round"/>
<path d="M181.969 41.9426V100.833" stroke="white" stroke-width="0.75" stroke-linecap="round" stroke-linejoin="round"/>
<path d="M204.829 107.223L203.199 110.063L198.259 111.123L194.859 109.263V50.0225L196.559 47.0925L201.589 46.1025L204.829 47.9825V107.223Z" fill="black" stroke="white" stroke-width="0.75" stroke-linecap="round" stroke-linejoin="round"/>
<path d="M194.859 50.3825L198.259 52.2325L203.199 51.1825L204.829 48.3325" fill="black"/>
<path d="M194.859 50.3825L198.259 52.2325L203.199 51.1825L204.829 48.3325" stroke="white" stroke-width="0.75" stroke-linecap="round" stroke-linejoin="round"/>
<path d="M198.259 52.2325V111.123" stroke="white" stroke-width="0.75" stroke-linecap="round" stroke-linejoin="round"/>
<path d="M203.199 51.1826V110.063" stroke="white" stroke-width="0.75" stroke-linecap="round" stroke-linejoin="round"/>
<path d="M129.999 152.383L128.369 155.223L123.429 156.283L120.029 154.423V95.1826L121.729 92.2526L126.749 91.2726L129.999 93.1426V152.383Z" fill="black" stroke="white" stroke-width="0.75" stroke-linecap="round" stroke-linejoin="round"/>
<path d="M120.029 95.5426L123.429 97.3926L128.369 96.3426L129.999 93.4926" fill="black"/>
<path d="M120.029 95.5426L123.429 97.3926L128.369 96.3426L129.999 93.4926" stroke="white" stroke-width="0.75" stroke-linecap="round" stroke-linejoin="round"/>
<path d="M123.429 97.3926V156.283" stroke="white" stroke-width="0.75" stroke-linecap="round" stroke-linejoin="round"/>
<path d="M128.369 96.3426V155.223" stroke="white" stroke-width="0.75" stroke-linecap="round" stroke-linejoin="round"/>
<path d="M166.809 160.043L165.189 162.883L160.249 163.943L156.849 162.083V102.853L158.539 99.9225L163.569 98.9326L166.809 100.803V160.043Z" fill="black" stroke="white" stroke-width="0.75" stroke-linecap="round" stroke-linejoin="round"/>
<path d="M156.849 103.203L160.249 105.063L165.189 104.003L166.809 101.163" fill="black"/>
<path d="M156.849 103.203L160.249 105.063L165.189 104.003L166.809 101.163" stroke="white" stroke-width="0.75" stroke-linecap="round" stroke-linejoin="round"/>
<path d="M160.249 105.063V163.943" stroke="white" stroke-width="0.75" stroke-linecap="round" stroke-linejoin="round"/>
<path d="M165.188 104.003V162.883" stroke="white" stroke-width="0.75" stroke-linecap="round" stroke-linejoin="round"/>
<path d="M198.689 151.503L197.059 154.353L192.119 155.403L188.719 153.553V94.3126L190.419 91.3826L195.439 90.3926L198.689 92.2726V151.503Z" fill="black" stroke="white" stroke-width="0.75" stroke-linecap="round" stroke-linejoin="round"/>
<path d="M188.719 94.6626L192.119 96.5226L197.059 95.4626L198.689 92.6226" fill="black"/>
<path d="M188.719 94.6626L192.119 96.5226L197.059 95.4626L198.689 92.6226" stroke="white" stroke-width="0.75" stroke-linecap="round" stroke-linejoin="round"/>
<path d="M192.119 96.5226V155.403" stroke="white" stroke-width="0.75" stroke-linecap="round" stroke-linejoin="round"/>
<path d="M197.059 95.4626V154.353" stroke="white" stroke-width="0.75" stroke-linecap="round" stroke-linejoin="round"/>
<path d="M221.199 134.653L219.569 137.493L214.629 138.553L211.229 136.703V77.4626L212.929 74.5325L217.949 73.5425L221.199 75.4126V134.653Z" fill="black" stroke="white" stroke-width="0.75" stroke-linecap="round" stroke-linejoin="round"/>
<path d="M211.229 77.8125L214.629 79.6725L219.569 78.6125L221.199 75.7726" fill="black"/>
<path d="M211.229 77.8125L214.629 79.6725L219.569 78.6125L221.199 75.7726" stroke="white" stroke-width="0.75" stroke-linecap="round" stroke-linejoin="round"/>
<path d="M214.629 79.6725V138.553" stroke="white" stroke-width="0.75" stroke-linecap="round" stroke-linejoin="round"/>
<path d="M219.569 78.6125V137.493" stroke="white" stroke-width="0.75" stroke-linecap="round" stroke-linejoin="round"/>
<path d="M108.899 132.523L107.279 135.373L102.339 136.423L98.939 134.573V75.3325L100.639 72.4025L105.659 71.4125L108.899 73.2925V132.523Z" fill="black" stroke="white" stroke-width="0.75" stroke-linecap="round" stroke-linejoin="round"/>
<path d="M98.939 75.6925L102.339 77.5425L107.279 76.4825L108.899 73.6425" fill="black"/>
<path d="M98.939 75.6925L102.339 77.5425L107.279 76.4825L108.899 73.6425" stroke="white" stroke-width="0.75" stroke-linecap="round" stroke-linejoin="round"/>
<path d="M102.339 77.5425V136.423" stroke="white" stroke-width="0.75" stroke-linecap="round" stroke-linejoin="round"/>
<path d="M107.279 76.4825V135.373" stroke="white" stroke-width="0.75" stroke-linecap="round" stroke-linejoin="round"/>
<defs>
<linearGradient id="paint0_linear_9636_88056" x1="139.5" y1="278.873" x2="139.5" y2="336.873" gradientUnits="userSpaceOnUse">
<stop stop-color="#00050B"/>
<stop offset="1" stop-color="#00050B" stop-opacity="0"/>
</linearGradient>
<linearGradient id="paint1_linear_9636_88056" x1="509" y1="0.872559" x2="509" y2="80.8725" gradientUnits="userSpaceOnUse">
<stop stop-color="#00050B"/>
<stop offset="1" stop-color="#00050B" stop-opacity="0"/>
</linearGradient>
</defs>
</svg>
