<svg width="1440" height="898" viewBox="0 0 1440 898" fill="none" xmlns="http://www.w3.org/2000/svg">
<g opacity="0.15" filter="url(#filter0_f_9651_22444)">
<path d="M769.854 711.713C772.908 710.021 774.012 706.174 772.32 703.121C770.628 700.067 766.781 698.963 763.728 700.655C760.674 702.347 759.57 706.194 761.262 709.248C762.954 712.301 766.801 713.405 769.854 711.713Z" stroke="white" stroke-width="1.35639" stroke-miterlimit="10"/>
<path d="M769.854 774.512C772.907 772.82 774.011 768.973 772.319 765.92C770.627 762.866 766.78 761.763 763.727 763.454C760.674 765.146 759.57 768.993 761.262 772.047C762.954 775.1 766.8 776.204 769.854 774.512Z" stroke="white" stroke-width="1.35639" stroke-miterlimit="10"/>
<path d="M766.796 712.499C767.122 715.645 766.796 762.671 766.796 762.671" stroke="white" stroke-width="1.35639" stroke-miterlimit="10"/>
<path d="M747.194 711.711C750.248 710.019 751.351 706.172 749.66 703.118C747.968 700.065 744.121 698.961 741.067 700.653C738.014 702.345 736.91 706.192 738.602 709.245C740.294 712.299 744.141 713.402 747.194 711.711Z" stroke="white" stroke-width="1.35639" stroke-miterlimit="10"/>
<path d="M747.194 774.523C750.247 772.831 751.351 768.984 749.659 765.931C747.967 762.877 744.12 761.773 741.067 763.465C738.013 765.157 736.91 769.004 738.601 772.057C740.293 775.111 744.14 776.215 747.194 774.523Z" stroke="white" stroke-width="1.35639" stroke-miterlimit="10"/>
<path d="M744.131 712.499C744.457 715.645 744.131 762.671 744.131 762.671" stroke="white" stroke-width="1.35639" stroke-miterlimit="10"/>
<path d="M724.546 711.716C727.599 710.024 728.703 706.177 727.011 703.124C725.319 700.07 721.472 698.966 718.419 700.658C715.366 702.35 714.262 706.197 715.954 709.25C717.645 712.304 721.492 713.408 724.546 711.716Z" stroke="white" stroke-width="1.35639" stroke-miterlimit="10"/>
<path d="M724.532 774.514C727.585 772.822 728.689 768.975 726.997 765.922C725.305 762.868 721.458 761.765 718.405 763.457C715.351 765.148 714.247 768.995 715.939 772.049C717.631 775.102 721.478 776.206 724.532 774.514Z" stroke="white" stroke-width="1.35639" stroke-miterlimit="10"/>
<path d="M721.479 712.498C721.805 715.645 721.479 762.671 721.479 762.671" stroke="white" stroke-width="1.35639" stroke-miterlimit="10"/>
<path d="M701.872 711.713C704.925 710.022 706.029 706.175 704.337 703.121C702.645 700.068 698.799 698.964 695.745 700.656C692.692 702.348 691.588 706.195 693.28 709.248C694.972 712.301 698.818 713.405 701.872 711.713Z" stroke="white" stroke-width="1.35639" stroke-miterlimit="10"/>
<path d="M701.871 774.513C704.925 772.821 706.029 768.974 704.337 765.92C702.645 762.867 698.798 761.763 695.745 763.455C692.691 765.147 691.587 768.994 693.279 772.047C694.971 775.101 698.818 776.204 701.871 774.513Z" stroke="white" stroke-width="1.35639" stroke-miterlimit="10"/>
<path d="M698.814 712.498C699.139 715.645 698.814 762.671 698.814 762.671" stroke="white" stroke-width="1.35639" stroke-miterlimit="10"/>
<path d="M679.224 711.705C682.277 710.013 683.381 706.166 681.689 703.113C679.997 700.059 676.15 698.956 673.097 700.648C670.043 702.339 668.939 706.186 670.631 709.24C672.323 712.293 676.17 713.397 679.224 711.705Z" stroke="white" stroke-width="1.35639" stroke-miterlimit="10"/>
<path d="M679.223 774.517C682.276 772.826 683.38 768.979 681.688 765.925C679.997 762.872 676.15 761.768 673.096 763.46C670.043 765.152 668.939 768.998 670.631 772.052C672.323 775.105 676.17 776.209 679.223 774.517Z" stroke="white" stroke-width="1.35639" stroke-miterlimit="10"/>
<path d="M676.163 712.498C676.488 715.645 676.163 762.671 676.163 762.671" stroke="white" stroke-width="1.35639" stroke-miterlimit="10"/>
<path d="M79.0122 17.6743C82.503 17.6743 85.333 14.8444 85.333 11.3535C85.333 7.86262 82.503 5.03271 79.0122 5.03271C75.5213 5.03271 72.6914 7.86262 72.6914 11.3535C72.6914 14.8444 75.5213 17.6743 79.0122 17.6743Z" stroke="white" stroke-width="1.35639" stroke-miterlimit="10"/>
<path d="M43.4475 4.84229H3V17.8636H43.4475V4.84229Z" fill="white"/>
<path d="M43.4478 11.353H72.6915" stroke="white" stroke-width="1.35639" stroke-miterlimit="10"/>
<path d="M79.0122 53.0219C82.503 53.0219 85.333 50.192 85.333 46.7011C85.333 43.2103 82.503 40.3804 79.0122 40.3804C75.5213 40.3804 72.6914 43.2103 72.6914 46.7011C72.6914 50.192 75.5213 53.0219 79.0122 53.0219Z" stroke="white" stroke-width="1.35639" stroke-miterlimit="10"/>
<path d="M43.4475 40.1899H3V53.2113H43.4475V40.1899Z" fill="white"/>
<path d="M43.4478 46.7002H72.6915" stroke="white" stroke-width="1.35639" stroke-miterlimit="10"/>
<path d="M79.0122 88.3696C82.503 88.3696 85.333 85.5397 85.333 82.0488C85.333 78.5579 82.503 75.728 79.0122 75.728C75.5213 75.728 72.6914 78.5579 72.6914 82.0488C72.6914 85.5397 75.5213 88.3696 79.0122 88.3696Z" stroke="white" stroke-width="1.35639" stroke-miterlimit="10"/>
<path d="M43.4475 75.5376H3V88.5589H43.4475V75.5376Z" fill="white"/>
<path d="M43.4478 82.0479H72.6915" stroke="white" stroke-width="1.35639" stroke-miterlimit="10"/>
<path d="M79.0122 123.717C82.503 123.717 85.333 120.887 85.333 117.396C85.333 113.906 82.503 111.076 79.0122 111.076C75.5213 111.076 72.6914 113.906 72.6914 117.396C72.6914 120.887 75.5213 123.717 79.0122 123.717Z" stroke="white" stroke-width="1.35639" stroke-miterlimit="10"/>
<path d="M43.4475 110.885H3V123.907H43.4475V110.885Z" fill="white"/>
<path d="M43.4478 117.396H72.6915" stroke="white" stroke-width="1.35639" stroke-miterlimit="10"/>
<path d="M79.0122 159.051C82.503 159.051 85.333 156.221 85.333 152.73C85.333 149.239 82.503 146.409 79.0122 146.409C75.5213 146.409 72.6914 149.239 72.6914 152.73C72.6914 156.221 75.5213 159.051 79.0122 159.051Z" stroke="white" stroke-width="1.35639" stroke-miterlimit="10"/>
<path d="M43.4475 146.219H3V159.241H43.4475V146.219Z" fill="white"/>
<path d="M43.4478 152.729H72.6915" stroke="white" stroke-width="1.35639" stroke-miterlimit="10"/>
<path d="M79.0122 194.398C82.503 194.398 85.333 191.568 85.333 188.078C85.333 184.587 82.503 181.757 79.0122 181.757C75.5213 181.757 72.6914 184.587 72.6914 188.078C72.6914 191.568 75.5213 194.398 79.0122 194.398Z" stroke="white" stroke-width="1.35639" stroke-miterlimit="10"/>
<path d="M43.4475 181.567H3V194.588H43.4475V181.567Z" fill="white"/>
<path d="M43.4478 188.077H72.6915" stroke="white" stroke-width="1.35639" stroke-miterlimit="10"/>
<path d="M79.0122 229.746C82.503 229.746 85.333 226.916 85.333 223.425C85.333 219.934 82.503 217.104 79.0122 217.104C75.5213 217.104 72.6914 219.934 72.6914 223.425C72.6914 226.916 75.5213 229.746 79.0122 229.746Z" stroke="white" stroke-width="1.35639" stroke-miterlimit="10"/>
<path d="M43.4475 216.915H3V229.936H43.4475V216.915Z" fill="white"/>
<path d="M43.4478 223.425H72.6915" stroke="white" stroke-width="1.35639" stroke-miterlimit="10"/>
<path d="M1178.09 741.62H1045.72" stroke="white" stroke-width="1.35639" stroke-miterlimit="10"/>
<path d="M1178.09 768.3H1045.72" stroke="white" stroke-width="1.35639" stroke-miterlimit="10"/>
<path d="M1178.09 796.35H1045.72" stroke="white" stroke-width="1.35639" stroke-miterlimit="10"/>
<path d="M1184.94 802.466C1188.42 802.202 1191.03 799.167 1190.76 795.686C1190.5 792.205 1187.46 789.597 1183.98 789.86C1180.5 790.124 1177.89 793.16 1178.16 796.64C1178.42 800.121 1181.46 802.729 1184.94 802.466Z" stroke="white" stroke-width="1.35639" stroke-miterlimit="10"/>
<path d="M1184.94 774.509C1188.42 774.246 1191.03 771.21 1190.77 767.729C1190.51 764.248 1187.47 761.64 1183.99 761.904C1180.51 762.167 1177.9 765.203 1178.16 768.684C1178.43 772.165 1181.46 774.773 1184.94 774.509Z" stroke="white" stroke-width="1.35639" stroke-miterlimit="10"/>
<path d="M1184.94 747.838C1188.42 747.574 1191.03 744.539 1190.76 741.058C1190.5 737.577 1187.46 734.969 1183.98 735.232C1180.5 735.496 1177.89 738.531 1178.16 742.012C1178.42 745.493 1181.46 748.101 1184.94 747.838Z" stroke="white" stroke-width="1.35639" stroke-miterlimit="10"/>
<path d="M1039 747.843C1042.48 747.579 1045.09 744.544 1044.82 741.063C1044.56 737.582 1041.52 734.974 1038.04 735.237C1034.56 735.501 1031.95 738.536 1032.22 742.017C1032.48 745.498 1035.52 748.106 1039 747.843Z" stroke="white" stroke-width="1.35639" stroke-miterlimit="10"/>
<path d="M1038.99 774.528C1042.47 774.265 1045.08 771.229 1044.82 767.748C1044.55 764.267 1041.52 761.659 1038.04 761.923C1034.56 762.186 1031.95 765.222 1032.21 768.703C1032.48 772.184 1035.51 774.792 1038.99 774.528Z" stroke="white" stroke-width="1.35639" stroke-miterlimit="10"/>
<path d="M1038.99 802.579C1042.47 802.316 1045.08 799.28 1044.82 795.8C1044.56 792.319 1041.52 789.71 1038.04 789.974C1034.56 790.238 1031.95 793.273 1032.21 796.754C1032.48 800.235 1035.51 802.843 1038.99 802.579Z" stroke="white" stroke-width="1.35639" stroke-miterlimit="10"/>
<path d="M1328.6 11.1631C1325.11 11.1631 1322.28 13.9979 1322.28 17.4839C1322.28 20.9698 1325.11 23.8046 1328.6 23.8046C1332.09 23.8046 1334.92 20.9698 1334.92 17.4839C1334.92 13.9979 1332.09 11.1631 1328.6 11.1631Z" fill="white"/>
<path d="M1359.82 51.8823C1356.34 51.8823 1353.5 54.7172 1353.5 58.2031C1353.5 61.689 1356.34 64.5239 1359.82 64.5239C1363.31 64.5239 1366.14 61.689 1366.14 58.2031C1366.14 54.7172 1363.31 51.8823 1359.82 51.8823Z" fill="white"/>
<path d="M1439.95 285.019C1435.04 284.68 1405.07 285.019 1405.07 285.019L1362.05 241.994V187.983L1328.6 154.534V17.4844" stroke="white" stroke-width="1.35639" stroke-miterlimit="10"/>
<path d="M1393.37 242.278V173.862L1359.82 140.318V58.2026" stroke="white" stroke-width="1.35639" stroke-miterlimit="10"/>
<path d="M1439.96 64.5234H1399.51L1386.17 77.8567V134.445L1407.95 156.229V204.394L1423.79 220.237H1439.95L1439.96 64.5234Z" fill="white"/>
<path d="M1436.64 67.7109L1405.67 68.1314L1393.37 80.8272V134.133L1412.13 154.425V199.796L1424.27 214.554L1436.64 214.391V67.7109Z" stroke="#00050B" stroke-width="1.35639" stroke-miterlimit="10"/>
<path d="M243.705 460.698V541.837L289.307 587.425H464.932L502.477 624.984V831" stroke="white" stroke-width="1.35639" stroke-miterlimit="10"/>
<path d="M275.919 460.698V515.604L321.521 561.206H497.147L534.705 598.765V839" stroke="white" stroke-width="1.35639" stroke-miterlimit="10"/>
<path d="M302.07 460.698V483.444L347.659 529.033H523.284L560.842 566.591V855" stroke="white" stroke-width="1.35639" stroke-miterlimit="10"/>
<path d="M502.477 834.159C505.967 834.159 508.797 831.329 508.797 827.839C508.797 824.348 505.967 821.518 502.477 821.518C498.986 821.518 496.156 824.348 496.156 827.839C496.156 831.329 498.986 834.159 502.477 834.159Z" fill="white"/>
<path d="M534.705 847.94C538.195 847.94 541.025 845.11 541.025 841.619C541.025 838.128 538.195 835.299 534.705 835.299C531.214 835.299 528.384 838.128 528.384 841.619C528.384 845.11 531.214 847.94 534.705 847.94Z" fill="white"/>
<path d="M291.328 611.392C294.818 611.392 297.648 608.562 297.648 605.071C297.648 601.58 294.818 598.75 291.328 598.75C287.837 598.75 285.007 601.58 285.007 605.071C285.007 608.562 287.837 611.392 291.328 611.392Z" fill="white"/>
<path d="M312.365 611.392C315.856 611.392 318.686 608.562 318.686 605.071C318.686 601.58 315.856 598.75 312.365 598.75C308.874 598.75 306.044 601.58 306.044 605.071C306.044 608.562 308.874 611.392 312.365 611.392Z" fill="white"/>
<path d="M333.416 611.392C336.907 611.392 339.737 608.562 339.737 605.071C339.737 601.58 336.907 598.75 333.416 598.75C329.926 598.75 327.096 601.58 327.096 605.071C327.096 608.562 329.926 611.392 333.416 611.392Z" fill="white"/>
<path d="M560.842 865.659C564.333 865.659 567.163 862.829 567.163 859.338C567.163 855.847 564.333 853.017 560.842 853.017C557.351 853.017 554.521 855.847 554.521 859.338C554.521 862.829 557.351 865.659 560.842 865.659Z" fill="white"/>
<path d="M1220.09 460.698V541.837L1174.49 587.425H998.861L961.316 624.984V807.839" stroke="white" stroke-width="1.35639" stroke-miterlimit="10"/>
<path d="M1187.86 460.698V515.604L1142.27 561.206H966.647L929.089 598.765V781.62" stroke="white" stroke-width="1.35639" stroke-miterlimit="10"/>
<path d="M1161.72 460.698V483.444L1116.12 529.033H940.496L902.951 566.591V749.446" stroke="white" stroke-width="1.35639" stroke-miterlimit="10"/>
<path d="M961.316 814.159C964.807 814.159 967.637 811.329 967.637 807.839C967.637 804.348 964.807 801.518 961.316 801.518C957.826 801.518 954.996 804.348 954.996 807.839C954.996 811.329 957.826 814.159 961.316 814.159Z" fill="white"/>
<path d="M929.089 787.94C932.58 787.94 935.41 785.11 935.41 781.619C935.41 778.128 932.58 775.299 929.089 775.299C925.598 775.299 922.768 778.128 922.768 781.619C922.768 785.11 925.598 787.94 929.089 787.94Z" fill="white"/>
<path d="M1172.47 611.392C1175.96 611.392 1178.79 608.562 1178.79 605.071C1178.79 601.58 1175.96 598.75 1172.47 598.75C1168.97 598.75 1166.15 601.58 1166.15 605.071C1166.15 608.562 1168.97 611.392 1172.47 611.392Z" fill="white"/>
<path d="M1151.43 611.392C1154.92 611.392 1157.75 608.562 1157.75 605.071C1157.75 601.58 1154.92 598.75 1151.43 598.75C1147.94 598.75 1145.11 601.58 1145.11 605.071C1145.11 608.562 1147.94 611.392 1151.43 611.392Z" fill="white"/>
<path d="M1130.38 611.392C1133.87 611.392 1136.7 608.562 1136.7 605.071C1136.7 601.58 1133.87 598.75 1130.38 598.75C1126.89 598.75 1124.06 601.58 1124.06 605.071C1124.06 608.562 1126.89 611.392 1130.38 611.392Z" fill="white"/>
<path d="M902.951 755.659C906.442 755.659 909.272 752.829 909.272 749.338C909.272 745.847 906.442 743.017 902.951 743.017C899.46 743.017 896.63 745.847 896.63 749.338C896.63 752.829 899.46 755.659 902.951 755.659Z" fill="white"/>
<path d="M670.235 634.275L691.978 656.018H785.894V554.438L761.004 529.548H670.235V634.275Z" fill="white"/>
<path d="M660.185 641.478L685.712 667.005H795.946V547.779L766.729 518.562H660.185V641.478Z" stroke="white" stroke-width="1.58698" stroke-miterlimit="10"/>
<path d="M785.895 460.698V487.039L839.513 540.657V706.177" stroke="white" stroke-width="1.35639" stroke-miterlimit="10"/>
<path d="M619.683 460.698V683.119" stroke="white" stroke-width="1.35639" stroke-miterlimit="10"/>
<path d="M619.683 689.439C623.173 689.439 626.003 686.609 626.003 683.118C626.003 679.627 623.173 676.797 619.683 676.797C616.192 676.797 613.362 679.627 613.362 683.118C613.362 686.609 616.192 689.439 619.683 689.439Z" fill="white"/>
<path d="M1390.65 403.01C1394.15 403.01 1396.98 400.18 1396.98 396.689C1396.98 393.199 1394.15 390.369 1390.65 390.369C1387.16 390.369 1384.33 393.199 1384.33 396.689C1384.33 400.18 1387.16 403.01 1390.65 403.01Z" fill="white"/>
<path d="M1359.61 454.553C1363.1 454.553 1365.93 451.723 1365.93 448.232C1365.93 444.742 1363.1 441.912 1359.61 441.912C1356.12 441.912 1353.29 444.742 1353.29 448.232C1353.29 451.723 1356.12 454.553 1359.61 454.553Z" fill="white"/>
<path d="M1333.74 448.233C1337.23 448.233 1340.06 445.403 1340.06 441.912C1340.06 438.421 1337.23 435.591 1333.74 435.591C1330.25 435.591 1327.42 438.421 1327.42 441.912C1327.42 445.403 1330.25 448.233 1333.74 448.233Z" fill="white"/>
<path d="M839.513 716.255C843.004 716.255 845.833 713.425 845.833 709.935C845.833 706.444 843.004 703.614 839.513 703.614C836.022 703.614 833.192 706.444 833.192 709.935C833.192 713.425 836.022 716.255 839.513 716.255Z" fill="white"/>
<path d="M676.678 629.65L696.006 648.965H779.451V558.711L757.329 536.588H676.678V629.65Z" stroke="#00050B" stroke-width="1.35639" stroke-miterlimit="10"/>
<path d="M858.746 492.682V508.769L882.293 532.329H912.364L931.991 512.702H1056.74L1076.51 492.926V471.237H858.746V492.682Z" fill="white"/>
<path d="M940.998 497.375V514.167" stroke="#00050B" stroke-width="1.35639" stroke-miterlimit="10"/>
<path d="M946.369 497.375V514.167" stroke="#00050B" stroke-width="1.35639" stroke-miterlimit="10"/>
<path d="M951.727 497.375V514.167" stroke="#00050B" stroke-width="1.35639" stroke-miterlimit="10"/>
<path d="M957.084 497.375V514.167" stroke="#00050B" stroke-width="1.35639" stroke-miterlimit="10"/>
<path d="M962.442 497.375V514.167" stroke="#00050B" stroke-width="1.35639" stroke-miterlimit="10"/>
<path d="M967.813 497.375V514.167" stroke="#00050B" stroke-width="1.35639" stroke-miterlimit="10"/>
<path d="M973.171 497.375V514.167" stroke="#00050B" stroke-width="1.35639" stroke-miterlimit="10"/>
<path d="M978.529 497.375V514.167" stroke="#00050B" stroke-width="1.35639" stroke-miterlimit="10"/>
<path d="M983.9 497.375V514.167" stroke="#00050B" stroke-width="1.35639" stroke-miterlimit="10"/>
<path d="M989.258 497.375V514.167" stroke="#00050B" stroke-width="1.35639" stroke-miterlimit="10"/>
<path d="M994.616 497.375V514.167" stroke="#00050B" stroke-width="1.35639" stroke-miterlimit="10"/>
<path d="M999.974 497.375V514.167" stroke="#00050B" stroke-width="1.35639" stroke-miterlimit="10"/>
<path d="M1005.34 497.375V514.167" stroke="#00050B" stroke-width="1.35639" stroke-miterlimit="10"/>
<path d="M1010.7 497.375V514.167" stroke="#00050B" stroke-width="1.35639" stroke-miterlimit="10"/>
<path d="M1016.06 497.375V514.167" stroke="#00050B" stroke-width="1.35639" stroke-miterlimit="10"/>
<path d="M1021.43 497.375V514.167" stroke="#00050B" stroke-width="1.35639" stroke-miterlimit="10"/>
<path d="M1026.79 497.375V514.167" stroke="#00050B" stroke-width="1.35639" stroke-miterlimit="10"/>
<path d="M1032.15 497.375V514.167" stroke="#00050B" stroke-width="1.35639" stroke-miterlimit="10"/>
<path d="M1037.52 497.375V514.167" stroke="#00050B" stroke-width="1.35639" stroke-miterlimit="10"/>
<path d="M1042.88 497.375V514.167" stroke="#00050B" stroke-width="1.35639" stroke-miterlimit="10"/>
<path d="M682.158 625.717L699.425 642.97H773.972V562.346L754.21 542.583H682.158V625.717Z" stroke="#00050B" stroke-width="1.20719" stroke-miterlimit="10"/>
<path d="M22.0302 462.597C25.5211 462.597 28.351 459.767 28.351 456.276C28.351 452.785 25.5211 449.956 22.0302 449.956C18.5394 449.956 15.7095 452.785 15.7095 456.276C15.7095 459.767 18.5394 462.597 22.0302 462.597Z" fill="white"/>
<path d="M39.8393 456.182C43.3302 456.182 46.1601 453.352 46.1601 449.861C46.1601 446.37 43.3302 443.54 39.8393 443.54C36.3485 443.54 33.5186 446.37 33.5186 449.861C33.5186 453.352 36.3485 456.182 39.8393 456.182Z" fill="white"/>
<path d="M64.729 434.628C68.2198 434.628 71.0498 431.798 71.0498 428.307C71.0498 424.816 68.2198 421.986 64.729 421.986C61.2381 421.986 58.4082 424.816 58.4082 428.307C58.4082 431.798 61.2381 434.628 64.729 434.628Z" fill="white"/>
<path d="M330.568 678.724C332.711 678.724 334.448 676.988 334.448 674.845C334.448 672.703 332.711 670.966 330.568 670.966C328.426 670.966 326.689 672.703 326.689 674.845C326.689 676.988 328.426 678.724 330.568 678.724Z" fill="white"/>
<path d="M330.568 662.299C332.711 662.299 334.448 660.562 334.448 658.419C334.448 656.277 332.711 654.54 330.568 654.54C328.426 654.54 326.689 656.277 326.689 658.419C326.689 660.562 328.426 662.299 330.568 662.299Z" fill="white"/>
<path d="M330.568 645.873C332.711 645.873 334.448 644.137 334.448 641.994C334.448 639.852 332.711 638.115 330.568 638.115C328.426 638.115 326.689 639.852 326.689 641.994C326.689 644.137 328.426 645.873 330.568 645.873Z" fill="white"/>
<path d="M178.137 630.043V686.781C178.137 690.572 181.21 693.645 185 693.645H241.738C245.528 693.645 248.601 690.572 248.601 686.781V630.043C248.601 626.253 245.528 623.18 241.738 623.18H185C181.21 623.18 178.137 626.253 178.137 630.043Z" stroke="white" stroke-width="1.35639" stroke-miterlimit="10"/>
<path d="M188.785 640.692V676.134C188.785 679.925 191.857 682.998 195.648 682.998H231.09C234.881 682.998 237.954 679.925 237.954 676.134V640.692C237.954 636.901 234.881 633.828 231.09 633.828H195.648C191.857 633.828 188.785 636.901 188.785 640.692Z" fill="white"/>
<path d="M328.845 674.846H248.601" stroke="white" stroke-width="1.35639" stroke-miterlimit="10"/>
<path d="M328.845 658.419H248.601" stroke="white" stroke-width="1.35639" stroke-miterlimit="10"/>
<path d="M328.845 641.993H248.601" stroke="white" stroke-width="1.35639" stroke-miterlimit="10"/>
<path d="M230 694V860" stroke="white" stroke-width="1.35639" stroke-miterlimit="10"/>
<path d="M213 694V860" stroke="white" stroke-width="1.35639" stroke-miterlimit="10"/>
<path d="M197 694V860" stroke="white" stroke-width="1.35639" stroke-miterlimit="10"/>
<path d="M229.788 597.192V623.194" stroke="white" stroke-width="1.35639" stroke-miterlimit="10"/>
<path d="M213.362 597.192V623.194" stroke="white" stroke-width="1.35639" stroke-miterlimit="10"/>
<path d="M196.937 597.192V623.194" stroke="white" stroke-width="1.35639" stroke-miterlimit="10"/>
<path d="M232.082 866.334C233.777 865.024 234.089 862.588 232.778 860.893C231.468 859.198 229.031 858.886 227.337 860.197C225.642 861.507 225.33 863.943 226.64 865.638C227.951 867.333 230.387 867.645 232.082 866.334Z" fill="white"/>
<path d="M215.645 866.339C217.34 865.029 217.652 862.592 216.341 860.897C215.031 859.202 212.594 858.891 210.9 860.201C209.205 861.512 208.893 863.948 210.203 865.643C211.514 867.338 213.95 867.65 215.645 866.339Z" fill="white"/>
<path d="M199.219 866.336C200.914 865.025 201.225 862.589 199.915 860.894C198.605 859.199 196.168 858.887 194.473 860.198C192.778 861.508 192.467 863.945 193.777 865.64C195.088 867.334 197.524 867.646 199.219 866.336Z" fill="white"/>
<path d="M231.089 597.476C232.784 596.165 233.096 593.729 231.786 592.034C230.475 590.339 228.039 590.027 226.344 591.338C224.649 592.648 224.337 595.084 225.648 596.779C226.958 598.474 229.395 598.786 231.089 597.476Z" fill="white"/>
<path d="M214.652 597.48C216.347 596.17 216.659 593.734 215.349 592.039C214.038 590.344 211.602 590.032 209.907 591.343C208.212 592.653 207.9 595.089 209.211 596.784C210.521 598.479 212.958 598.791 214.652 597.48Z" fill="white"/>
<path d="M199.301 597.478C200.996 596.167 201.308 593.731 199.998 592.036C198.687 590.341 196.251 590.029 194.556 591.34C192.861 592.65 192.549 595.086 193.86 596.781C195.17 598.476 197.606 598.788 199.301 597.478Z" fill="white"/>
<path d="M22.0298 461.214V643.418L54.0948 675.483H178.137" stroke="white" stroke-width="1.35639" stroke-miterlimit="10"/>
<path d="M39.8389 449.983V624.387L71.9039 656.453H176.604" stroke="white" stroke-width="1.35639" stroke-miterlimit="10"/>
<path d="M64.729 428.308V602.712L96.7941 634.777H178.137" stroke="white" stroke-width="1.35639" stroke-miterlimit="10"/>
<path d="M194.319 644.679V672.146C194.319 675.082 196.699 677.463 199.636 677.463H227.103C230.039 677.463 232.42 675.082 232.42 672.146V644.679C232.42 641.742 230.039 639.362 227.103 639.362H199.636C196.699 639.362 194.319 641.742 194.319 644.679Z" stroke="#00050B" stroke-width="1.35639" stroke-miterlimit="10"/>
<path d="M196.978 670.233V646.591C196.978 644.068 199.026 642.02 201.549 642.02H225.19C227.713 642.02 229.761 644.068 229.761 646.591V670.233C229.761 672.756 227.713 674.804 225.19 674.804H201.549C199.026 674.804 196.978 672.756 196.978 670.233Z" stroke="#00050B" stroke-width="1.35639" stroke-miterlimit="10"/>
<path d="M202.755 650.769V666.083C202.755 667.716 204.079 669.04 205.712 669.04H221.026C222.659 669.04 223.983 667.716 223.983 666.083V650.769C223.983 649.136 222.659 647.812 221.026 647.812H205.712C204.079 647.812 202.755 649.136 202.755 650.769Z" stroke="#00050B" stroke-width="1.35639" stroke-miterlimit="10"/>
<path d="M1391.18 399.484V707.466L1367.88 730.768H1296.26L1264.48 762.549V894" stroke="white" stroke-width="1.35639" stroke-miterlimit="10"/>
<path d="M1254.53 729.141L1359.61 624.062V450.932" stroke="white" stroke-width="1.35639" stroke-miterlimit="10"/>
<path d="M1333.74 441.912V615.055L1261.88 686.916H1058.47" stroke="white" stroke-width="1.35639" stroke-miterlimit="10"/>
<path d="M1307.06 713.528H1353.29L1372.98 693.847V653.278L1361.91 642.209L1298.22 705.905L1307.06 713.528Z" fill="white"/>
<path d="M89.7549 530.375V580.345L106.113 596.717H150.833V546.666L134.543 530.375H89.7549Z" fill="white"/>
<path d="M94.6104 536.642V577.673L108.378 591.44H145.963V549.351L132.277 535.652L94.6104 536.642Z" stroke="#00050B" stroke-width="1.35639" stroke-miterlimit="10"/>
<path d="M89.7549 499.273H138.164L175.574 536.682V580.344" stroke="white" stroke-width="1.35639" stroke-miterlimit="10"/>
<path d="M89.7549 505.595C93.2457 505.595 96.0756 502.765 96.0756 499.274C96.0756 495.784 93.2457 492.954 89.7549 492.954C86.264 492.954 83.4341 495.784 83.4341 499.274C83.4341 502.765 86.264 505.595 89.7549 505.595Z" fill="white"/>
<path d="M106.222 478.968H154.631L192.04 516.391V560.053" stroke="white" stroke-width="1.35639" stroke-miterlimit="10"/>
<path d="M106.221 485.29C109.712 485.29 112.542 482.46 112.542 478.969C112.542 475.478 109.712 472.648 106.221 472.648C102.73 472.648 99.9004 475.478 99.9004 478.969C99.9004 482.46 102.73 485.29 106.221 485.29Z" fill="white"/>
<path d="M99.3579 541.606V575.069L110.575 586.286H141.23V551.969L130.067 540.806L99.3579 541.606Z" stroke="#00050B" stroke-width="1.35639" stroke-miterlimit="10"/>
<path d="M435.43 821.281C438.921 821.281 441.75 818.451 441.75 814.96C441.75 811.469 438.921 808.639 435.43 808.639C431.939 808.639 429.109 811.469 429.109 814.96C429.109 818.451 431.939 821.281 435.43 821.281Z" fill="white"/>
<path d="M469.652 785.513C473.143 785.513 475.973 782.683 475.973 779.192C475.973 775.701 473.143 772.871 469.652 772.871C466.161 772.871 463.331 775.701 463.331 779.192C463.331 782.683 466.161 785.513 469.652 785.513Z" fill="white"/>
<path d="M381.446 677.856C384.937 677.856 387.767 675.026 387.767 671.536C387.767 668.045 384.937 665.215 381.446 665.215C377.955 665.215 375.125 668.045 375.125 671.536C375.125 675.026 377.955 677.856 381.446 677.856Z" fill="white"/>
<path d="M290.256 742.787V789.148L316.082 814.96H431.008" stroke="white" stroke-width="1.35639" stroke-miterlimit="10"/>
<path d="M376.075 671.535C379.9 671.535 407.923 671.535 407.923 671.535L448.072 711.684V795.618" stroke="white" stroke-width="1.35639" stroke-miterlimit="10"/>
<path d="M429.502 655.109L469.652 695.259V779.192" stroke="white" stroke-width="1.35639" stroke-miterlimit="10"/>
<path d="M398.048 697.985H342.897L312.541 728.341V763.092L342.477 789.148H421.418V725.818L398.048 697.985Z" fill="white"/>
<path d="M406.905 789.148V756.744" stroke="#00050B" stroke-width="1.35639" stroke-miterlimit="10"/>
<path d="M402.131 789.148V756.744" stroke="#00050B" stroke-width="1.35639" stroke-miterlimit="10"/>
<path d="M397.356 789.148V756.744" stroke="#00050B" stroke-width="1.35639" stroke-miterlimit="10"/>
<path d="M392.582 789.148V756.744" stroke="#00050B" stroke-width="1.35639" stroke-miterlimit="10"/>
<path d="M387.807 789.148V756.744" stroke="#00050B" stroke-width="1.35639" stroke-miterlimit="10"/>
<path d="M383.046 789.148V756.744" stroke="#00050B" stroke-width="1.35639" stroke-miterlimit="10"/>
<path d="M378.272 789.148V756.744" stroke="#00050B" stroke-width="1.35639" stroke-miterlimit="10"/>
<path d="M373.497 789.148V756.744" stroke="#00050B" stroke-width="1.35639" stroke-miterlimit="10"/>
<path d="M368.723 789.148V756.744" stroke="#00050B" stroke-width="1.35639" stroke-miterlimit="10"/>
<path d="M363.948 789.148V756.744" stroke="#00050B" stroke-width="1.35639" stroke-miterlimit="10"/>
<path d="M359.174 789.148V756.744" stroke="#00050B" stroke-width="1.35639" stroke-miterlimit="10"/>
<path d="M354.399 789.148V756.744" stroke="#00050B" stroke-width="1.35639" stroke-miterlimit="10"/>
<path d="M349.639 789.148V756.744" stroke="#00050B" stroke-width="1.35639" stroke-miterlimit="10"/>
<path d="M344.864 789.148V756.744" stroke="#00050B" stroke-width="1.35639" stroke-miterlimit="10"/>
<path d="M1314.95 708.198H1349.81L1364.67 693.346V662.759L1356.31 654.404L1308.28 702.447L1314.95 708.198Z" fill="white"/>
<path d="M1037.44 651.072C1038.47 642.255 1032.16 634.27 1023.34 633.238C1014.53 632.205 1006.54 638.516 1005.51 647.332C1004.48 656.149 1010.79 664.133 1019.6 665.166C1028.42 666.199 1036.41 659.888 1037.44 651.072Z" stroke="white" stroke-width="1.35639" stroke-miterlimit="10"/>
<path d="M1094.6 650.546C1095.64 641.729 1089.33 633.745 1080.51 632.712C1071.69 631.679 1063.71 637.99 1062.68 646.806C1061.64 655.623 1067.95 663.608 1076.77 664.64C1085.59 665.673 1093.57 659.363 1094.6 650.546Z" stroke="white" stroke-width="1.35639" stroke-miterlimit="10"/>
<path d="M1151.29 651.149C1152.32 642.333 1146.01 634.348 1137.19 633.316C1128.37 632.283 1120.39 638.593 1119.36 647.41C1118.32 656.227 1124.63 664.211 1133.45 665.244C1142.27 666.276 1150.25 659.966 1151.29 651.149Z" stroke="white" stroke-width="1.35639" stroke-miterlimit="10"/>
<path d="M1207.92 651.216C1208.96 642.399 1202.65 634.415 1193.83 633.382C1185.01 632.35 1177.03 638.66 1175.99 647.477C1174.96 656.293 1181.27 664.278 1190.09 665.311C1198.91 666.343 1206.89 660.033 1207.92 651.216Z" stroke="white" stroke-width="1.35639" stroke-miterlimit="10"/>
</g>
<rect x="1441" y="835" width="185" height="831" transform="rotate(-180 1441 835)" fill="url(#paint0_linear_9651_22444)"/>
<rect y="894" width="131" height="1441" transform="rotate(-90 0 894)" fill="url(#paint1_linear_9651_22444)"/>
<rect x="3" y="4.00049" width="185" height="831" fill="url(#paint2_linear_9651_22444)"/>
<defs>
<filter id="filter0_f_9651_22444" x="-1" y="0.354492" width="1444.99" height="897.646" filterUnits="userSpaceOnUse" color-interpolation-filters="sRGB">
<feFlood flood-opacity="0" result="BackgroundImageFix"/>
<feBlend mode="normal" in="SourceGraphic" in2="BackgroundImageFix" result="shape"/>
<feGaussianBlur stdDeviation="2" result="effect1_foregroundBlur_9651_22444"/>
</filter>
<linearGradient id="paint0_linear_9651_22444" x1="1441" y1="1192.97" x2="1615.28" y2="1192.97" gradientUnits="userSpaceOnUse">
<stop stop-color="#00050B"/>
<stop offset="1" stop-color="#00050B" stop-opacity="0"/>
</linearGradient>
<linearGradient id="paint1_linear_9651_22444" x1="8.33953e-08" y1="1514.74" x2="123.406" y2="1514.74" gradientUnits="userSpaceOnUse">
<stop stop-color="#00050B"/>
<stop offset="1" stop-color="#00050B" stop-opacity="0"/>
</linearGradient>
<linearGradient id="paint2_linear_9651_22444" x1="3" y1="361.97" x2="177.275" y2="361.97" gradientUnits="userSpaceOnUse">
<stop stop-color="#00050B"/>
<stop offset="1" stop-color="#00050B" stop-opacity="0"/>
</linearGradient>
</defs>
</svg>
