<svg width="1440" height="1106" viewBox="0 0 1440 1106" fill="none" xmlns="http://www.w3.org/2000/svg">
<g opacity="0.15" clip-path="url(#clip0_9645_10696)" filter="url(#filter0_f_9645_10696)">
<path d="M571.703 654.872H487.871L434.135 600.635V518.914L300.145 383.673H187.827" stroke="white" stroke-width="1.28043" stroke-miterlimit="10"/>
<path d="M571.704 671.303H470.107L416.372 617.066V535.345L282.382 400.104H170.063" stroke="white" stroke-width="1.28043" stroke-miterlimit="10"/>
<path d="M571.704 689.118H452.686L398.95 634.881V553.16L264.96 417.919H152.642" stroke="white" stroke-width="1.28043" stroke-miterlimit="10"/>
<path d="M858.209 646.317H577.54C574.317 646.317 571.704 648.955 571.704 652.209V700.094C571.704 703.347 574.317 705.985 577.54 705.985H858.209C861.432 705.985 864.046 703.347 864.046 700.094V652.209C864.046 648.955 861.432 646.317 858.209 646.317Z" stroke="white" stroke-width="1.28043" stroke-linecap="round" stroke-linejoin="round"/>
<path d="M555.17 612.917C558.436 612.917 561.083 610.245 561.083 606.949C561.083 603.653 558.436 600.981 555.17 600.981C551.905 600.981 549.257 603.653 549.257 606.949C549.257 610.245 551.905 612.917 555.17 612.917Z" fill="white"/>
<path d="M537.013 481.966C540.279 481.966 542.926 479.294 542.926 475.998C542.926 472.702 540.279 470.03 537.013 470.03C533.748 470.03 531.101 472.702 531.101 475.998C531.101 479.294 533.748 481.966 537.013 481.966Z" fill="white"/>
<path d="M1000.29 499.038C1003.56 499.038 1006.21 496.366 1006.21 493.07C1006.21 489.774 1003.56 487.102 1000.29 487.102C997.028 487.102 994.381 489.774 994.381 493.07C994.381 496.366 997.028 499.038 1000.29 499.038Z" fill="white"/>
<path d="M146.729 423.887C149.995 423.887 152.642 421.215 152.642 417.919C152.642 414.623 149.995 411.951 146.729 411.951C143.464 411.951 140.816 414.623 140.816 417.919C140.816 421.215 143.464 423.887 146.729 423.887Z" fill="white"/>
<path d="M166.865 406.073C170.131 406.073 172.778 403.401 172.778 400.105C172.778 396.809 170.131 394.137 166.865 394.137C163.6 394.137 160.953 396.809 160.953 400.105C160.953 403.401 163.6 406.073 166.865 406.073Z" fill="white"/>
<path d="M54.446 468.391C57.7116 468.391 60.3588 465.719 60.3588 462.423C60.3588 459.127 57.7116 456.455 54.446 456.455C51.1805 456.455 48.5332 459.127 48.5332 462.423C48.5332 465.719 51.1805 468.391 54.446 468.391Z" fill="white"/>
<path d="M121.898 575.046C125.163 575.046 127.811 572.374 127.811 569.078C127.811 565.782 125.163 563.11 121.898 563.11C118.632 563.11 115.985 565.782 115.985 569.078C115.985 572.374 118.632 575.046 121.898 575.046Z" fill="white"/>
<path d="M104.21 1014.43C107.471 1014.43 110.123 1011.75 110.123 1008.46C110.123 1005.17 107.471 1002.49 104.21 1002.49C100.949 1002.49 98.2974 1005.17 98.2974 1008.46C98.2974 1011.75 100.949 1014.43 104.21 1014.43Z" fill="white"/>
<path d="M75.0012 975.98C78.2621 975.98 80.914 973.303 80.914 970.012C80.914 966.721 78.2621 964.044 75.0012 964.044C71.7403 964.044 69.0884 966.721 69.0884 970.012C69.0884 973.303 71.7403 975.98 75.0012 975.98Z" fill="white"/>
<path d="M181.914 389.641C185.18 389.641 187.827 386.969 187.827 383.673C187.827 380.377 185.18 377.705 181.914 377.705C178.649 377.705 176.001 380.377 176.001 383.673C176.001 386.969 178.649 389.641 181.914 389.641Z" fill="white"/>
<path d="M252.931 57.0977C256.197 57.0977 258.844 54.4257 258.844 51.1296C258.844 47.8336 256.197 45.1616 252.931 45.1616C249.666 45.1616 247.019 47.8336 247.019 51.1296C247.019 54.4257 249.666 57.0977 252.931 57.0977Z" fill="white"/>
<path d="M258.946 73.8994C262.211 73.8994 264.858 71.2274 264.858 67.9314C264.858 64.6354 262.211 61.9634 258.946 61.9634C255.68 61.9634 253.033 64.6354 253.033 67.9314C253.033 71.2274 255.68 73.8994 258.946 73.8994Z" fill="white"/>
<path d="M279.095 97.4131C282.361 97.4131 285.008 94.7411 285.008 91.4451C285.008 88.149 282.361 85.4771 279.095 85.4771C275.83 85.4771 273.183 88.149 273.183 91.4451C273.183 94.7411 275.83 97.4131 279.095 97.4131Z" fill="white"/>
<path d="M561.083 125.038C564.349 125.038 566.996 122.366 566.996 119.07C566.996 115.774 564.349 113.102 561.083 113.102C557.818 113.102 555.17 115.774 555.17 119.07C555.17 122.366 557.818 125.038 561.083 125.038Z" fill="white"/>
<path d="M544.728 125.038C547.994 125.038 550.641 122.366 550.641 119.07C550.641 115.774 547.994 113.102 544.728 113.102C541.463 113.102 538.815 115.774 538.815 119.07C538.815 122.366 541.463 125.038 544.728 125.038Z" fill="white"/>
<path d="M528.385 125.038C531.651 125.038 534.298 122.366 534.298 119.07C534.298 115.774 531.651 113.102 528.385 113.102C525.12 113.102 522.473 115.774 522.473 119.07C522.473 122.366 525.12 125.038 528.385 125.038Z" fill="white"/>
<path d="M864.045 690.834H947.878L1001.61 745.071V826.805L1135.6 962.046H1359.63" stroke="white" stroke-width="1.28043" stroke-miterlimit="10"/>
<path d="M864.045 674.402H965.642L1019.38 728.64V810.36L1153.37 945.601H1377.39" stroke="white" stroke-width="1.28043" stroke-miterlimit="10"/>
<path d="M864.045 656.589H983.063L1036.8 710.826V792.547L1170.79 927.788H1394.82" stroke="white" stroke-width="1.28043" stroke-miterlimit="10"/>
<path d="M830.37 646.318V617.63L856.305 591.453H950.745L1000.29 541.442V496.733" stroke="white" stroke-width="1.28043" stroke-miterlimit="10"/>
<path d="M810.106 646.318V599.624L836.042 573.446H930.482L980.03 523.435V478.727" stroke="white" stroke-width="1.28043" stroke-miterlimit="10"/>
<path d="M1400.72 933.755C1403.98 933.755 1406.63 931.083 1406.63 927.787C1406.63 924.491 1403.98 921.819 1400.72 921.819C1397.45 921.819 1394.8 924.491 1394.8 927.787C1394.8 931.083 1397.45 933.755 1400.72 933.755Z" fill="white"/>
<path d="M1380.58 951.57C1383.85 951.57 1386.49 948.898 1386.49 945.602C1386.49 942.306 1383.85 939.634 1380.58 939.634C1377.31 939.634 1374.67 942.306 1374.67 945.602C1374.67 948.898 1377.31 951.57 1380.58 951.57Z" fill="white"/>
<path d="M1365.53 968.014C1368.8 968.014 1371.44 965.342 1371.44 962.046C1371.44 958.75 1368.8 956.078 1365.53 956.078C1362.27 956.078 1359.62 958.75 1359.62 962.046C1359.62 965.342 1362.27 968.014 1365.53 968.014Z" fill="white"/>
<path d="M555.171 606.948L517.562 568.976V479.853L496.271 458.363" stroke="white" stroke-width="1.28043" stroke-miterlimit="10"/>
<path d="M552.874 581.553L536.594 565.121V475.998" stroke="white" stroke-width="1.28043" stroke-miterlimit="10"/>
<path d="M224.129 930.809C226.133 930.809 227.758 929.169 227.758 927.146C227.758 925.123 226.133 923.483 224.129 923.483C222.125 923.483 220.5 925.123 220.5 927.146C220.5 929.169 222.125 930.809 224.129 930.809Z" fill="white"/>
<path d="M239.494 930.809C241.498 930.809 243.123 929.169 243.123 927.146C243.123 925.123 241.498 923.483 239.494 923.483C237.49 923.483 235.865 925.123 235.865 927.146C235.865 929.169 237.49 930.809 239.494 930.809Z" fill="white"/>
<path d="M254.86 930.809C256.864 930.809 258.489 929.169 258.489 927.146C258.489 925.123 256.864 923.483 254.86 923.483C252.856 923.483 251.231 925.123 251.231 927.146C251.231 929.169 252.856 930.809 254.86 930.809Z" fill="white"/>
<path d="M266.039 783.222H212.963C209.417 783.222 206.542 786.123 206.542 789.702V843.273C206.542 846.852 209.417 849.754 212.963 849.754H266.039C269.585 849.754 272.459 846.852 272.459 843.273V789.702C272.459 786.123 269.585 783.222 266.039 783.222Z" stroke="white" stroke-width="1.28043" stroke-miterlimit="10"/>
<path d="M256.078 793.276H222.923C219.377 793.276 216.503 796.177 216.503 799.756V833.221C216.503 836.8 219.377 839.701 222.923 839.701H256.078C259.624 839.701 262.499 836.8 262.499 833.221V799.756C262.499 796.177 259.624 793.276 256.078 793.276Z" fill="white"/>
<path d="M224.128 925.52V849.754" stroke="white" stroke-width="1.28043" stroke-miterlimit="10"/>
<path d="M239.494 925.52V849.754" stroke="white" stroke-width="1.28043" stroke-miterlimit="10"/>
<path d="M254.86 925.52V849.754" stroke="white" stroke-width="1.28043" stroke-miterlimit="10"/>
<path d="M206.542 831.991H118.776" stroke="white" stroke-width="1.28043" stroke-miterlimit="10"/>
<path d="M206.542 816.482H118.776" stroke="white" stroke-width="1.28043" stroke-miterlimit="10"/>
<path d="M206.542 800.974H118.776" stroke="white" stroke-width="1.28043" stroke-miterlimit="10"/>
<path d="M296.77 831.991H272.459" stroke="white" stroke-width="1.28043" stroke-miterlimit="10"/>
<path d="M296.77 816.482H272.459" stroke="white" stroke-width="1.28043" stroke-miterlimit="10"/>
<path d="M296.77 800.974H272.459" stroke="white" stroke-width="1.28043" stroke-miterlimit="10"/>
<path d="M118.388 833.877C119.967 832.631 120.247 830.329 119.013 828.735C117.78 827.141 115.499 826.858 113.92 828.104C112.34 829.349 112.06 831.651 113.294 833.245C114.528 834.839 116.809 835.122 118.388 833.877Z" fill="white"/>
<path d="M118.373 818.353C119.953 817.108 120.233 814.806 118.999 813.212C117.765 811.618 115.484 811.335 113.905 812.581C112.326 813.826 112.046 816.128 113.28 817.722C114.513 819.316 116.794 819.599 118.373 818.353Z" fill="white"/>
<path d="M118.379 802.853C119.958 801.608 120.238 799.306 119.004 797.712C117.77 796.118 115.49 795.835 113.91 797.081C112.331 798.326 112.051 800.628 113.285 802.222C114.519 803.816 116.799 804.099 118.379 802.853Z" fill="white"/>
<path d="M301.608 833.887C303.188 832.642 303.468 830.34 302.234 828.746C301 827.152 298.719 826.869 297.14 828.115C295.561 829.36 295.281 831.662 296.514 833.256C297.748 834.85 300.029 835.133 301.608 833.887Z" fill="white"/>
<path d="M301.606 818.364C303.185 817.119 303.465 814.817 302.231 813.223C300.997 811.629 298.717 811.346 297.137 812.592C295.558 813.837 295.278 816.139 296.512 817.733C297.746 819.327 300.026 819.61 301.606 818.364Z" fill="white"/>
<path d="M301.601 803.876C303.181 802.631 303.461 800.329 302.227 798.735C300.993 797.141 298.712 796.858 297.133 798.104C295.554 799.349 295.274 801.651 296.508 803.245C297.741 804.839 300.022 805.122 301.601 803.876Z" fill="white"/>
<path d="M346.471 635.828H253.54L223.532 666.104V783.223" stroke="white" stroke-width="1.28043" stroke-miterlimit="10"/>
<path d="M356.989 652.643H271.342L241.334 682.919V781.775" stroke="white" stroke-width="1.28043" stroke-miterlimit="10"/>
<path d="M377.266 676.144H291.619L261.61 706.42V783.223" stroke="white" stroke-width="1.28043" stroke-miterlimit="10"/>
<path d="M125.958 346.098C127.962 346.098 129.587 344.458 129.587 342.435C129.587 340.412 127.962 338.772 125.958 338.772C123.954 338.772 122.329 340.412 122.329 342.435C122.329 344.458 123.954 346.098 125.958 346.098Z" fill="white"/>
<path d="M141.337 346.098C143.341 346.098 144.966 344.458 144.966 342.435C144.966 340.412 143.341 338.772 141.337 338.772C139.333 338.772 137.708 340.412 137.708 342.435C137.708 344.458 139.333 346.098 141.337 346.098Z" fill="white"/>
<path d="M156.702 346.098C158.706 346.098 160.331 344.458 160.331 342.435C160.331 340.412 158.706 338.772 156.702 338.772C154.698 338.772 153.073 340.412 153.073 342.435C153.073 344.458 154.698 346.098 156.702 346.098Z" fill="white"/>
<path d="M167.868 198.51H114.792C111.247 198.51 108.372 201.412 108.372 204.991V258.562C108.372 262.141 111.247 265.042 114.792 265.042H167.868C171.414 265.042 174.289 262.141 174.289 258.562V204.991C174.289 201.412 171.414 198.51 167.868 198.51Z" stroke="white" stroke-width="1.28043" stroke-miterlimit="10"/>
<path d="M157.908 208.564H124.753C121.207 208.564 118.333 211.466 118.333 215.045V248.509C118.333 252.088 121.207 254.989 124.753 254.989H157.908C161.454 254.989 164.328 252.088 164.328 248.509V215.045C164.328 211.466 161.454 208.564 157.908 208.564Z" fill="white"/>
<path d="M125.958 340.821V265.056" stroke="white" stroke-width="1.28043" stroke-miterlimit="10"/>
<path d="M141.336 340.821V265.056" stroke="white" stroke-width="1.28043" stroke-miterlimit="10"/>
<path d="M156.702 340.821V265.056" stroke="white" stroke-width="1.28043" stroke-miterlimit="10"/>
<path d="M108.372 247.292H20.606" stroke="white" stroke-width="1.28043" stroke-miterlimit="10"/>
<path d="M108.372 231.783H20.606" stroke="white" stroke-width="1.28043" stroke-miterlimit="10"/>
<path d="M108.372 216.274H20.606" stroke="white" stroke-width="1.28043" stroke-miterlimit="10"/>
<path d="M198.612 247.292H174.289" stroke="white" stroke-width="1.28043" stroke-miterlimit="10"/>
<path d="M198.612 231.783H174.289" stroke="white" stroke-width="1.28043" stroke-miterlimit="10"/>
<path d="M198.612 216.274H174.289" stroke="white" stroke-width="1.28043" stroke-miterlimit="10"/>
<path d="M20.1998 249.182C21.7972 247.96 22.111 245.663 20.9007 244.05C19.6904 242.438 17.4142 242.121 15.8168 243.343C14.2193 244.564 13.9055 246.862 15.1158 248.474C16.3262 250.086 18.6023 250.403 20.1998 249.182Z" fill="white"/>
<path d="M20.1954 233.67C21.7928 232.448 22.1066 230.151 20.8963 228.538C19.686 226.926 17.4098 226.609 15.8124 227.831C14.2149 229.053 13.9011 231.35 15.1114 232.962C16.3218 234.575 18.5979 234.892 20.1954 233.67Z" fill="white"/>
<path d="M20.1915 218.158C21.7889 216.936 22.1027 214.639 20.8924 213.026C19.6821 211.414 17.4059 211.097 15.8085 212.319C14.211 213.54 13.8972 215.838 15.1075 217.45C16.3179 219.063 18.594 219.379 20.1915 218.158Z" fill="white"/>
<path d="M203.425 249.169C205.022 247.948 205.336 245.65 204.126 244.038C202.915 242.426 200.639 242.109 199.042 243.331C197.444 244.552 197.131 246.85 198.341 248.462C199.551 250.074 201.827 250.391 203.425 249.169Z" fill="white"/>
<path d="M203.421 233.657C205.018 232.436 205.332 230.138 204.122 228.526C202.912 226.913 200.635 226.597 199.038 227.818C197.44 229.04 197.127 231.337 198.337 232.95C199.547 234.562 201.824 234.879 203.421 233.657Z" fill="white"/>
<path d="M203.421 219.167C205.018 217.945 205.332 215.648 204.122 214.036C202.912 212.423 200.635 212.106 199.038 213.328C197.44 214.55 197.127 216.847 198.337 218.459C199.547 220.072 201.824 220.389 203.421 219.167Z" fill="white"/>
<path d="M248.313 51.1289H155.37L125.375 81.4044V198.511" stroke="white" stroke-width="1.28043" stroke-miterlimit="10"/>
<path d="M258.819 67.9316H173.172L143.177 98.22V197.064" stroke="white" stroke-width="1.28043" stroke-miterlimit="10"/>
<path d="M279.095 91.4453H193.448L163.453 121.721V198.511" stroke="white" stroke-width="1.28043" stroke-miterlimit="10"/>
<path d="M1113.02 496.733C1115.02 496.733 1116.65 495.093 1116.65 493.071C1116.65 491.048 1115.02 489.408 1113.02 489.408C1111.01 489.408 1109.39 491.048 1109.39 493.071C1109.39 495.093 1111.01 496.733 1113.02 496.733Z" fill="white"/>
<path d="M1128.38 496.733C1130.39 496.733 1132.01 495.093 1132.01 493.071C1132.01 491.048 1130.39 489.408 1128.38 489.408C1126.38 489.408 1124.75 491.048 1124.75 493.071C1124.75 495.093 1126.38 496.733 1128.38 496.733Z" fill="white"/>
<path d="M1143.75 496.733C1145.75 496.733 1147.38 495.093 1147.38 493.071C1147.38 491.048 1145.75 489.408 1143.75 489.408C1141.75 489.408 1140.12 491.048 1140.12 493.071C1140.12 495.093 1141.75 496.733 1143.75 496.733Z" fill="white"/>
<path d="M1113.02 617.63C1115.02 617.63 1116.65 615.99 1116.65 613.967C1116.65 611.945 1115.02 610.305 1113.02 610.305C1111.01 610.305 1109.39 611.945 1109.39 613.967C1109.39 615.99 1111.01 617.63 1113.02 617.63Z" fill="white"/>
<path d="M1128.38 617.63C1130.39 617.63 1132.01 615.99 1132.01 613.967C1132.01 611.945 1130.39 610.305 1128.38 610.305C1126.38 610.305 1124.75 611.945 1124.75 613.967C1124.75 615.99 1126.38 617.63 1128.38 617.63Z" fill="white"/>
<path d="M1143.75 617.63C1145.75 617.63 1147.38 615.99 1147.38 613.967C1147.38 611.945 1145.75 610.305 1143.75 610.305C1141.75 610.305 1140.12 611.945 1140.12 613.967C1140.12 615.99 1141.75 617.63 1143.75 617.63Z" fill="white"/>
<path d="M1154.93 521.271H1101.85C1098.31 521.271 1095.43 524.172 1095.43 527.751V581.322C1095.43 584.901 1098.31 587.802 1101.85 587.802H1154.93C1158.47 587.802 1161.35 584.901 1161.35 581.322V527.751C1161.35 524.172 1158.47 521.271 1154.93 521.271Z" stroke="white" stroke-width="1.28043" stroke-miterlimit="10"/>
<path d="M1144.97 531.324H1111.81C1108.27 531.324 1105.39 534.225 1105.39 537.804V571.268C1105.39 574.847 1108.27 577.749 1111.81 577.749H1144.97C1148.51 577.749 1151.39 574.847 1151.39 571.268V537.804C1151.39 534.225 1148.51 531.324 1144.97 531.324Z" fill="white"/>
<path d="M1113.02 521.271V496.733" stroke="white" stroke-width="1.28043" stroke-miterlimit="10"/>
<path d="M1128.38 521.271V496.733" stroke="white" stroke-width="1.28043" stroke-miterlimit="10"/>
<path d="M1143.75 521.271V496.733" stroke="white" stroke-width="1.28043" stroke-miterlimit="10"/>
<path d="M1113.02 612.354V587.803" stroke="white" stroke-width="1.28043" stroke-miterlimit="10"/>
<path d="M1128.38 612.354V587.803" stroke="white" stroke-width="1.28043" stroke-miterlimit="10"/>
<path d="M1143.75 612.354V587.803" stroke="white" stroke-width="1.28043" stroke-miterlimit="10"/>
<path d="M1095.43 570.053H1071.11" stroke="white" stroke-width="1.28043" stroke-miterlimit="10"/>
<path d="M1095.43 554.543H1071.11" stroke="white" stroke-width="1.28043" stroke-miterlimit="10"/>
<path d="M1095.43 539.034H1071.11" stroke="white" stroke-width="1.28043" stroke-miterlimit="10"/>
<path d="M1185.66 570.053H1161.35" stroke="white" stroke-width="1.28043" stroke-miterlimit="10"/>
<path d="M1185.66 554.543H1161.35" stroke="white" stroke-width="1.28043" stroke-miterlimit="10"/>
<path d="M1185.66 539.034H1161.35" stroke="white" stroke-width="1.28043" stroke-miterlimit="10"/>
<path d="M1070.74 571.945C1072.32 570.7 1072.6 568.398 1071.36 566.804C1070.13 565.21 1067.85 564.927 1066.27 566.173C1064.69 567.418 1064.41 569.72 1065.64 571.314C1066.88 572.908 1069.16 573.191 1070.74 571.945Z" fill="white"/>
<path d="M1070.73 556.432C1072.31 555.187 1072.59 552.885 1071.36 551.291C1070.12 549.697 1067.84 549.414 1066.26 550.66C1064.68 551.905 1064.4 554.207 1065.64 555.801C1066.87 557.395 1069.15 557.678 1070.73 556.432Z" fill="white"/>
<path d="M1070.74 540.932C1072.32 539.686 1072.6 537.384 1071.36 535.79C1070.13 534.196 1067.85 533.914 1066.27 535.159C1064.69 536.404 1064.41 538.706 1065.64 540.3C1066.88 541.894 1069.16 542.177 1070.74 540.932Z" fill="white"/>
<path d="M1190.51 571.947C1192.09 570.702 1192.37 568.4 1191.14 566.806C1189.91 565.212 1187.63 564.929 1186.05 566.175C1184.47 567.42 1184.19 569.722 1185.42 571.316C1186.66 572.91 1188.94 573.193 1190.51 571.947Z" fill="white"/>
<path d="M1190.52 556.447C1192.1 555.202 1192.38 552.9 1191.15 551.306C1189.91 549.712 1187.63 549.429 1186.05 550.675C1184.47 551.92 1184.19 554.222 1185.43 555.816C1186.66 557.41 1188.94 557.693 1190.52 556.447Z" fill="white"/>
<path d="M1190.51 540.934C1192.09 539.689 1192.37 537.387 1191.14 535.793C1189.9 534.199 1187.62 533.916 1186.04 535.161C1184.47 536.407 1184.19 538.709 1185.42 540.303C1186.65 541.897 1188.93 542.18 1190.51 540.934Z" fill="white"/>
<path d="M864.122 862.024C872.426 862.024 879.158 855.229 879.158 846.848C879.158 838.466 872.426 831.671 864.122 831.671C855.818 831.671 849.086 838.466 849.086 846.848C849.086 855.229 855.818 862.024 864.122 862.024Z" stroke="white" stroke-width="1.28043" stroke-miterlimit="10"/>
<path d="M902.276 899.843C910.58 899.843 917.311 893.048 917.311 884.666C917.311 876.285 910.58 869.49 902.276 869.49C893.971 869.49 887.24 876.285 887.24 884.666C887.24 893.048 893.971 899.843 902.276 899.843Z" stroke="white" stroke-width="1.28043" stroke-miterlimit="10"/>
<path d="M939.377 938.097C947.681 938.097 954.412 931.302 954.412 922.92C954.412 914.539 947.681 907.744 939.377 907.744C931.073 907.744 924.341 914.539 924.341 922.92C924.341 931.302 931.073 938.097 939.377 938.097Z" stroke="white" stroke-width="1.28043" stroke-miterlimit="10"/>
<path d="M976.795 975.954C985.099 975.954 991.831 969.16 991.831 960.778C991.831 952.397 985.099 945.602 976.795 945.602C968.491 945.602 961.759 952.397 961.759 960.778C961.759 969.16 968.491 975.954 976.795 975.954Z" stroke="white" stroke-width="1.28043" stroke-miterlimit="10"/>
<path d="M624.005 705.984V805.84L577.426 852.841V938.084L616.9 977.913V1090.06" stroke="white" stroke-width="1.28043" stroke-miterlimit="10"/>
<path d="M647.301 705.984V805.84L600.722 852.841V938.084L640.183 977.913V1056.79" stroke="white" stroke-width="1.28043" stroke-miterlimit="10"/>
<path d="M677.487 709.686V809.541L630.908 856.556V941.798L671.143 981.628V1017.83" stroke="white" stroke-width="1.28043" stroke-miterlimit="10"/>
<path d="M717.875 805.84V938.084L747.299 967.796V1072.71" stroke="white" stroke-width="1.28043" stroke-miterlimit="10"/>
<path d="M671.574 1028.45C674.84 1028.45 677.487 1025.78 677.487 1022.48C677.487 1019.19 674.84 1016.51 671.574 1016.51C668.309 1016.51 665.662 1019.19 665.662 1022.48C665.662 1025.78 668.309 1028.45 671.574 1028.45Z" fill="white"/>
<path d="M717.874 808.146C721.14 808.146 723.787 805.474 723.787 802.178C723.787 798.882 721.14 796.21 717.874 796.21C714.609 796.21 711.961 798.882 711.961 802.178C711.961 805.474 714.609 808.146 717.874 808.146Z" fill="white"/>
<path d="M855.011 817.764C858.276 817.764 860.924 815.092 860.924 811.796C860.924 808.5 858.276 805.828 855.011 805.828C851.745 805.828 849.098 808.5 849.098 811.796C849.098 815.092 851.745 817.764 855.011 817.764Z" fill="white"/>
<path d="M640.246 1068.73C643.512 1068.73 646.159 1066.06 646.159 1062.76C646.159 1059.46 643.512 1056.79 640.246 1056.79C636.981 1056.79 634.333 1059.46 634.333 1062.76C634.333 1066.06 636.981 1068.73 640.246 1068.73Z" fill="white"/>
<path d="M616.823 1102C620.089 1102 622.736 1099.33 622.736 1096.03C622.736 1092.74 620.089 1090.06 616.823 1090.06C613.558 1090.06 610.911 1092.74 610.911 1096.03C610.911 1099.33 613.558 1102 616.823 1102Z" fill="white"/>
<path d="M647.301 868.043V926.263C647.301 926.263 659.127 937.111 659.127 938.199C659.127 939.288 698.537 938.199 698.537 938.199V836.589H678.832L647.301 868.043Z" fill="white"/>
<path d="M806.719 705.984V878.16L929.302 1001.89" stroke="white" stroke-width="1.28043" stroke-miterlimit="10"/>
<path d="M779.706 705.984V878.16L875.554 974.917" stroke="white" stroke-width="1.28043" stroke-miterlimit="10"/>
<path d="M752.983 705.984V878.16L834.824 960.778" stroke="white" stroke-width="1.28043" stroke-miterlimit="10"/>
<path d="M857.6 810.796H910.142L1026.46 928.197" stroke="white" stroke-width="1.28043" stroke-miterlimit="10"/>
<path d="M871.633 797.592C874.899 797.592 877.546 794.92 877.546 791.624C877.546 788.328 874.899 785.656 871.633 785.656C868.368 785.656 865.72 788.328 865.72 791.624C865.72 794.92 868.368 797.592 871.633 797.592Z" fill="white"/>
<path d="M1208.14 700.567C1211.41 700.567 1214.06 697.895 1214.06 694.599C1214.06 691.303 1211.41 688.631 1208.14 688.631C1204.88 688.631 1202.23 691.303 1202.23 694.599C1202.23 697.895 1204.88 700.567 1208.14 700.567Z" fill="white"/>
<path d="M1174.68 668.268C1177.95 668.268 1180.6 665.596 1180.6 662.3C1180.6 659.004 1177.95 656.332 1174.68 656.332C1171.42 656.332 1168.77 659.004 1168.77 662.3C1168.77 665.596 1171.42 668.268 1174.68 668.268Z" fill="white"/>
<path d="M1026.46 632.14C1029.72 632.14 1032.37 629.468 1032.37 626.172C1032.37 622.876 1029.72 620.204 1026.46 620.204C1023.19 620.204 1020.54 622.876 1020.54 626.172C1020.54 629.468 1023.19 632.14 1026.46 632.14Z" fill="white"/>
<path d="M1073.98 777.166C1077.24 777.166 1079.89 774.494 1079.89 771.198C1079.89 767.902 1077.24 765.23 1073.98 765.23C1070.71 765.23 1068.06 767.902 1068.06 771.198C1068.06 774.494 1070.71 777.166 1073.98 777.166Z" fill="white"/>
<path d="M1392.98 846.413C1396.24 846.413 1398.89 843.741 1398.89 840.445C1398.89 837.149 1396.24 834.477 1392.98 834.477C1389.71 834.477 1387.06 837.149 1387.06 840.445C1387.06 843.741 1389.71 846.413 1392.98 846.413Z" fill="white"/>
<path d="M1294.68 583.717C1297.94 583.717 1300.59 581.045 1300.59 577.749C1300.59 574.453 1297.94 571.781 1294.68 571.781C1291.41 571.781 1288.77 574.453 1288.77 577.749C1288.77 581.045 1291.41 583.717 1294.68 583.717Z" fill="white"/>
<path d="M1422.51 894.976C1425.78 894.976 1428.43 892.304 1428.43 889.008C1428.43 885.712 1425.78 883.04 1422.51 883.04C1419.25 883.04 1416.6 885.712 1416.6 889.008C1416.6 892.304 1419.25 894.976 1422.51 894.976Z" fill="white"/>
<path d="M1263.68 369.791C1266.95 369.791 1269.59 367.119 1269.59 363.823C1269.59 360.526 1266.95 357.854 1263.68 357.854C1260.42 357.854 1257.77 360.526 1257.77 363.823C1257.77 367.119 1260.42 369.791 1263.68 369.791Z" fill="white"/>
<path d="M1226.53 375.759C1229.79 375.759 1232.44 373.087 1232.44 369.791C1232.44 366.495 1229.79 363.823 1226.53 363.823C1223.26 363.823 1220.62 366.495 1220.62 369.791C1220.62 373.087 1223.26 375.759 1226.53 375.759Z" fill="white"/>
<path d="M1147.38 460.515C1150.64 460.515 1153.29 457.843 1153.29 454.547C1153.29 451.251 1150.64 448.579 1147.38 448.579C1144.11 448.579 1141.47 451.251 1141.47 454.547C1141.47 457.843 1144.11 460.515 1147.38 460.515Z" fill="white"/>
<path d="M1289.7 391.767C1292.97 391.767 1295.62 389.095 1295.62 385.799C1295.62 382.503 1292.97 379.831 1289.7 379.831C1286.44 379.831 1283.79 382.503 1283.79 385.799C1283.79 389.095 1286.44 391.767 1289.7 391.767Z" fill="white"/>
<path d="M874.234 790.625H926.777L1015.24 879.928" stroke="white" stroke-width="1.28043" stroke-miterlimit="10"/>
<path d="M1140.63 831.672H1184L1208.14 807.3V698.787" stroke="white" stroke-width="1.28043" stroke-miterlimit="10"/>
<path d="M449.311 746.39C452.576 746.39 455.224 743.718 455.224 740.422C455.224 737.126 452.576 734.454 449.311 734.454C446.045 734.454 443.398 737.126 443.398 740.422C443.398 743.718 446.045 746.39 449.311 746.39Z" stroke="white" stroke-width="1.28043" stroke-miterlimit="10"/>
<path d="M508.058 746.39C511.324 746.39 513.971 743.718 513.971 740.422C513.971 737.126 511.324 734.454 508.058 734.454C504.793 734.454 502.146 737.126 502.146 740.422C502.146 743.718 504.793 746.39 508.058 746.39Z" stroke="white" stroke-width="1.28043" stroke-miterlimit="10"/>
<path d="M455.211 740.422C458.155 740.115 502.146 740.422 502.146 740.422" stroke="white" stroke-width="1.28043" stroke-miterlimit="10"/>
<path d="M449.311 767.791C452.576 767.791 455.224 765.119 455.224 761.822C455.224 758.526 452.576 755.854 449.311 755.854C446.045 755.854 443.398 758.526 443.398 761.822C443.398 765.119 446.045 767.791 449.311 767.791Z" stroke="white" stroke-width="1.28043" stroke-miterlimit="10"/>
<path d="M508.058 767.791C511.324 767.791 513.971 765.119 513.971 761.822C513.971 758.526 511.324 755.854 508.058 755.854C504.793 755.854 502.146 758.526 502.146 761.822C502.146 765.119 504.793 767.791 508.058 767.791Z" stroke="white" stroke-width="1.28043" stroke-miterlimit="10"/>
<path d="M455.211 761.823C458.155 761.516 502.146 761.823 502.146 761.823" stroke="white" stroke-width="1.28043" stroke-miterlimit="10"/>
<path d="M449.311 789.191C452.576 789.191 455.224 786.519 455.224 783.223C455.224 779.927 452.576 777.255 449.311 777.255C446.045 777.255 443.398 779.927 443.398 783.223C443.398 786.519 446.045 789.191 449.311 789.191Z" stroke="white" stroke-width="1.28043" stroke-miterlimit="10"/>
<path d="M508.058 789.191C511.324 789.191 513.971 786.519 513.971 783.223C513.971 779.927 511.324 777.255 508.058 777.255C504.793 777.255 502.146 779.927 502.146 783.223C502.146 786.519 504.793 789.191 508.058 789.191Z" stroke="white" stroke-width="1.28043" stroke-miterlimit="10"/>
<path d="M455.211 783.223C458.155 782.916 502.146 783.223 502.146 783.223" stroke="white" stroke-width="1.28043" stroke-miterlimit="10"/>
<path d="M449.311 810.579C452.576 810.579 455.224 807.907 455.224 804.611C455.224 801.315 452.576 798.643 449.311 798.643C446.045 798.643 443.398 801.315 443.398 804.611C443.398 807.907 446.045 810.579 449.311 810.579Z" stroke="white" stroke-width="1.28043" stroke-miterlimit="10"/>
<path d="M508.058 810.579C511.324 810.579 513.971 807.907 513.971 804.611C513.971 801.315 511.324 798.643 508.058 798.643C504.793 798.643 502.146 801.315 502.146 804.611C502.146 807.907 504.793 810.579 508.058 810.579Z" stroke="white" stroke-width="1.28043" stroke-miterlimit="10"/>
<path d="M455.211 804.61C458.155 804.303 502.146 804.61 502.146 804.61" stroke="white" stroke-width="1.28043" stroke-miterlimit="10"/>
<path d="M449.311 831.979C452.576 831.979 455.224 829.307 455.224 826.011C455.224 822.715 452.576 820.043 449.311 820.043C446.045 820.043 443.398 822.715 443.398 826.011C443.398 829.307 446.045 831.979 449.311 831.979Z" stroke="white" stroke-width="1.28043" stroke-miterlimit="10"/>
<path d="M508.058 831.979C511.324 831.979 513.971 829.307 513.971 826.011C513.971 822.715 511.324 820.043 508.058 820.043C504.793 820.043 502.146 822.715 502.146 826.011C502.146 829.307 504.793 831.979 508.058 831.979Z" stroke="white" stroke-width="1.28043" stroke-miterlimit="10"/>
<path d="M455.211 826.011C458.155 825.703 502.146 826.011 502.146 826.011" stroke="white" stroke-width="1.28043" stroke-miterlimit="10"/>
<path d="M472.048 31.6042C474.904 30.0068 475.937 26.3746 474.354 23.4915C472.771 20.6085 469.173 19.5663 466.317 21.1637C463.46 22.7612 462.428 26.3933 464.01 29.2764C465.593 32.1595 469.191 33.2017 472.048 31.6042Z" stroke="white" stroke-width="1.28043" stroke-miterlimit="10"/>
<path d="M472.047 90.8986C474.904 89.3012 475.936 85.669 474.354 82.7859C472.771 79.9029 469.172 78.8607 466.316 80.4581C463.46 82.0556 462.427 85.6878 464.01 88.5708C465.592 91.4539 469.191 92.4961 472.047 90.8986Z" stroke="white" stroke-width="1.28043" stroke-miterlimit="10"/>
<path d="M469.181 32.3545C469.485 35.3257 469.181 79.7272 469.181 79.7272" stroke="white" stroke-width="1.28043" stroke-miterlimit="10"/>
<path d="M450.85 31.6145C453.707 30.017 454.739 26.3848 453.156 23.5018C451.574 20.6187 447.975 19.5765 445.119 21.174C442.262 22.7714 441.23 26.4036 442.812 29.2867C444.395 32.1697 447.994 33.2119 450.85 31.6145Z" stroke="white" stroke-width="1.28043" stroke-miterlimit="10"/>
<path d="M450.85 90.9094C453.706 89.3119 454.739 85.6798 453.156 82.7967C451.573 79.9136 447.975 78.8714 445.118 80.4689C442.262 82.0663 441.229 85.6985 442.812 88.5816C444.395 91.4646 447.993 92.5068 450.85 90.9094Z" stroke="white" stroke-width="1.28043" stroke-miterlimit="10"/>
<path d="M447.978 32.3535C448.282 35.3247 447.978 79.7263 447.978 79.7263" stroke="white" stroke-width="1.28043" stroke-miterlimit="10"/>
<path d="M429.639 31.613C432.496 30.0155 433.528 26.3834 431.945 23.5003C430.363 20.6172 426.764 19.575 423.908 21.1725C421.051 22.7699 420.019 26.4021 421.602 29.2852C423.184 32.1683 426.783 33.2105 429.639 31.613Z" stroke="white" stroke-width="1.28043" stroke-miterlimit="10"/>
<path d="M429.639 90.9074C432.495 89.31 433.528 85.6778 431.945 82.7947C430.362 79.9117 426.764 78.8695 423.907 80.4669C421.051 82.0644 420.018 85.6966 421.601 88.5796C423.184 91.4627 426.782 92.5049 429.639 90.9074Z" stroke="white" stroke-width="1.28043" stroke-miterlimit="10"/>
<path d="M426.775 32.3545C427.08 35.3257 426.775 79.7272 426.775 79.7272" stroke="white" stroke-width="1.28043" stroke-miterlimit="10"/>
<path d="M408.453 31.6052C411.31 30.0077 412.342 26.3756 410.759 23.4925C409.177 20.6094 405.578 19.5672 402.722 21.1647C399.865 22.7621 398.833 26.3943 400.415 29.2774C401.998 32.1604 405.597 33.2026 408.453 31.6052Z" stroke="white" stroke-width="1.28043" stroke-miterlimit="10"/>
<path d="M408.453 90.9001C411.309 89.3027 412.342 85.6705 410.759 82.7874C409.176 79.9043 405.578 78.8622 402.721 80.4596C399.865 82.0571 398.832 85.6892 400.415 88.5723C401.998 91.4554 405.596 92.4976 408.453 90.9001Z" stroke="white" stroke-width="1.28043" stroke-miterlimit="10"/>
<path d="M405.586 32.3545C405.89 35.3257 405.586 79.7272 405.586 79.7272" stroke="white" stroke-width="1.28043" stroke-miterlimit="10"/>
<path d="M387.255 31.6032C390.112 30.0058 391.144 26.3736 389.562 23.4905C387.979 20.6075 384.38 19.5653 381.524 21.1627C378.668 22.7602 377.635 26.3924 379.218 29.2754C380.8 32.1585 384.399 33.2007 387.255 31.6032Z" stroke="white" stroke-width="1.28043" stroke-miterlimit="10"/>
<path d="M387.255 90.9104C390.111 89.3129 391.144 85.6807 389.561 82.7977C387.979 79.9146 384.38 78.8724 381.524 80.4699C378.667 82.0673 377.635 85.6995 379.217 88.5826C380.8 91.4656 384.399 92.5078 387.255 90.9104Z" stroke="white" stroke-width="1.28043" stroke-miterlimit="10"/>
<path d="M384.384 32.3535C384.688 35.3247 384.384 79.7263 384.384 79.7263" stroke="white" stroke-width="1.28043" stroke-miterlimit="10"/>
<path d="M1125.16 31.613C1128.01 30.0156 1129.05 26.3834 1127.46 23.5003C1125.88 20.6172 1122.28 19.5751 1119.43 21.1725C1116.57 22.77 1115.54 26.4021 1117.12 29.2852C1118.7 32.1683 1122.3 33.2105 1125.16 31.613Z" stroke="white" stroke-width="1.28043" stroke-miterlimit="10"/>
<path d="M1125.14 90.9075C1128 89.31 1129.03 85.6778 1127.45 82.7947C1125.87 79.9117 1122.27 78.8695 1119.41 80.467C1116.56 82.0644 1115.52 85.6966 1117.11 88.5796C1118.69 91.4627 1122.29 92.5049 1125.14 90.9075Z" stroke="white" stroke-width="1.28043" stroke-miterlimit="10"/>
<path d="M1122.28 32.3545C1122.59 35.3257 1122.28 79.7272 1122.28 79.7272" stroke="white" stroke-width="1.28043" stroke-miterlimit="10"/>
<path d="M1103.96 31.6052C1106.81 30.0078 1107.85 26.3756 1106.26 23.4925C1104.68 20.6094 1101.08 19.5673 1098.23 21.1647C1095.37 22.7622 1094.34 26.3943 1095.92 29.2774C1097.5 32.1604 1101.1 33.2027 1103.96 31.6052Z" stroke="white" stroke-width="1.28043" stroke-miterlimit="10"/>
<path d="M1103.95 90.9186C1106.8 89.3212 1107.84 85.689 1106.25 82.806C1104.67 79.9229 1101.07 78.8807 1098.22 80.4781C1095.36 82.0756 1094.33 85.7078 1095.91 88.5909C1097.49 91.4739 1101.09 92.5161 1103.95 90.9186Z" stroke="white" stroke-width="1.28043" stroke-miterlimit="10"/>
<path d="M1101.09 32.3535C1101.4 35.3247 1101.09 79.7263 1101.09 79.7263" stroke="white" stroke-width="1.28043" stroke-miterlimit="10"/>
<path d="M1082.76 31.6159C1085.62 30.0185 1086.65 26.3863 1085.07 23.5032C1083.48 20.6202 1079.89 19.578 1077.03 21.1754C1074.17 22.7729 1073.14 26.4051 1074.72 29.2881C1076.31 32.1712 1079.9 33.2134 1082.76 31.6159Z" stroke="white" stroke-width="1.28043" stroke-miterlimit="10"/>
<path d="M1082.76 90.9103C1085.62 89.3129 1086.65 85.6807 1085.07 82.7977C1083.48 79.9146 1079.89 78.8724 1077.03 80.4698C1074.17 82.0673 1073.14 85.6995 1074.72 88.5826C1076.31 91.4656 1079.9 92.5078 1082.76 90.9103Z" stroke="white" stroke-width="1.28043" stroke-miterlimit="10"/>
<path d="M1079.89 32.354C1080.19 35.3252 1079.89 79.7267 1079.89 79.7267" stroke="white" stroke-width="1.28043" stroke-miterlimit="10"/>
<path d="M1061.56 31.6145C1064.42 30.017 1065.45 26.3848 1063.87 23.5018C1062.29 20.6187 1058.69 19.5765 1055.83 21.174C1052.98 22.7714 1051.94 26.4036 1053.53 29.2867C1055.11 32.1697 1058.71 33.2119 1061.56 31.6145Z" stroke="white" stroke-width="1.28043" stroke-miterlimit="10"/>
<path d="M1061.55 90.9094C1064.41 89.312 1065.44 85.6798 1063.86 82.7967C1062.27 79.9136 1058.67 78.8715 1055.82 80.4689C1052.96 82.0664 1051.93 85.6985 1053.51 88.5816C1055.09 91.4646 1058.69 92.5069 1061.55 90.9094Z" stroke="white" stroke-width="1.28043" stroke-miterlimit="10"/>
<path d="M1058.69 32.3535C1058.99 35.3247 1058.69 79.7263 1058.69 79.7263" stroke="white" stroke-width="1.28043" stroke-miterlimit="10"/>
<path d="M1040.36 31.6062C1043.22 30.0087 1044.25 26.3765 1042.67 23.4935C1041.09 20.6104 1037.49 19.5682 1034.63 21.1657C1031.78 22.7631 1030.74 26.3953 1032.33 29.2784C1033.91 32.1614 1037.51 33.2036 1040.36 31.6062Z" stroke="white" stroke-width="1.28043" stroke-miterlimit="10"/>
<path d="M1040.36 90.9133C1043.22 89.3159 1044.25 85.6837 1042.67 82.8006C1041.09 79.9175 1037.49 78.8754 1034.63 80.4728C1031.78 82.0703 1030.74 85.7024 1032.33 88.5855C1033.91 91.4685 1037.51 92.5108 1040.36 90.9133Z" stroke="white" stroke-width="1.28043" stroke-miterlimit="10"/>
<path d="M1037.5 32.3535C1037.8 35.3247 1037.5 79.7263 1037.5 79.7263" stroke="white" stroke-width="1.28043" stroke-miterlimit="10"/>
<path d="M71.1438 514.444C74.4093 514.444 77.0566 511.772 77.0566 508.476C77.0566 505.18 74.4093 502.508 71.1438 502.508C67.8782 502.508 65.231 505.18 65.231 508.476C65.231 511.772 67.8782 514.444 71.1438 514.444Z" stroke="white" stroke-width="1.28043" stroke-miterlimit="10"/>
<path d="M37.8751 502.329H0.0380859V514.623H37.8751V502.329Z" fill="white"/>
<path d="M37.875 508.476H65.244" stroke="white" stroke-width="1.28043" stroke-miterlimit="10"/>
<path d="M71.1438 547.819C74.4093 547.819 77.0566 545.147 77.0566 541.851C77.0566 538.555 74.4093 535.883 71.1438 535.883C67.8782 535.883 65.231 538.555 65.231 541.851C65.231 545.147 67.8782 547.819 71.1438 547.819Z" stroke="white" stroke-width="1.28043" stroke-miterlimit="10"/>
<path d="M37.8751 535.704H0.0380859V547.999H37.8751V535.704Z" fill="white"/>
<path d="M37.875 541.851H65.244" stroke="white" stroke-width="1.28043" stroke-miterlimit="10"/>
<path d="M71.1438 581.194C74.4093 581.194 77.0566 578.522 77.0566 575.226C77.0566 571.93 74.4093 569.258 71.1438 569.258C67.8782 569.258 65.231 571.93 65.231 575.226C65.231 578.522 67.8782 581.194 71.1438 581.194Z" stroke="white" stroke-width="1.28043" stroke-miterlimit="10"/>
<path d="M37.8751 569.079H0.0380859V581.373H37.8751V569.079Z" fill="white"/>
<path d="M37.875 575.226H65.244" stroke="white" stroke-width="1.28043" stroke-miterlimit="10"/>
<path d="M71.1433 614.569C74.4088 614.569 77.0561 611.897 77.0561 608.601C77.0561 605.305 74.4088 602.633 71.1433 602.633C67.8777 602.633 65.2305 605.305 65.2305 608.601C65.2305 611.897 67.8777 614.569 71.1433 614.569Z" stroke="white" stroke-width="1.28043" stroke-miterlimit="10"/>
<path d="M37.8746 602.454H0.0375977V614.748H37.8746V602.454Z" fill="white"/>
<path d="M37.8745 608.601H65.2435" stroke="white" stroke-width="1.28043" stroke-miterlimit="10"/>
<path d="M71.1438 647.944C74.4093 647.944 77.0566 645.272 77.0566 641.976C77.0566 638.68 74.4093 636.008 71.1438 636.008C67.8782 636.008 65.231 638.68 65.231 641.976C65.231 645.272 67.8782 647.944 71.1438 647.944Z" stroke="white" stroke-width="1.28043" stroke-miterlimit="10"/>
<path d="M37.8751 635.829H0.0380859V648.124H37.8751V635.829Z" fill="white"/>
<path d="M37.875 641.976H65.244" stroke="white" stroke-width="1.28043" stroke-miterlimit="10"/>
<path d="M71.1433 681.319C74.4088 681.319 77.0561 678.647 77.0561 675.351C77.0561 672.055 74.4088 669.383 71.1433 669.383C67.8777 669.383 65.2305 672.055 65.2305 675.351C65.2305 678.647 67.8777 681.319 71.1433 681.319Z" stroke="white" stroke-width="1.28043" stroke-miterlimit="10"/>
<path d="M37.8746 669.204H0.0375977V681.498H37.8746V669.204Z" fill="white"/>
<path d="M37.875 675.35H65.244" stroke="white" stroke-width="1.28043" stroke-miterlimit="10"/>
<path d="M71.1438 714.693C74.4093 714.693 77.0566 712.021 77.0566 708.725C77.0566 705.429 74.4093 702.757 71.1438 702.757C67.8782 702.757 65.231 705.429 65.231 708.725C65.231 712.021 67.8782 714.693 71.1438 714.693Z" stroke="white" stroke-width="1.28043" stroke-miterlimit="10"/>
<path d="M37.8751 702.578H0.0380859V714.873H37.8751V702.578Z" fill="white"/>
<path d="M37.875 708.725H65.244" stroke="white" stroke-width="1.28043" stroke-miterlimit="10"/>
<path d="M1373.01 261.78C1374.82 259.038 1374.09 255.332 1371.37 253.503C1368.66 251.674 1364.99 252.414 1363.17 255.156C1361.36 257.897 1362.09 261.603 1364.81 263.432C1367.53 265.262 1371.2 264.522 1373.01 261.78Z" stroke="white" stroke-width="1.28043" stroke-miterlimit="10"/>
<path d="M1401.39 264.646H1439.23V252.352H1401.39V264.646Z" fill="white"/>
<path d="M1401.4 258.499H1374.03" stroke="white" stroke-width="1.28043" stroke-miterlimit="10"/>
<path d="M1373 228.414C1374.81 225.672 1374.08 221.967 1371.36 220.137C1368.65 218.308 1364.98 219.048 1363.16 221.79C1361.35 224.532 1362.08 228.237 1364.8 230.067C1367.52 231.896 1371.19 231.156 1373 228.414Z" stroke="white" stroke-width="1.28043" stroke-miterlimit="10"/>
<path d="M1401.39 231.284H1439.23V218.99H1401.39V231.284Z" fill="white"/>
<path d="M1401.4 225.124H1374.03" stroke="white" stroke-width="1.28043" stroke-miterlimit="10"/>
<path d="M1373 195.035C1374.82 192.293 1374.08 188.588 1371.37 186.759C1368.65 184.929 1364.98 185.669 1363.17 188.411C1361.35 191.153 1362.09 194.858 1364.8 196.688C1367.52 198.517 1371.19 197.777 1373 195.035Z" stroke="white" stroke-width="1.28043" stroke-miterlimit="10"/>
<path d="M1401.39 197.91H1439.23V185.615H1401.39V197.91Z" fill="white"/>
<path d="M1401.4 191.749H1374.03" stroke="white" stroke-width="1.28043" stroke-miterlimit="10"/>
<path d="M1373.02 161.676C1374.83 158.934 1374.1 155.228 1371.38 153.399C1368.66 151.57 1364.99 152.31 1363.18 155.052C1361.37 157.793 1362.1 161.499 1364.82 163.328C1367.53 165.158 1371.2 164.418 1373.02 161.676Z" stroke="white" stroke-width="1.28043" stroke-miterlimit="10"/>
<path d="M1401.39 164.521H1439.23V152.226H1401.39V164.521Z" fill="white"/>
<path d="M1401.4 158.387H1374.03" stroke="white" stroke-width="1.28043" stroke-miterlimit="10"/>
<path d="M1373.01 128.297C1374.82 125.556 1374.08 121.85 1371.37 120.021C1368.65 118.191 1364.98 118.931 1363.17 121.673C1361.36 124.415 1362.09 128.121 1364.81 129.95C1367.52 131.779 1371.19 131.039 1373.01 128.297Z" stroke="white" stroke-width="1.28043" stroke-miterlimit="10"/>
<path d="M1401.39 131.146H1439.23V118.851H1401.39V131.146Z" fill="white"/>
<path d="M1401.4 125.012H1374.03" stroke="white" stroke-width="1.28043" stroke-miterlimit="10"/>
<path d="M1373.01 94.9196C1374.82 92.1777 1374.09 88.4721 1371.37 86.6428C1368.65 84.8135 1364.98 85.5534 1363.17 88.2952C1361.36 91.037 1362.09 94.7427 1364.81 96.572C1367.52 98.4012 1371.2 97.6614 1373.01 94.9196Z" stroke="white" stroke-width="1.28043" stroke-miterlimit="10"/>
<path d="M1401.39 97.7847H1439.23V85.49H1401.39V97.7847Z" fill="white"/>
<path d="M1401.4 91.6377H1374.03" stroke="white" stroke-width="1.28043" stroke-miterlimit="10"/>
<path d="M1373.01 61.5534C1374.82 58.8115 1374.09 55.1059 1371.37 53.2766C1368.66 51.4473 1364.99 52.1871 1363.17 54.929C1361.36 57.6708 1362.09 61.3765 1364.81 63.2057C1367.53 65.035 1371.2 64.2952 1373.01 61.5534Z" stroke="white" stroke-width="1.28043" stroke-miterlimit="10"/>
<path d="M1401.39 64.4102H1439.23V52.1155L1401.39 52.1155V64.4102Z" fill="white"/>
<path d="M1401.4 58.2627H1374.03" stroke="white" stroke-width="1.28043" stroke-miterlimit="10"/>
<path d="M1111.24 317.988C1113.05 315.247 1112.32 311.541 1109.6 309.712C1106.88 307.882 1103.21 308.622 1101.4 311.364C1099.59 314.106 1100.32 317.812 1103.04 319.641C1105.75 321.47 1109.42 320.73 1111.24 317.988Z" stroke="white" stroke-width="1.28043" stroke-miterlimit="10"/>
<path d="M1139.63 320.856H1163.61V308.561H1139.63V320.856Z" fill="white"/>
<path d="M1139.61 314.708H1112.26" stroke="white" stroke-width="1.28043" stroke-miterlimit="10"/>
<path d="M1111.24 284.623C1113.05 281.881 1112.32 278.175 1109.6 276.346C1106.88 274.517 1103.21 275.257 1101.4 277.998C1099.59 280.74 1100.32 284.446 1103.04 286.275C1105.75 288.104 1109.43 287.365 1111.24 284.623Z" stroke="white" stroke-width="1.28043" stroke-miterlimit="10"/>
<path d="M1139.63 287.481H1163.61V275.187H1139.63V287.481Z" fill="white"/>
<path d="M1139.61 281.333H1112.26" stroke="white" stroke-width="1.28043" stroke-miterlimit="10"/>
<path d="M1111.23 251.243C1113.04 248.502 1112.31 244.796 1109.59 242.967C1106.87 241.137 1103.2 241.877 1101.39 244.619C1099.58 247.361 1100.31 251.066 1103.03 252.896C1105.74 254.725 1109.42 253.985 1111.23 251.243Z" stroke="white" stroke-width="1.28043" stroke-miterlimit="10"/>
<path d="M1139.63 254.106H1163.61V241.811H1139.63V254.106Z" fill="white"/>
<path d="M1139.61 247.958H1112.26" stroke="white" stroke-width="1.28043" stroke-miterlimit="10"/>
<path d="M1111.23 217.865C1113.04 215.123 1112.31 211.417 1109.59 209.588C1106.88 207.759 1103.21 208.499 1101.39 211.241C1099.58 213.982 1100.31 217.688 1103.03 219.517C1105.75 221.347 1109.42 220.607 1111.23 217.865Z" stroke="white" stroke-width="1.28043" stroke-miterlimit="10"/>
<path d="M1139.63 220.743H1163.61V208.449H1139.63V220.743Z" fill="white"/>
<path d="M1139.61 214.584H1112.26" stroke="white" stroke-width="1.28043" stroke-miterlimit="10"/>
<path d="M399.491 216.003C400.268 212.802 398.327 209.571 395.155 208.786C391.984 208.002 388.782 209.961 388.005 213.162C387.228 216.363 389.169 219.594 392.341 220.379C395.512 221.164 398.714 219.204 399.491 216.003Z" stroke="white" stroke-width="1.28043" stroke-miterlimit="10"/>
<path d="M360.478 208.437H336.497V220.732H360.478V208.437Z" fill="white"/>
<path d="M360.478 214.585H387.847" stroke="white" stroke-width="1.28043" stroke-miterlimit="10"/>
<path d="M399.492 249.38C400.27 246.179 398.328 242.948 395.157 242.163C391.985 241.378 388.784 243.338 388.007 246.539C387.229 249.74 389.17 252.971 392.342 253.756C395.514 254.541 398.715 252.581 399.492 249.38Z" stroke="white" stroke-width="1.28043" stroke-miterlimit="10"/>
<path d="M360.479 241.811H336.498V254.106H360.479V241.811Z" fill="white"/>
<path d="M360.479 247.958H387.848" stroke="white" stroke-width="1.28043" stroke-miterlimit="10"/>
<path d="M399.494 282.746C400.271 279.544 398.33 276.313 395.158 275.529C391.987 274.744 388.785 276.703 388.008 279.905C387.231 283.106 389.172 286.337 392.343 287.122C395.515 287.906 398.716 285.947 399.494 282.746Z" stroke="white" stroke-width="1.28043" stroke-miterlimit="10"/>
<path d="M360.479 275.186H336.498V287.481H360.479V275.186Z" fill="white"/>
<path d="M360.479 281.333H387.848" stroke="white" stroke-width="1.28043" stroke-miterlimit="10"/>
<path d="M399.495 316.124C400.272 312.923 398.331 309.692 395.159 308.907C391.988 308.123 388.786 310.082 388.009 313.283C387.232 316.484 389.173 319.716 392.344 320.5C395.516 321.285 398.717 319.326 399.495 316.124Z" stroke="white" stroke-width="1.28043" stroke-miterlimit="10"/>
<path d="M360.479 308.561H336.498V320.855H360.479V308.561Z" fill="white"/>
<path d="M360.479 314.708H387.848" stroke="white" stroke-width="1.28043" stroke-miterlimit="10"/>
<path d="M1211.49 840.445L1230.08 821.695V565.852L1263.68 531.939V363.823" stroke="white" stroke-width="1.28043" stroke-miterlimit="10"/>
<path d="M1214.3 885.858L1256.09 843.672V587.829L1289.7 553.903V385.8" stroke="white" stroke-width="1.28043" stroke-miterlimit="10"/>
<path d="M1440 546.206H1344.98L1319.62 517.633V448.489L1344.98 424.707H1440V546.206Z" fill="white"/>
<path d="M1303.99 546.206L1333.72 576.225H1400.72L1422.52 598.215V889.008" stroke="white" stroke-width="1.28043" stroke-miterlimit="10"/>
<path d="M1294.68 577.749L1392.98 676.977V840.444" stroke="white" stroke-width="1.28043" stroke-miterlimit="10"/>
<path d="M1301.56 617.63L1368.78 685.481V848.961" stroke="white" stroke-width="1.28043" stroke-miterlimit="10"/>
<path d="M1294.68 694.599V819.581" stroke="white" stroke-width="1.28043" stroke-miterlimit="10"/>
<path d="M1319.62 694.599V819.581" stroke="white" stroke-width="1.28043" stroke-miterlimit="10"/>
<path d="M1345.86 694.599V819.581" stroke="white" stroke-width="1.28043" stroke-miterlimit="10"/>
<path d="M1345.79 694.599C1349.05 694.599 1351.7 691.927 1351.7 688.631C1351.7 685.335 1349.05 682.663 1345.79 682.663C1342.52 682.663 1339.88 685.335 1339.88 688.631C1339.88 691.927 1342.52 694.599 1345.79 694.599Z" stroke="white" stroke-width="1.28043" stroke-miterlimit="10"/>
<path d="M1319.62 694.599C1322.89 694.599 1325.54 691.927 1325.54 688.631C1325.54 685.335 1322.89 682.663 1319.62 682.663C1316.36 682.663 1313.71 685.335 1313.71 688.631C1313.71 691.927 1316.36 694.599 1319.62 694.599Z" stroke="white" stroke-width="1.28043" stroke-miterlimit="10"/>
<path d="M1294.68 694.599C1297.94 694.599 1300.59 691.927 1300.59 688.631C1300.59 685.335 1297.94 682.663 1294.68 682.663C1291.41 682.663 1288.77 685.335 1288.77 688.631C1288.77 691.927 1291.41 694.599 1294.68 694.599Z" stroke="white" stroke-width="1.28043" stroke-miterlimit="10"/>
<path d="M1294.68 832.401C1297.94 832.401 1300.59 829.729 1300.59 826.433C1300.59 823.137 1297.94 820.465 1294.68 820.465C1291.41 820.465 1288.77 823.137 1288.77 826.433C1288.77 829.729 1291.41 832.401 1294.68 832.401Z" stroke="white" stroke-width="1.28043" stroke-miterlimit="10"/>
<path d="M1319.62 832.401C1322.89 832.401 1325.54 829.729 1325.54 826.433C1325.54 823.137 1322.89 820.465 1319.62 820.465C1316.36 820.465 1313.71 823.137 1313.71 826.433C1313.71 829.729 1316.36 832.401 1319.62 832.401Z" stroke="white" stroke-width="1.28043" stroke-miterlimit="10"/>
<path d="M1345.86 832.401C1349.13 832.401 1351.78 829.729 1351.78 826.433C1351.78 823.137 1349.13 820.465 1345.86 820.465C1342.6 820.465 1339.95 823.137 1339.95 826.433C1339.95 829.729 1342.6 832.401 1345.86 832.401Z" stroke="white" stroke-width="1.28043" stroke-miterlimit="10"/>
<path d="M175.976 468.391V593.374" stroke="white" stroke-width="1.28043" stroke-miterlimit="10"/>
<path d="M200.935 468.391V593.374" stroke="white" stroke-width="1.28043" stroke-miterlimit="10"/>
<path d="M227.174 468.391V593.374" stroke="white" stroke-width="1.28043" stroke-miterlimit="10"/>
<path d="M227.085 468.391C230.351 468.391 232.998 465.719 232.998 462.423C232.998 459.127 230.351 456.455 227.085 456.455C223.82 456.455 221.172 459.127 221.172 462.423C221.172 465.719 223.82 468.391 227.085 468.391Z" stroke="white" stroke-width="1.28043" stroke-miterlimit="10"/>
<path d="M200.934 468.391C204.2 468.391 206.847 465.719 206.847 462.423C206.847 459.127 204.2 456.455 200.934 456.455C197.669 456.455 195.021 459.127 195.021 462.423C195.021 465.719 197.669 468.391 200.934 468.391Z" stroke="white" stroke-width="1.28043" stroke-miterlimit="10"/>
<path d="M175.976 468.391C179.242 468.391 181.889 465.719 181.889 462.423C181.889 459.127 179.242 456.455 175.976 456.455C172.711 456.455 170.063 459.127 170.063 462.423C170.063 465.719 172.711 468.391 175.976 468.391Z" stroke="white" stroke-width="1.28043" stroke-miterlimit="10"/>
<path d="M175.976 606.194C179.242 606.194 181.889 603.522 181.889 600.226C181.889 596.93 179.242 594.258 175.976 594.258C172.711 594.258 170.063 596.93 170.063 600.226C170.063 603.522 172.711 606.194 175.976 606.194Z" stroke="white" stroke-width="1.28043" stroke-miterlimit="10"/>
<path d="M200.934 606.194C204.2 606.194 206.847 603.522 206.847 600.226C206.847 596.93 204.2 594.258 200.934 594.258C197.669 594.258 195.021 596.93 195.021 600.226C195.021 603.522 197.669 606.194 200.934 606.194Z" stroke="white" stroke-width="1.28043" stroke-miterlimit="10"/>
<path d="M227.174 606.194C230.44 606.194 233.087 603.522 233.087 600.226C233.087 596.93 230.44 594.258 227.174 594.258C223.908 594.258 221.261 596.93 221.261 600.226C221.261 603.522 223.908 606.194 227.174 606.194Z" stroke="white" stroke-width="1.28043" stroke-miterlimit="10"/>
<path d="M1343.82 592.49H1387.06L1405.49 611.085V649.391L1395.13 659.841L1335.55 599.7L1343.82 592.49Z" fill="white"/>
<path d="M1073.98 776.269V720.585L1111.53 682.676H1190.05" stroke="white" stroke-width="1.28043" stroke-miterlimit="10"/>
<path d="M1058.61 700.209L1096.17 662.301H1174.68" stroke="white" stroke-width="1.28043" stroke-miterlimit="10"/>
<path d="M879.157 626.172H1022.4" stroke="white" stroke-width="1.28043" stroke-miterlimit="10"/>
<path d="M258.946 475.998V569.079L292.266 608.601H362.179V562.521L286.492 475.998H258.946Z" fill="white"/>
<path d="M346.471 641.977C349.736 641.977 352.384 639.305 352.384 636.009C352.384 632.713 349.736 630.041 346.471 630.041C343.205 630.041 340.558 632.713 340.558 636.009C340.558 639.305 343.205 641.977 346.471 641.977Z" fill="white"/>
<path d="M362.179 658.611C365.444 658.611 368.092 655.939 368.092 652.643C368.092 649.347 365.444 646.675 362.179 646.675C358.913 646.675 356.266 649.347 356.266 652.643C356.266 655.939 358.913 658.611 362.179 658.611Z" fill="white"/>
<path d="M377.265 682.113C380.531 682.113 383.178 679.441 383.178 676.145C383.178 672.849 380.531 670.177 377.265 670.177C374 670.177 371.353 672.849 371.353 676.145C371.353 679.441 374 682.113 377.265 682.113Z" fill="white"/>
<path d="M349.935 909.96C353.2 909.96 355.848 907.288 355.848 903.992C355.848 900.696 353.2 898.024 349.935 898.024C346.669 898.024 344.022 900.696 344.022 903.992C344.022 907.288 346.669 909.96 349.935 909.96Z" fill="white"/>
<path d="M374.17 905.85C377.435 905.85 380.082 903.178 380.082 899.882C380.082 896.586 377.435 893.914 374.17 893.914C370.904 893.914 368.257 896.586 368.257 899.882C368.257 903.178 370.904 905.85 374.17 905.85Z" fill="white"/>
<path d="M547.101 915.929C550.366 915.929 553.014 913.257 553.014 909.961C553.014 906.665 550.366 903.993 547.101 903.993C543.835 903.993 541.188 906.665 541.188 909.961C541.188 913.257 543.835 915.929 547.101 915.929Z" fill="white"/>
<path d="M547.101 882.579C550.366 882.579 553.014 879.907 553.014 876.611C553.014 873.315 550.366 870.643 547.101 870.643C543.835 870.643 541.188 873.315 541.188 876.611C541.188 879.907 543.835 882.579 547.101 882.579Z" fill="white"/>
<path d="M318.379 806.942C321.644 806.942 324.291 804.27 324.291 800.974C324.291 797.678 321.644 795.006 318.379 795.006C315.113 795.006 312.466 797.678 312.466 800.974C312.466 804.27 315.113 806.942 318.379 806.942Z" fill="white"/>
<path d="M694.959 936.522H663.048L652.732 926.11V870.695L683.146 840.009H694.959V936.522Z" stroke="#00050B" stroke-width="1.28043" stroke-miterlimit="10"/>
<path d="M691.343 933.294H667.539L658.276 923.945C657.693 923.356 658.276 873.063 658.276 873.063L683.628 847.475H691.33V933.294H691.343Z" stroke="#00050B" stroke-width="1.28043" stroke-miterlimit="10"/>
<path d="M1098.72 729.907V781.98L1127.12 810.629H1159.62L1184 782.377V707.828H1124.76L1098.72 729.907Z" fill="white"/>
<path d="M1184 721.544H1153.69" stroke="#00050B" stroke-width="1.28043" stroke-miterlimit="10"/>
<path d="M1184 726.052H1153.69" stroke="#00050B" stroke-width="1.28043" stroke-miterlimit="10"/>
<path d="M1184 730.561H1153.69" stroke="#00050B" stroke-width="1.28043" stroke-miterlimit="10"/>
<path d="M1184 735.069H1153.69" stroke="#00050B" stroke-width="1.28043" stroke-miterlimit="10"/>
<path d="M1184 739.563H1153.69" stroke="#00050B" stroke-width="1.28043" stroke-miterlimit="10"/>
<path d="M1184 744.071H1153.69" stroke="#00050B" stroke-width="1.28043" stroke-miterlimit="10"/>
<path d="M1184 748.58H1153.69" stroke="#00050B" stroke-width="1.28043" stroke-miterlimit="10"/>
<path d="M1184 753.088H1153.69" stroke="#00050B" stroke-width="1.28043" stroke-miterlimit="10"/>
<path d="M1184 757.596H1153.69" stroke="#00050B" stroke-width="1.28043" stroke-miterlimit="10"/>
<path d="M1184 762.104H1153.69" stroke="#00050B" stroke-width="1.28043" stroke-miterlimit="10"/>
<path d="M1184 766.612H1153.69" stroke="#00050B" stroke-width="1.28043" stroke-miterlimit="10"/>
<path d="M1184 771.107H1153.69" stroke="#00050B" stroke-width="1.28043" stroke-miterlimit="10"/>
<path d="M1184 775.615H1153.69" stroke="#00050B" stroke-width="1.28043" stroke-miterlimit="10"/>
<path d="M1184 780.124H1153.69" stroke="#00050B" stroke-width="1.28043" stroke-miterlimit="10"/>
<path d="M1284.53 161.384C1287.78 161.123 1290.21 158.248 1289.95 154.962C1289.7 151.676 1286.85 149.224 1283.59 149.485C1280.34 149.746 1277.91 152.621 1278.17 155.907C1278.42 159.193 1281.27 161.645 1284.53 161.384Z" fill="white"/>
<path d="M1316.52 127.607C1319.78 127.346 1322.21 124.471 1321.95 121.186C1321.69 117.9 1318.84 115.448 1315.58 115.709C1312.33 115.97 1309.9 118.845 1310.16 122.13C1310.42 125.416 1313.27 127.868 1316.52 127.607Z" fill="white"/>
<path d="M1208.64 25.9589C1211.89 25.698 1214.32 22.8229 1214.06 19.5372C1213.8 16.2515 1210.96 13.7994 1207.7 14.0603C1204.45 14.3212 1202.02 17.1963 1202.27 20.482C1202.53 23.7677 1205.38 26.2198 1208.64 25.9589Z" fill="white"/>
<path d="M1279.91 155.391H1243.96L1229.82 169.67V249.803" stroke="white" stroke-width="1.28043" stroke-miterlimit="10"/>
<path d="M1203.14 19.9697C1206.72 19.9697 1258.31 19.9697 1258.31 19.9697L1295.87 57.8782V137.127" stroke="white" stroke-width="1.28043" stroke-miterlimit="10"/>
<path d="M1278.5 4.44775L1316.06 42.369V121.618" stroke="white" stroke-width="1.28043" stroke-miterlimit="10"/>
<path d="M1249.08 44.9307H1197.49L1169.1 73.5925V106.404L1197.09 131.006H1270.95V71.2232L1249.08 44.9307Z" fill="white"/>
<path d="M1257.36 131.006V100.423" stroke="#00050B" stroke-width="1.28043" stroke-miterlimit="10"/>
<path d="M1252.9 131.006V100.423" stroke="#00050B" stroke-width="1.28043" stroke-miterlimit="10"/>
<path d="M1248.43 131.006V100.423" stroke="#00050B" stroke-width="1.28043" stroke-miterlimit="10"/>
<path d="M1243.96 131.006V100.423" stroke="#00050B" stroke-width="1.28043" stroke-miterlimit="10"/>
<path d="M1239.51 131.006V100.423" stroke="#00050B" stroke-width="1.28043" stroke-miterlimit="10"/>
<path d="M1235.04 131.006V100.423" stroke="#00050B" stroke-width="1.28043" stroke-miterlimit="10"/>
<path d="M1230.58 131.006V100.423" stroke="#00050B" stroke-width="1.28043" stroke-miterlimit="10"/>
<path d="M1226.11 131.006V100.423" stroke="#00050B" stroke-width="1.28043" stroke-miterlimit="10"/>
<path d="M1221.64 131.006V100.423" stroke="#00050B" stroke-width="1.28043" stroke-miterlimit="10"/>
<path d="M1217.18 131.006V100.423" stroke="#00050B" stroke-width="1.28043" stroke-miterlimit="10"/>
<path d="M1212.71 131.006V100.423" stroke="#00050B" stroke-width="1.28043" stroke-miterlimit="10"/>
<path d="M1208.26 131.006V100.423" stroke="#00050B" stroke-width="1.28043" stroke-miterlimit="10"/>
<path d="M1203.79 131.006V100.423" stroke="#00050B" stroke-width="1.28043" stroke-miterlimit="10"/>
<path d="M1199.33 131.006V100.423" stroke="#00050B" stroke-width="1.28043" stroke-miterlimit="10"/>
<path d="M373.992 400.104L315.574 341.141V200.303L382.925 132.324H571.703L641.794 61.579V-15" stroke="white" stroke-width="1.28043" stroke-miterlimit="10"/>
<path d="M290.616 317.846V177.008L357.967 109.029H496.271" stroke="white" stroke-width="1.28043" stroke-miterlimit="10"/>
<path d="M937.486 125.038C940.752 125.038 943.399 122.366 943.399 119.07C943.399 115.774 940.752 113.102 937.486 113.102C934.22 113.102 931.573 115.774 931.573 119.07C931.573 122.366 934.22 125.038 937.486 125.038Z" fill="white"/>
<path d="M953.841 125.038C957.107 125.038 959.754 122.366 959.754 119.07C959.754 115.774 957.107 113.102 953.841 113.102C950.576 113.102 947.929 115.774 947.929 119.07C947.929 122.366 950.576 125.038 953.841 125.038Z" fill="white"/>
<path d="M970.184 125.038C973.45 125.038 976.097 122.366 976.097 119.07C976.097 115.774 973.45 113.102 970.184 113.102C966.919 113.102 964.271 115.774 964.271 119.07C964.271 122.366 966.919 125.038 970.184 125.038Z" fill="white"/>
<path d="M1124.58 400.104L1183 341.141V200.303L1115.64 132.324H926.866L856.775 61.579V-25" stroke="white" stroke-width="1.28043" stroke-miterlimit="10"/>
<path d="M1207.95 317.846V177.008L1140.6 109.029H1002.31" stroke="white" stroke-width="1.28043" stroke-miterlimit="10"/>
<path d="M923.389 568.49C926.654 568.49 929.302 565.818 929.302 562.522C929.302 559.226 926.654 556.554 923.389 556.554C920.123 556.554 917.476 559.226 917.476 562.522C917.476 565.818 920.123 568.49 923.389 568.49Z" fill="white"/>
<path d="M907.033 568.49C910.299 568.49 912.946 565.818 912.946 562.522C912.946 559.226 910.299 556.554 907.033 556.554C903.768 556.554 901.121 559.226 901.121 562.522C901.121 565.818 903.768 568.49 907.033 568.49Z" fill="white"/>
<path d="M890.678 568.49C893.944 568.49 896.591 565.818 896.591 562.522C896.591 559.226 893.944 556.554 890.678 556.554C887.413 556.554 884.766 559.226 884.766 562.522C884.766 565.818 887.413 568.49 890.678 568.49Z" fill="white"/>
<path d="M610.923 771.236C614.189 771.236 616.836 768.564 616.836 765.268C616.836 761.972 614.189 759.3 610.923 759.3C607.658 759.3 605.01 761.972 605.01 765.268C605.01 768.564 607.658 771.236 610.923 771.236Z" fill="white"/>
<path d="M610.924 787.744C614.189 787.744 616.836 785.072 616.836 781.776C616.836 778.48 614.189 775.808 610.924 775.808C607.658 775.808 605.011 778.48 605.011 781.776C605.011 785.072 607.658 787.744 610.924 787.744Z" fill="white"/>
<path d="M610.924 804.239C614.189 804.239 616.836 801.567 616.836 798.271C616.836 794.975 614.189 792.303 610.924 792.303C607.658 792.303 605.011 794.975 605.011 798.271C605.011 801.567 607.658 804.239 610.924 804.239Z" fill="white"/>
<path d="M610.923 646.676V610.305" stroke="white" stroke-width="1.28043" stroke-miterlimit="10"/>
<path d="M630.908 646.676V610.305" stroke="white" stroke-width="1.28043" stroke-miterlimit="10"/>
<path d="M650.892 646.676V610.305" stroke="white" stroke-width="1.28043" stroke-miterlimit="10"/>
<path d="M670.876 646.676V610.305" stroke="white" stroke-width="1.28043" stroke-miterlimit="10"/>
<path d="M690.874 646.676V610.305" stroke="white" stroke-width="1.28043" stroke-miterlimit="10"/>
<path d="M710.857 646.676V610.305" stroke="white" stroke-width="1.28043" stroke-miterlimit="10"/>
<path d="M730.842 646.676V610.305" stroke="white" stroke-width="1.28043" stroke-miterlimit="10"/>
<path d="M750.826 646.676V610.305" stroke="white" stroke-width="1.28043" stroke-miterlimit="10"/>
<path d="M770.823 646.676V610.305" stroke="white" stroke-width="1.28043" stroke-miterlimit="10"/>
<path d="M790.808 646.676V610.305" stroke="white" stroke-width="1.28043" stroke-miterlimit="10"/>
<path d="M410.484 700.209V734.467L374.169 771.108V898.024" stroke="white" stroke-width="1.28043" stroke-miterlimit="10"/>
<path d="M386.236 702.065V736.324L349.935 772.964V899.881" stroke="white" stroke-width="1.28043" stroke-miterlimit="10"/>
<path d="M402.604 796.21V849.756L429.212 876.612H544.728" stroke="white" stroke-width="1.28043" stroke-miterlimit="10"/>
<path d="M498.199 890.391H412.4" stroke="white" stroke-width="1.28043" stroke-miterlimit="10"/>
<path d="M544.728 909.961H428.159L411.613 926.661H336.447L318.378 908.424V804.611" stroke="white" stroke-width="1.28043" stroke-miterlimit="10"/>
<path d="M406.487 896.359C409.753 896.359 412.4 893.687 412.4 890.391C412.4 887.095 409.753 884.423 406.487 884.423C403.221 884.423 400.574 887.095 400.574 890.391C400.574 893.687 403.221 896.359 406.487 896.359Z" stroke="white" stroke-width="1.28043" stroke-miterlimit="10"/>
<path d="M504.112 896.359C507.378 896.359 510.025 893.687 510.025 890.391C510.025 887.095 507.378 884.423 504.112 884.423C500.846 884.423 498.199 887.095 498.199 890.391C498.199 893.687 500.846 896.359 504.112 896.359Z" stroke="white" stroke-width="1.28043" stroke-miterlimit="10"/>
<path d="M1420.06 329.831C1423.31 329.562 1425.74 326.681 1425.47 323.396C1425.2 320.111 1422.35 317.666 1419.09 317.935C1415.84 318.204 1413.42 321.085 1413.68 324.37C1413.95 327.655 1416.8 330.1 1420.06 329.831Z" stroke="white" stroke-width="1.28043" stroke-miterlimit="10"/>
<path d="M1420.06 389.122C1423.31 388.853 1425.73 385.972 1425.47 382.687C1425.2 379.402 1422.35 376.957 1419.09 377.225C1415.84 377.494 1413.41 380.375 1413.68 383.661C1413.95 386.946 1416.8 389.391 1420.06 389.122Z" stroke="white" stroke-width="1.28043" stroke-miterlimit="10"/>
<path d="M1419.58 329.782C1419.89 332.753 1419.58 377.155 1419.58 377.155" stroke="white" stroke-width="1.28043" stroke-miterlimit="10"/>
<path d="M1398.86 329.821C1402.12 329.552 1404.54 326.671 1404.28 323.386C1404.01 320.101 1401.15 317.656 1397.9 317.925C1394.64 318.194 1392.22 321.075 1392.49 324.36C1392.76 327.645 1395.61 330.09 1398.86 329.821Z" stroke="white" stroke-width="1.28043" stroke-miterlimit="10"/>
<path d="M1398.86 389.124C1402.12 388.855 1404.54 385.974 1404.27 382.689C1404.01 379.404 1401.15 376.959 1397.9 377.228C1394.64 377.497 1392.22 380.378 1392.49 383.663C1392.75 386.948 1395.61 389.393 1398.86 389.124Z" stroke="white" stroke-width="1.28043" stroke-miterlimit="10"/>
<path d="M1398.39 329.782C1398.7 332.753 1398.39 377.154 1398.39 377.154" stroke="white" stroke-width="1.28043" stroke-miterlimit="10"/>
<path d="M1377.67 329.825C1380.92 329.556 1383.35 326.675 1383.08 323.39C1382.81 320.105 1379.96 317.66 1376.7 317.929C1373.45 318.198 1371.03 321.079 1371.29 324.364C1371.56 327.649 1374.41 330.094 1377.67 329.825Z" stroke="white" stroke-width="1.28043" stroke-miterlimit="10"/>
<path d="M1377.67 389.129C1380.92 388.86 1383.34 385.979 1383.08 382.693C1382.81 379.408 1379.96 376.963 1376.7 377.232C1373.45 377.501 1371.02 380.382 1371.29 383.667C1371.56 386.952 1374.41 389.397 1377.67 389.129Z" stroke="white" stroke-width="1.28043" stroke-miterlimit="10"/>
<path d="M1377.19 329.782C1377.5 332.753 1377.19 377.154 1377.19 377.154" stroke="white" stroke-width="1.28043" stroke-miterlimit="10"/>
<path d="M1356.47 329.828C1359.73 329.559 1362.15 326.678 1361.88 323.393C1361.62 320.108 1358.76 317.663 1355.51 317.932C1352.25 318.201 1349.83 321.082 1350.1 324.367C1350.36 327.652 1353.22 330.097 1356.47 329.828Z" stroke="white" stroke-width="1.28043" stroke-miterlimit="10"/>
<path d="M1356.47 389.119C1359.73 388.85 1362.15 385.969 1361.88 382.684C1361.61 379.399 1358.76 376.954 1355.51 377.223C1352.25 377.492 1349.83 380.373 1350.1 383.658C1350.36 386.943 1353.22 389.388 1356.47 389.119Z" stroke="white" stroke-width="1.28043" stroke-miterlimit="10"/>
<path d="M1356 329.782C1356.31 332.753 1356 377.154 1356 377.154" stroke="white" stroke-width="1.28043" stroke-miterlimit="10"/>
<path d="M1335.28 329.82C1338.53 329.551 1340.96 326.67 1340.69 323.385C1340.42 320.1 1337.57 317.655 1334.31 317.924C1331.06 318.193 1328.64 321.074 1328.9 324.359C1329.17 327.644 1332.02 330.089 1335.28 329.82Z" stroke="white" stroke-width="1.28043" stroke-miterlimit="10"/>
<path d="M1335.28 389.124C1338.53 388.855 1340.95 385.974 1340.69 382.689C1340.42 379.404 1337.57 376.958 1334.31 377.227C1331.06 377.496 1328.63 380.377 1328.9 383.662C1329.17 386.948 1332.02 389.393 1335.28 389.124Z" stroke="white" stroke-width="1.28043" stroke-miterlimit="10"/>
<path d="M1334.8 329.782C1335.1 332.753 1334.8 377.155 1334.8 377.155" stroke="white" stroke-width="1.28043" stroke-miterlimit="10"/>
<path d="M206.834 109.029L187.345 128.701V165.802H214.879L231.818 182.9V250.418L246.993 265.735H279.095V127.663L262.067 110.476L206.834 109.029Z" fill="white"/>
<path d="M211.529 112.718L194.565 129.713V161.755H221.388L235.409 176.522V244.181L247.958 257.41H274.528V128.816L260.443 113.973L211.529 112.718Z" stroke="#00050B" stroke-width="1.28043" stroke-miterlimit="10"/>
<path d="M274.527 144.979H258.819" stroke="#00050B" stroke-width="1.28043" stroke-miterlimit="10"/>
<path d="M274.527 150.856H258.819" stroke="#00050B" stroke-width="1.28043" stroke-miterlimit="10"/>
<path d="M274.527 156.722H258.819" stroke="#00050B" stroke-width="1.28043" stroke-miterlimit="10"/>
<path d="M274.527 162.601H258.819" stroke="#00050B" stroke-width="1.28043" stroke-miterlimit="10"/>
<path d="M274.527 168.479H258.819" stroke="#00050B" stroke-width="1.28043" stroke-miterlimit="10"/>
<path d="M274.527 174.357H258.819" stroke="#00050B" stroke-width="1.28043" stroke-miterlimit="10"/>
<path d="M274.527 180.223H258.819" stroke="#00050B" stroke-width="1.28043" stroke-miterlimit="10"/>
<path d="M274.527 186.101H258.819" stroke="#00050B" stroke-width="1.28043" stroke-miterlimit="10"/>
<path d="M274.527 191.979H258.819" stroke="#00050B" stroke-width="1.28043" stroke-miterlimit="10"/>
<path d="M274.527 197.858H258.819" stroke="#00050B" stroke-width="1.28043" stroke-miterlimit="10"/>
<path d="M274.527 203.724H258.819" stroke="#00050B" stroke-width="1.28043" stroke-miterlimit="10"/>
<path d="M274.527 209.602H258.819" stroke="#00050B" stroke-width="1.28043" stroke-miterlimit="10"/>
<path d="M274.527 215.48H258.819" stroke="#00050B" stroke-width="1.28043" stroke-miterlimit="10"/>
<path d="M274.527 221.359H258.819" stroke="#00050B" stroke-width="1.28043" stroke-miterlimit="10"/>
<path d="M274.527 227.224H258.819" stroke="#00050B" stroke-width="1.28043" stroke-miterlimit="10"/>
<path d="M274.527 233.103H258.819" stroke="#00050B" stroke-width="1.28043" stroke-miterlimit="10"/>
<path d="M0.0380859 280.424H51.5532L85.3933 314.58V417.919L121.898 454.764V569.079" stroke="white" stroke-width="1.28043" stroke-miterlimit="10"/>
<path d="M0.0380859 308.266H27.1406L54.4462 335.827V462.423" stroke="white" stroke-width="1.28043" stroke-miterlimit="10"/>
<path d="M528.385 155.711H586.219L627.888 113.653" stroke="white" stroke-width="1.28043" stroke-miterlimit="10"/>
<path d="M627.888 118.237C631.153 118.237 633.801 115.565 633.801 112.269C633.801 108.973 631.153 106.301 627.888 106.301C624.622 106.301 621.975 108.973 621.975 112.269C621.975 115.565 624.622 118.237 627.888 118.237Z" fill="white"/>
<path d="M976.097 155.711H918.263L876.594 113.653" stroke="white" stroke-width="1.28043" stroke-miterlimit="10"/>
<path d="M876.594 118.237C879.859 118.237 882.507 115.565 882.507 112.269C882.507 108.973 879.859 106.301 876.594 106.301C873.328 106.301 870.681 108.973 870.681 112.269C870.681 115.565 873.328 118.237 876.594 118.237Z" fill="white"/>
<path d="M154.177 213.79H128.483C125.736 213.79 123.509 216.037 123.509 218.81V244.744C123.509 247.516 125.736 249.764 128.483 249.764H154.177C156.924 249.764 159.151 247.516 159.151 244.744V218.81C159.151 216.037 156.924 213.79 154.177 213.79Z" stroke="#00050B" stroke-width="1.28043" stroke-miterlimit="10"/>
<path d="M130.273 216.3H152.389C154.749 216.3 156.665 218.234 156.665 220.616V242.938C156.665 245.32 154.749 247.254 152.389 247.254H130.273C127.913 247.254 125.997 245.32 125.997 242.938V220.616C125.997 218.234 127.913 216.3 130.273 216.3Z" stroke="#00050B" stroke-width="1.28043" stroke-miterlimit="10"/>
<path d="M148.493 221.755H134.167C132.64 221.755 131.401 223.005 131.401 224.547V239.006C131.401 240.548 132.64 241.798 134.167 241.798H148.493C150.02 241.798 151.259 240.548 151.259 239.006V224.547C151.259 223.005 150.02 221.755 148.493 221.755Z" stroke="#00050B" stroke-width="1.28043" stroke-miterlimit="10"/>
<path d="M1141.24 535.524H1115.54C1112.8 535.524 1110.57 537.772 1110.57 540.545V566.479C1110.57 569.251 1112.8 571.499 1115.54 571.499H1141.24C1143.98 571.499 1146.21 569.251 1146.21 566.479V540.545C1146.21 537.772 1143.98 535.524 1141.24 535.524Z" stroke="#00050B" stroke-width="1.28043" stroke-miterlimit="10"/>
<path d="M1117.33 538.035H1139.45C1141.81 538.035 1143.72 539.969 1143.72 542.351V564.674C1143.72 567.056 1141.81 568.989 1139.45 568.989H1117.33C1114.97 568.989 1113.06 567.056 1113.06 564.674V542.351C1113.06 539.969 1114.97 538.035 1117.33 538.035Z" stroke="#00050B" stroke-width="1.28043" stroke-miterlimit="10"/>
<path d="M1135.55 543.491H1121.23C1119.7 543.491 1118.46 544.741 1118.46 546.283V560.742C1118.46 562.284 1119.7 563.534 1121.23 563.534H1135.55C1137.08 563.534 1138.32 562.284 1138.32 560.742V546.283C1138.32 544.741 1137.08 543.491 1135.55 543.491Z" stroke="#00050B" stroke-width="1.28043" stroke-miterlimit="10"/>
<path d="M1348.34 454.752H1318.04" stroke="#00050B" stroke-width="1.28043" stroke-miterlimit="10"/>
<path d="M1348.34 460.515H1318.04" stroke="#00050B" stroke-width="1.28043" stroke-miterlimit="10"/>
<path d="M1348.34 466.265H1318.04" stroke="#00050B" stroke-width="1.28043" stroke-miterlimit="10"/>
<path d="M1348.34 472.028H1318.04" stroke="#00050B" stroke-width="1.28043" stroke-miterlimit="10"/>
<path d="M1348.34 477.779H1318.04" stroke="#00050B" stroke-width="1.28043" stroke-miterlimit="10"/>
<path d="M1348.34 483.542H1318.04" stroke="#00050B" stroke-width="1.28043" stroke-miterlimit="10"/>
<path d="M1348.34 489.304H1318.04" stroke="#00050B" stroke-width="1.28043" stroke-miterlimit="10"/>
<path d="M1348.34 495.055H1318.04" stroke="#00050B" stroke-width="1.28043" stroke-miterlimit="10"/>
<path d="M1348.34 500.818H1318.04" stroke="#00050B" stroke-width="1.28043" stroke-miterlimit="10"/>
<path d="M1348.34 506.582H1318.04" stroke="#00050B" stroke-width="1.28043" stroke-miterlimit="10"/>
<path d="M1348.34 512.332H1318.04" stroke="#00050B" stroke-width="1.28043" stroke-miterlimit="10"/>
<path d="M1341.25 443.878L1350.17 434.875H1434.04V538.009H1350.93L1333.76 520.681H1354.15V443.878H1341.25Z" stroke="#00050B" stroke-width="1.28043" stroke-miterlimit="10"/>
<path d="M264.833 485.719V566.953L293.915 601.442H354.921V561.228L288.878 485.719H264.833Z" stroke="#00050B" stroke-width="1.28043" stroke-miterlimit="10"/>
<path d="M270.391 497.04V565.98L295.057 595.243H346.839V561.113L290.794 497.04H270.391Z" stroke="#00050B" stroke-width="1.28043" stroke-miterlimit="10"/>
<path d="M0.0380859 755.855C4.63131 756.175 32.6601 755.855 32.6601 755.855L72.9079 796.478V847.476L104.198 879.057V1008.46" stroke="white" stroke-width="1.28043" stroke-miterlimit="10"/>
<path d="M43.6226 796.21V860.808L75.0011 892.467V970.012" stroke="white" stroke-width="1.28043" stroke-miterlimit="10"/>
<path d="M0.0380859 964.044H37.8751L50.3605 951.442V898.024L29.9828 877.456V831.979L15.1627 817.008H0.0380859V964.044Z" fill="white"/>
<path d="M3.14648 961.034L32.1142 960.637L43.6227 948.637V898.319L26.0745 879.16V836.321L14.7184 822.387L3.14648 822.54V961.034Z" stroke="#00050B" stroke-width="1.28043" stroke-miterlimit="10"/>
<path d="M252.348 798.502H226.654C223.907 798.502 221.68 800.75 221.68 803.522V829.456C221.68 832.229 223.907 834.477 226.654 834.477H252.348C255.095 834.477 257.322 832.229 257.322 829.456V803.522C257.322 800.75 255.095 798.502 252.348 798.502Z" stroke="#00050B" stroke-width="1.28043" stroke-miterlimit="10"/>
<path d="M228.443 801.012H250.558C252.919 801.012 254.834 802.946 254.834 805.328V827.651C254.834 830.033 252.919 831.966 250.558 831.966H228.443C226.082 831.966 224.167 830.033 224.167 827.651V805.328C224.167 802.946 226.082 801.012 228.443 801.012Z" stroke="#00050B" stroke-width="1.28043" stroke-miterlimit="10"/>
<path d="M246.663 806.467H232.338C230.81 806.467 229.572 807.717 229.572 809.259V823.718C229.572 825.26 230.81 826.51 232.338 826.51H246.663C248.191 826.51 249.429 825.26 249.429 823.718V809.259C249.429 807.717 248.191 806.467 246.663 806.467Z" stroke="#00050B" stroke-width="1.28043" stroke-miterlimit="10"/>
<path d="M1202.23 353.461L1147.26 408.941V454.751" stroke="white" stroke-width="1.28043" stroke-miterlimit="10"/>
<path d="M1223.8 370.738L1168.83 426.218V472.028" stroke="white" stroke-width="1.28043" stroke-miterlimit="10"/>
<rect y="4" width="188" height="1108" fill="url(#paint0_linear_9645_10696)"/>
<rect x="1440" y="1" width="144" height="1440" transform="rotate(90 1440 1)" fill="url(#paint1_linear_9645_10696)"/>
<rect y="1112" width="144" height="1440" transform="rotate(-90 0 1112)" fill="url(#paint2_linear_9645_10696)"/>
<rect x="1438" y="1112" width="185" height="1108" transform="rotate(-180 1438 1112)" fill="url(#paint3_linear_9645_10696)"/>
</g>
<defs>
<filter id="filter0_f_9645_10696" x="-4" y="0" width="1448" height="1106" filterUnits="userSpaceOnUse" color-interpolation-filters="sRGB">
<feFlood flood-opacity="0" result="BackgroundImageFix"/>
<feBlend mode="normal" in="SourceGraphic" in2="BackgroundImageFix" result="shape"/>
<feGaussianBlur stdDeviation="2" result="effect1_foregroundBlur_9645_10696"/>
</filter>
<linearGradient id="paint0_linear_9645_10696" x1="1.19682e-07" y1="481.292" x2="177.101" y2="481.292" gradientUnits="userSpaceOnUse">
<stop stop-color="#00050B"/>
<stop offset="1" stop-color="#00050B" stop-opacity="0"/>
</linearGradient>
<linearGradient id="paint1_linear_9645_10696" x1="1440" y1="621.308" x2="1575.65" y2="621.308" gradientUnits="userSpaceOnUse">
<stop stop-color="#00050B"/>
<stop offset="1" stop-color="#00050B" stop-opacity="0"/>
</linearGradient>
<linearGradient id="paint2_linear_9645_10696" x1="9.16712e-08" y1="1732.31" x2="135.652" y2="1732.31" gradientUnits="userSpaceOnUse">
<stop stop-color="#00050B"/>
<stop offset="1" stop-color="#00050B" stop-opacity="0"/>
</linearGradient>
<linearGradient id="paint3_linear_9645_10696" x1="1438" y1="1589.29" x2="1612.28" y2="1589.29" gradientUnits="userSpaceOnUse">
<stop stop-color="#00050B"/>
<stop offset="1" stop-color="#00050B" stop-opacity="0"/>
</linearGradient>
<clipPath id="clip0_9645_10696">
<rect width="1440" height="1098" fill="white" transform="translate(0 4)"/>
</clipPath>
</defs>
</svg>
