<svg width="121" height="31" viewBox="0 0 121 31" fill="none" xmlns="http://www.w3.org/2000/svg">
<path d="M85.1748 29.8767H77.8755C77.8755 27.5191 77.8947 25.2384 77.8717 22.9614C77.8525 20.9149 77.8525 18.8683 77.7104 16.8295C77.6183 15.4971 76.8849 14.5487 75.4335 14.4105C74.0205 14.2761 72.8187 14.7599 72.3195 16.1191C71.9355 17.1712 71.7551 18.35 71.7282 19.475C71.6552 22.9077 71.7013 26.3442 71.7013 29.8575H64.1026C64.1026 26.3212 64.1103 22.8808 64.0987 19.4443C64.0987 18.5496 64.2792 17.5283 63.9144 16.7949C63.4575 15.8772 62.6589 14.8405 61.7642 14.5026C60.4933 14.0227 59.1455 14.6447 58.6195 16.0039C58.1933 17.1059 57.9552 18.3461 57.9245 19.5288C57.8362 22.9115 57.8938 26.302 57.8938 29.8229H50.4448V9.10786H57.8093C57.8592 9.82972 57.9092 10.5631 57.9898 11.738C59.7599 9.31136 61.9677 8.3476 64.6593 8.4244C67.4469 8.50503 69.6164 9.53023 70.8451 12.4215C72.8225 9.34976 75.5448 8.16714 78.9391 8.47047C82.4025 8.77765 84.9021 10.7436 85.1018 14.1878C85.4013 19.3368 85.1786 24.5127 85.1786 29.8767H85.1748Z" fill="white" fill-opacity="0.7"/>
<path d="M21.0714 17.5014C24.7844 19.2254 25.9632 22.3548 25.1184 29.6271H17.6003C17.4813 27.6804 17.4007 25.7298 17.2356 23.787C17.0013 21.057 15.9531 20.0279 13.2116 19.978C9.7597 19.9127 6.30782 19.955 2.85978 19.9511C2.17248 19.9511 1.48134 19.9511 0.686523 19.9511V13.8191C3.73907 13.8191 6.71867 13.8383 9.69826 13.8115C11.4837 13.7961 13.2807 13.8115 15.0546 13.6195C17.3085 13.3737 18.3375 12.1988 18.3721 10.1599C18.4067 8.1057 17.2586 6.60054 15.1161 6.34328C13.1578 6.10522 11.165 6.16282 9.18758 6.13978C6.38845 6.1129 3.58932 6.1321 0.686523 6.1321V0.245866C1.22408 0.211309 1.76931 0.146034 2.31839 0.142195C6.5382 0.134515 10.758 0.0538819 14.9701 0.180591C16.7978 0.234347 18.6985 0.464728 20.4148 1.06372C25.345 2.77622 27.7448 8.53958 25.2797 13.1549C24.3313 14.925 22.4038 16.169 21.0714 17.5052V17.5014Z" fill="white" fill-opacity="0.7"/>
<path d="M108.566 13.8767C108.804 13.7346 108.931 13.6962 108.996 13.6117C110.163 12.1066 111.043 9.82195 112.552 9.28055C114.637 8.53181 117.194 9.09241 119.989 9.09241C117.39 12.5328 114.959 15.7504 112.471 19.0487C115.155 22.658 117.8 26.2136 120.669 30.0686C117.873 30.0686 115.466 30.1262 113.066 30.0225C112.567 29.9995 111.987 29.4542 111.626 29.005C110.478 27.569 109.415 26.0638 108.167 24.382C106.984 25.9909 105.982 27.5306 104.788 28.8975C104.285 29.4734 103.39 29.9611 102.638 30.0225C100.668 30.1799 98.6827 30.0763 96.2368 30.0763C99.0628 26.3671 101.701 22.9076 104.388 19.3828C101.943 16.0154 99.5428 12.7171 96.8857 9.06169C99.7156 9.06169 102.223 9.01177 104.723 9.11161C105.149 9.12696 105.625 9.73363 105.947 10.1675C106.857 11.3847 107.698 12.648 108.566 13.892V13.8767Z" fill="white" fill-opacity="0.7"/>
<path d="M88.0088 9.19238H95.3771V29.9766H88.0088V9.19238Z" fill="white" fill-opacity="0.7"/>
<path d="M95.3923 7.00369H87.9663V0.58374H95.3923V7.00369Z" fill="white" fill-opacity="0.7"/>
<path d="M10.6005 29.6693H0.709473V25.1654C3.47788 25.1654 6.15414 25.0502 8.80352 25.2499C9.44091 25.2998 10.2242 26.2981 10.5352 27.0315C10.8309 27.7265 10.6005 28.648 10.6005 29.6693Z" fill="white" fill-opacity="0.7"/>
<path d="M40.0394 7.87909C33.4313 6.95372 27.7678 10.8472 26.8424 16.9523C25.8326 23.6103 29.3881 28.7094 35.7159 29.6846C42.1819 30.683 47.4077 27.7303 48.3177 22.3931C47.3041 22.2894 46.3058 22.1665 45.2998 22.0936C43.8253 21.9822 42.5045 21.7442 41.2489 23.2417C40.0701 24.647 38.0696 24.4204 36.3917 23.7831C34.9902 23.2532 34.134 22.1857 34.1532 20.3389H48.4713C49.366 13.773 45.8527 8.69694 40.0432 7.88293L40.0394 7.87909ZM34.2069 16.5184C34.8213 14.0533 35.8849 13.1356 37.9698 13.1855C39.8781 13.2316 40.8457 14.1339 41.3948 16.5184H34.2069Z" fill="white" fill-opacity="0.7"/>
</svg>
