<svg width="150" height="31" viewBox="0 0 150 31" fill="none" xmlns="http://www.w3.org/2000/svg">
<path d="M56.5742 0.109863C56.5824 0.273917 56.5981 0.437389 56.5981 0.601443C56.5998 1.90922 56.5993 3.21641 56.5993 4.52419V4.9H35.8261V12.5971H52.5107V17.382H35.8243V25.2787H56.5725V30.084H56.1897C47.8997 30.084 39.6098 30.084 31.3198 30.084C29.1092 30.084 26.8985 30.0823 24.6885 30.0904C24.4744 30.091 24.3359 30.0322 24.1992 29.8618C19.3073 23.7767 14.4101 17.6956 9.51407 11.614C8.22026 10.0066 6.92645 8.39923 5.63205 6.79244C5.57853 6.72612 5.52035 6.66387 5.40924 6.53763V30.0433C5.29405 30.052 5.21901 30.0625 5.14396 30.0625C3.58312 30.0636 2.0217 30.0636 0.460865 30.0625C0.393963 30.0625 0.327644 30.0468 0.260742 30.0386C0.260742 20.0616 0.260742 10.0857 0.260742 0.109863C2.41671 0.109863 4.56744 0.109863 6.71818 0.109863C6.77286 0.1884 6.82289 0.271008 6.8834 0.345472C14.4072 9.68374 21.9321 19.0214 29.4571 28.3585C29.8381 28.8309 30.2203 29.3027 30.602 29.7745C30.6235 29.7693 30.6444 29.764 30.666 29.7588C30.666 29.6471 30.666 29.536 30.666 29.4243C30.6648 19.7975 30.6636 10.1701 30.6636 0.543268C30.6636 0.398993 30.6782 0.254138 30.6863 0.109863C39.3154 0.109863 47.9451 0.109863 56.5742 0.109863Z" fill="white" fill-opacity="0.7"/>
<path d="M69.5472 0.109863C71.2453 2.22278 72.9434 4.33628 74.6421 6.44862C75.8382 7.935 77.036 9.41962 78.2542 10.9316C78.3374 10.8339 78.4125 10.7507 78.4829 10.6634C81.2357 7.24678 83.9891 3.83074 86.7373 0.410629C86.8764 0.237267 87.016 0.161639 87.2446 0.162221C89.29 0.169784 91.3355 0.163384 93.3809 0.162221C93.4548 0.162221 93.5287 0.16862 93.659 0.174438C89.6362 5.17459 85.6442 10.1358 81.6313 15.1237C85.639 20.0977 89.6443 25.0693 93.6817 30.0799C93.5374 30.0863 93.4455 30.0939 93.3536 30.0939C91.3081 30.0945 89.2627 30.091 87.2167 30.0991C87.0096 30.0997 86.8833 30.0305 86.7571 29.8734C78.8581 20.0552 70.955 10.2405 63.0542 0.424591C62.9775 0.329183 62.9222 0.215742 62.8564 0.111027C65.0863 0.111027 67.3167 0.111027 69.5466 0.111027L69.5472 0.109863Z" fill="white" fill-opacity="0.7"/>
<path d="M125.221 0.109863C125.217 1.58169 125.213 3.05294 125.209 4.52477C125.209 4.63879 125.209 4.7534 125.209 4.90989H114.925V30.0636H109.777V4.92036H99.2749V0.109863C107.923 0.109863 116.572 0.109863 125.221 0.109863Z" fill="white" fill-opacity="0.7"/>
<path d="M149.189 26.7249C149.142 26.911 149.102 27.1001 149.046 27.2834C148.723 28.3381 148.014 29.0583 147.012 29.4545C145.212 30.1659 143.389 30.163 141.61 29.3916C140.333 28.8378 139.646 27.804 139.483 26.4247C139.471 26.3217 139.482 26.2158 139.482 26.0948H141.704C141.717 26.1519 141.732 26.2054 141.74 26.2601C141.843 26.9384 142.219 27.4311 142.835 27.6976C143.872 28.1473 144.929 28.1542 145.957 27.6557C146.492 27.3956 146.834 26.9663 146.882 26.3438C146.929 25.7336 146.633 25.3054 146.116 25.0582C145.648 24.8342 145.146 24.6748 144.649 24.5189C143.737 24.2332 142.815 23.9773 141.901 23.6934C141.71 23.634 141.539 23.5107 141.36 23.4141C139.211 22.2489 139.445 19.4763 140.975 18.2365C142.049 17.3662 143.296 17.0835 144.642 17.1126C145.765 17.137 146.811 17.4012 147.709 18.1068C148.532 18.7537 148.971 19.6025 149.015 20.6799H146.819C146.805 20.6322 146.786 20.5793 146.775 20.5246C146.649 19.9155 146.282 19.4943 145.717 19.2692C144.813 18.9091 143.899 18.9056 143.01 19.3227C142.46 19.581 142.132 20.0185 142.124 20.6456C142.116 21.25 142.443 21.6834 142.97 21.887C143.706 22.1715 144.471 22.3891 145.235 22.5927C146.166 22.8405 147.084 23.1029 147.873 23.6841C148.558 24.1879 149.011 24.8359 149.144 25.6882C149.15 25.7248 149.174 25.758 149.189 25.7929V26.7225V26.7249Z" fill="white" fill-opacity="0.7"/>
<path d="M76.4631 21.5311C75.8586 22.2833 75.2588 23.0297 74.6585 23.7755C73.0069 25.8267 71.3559 27.8786 69.6979 29.9246C69.6246 30.0148 69.4826 30.102 69.3721 30.1026C67.24 30.1125 65.1079 30.1096 62.9758 30.109C62.9472 30.109 62.9187 30.1015 62.8228 30.0887C66.2522 25.832 69.6589 21.6038 73.0912 17.3442C74.2222 18.7486 75.3362 20.1332 76.4631 21.5323V21.5311Z" fill="white" fill-opacity="0.7"/>
<path d="M129.423 26.4563H131.659C131.669 26.4999 131.682 26.5435 131.689 26.5883C131.833 27.5668 132.436 28.0753 133.443 28.0671C134.387 28.0596 134.986 27.5162 135.103 26.547C135.134 26.298 135.144 26.045 135.144 25.7937C135.146 23.0821 135.145 20.37 135.145 17.6585V17.2937H137.428V17.6201C137.428 20.3805 137.437 23.1403 137.419 25.9007C137.416 26.3888 137.365 26.8961 137.225 27.3603C136.784 28.8164 135.72 29.5931 134.263 29.8525C133.292 30.0253 132.33 29.9532 131.408 29.571C130.108 29.0323 129.332 27.8275 129.421 26.4569L129.423 26.4563Z" fill="white" fill-opacity="0.7"/>
<path d="M126.345 27.2305C127.089 27.2247 127.721 27.8309 127.72 28.5493C127.719 29.2748 127.102 29.8856 126.362 29.8938C125.618 29.9019 125.001 29.3033 124.995 28.568C124.989 27.8315 125.59 27.2369 126.345 27.2305Z" fill="white" fill-opacity="0.7"/>
</svg>
