<svg width="56" height="31" viewBox="0 0 56 31" fill="none" xmlns="http://www.w3.org/2000/svg">
<g clip-path="url(#clip0_9633_85977)">
<path d="M0.0488281 0.109863H2.72491V19.2836C2.82265 19.3395 2.91776 19.3927 3.0155 19.4486C5.80254 16.2987 8.58693 13.1488 11.374 9.99892C11.4559 10.0602 11.5378 10.1214 11.6223 10.1826C11.4479 10.4276 11.2947 10.6912 11.0966 10.9175C9.56173 12.6722 8.06651 14.4642 6.46297 16.1496C5.66252 16.991 5.55685 17.5821 6.27277 18.5886C8.61335 21.8876 10.8324 25.2718 13.0964 28.6268C13.3368 28.9836 13.5534 29.3537 13.7964 29.7371C11.3185 30.227 11.2577 30.2004 9.91837 28.2194C7.9265 25.2718 5.93462 22.327 3.65744 18.9614C3.28232 19.9386 2.83058 20.5883 2.80945 21.2539C2.72755 24.071 2.7751 26.8907 2.7751 29.817H0.0488281V0.109863Z" fill="white" fill-opacity="0.7"/>
<path d="M34.9675 18.5194C34.9754 23.7595 33.6651 27.2076 29.6973 29.154C25.695 31.119 19.973 29.9581 17.6641 26.5286C15.6432 23.5225 15.659 20.1223 16.4912 16.7221C17.3683 13.1302 19.6798 10.8616 23.2567 10.1321C27.0238 9.36522 30.5426 9.92704 33.1659 13.1036C34.7007 14.9621 34.9807 17.252 34.9702 18.5167L34.9675 18.5194ZM18.7023 20.3646C18.8423 21.5868 18.9137 22.8222 19.1329 24.0284C19.6903 27.1011 21.7271 29.1833 24.5036 29.6173C27.0423 30.014 29.5282 28.7226 30.8781 25.9269C32.796 21.9595 32.8885 17.7792 31.137 13.7692C29.3195 9.61018 24.1258 9.00577 21.1512 12.4459C19.1937 14.7118 18.7869 17.481 18.6997 20.3646H18.7023Z" fill="white" fill-opacity="0.7"/>
<path d="M49.6422 27.0265C47.7455 29.7983 45.1249 30.2802 42.2216 29.9368C39.144 29.5746 37.0253 26.0812 38.1771 23.2189C38.7213 21.8636 39.955 21.2273 41.2653 21.0196C43.6376 20.6468 46.0389 20.4711 48.4297 20.2288C48.8497 20.1862 49.2777 20.2234 49.8087 20.2234C49.8087 17.7205 49.9328 15.3455 49.7638 12.9917C49.6528 11.4314 48.3504 10.2944 46.6227 10.3663C44.5569 10.4515 42.5095 10.9521 40.4569 11.3036C40.058 11.3701 39.6829 11.5698 39.2628 11.5485C42.8741 9.83912 46.6227 9.15483 50.4955 10.5501C52.0568 11.1145 52.6591 12.4751 52.6485 14.142C52.6248 17.9762 52.6406 21.8104 52.6459 25.6472C52.6459 26.1744 52.6538 26.707 52.7119 27.2315C52.8969 28.9463 53.3011 29.3403 54.9812 29.5187C55.1688 29.54 55.3537 29.6039 55.7631 29.7024C52.6723 30.3388 50.6382 29.4522 49.6449 27.0265H49.6422ZM49.8457 20.4471C47.6028 20.7 45.5555 20.7986 43.5662 21.1953C41.6774 21.5707 40.943 22.6358 40.7845 24.5289C40.5758 27.0371 41.7672 29.1912 43.5979 29.6146C46.0389 30.1817 49.5471 27.8413 49.8166 25.341C49.9751 23.8713 49.8457 22.3695 49.8457 20.4471Z" fill="white" fill-opacity="0.7"/>
</g>
<defs>
<clipPath id="clip0_9633_85977">
<rect width="55.7143" height="30" fill="white" transform="translate(0.0488281 0.109863)"/>
</clipPath>
</defs>
</svg>
