<svg width="122" height="41" viewBox="0 0 122 41" fill="none" xmlns="http://www.w3.org/2000/svg">
<path d="M18.0432 0.109863C18.2515 0.146047 18.463 0.170974 18.668 0.220827C19.6667 0.461248 20.3051 1.09487 20.6075 2.05977C21.1703 3.85529 21.7203 5.65483 22.2695 7.45437C24.2202 13.8509 26.1693 20.249 28.1184 26.6463C28.157 26.7717 28.1924 26.8988 28.2527 27.1022C27.6601 26.8296 27.1278 26.5779 26.5907 26.3375C24.4333 25.3742 22.1955 24.6674 19.8669 24.2597C19.563 24.2067 19.493 24.0266 19.4222 23.7869C17.9001 18.6416 16.378 13.4963 14.839 8.35575C14.7706 8.12659 14.5873 7.86607 14.3846 7.75832C14.0477 7.57901 13.71 7.80737 13.5806 8.24318C13.1616 9.65033 12.7532 11.0607 12.3407 12.4703C11.2302 16.2623 10.1166 20.0528 9.01336 23.8472C8.94501 24.0828 8.83887 24.201 8.59524 24.2445C5.71983 24.7575 2.98916 25.7047 0.379098 27.0073C0.334069 27.0298 0.285824 27.0459 0.166016 27.0941C0.384727 26.3664 0.583336 25.6942 0.788377 25.0244C3.06152 17.5955 5.33628 10.1682 7.61425 2.74163C7.72763 2.37175 7.84422 1.99866 8.00826 1.65049C8.41593 0.786903 9.10905 0.298823 10.0627 0.182231C10.1793 0.168561 10.2935 0.13479 10.4093 0.109863C12.9542 0.109863 15.4983 0.109863 18.0432 0.109863Z" fill="white" fill-opacity="0.7"/>
<path d="M56.5293 26.327C55.7019 26.327 54.9276 26.327 54.1533 26.327C53.3902 26.327 52.6271 26.319 51.8641 26.3319C51.6059 26.3359 51.4733 26.2796 51.454 25.9893C51.4089 25.33 51.3317 24.6722 51.2618 23.9526C50.6603 24.9432 49.8482 25.6428 48.8174 26.0416C46.3062 27.0145 43.7637 27.1392 41.3008 25.9563C38.5516 24.6352 38.6401 21.4929 39.7175 20.015C40.3624 19.1305 41.2743 18.6504 42.2834 18.3232C43.668 17.8737 45.1065 17.7306 46.5466 17.6035C48.039 17.4716 49.5306 17.3406 51.0165 17.2095C51.2803 15.8948 50.6378 14.8262 49.3722 14.4917C48.4483 14.2481 47.5148 14.2617 46.5949 14.5174C45.4965 14.823 44.9642 15.3955 44.6916 16.5357H39.4996C39.5463 15.8538 39.7594 15.2323 40.0914 14.6533C40.8304 13.366 41.9601 12.5225 43.3279 12.0312C46.3472 10.9465 49.4212 10.9111 52.4687 11.8591C54.7764 12.5764 55.981 14.2714 56.1257 16.6571C56.2174 18.1623 56.1796 19.6764 56.186 21.1865C56.1924 22.8823 56.1715 24.5797 56.5293 26.327ZM51.1074 19.584C49.8466 19.7166 48.6067 19.8212 47.3748 19.9884C46.6906 20.0809 46.0087 20.2385 45.3477 20.4403C44.8508 20.5923 44.4633 20.9332 44.304 21.4687C44.0258 22.4023 44.5461 23.2281 45.6244 23.5377C46.4381 23.7716 47.2647 23.7548 48.0913 23.6189C50.2768 23.2602 51.4379 21.7269 51.1066 19.584H51.1074Z" fill="white" fill-opacity="0.7"/>
<path d="M112.657 11.2231C114.541 11.2336 116.207 11.4885 117.779 12.2202C120.793 13.6225 122.181 16.3508 121.981 19.5438C121.746 23.2844 119.274 25.7361 115.541 26.4919C113.094 26.988 110.664 26.8803 108.318 25.9483C105.164 24.6964 103.428 21.8081 103.659 18.4261C103.908 14.7651 106.305 12.3006 110.035 11.5094C110.505 11.4097 110.984 11.3381 111.461 11.2875C111.913 11.24 112.37 11.2376 112.657 11.2231ZM116.906 19.0003C116.873 18.9946 116.839 18.989 116.805 18.9842C116.805 18.784 116.815 18.5829 116.803 18.3835C116.68 16.0991 115.289 14.7129 113.007 14.5995C110.913 14.495 109.396 15.5877 108.973 17.5931C108.833 18.2621 108.818 18.9753 108.861 19.662C108.986 21.7012 110.19 23.0279 112.124 23.3455C114.136 23.676 115.888 22.7441 116.505 20.9477C116.719 20.3262 116.777 19.6516 116.906 19.0011V19.0003Z" fill="white" fill-opacity="0.7"/>
<path d="M58.2002 23.3896C59.1112 22.6378 59.9861 21.9166 60.881 21.1784C61.1078 21.3859 61.3144 21.5893 61.5371 21.7742C62.8558 22.871 64.4214 23.339 66.0931 23.4427C67.0355 23.5014 67.9883 23.4339 68.9331 23.3663C69.2499 23.3438 69.574 23.179 69.8586 23.0165C70.2285 22.8059 70.3539 22.4408 70.3145 22.0195C70.2751 21.5957 70.0403 21.3047 69.6439 21.213C68.9564 21.053 68.2593 20.9251 67.5613 20.8206C65.8181 20.5593 64.0362 20.5408 62.3348 20.0141C61.3088 19.6965 60.3817 19.2156 59.7312 18.3127C58.7614 16.9682 58.5757 14.1853 60.7419 12.68C61.8612 11.9025 63.1268 11.5406 64.4511 11.3766C66.8256 11.0823 69.1792 11.178 71.4805 11.9057C72.812 12.327 74.0833 13.0893 74.7225 13.8379C73.9442 14.6259 73.1674 15.4115 72.3818 16.2068C70.2695 14.5672 67.8106 14.2794 65.2408 14.4876C64.8765 14.5174 64.5107 14.6452 64.1665 14.7803C63.7838 14.9307 63.6012 15.2499 63.6028 15.6688C63.6044 16.0942 63.8111 16.4295 64.1971 16.5316C64.903 16.719 65.6275 16.8484 66.3512 16.957C68.0687 17.2151 69.8007 17.392 71.507 17.7096C72.5579 17.905 73.5043 18.4172 74.1484 19.3306C75.5692 21.3441 74.8472 24.3168 72.6408 25.588C71.2585 26.3841 69.7348 26.655 68.1741 26.7338C65.966 26.8456 63.7854 26.6759 61.6972 25.8702C60.3391 25.346 59.1579 24.5668 58.2026 23.3913L58.2002 23.3896Z" fill="white" fill-opacity="0.7"/>
<path d="M88.8412 22.4249C88.8412 23.6359 88.846 24.8243 88.8307 26.012C88.8299 26.0996 88.6972 26.2427 88.604 26.2644C86.4297 26.7783 84.2498 26.8675 82.111 26.1398C80.1779 25.4821 79.156 24.0267 79.053 22.0382C78.9405 19.8776 78.9951 17.7074 78.9766 15.542C78.975 15.3691 78.9766 15.197 78.9766 14.9807H75.7241V11.6663H78.9766C78.9766 10.6547 79.0048 9.6818 78.9638 8.71208C78.9461 8.2827 79.1021 8.11303 79.4832 7.97956C80.8952 7.48344 82.2951 6.95435 83.6998 6.43893C83.7979 6.40275 83.8976 6.3738 84.056 6.32153V11.6582H88.854V14.9614H84.1011C84.0898 15.1311 84.0737 15.271 84.0737 15.4109C84.0721 16.962 84.0689 18.5139 84.0737 20.0649C84.0786 21.6812 84.7854 22.4627 86.3855 22.5994C86.7827 22.6332 87.188 22.6131 87.5868 22.585C87.9856 22.5568 88.3812 22.486 88.8428 22.4257L88.8412 22.4249Z" fill="white" fill-opacity="0.7"/>
<path d="M96.6174 26.3055H91.5557V11.684H96.1357V15.3948C97.3266 12.3345 99.5531 11.0351 102.789 11.323V15.9087C102.233 15.8829 101.7 15.821 101.17 15.8435C100.626 15.8668 100.07 15.9167 99.545 16.0534C97.797 16.5085 96.9792 17.7709 96.7195 19.4651C96.6487 19.9251 96.6246 20.3963 96.6214 20.8626C96.6101 22.5206 96.6166 24.1795 96.6166 25.8375C96.6166 25.9822 96.6166 26.1262 96.6166 26.3047L96.6174 26.3055Z" fill="white" fill-opacity="0.7"/>
<path d="M21.0199 28.4465C21.4308 29.8625 21.237 31.2198 20.5045 32.5103C19.9625 33.4656 19.1617 34.1643 18.2539 34.7545C17.7827 35.0609 17.3066 35.3592 16.8451 35.6792C15.5328 36.5903 15.0544 37.8414 15.5192 39.6273C15.5545 39.7648 15.6004 39.8999 15.6631 40.1098C14.1651 39.3547 13.2645 38.2298 13.0088 36.6458C12.893 35.9253 12.9413 35.1791 12.8448 34.4538C12.7041 33.3892 12.1525 32.9019 11.1659 32.8738C10.2299 32.8473 9.4041 33.4736 9.187 34.3742C9.16609 34.4611 9.14358 34.5471 9.11865 34.6468C7.39872 33.1094 6.97496 29.7692 7.66648 27.7236C9.19745 29.4026 11.2519 29.7724 13.361 29.9807C15.3133 30.1729 17.2375 29.9936 19.0925 29.3358C19.7406 29.1059 20.3485 28.7609 21.0199 28.4465Z" fill="white" fill-opacity="0.7"/>
</svg>
