<svg width="135" height="31" viewBox="0 0 135 31" fill="none" xmlns="http://www.w3.org/2000/svg">
<path d="M60.4708 7.22036C59.2271 3.29251 56.8446 0.659465 52.4783 0.224884C48.7614 -0.145788 45.7334 1.31261 43.9056 4.51573C43.7765 4.74197 43.6027 4.94136 43.4493 5.15354C43.402 5.1382 43.3534 5.12159 43.3061 5.10625V0.750216H41.7378V30.11H43.4454V18.7291C44.1024 19.4551 44.6341 20.153 45.2745 20.7294C47.2058 22.4652 49.5845 22.9036 52.0616 22.772C55.4386 22.5917 58.1253 21.164 59.6642 18.0159C61.3668 14.5328 61.639 10.913 60.4695 7.21908L60.4708 7.22036ZM58.2301 17.1735C56.8561 20.0021 53.7092 21.6689 50.7387 21.3557C46.0555 20.8611 44.3529 17.9711 43.7611 15.1003C43.2026 12.3868 43.2984 9.70386 44.0717 7.02863C44.9358 4.03769 47.3503 1.98238 50.4601 1.70374C54.2409 1.3663 56.9622 2.98703 58.4704 6.47518C59.1721 8.09846 59.5288 9.79205 59.5121 11.5623C59.5339 13.5346 59.0903 15.4058 58.2314 17.1723L58.2301 17.1735Z" fill="white" fill-opacity="0.7"/>
<path d="M19.1781 11.8167H1.84476C1.41785 15.7548 3.60993 20.9519 9.00895 21.2701C9.97142 21.3264 10.9722 21.2165 11.9168 21.0094C14.5537 20.4329 16.2626 18.8033 17.0372 16.206C17.3785 15.062 17.8655 14.7872 18.98 15.1681C18.9072 15.5234 18.8509 15.8954 18.7538 16.2558C17.7427 20.0124 14.5703 22.5611 10.6156 22.795C7.90716 22.9561 5.45434 22.239 3.37986 20.4815C1.56484 18.9426 0.754478 16.8489 0.258544 14.5623C-0.24378 12.2436 0.0591486 10.0158 0.543578 7.74956C1.35139 3.97255 4.67465 0.79883 8.57309 0.209589C12.3297 -0.357922 16.1501 1.60408 17.946 5.03855C19.0439 7.13987 19.2497 9.40481 19.1781 11.8155V11.8167ZM17.537 10.2752C17.344 7.0619 16.3623 4.28698 13.4775 2.65091C10.7537 1.10559 7.95701 1.3689 5.39043 3.08166C2.87753 4.75991 1.95341 7.3201 1.78725 10.2752H17.537Z" fill="white" fill-opacity="0.7"/>
<path d="M94.3016 11.8025H76.7471C75.7757 17.0698 80.3746 21.9768 85.5985 21.3338C88.6942 20.9529 90.7317 19.2683 91.8322 16.386C91.9383 16.1086 92.0316 15.8236 92.1683 15.5616C92.4316 15.0567 92.9557 14.8266 93.458 15.0631C93.6076 15.1334 93.7264 15.5092 93.6855 15.7098C93.1065 18.5385 91.5395 20.6487 88.9294 21.8924C82.945 24.7415 76.4173 21.3287 75.2082 14.7474C74.6279 11.589 74.9091 8.52393 76.2269 5.57006C77.8655 1.89657 81.7767 -0.300618 85.734 0.252833C90.439 0.909817 93.0912 3.62083 93.8453 8.55332C94.0051 9.60015 94.1418 10.6508 94.3042 11.8037L94.3016 11.8025ZM92.3537 10.2482C92.4457 6.22576 89.7462 1.44921 84.4814 1.68823C80.041 1.8889 76.2831 5.98291 76.7548 10.2482H92.3549H92.3537Z" fill="white" fill-opacity="0.7"/>
<path d="M113.477 7.06431C113.339 7.07326 113.233 7.08604 113.128 7.08476C111.959 7.07326 112.134 7.21514 111.992 6.09929C111.712 3.89826 110.069 2.29415 107.655 1.85957C105.478 1.46845 103.378 1.69724 101.375 2.68783C100.063 3.33714 99.3186 4.51435 99.3928 5.905C99.4759 7.49122 100.238 8.64031 101.704 9.08639C104.021 9.79195 106.368 10.4029 108.703 11.0484C109.256 11.2018 109.816 11.3296 110.371 11.4766C112.492 12.0377 113.868 13.5715 114.203 15.5437C114.712 18.5462 113.221 20.5146 111.674 21.3454C108.325 23.1438 104.867 23.163 101.379 21.8081C99.1231 20.9313 97.8027 19.2083 97.2365 16.8909C97.1125 16.3848 97.0869 15.8543 97.0103 15.2868H98.4035C98.7652 16.2582 99.0004 17.2207 99.4592 18.0605C100.523 20.0059 102.356 20.8686 104.444 21.2508C106.59 21.6432 108.639 21.2968 110.572 20.2871C112.186 19.4435 112.78 18.049 112.63 16.3055C112.494 14.7347 111.608 13.716 110.123 13.2558C107.829 12.5464 105.515 11.8971 103.222 11.1839C102.331 10.9065 101.465 10.5435 100.602 10.1831C98.5811 9.33819 97.6493 7.81332 97.7644 5.61869C97.8705 3.5915 98.7665 2.1037 100.652 1.24221C103.975 -0.277545 107.284 -0.28777 110.563 1.33424C112.679 2.38107 113.857 4.72397 113.478 7.06303L113.477 7.06431Z" fill="white" fill-opacity="0.7"/>
<path d="M117.407 15.3265C117.467 15.2933 117.485 15.2767 117.503 15.2754C118.291 15.2149 118.816 15.5532 119.077 16.2903C120.862 21.3301 127.109 23.1963 131.391 19.9561C132.684 18.977 133.138 17.6183 132.913 16.0551C132.702 14.5826 131.792 13.656 130.382 13.2316C128.083 12.5401 125.772 11.8844 123.477 11.175C122.587 10.8989 121.717 10.541 120.855 10.1831C118.766 9.31909 117.738 7.42866 118.062 5.16757C118.316 3.38834 119.187 2.09738 120.838 1.31897C124.219 -0.276197 127.577 -0.285144 130.906 1.42378C132.944 2.46933 134.178 4.94005 133.762 7.04777H132.375C132.326 6.71416 132.271 6.36394 132.224 6.01244C131.963 4.10923 130.611 2.6061 128.763 2.08588C126.537 1.46085 124.361 1.51964 122.19 2.34279C120.54 2.9691 119.588 4.34442 119.656 6.13898C119.715 7.6843 120.731 8.86278 122.41 9.31398C125.202 10.0643 128.019 10.7302 130.78 11.5776C132.964 12.2474 134.235 13.84 134.527 16.1305C134.819 18.4146 133.599 20.6425 131.498 21.6241C128.221 23.1554 124.881 23.2487 121.536 21.8631C118.872 20.7588 117.191 18.0593 117.406 15.3278L117.407 15.3265Z" fill="white" fill-opacity="0.7"/>
<path d="M20.7363 0.78212C21.8049 0.321975 22.9412 0.695204 23.7107 1.73436C25.5346 4.19869 27.3573 6.6643 29.1825 9.12863C29.3078 9.29735 29.4433 9.4584 29.6095 9.66674C30.0824 9.0366 30.5272 8.44736 30.9682 7.85428C32.5173 5.76957 34.0677 3.68486 35.6131 1.5976C36.247 0.741218 37.2018 0.429342 38.3215 0.762947C38.2129 0.931667 38.1221 1.094 38.0109 1.23971C35.7524 4.2038 33.4913 7.16534 31.2289 10.1269C30.7419 10.7634 30.747 11.1239 31.2404 11.7796C33.7456 15.1169 36.247 18.4581 38.7497 21.7979C38.8366 21.913 38.9095 22.0395 38.9913 22.1648C37.9214 22.593 36.8222 22.2325 36.132 21.2739C34.0805 18.4223 32.0214 15.5758 29.9635 12.7293C29.8421 12.5618 29.7028 12.4059 29.5328 12.1975C28.6674 13.3709 27.8353 14.4944 27.0084 15.6243C25.6126 17.5314 24.2219 19.4422 22.8274 21.3493C22.2241 22.175 21.3115 22.4779 20.1279 22.1942C20.2813 21.9679 20.4079 21.766 20.551 21.5742C23.069 18.1935 25.5819 14.8076 28.1191 11.4409C28.4156 11.0472 28.422 10.8043 28.1165 10.4106C25.7647 7.38391 23.4397 4.33673 21.107 1.29467C20.9805 1.12978 20.8629 0.95723 20.7363 0.78212Z" fill="white" fill-opacity="0.7"/>
<path d="M64.8682 0.725817H66.3304V4.86967C68.3589 1.89279 71.222 0.697697 74.7357 0.655518V2.05257C73.988 2.14971 73.2428 2.18933 72.5245 2.34783C68.9302 3.1403 66.3854 6.30762 66.3764 9.98622C66.3675 13.8208 66.3764 17.654 66.3764 21.4886C66.3764 21.7199 66.3764 21.9513 66.3764 22.2286H64.8682V0.725817Z" fill="white" fill-opacity="0.7"/>
</svg>
