<svg width="1440" height="515" viewBox="0 0 1440 515" fill="none" xmlns="http://www.w3.org/2000/svg">
<g opacity="0.15" filter="url(#filter0_f_9652_22564)">
<path d="M420.307 73.0977H252.151L194.347 130.915H-6.79541" stroke="white" stroke-width="1.35468" stroke-miterlimit="10"/>
<path d="M392.807 42.9832H245.947L188.143 100.787H-13" stroke="white" stroke-width="1.35468" stroke-miterlimit="10"/>
<path d="M362.205 10.7961H245.947L188.143 68.6002H-13" stroke="white" stroke-width="1.35468" stroke-miterlimit="10"/>
<path d="M-6.79541 173.642H1440" stroke="white" stroke-width="1.35468" stroke-miterlimit="10"/>
<path d="M-6.79541 181.147H1440" stroke="white" stroke-width="1.35468" stroke-miterlimit="10"/>
<path d="M-6.79541 188.706H1440" stroke="white" stroke-width="1.35468" stroke-miterlimit="10"/>
<path d="M-6.79541 231.026H1440" stroke="white" stroke-width="1.35468" stroke-miterlimit="10"/>
<path d="M-6.79541 239.411H1440" stroke="white" stroke-width="1.35468" stroke-miterlimit="10"/>
<path d="M-6.79541 223.982H1440" stroke="white" stroke-width="1.35468" stroke-miterlimit="10"/>
<path d="M-6.79541 271.057H1440" stroke="white" stroke-width="1.35468" stroke-miterlimit="10"/>
<path d="M-6.79541 278.562H1440" stroke="white" stroke-width="1.35468" stroke-miterlimit="10"/>
<path d="M-6.79541 286.121H1440" stroke="white" stroke-width="1.35468" stroke-miterlimit="10"/>
<path d="M-6.79541 328.441H1440" stroke="white" stroke-width="1.35468" stroke-miterlimit="10"/>
<path d="M-6.79541 336.826H1440" stroke="white" stroke-width="1.35468" stroke-miterlimit="10"/>
<path d="M-6.79541 321.396H1440" stroke="white" stroke-width="1.35468" stroke-miterlimit="10"/>
<path d="M594.185 425.631C594.388 422.151 591.732 419.165 588.251 418.961C584.77 418.758 581.784 421.415 581.581 424.896C581.378 428.376 584.035 431.362 587.515 431.566C590.996 431.769 593.982 429.112 594.185 425.631Z" stroke="white" stroke-width="1.35468" stroke-miterlimit="10"/>
<path d="M594.345 389.737V349.34H581.34V389.737H594.345Z" fill="white"/>
<path d="M587.856 389.723V418.943" stroke="white" stroke-width="1.35468" stroke-miterlimit="10"/>
<path d="M558.871 425.639C559.074 422.158 556.418 419.172 552.937 418.969C549.457 418.766 546.47 421.423 546.267 424.903C546.064 428.384 548.721 431.37 552.201 431.573C555.682 431.776 558.668 429.119 558.871 425.639Z" stroke="white" stroke-width="1.35468" stroke-miterlimit="10"/>
<path d="M559.056 389.737V349.34H546.051V389.737H559.056Z" fill="white"/>
<path d="M552.553 389.723V418.943" stroke="white" stroke-width="1.35468" stroke-miterlimit="10"/>
<path d="M523.571 425.647C523.774 422.166 521.117 419.18 517.636 418.977C514.156 418.774 511.17 421.431 510.966 424.911C510.763 428.392 513.42 431.378 516.901 431.581C520.381 431.784 523.367 429.127 523.571 425.647Z" stroke="white" stroke-width="1.35468" stroke-miterlimit="10"/>
<path d="M523.753 389.723V349.326H510.748V389.723H523.753Z" fill="white"/>
<path d="M517.25 389.737V418.943" stroke="white" stroke-width="1.35468" stroke-miterlimit="10"/>
<path d="M488.27 425.641C488.473 422.161 485.817 419.175 482.336 418.971C478.855 418.768 475.869 421.425 475.666 424.906C475.463 428.386 478.12 431.372 481.6 431.576C485.081 431.779 488.067 429.122 488.27 425.641Z" stroke="white" stroke-width="1.35468" stroke-miterlimit="10"/>
<path d="M488.45 389.737V349.34H475.445V389.737H488.45Z" fill="white"/>
<path d="M481.948 389.737V418.943" stroke="white" stroke-width="1.35468" stroke-miterlimit="10"/>
<path d="M452.97 425.635C453.174 422.155 450.517 419.168 447.036 418.965C443.556 418.762 440.569 421.419 440.366 424.9C440.163 428.38 442.82 431.366 446.301 431.569C449.781 431.773 452.767 429.116 452.97 425.635Z" stroke="white" stroke-width="1.35468" stroke-miterlimit="10"/>
<path d="M453.147 389.737V349.34H440.143V389.737H453.147Z" fill="white"/>
<path d="M446.658 389.737V418.943" stroke="white" stroke-width="1.35468" stroke-miterlimit="10"/>
<path d="M417.67 425.643C417.873 422.163 415.216 419.176 411.736 418.973C408.255 418.77 405.269 421.427 405.066 424.908C404.863 428.388 407.52 431.374 411 431.578C414.481 431.781 417.467 429.124 417.67 425.643Z" stroke="white" stroke-width="1.35468" stroke-miterlimit="10"/>
<path d="M417.858 389.737V349.34H404.854V389.737H417.858Z" fill="white"/>
<path d="M411.356 389.737V418.943" stroke="white" stroke-width="1.35468" stroke-miterlimit="10"/>
<path d="M382.369 425.637C382.573 422.157 379.916 419.17 376.435 418.967C372.955 418.764 369.968 421.421 369.765 424.902C369.562 428.382 372.219 431.368 375.7 431.571C379.18 431.775 382.166 429.118 382.369 425.637Z" stroke="white" stroke-width="1.35468" stroke-miterlimit="10"/>
<path d="M382.555 389.737V349.34H369.55V389.737H382.555Z" fill="white"/>
<path d="M376.053 389.737V418.943" stroke="white" stroke-width="1.35468" stroke-miterlimit="10"/>
<path d="M832.863 26.5698C833.104 23.0916 830.479 20.0772 827.001 19.8371C823.522 19.5969 820.508 22.2219 820.268 25.7C820.028 29.1782 822.653 32.1925 826.131 32.4327C829.609 32.6728 832.623 30.0479 832.863 26.5698Z" stroke="white" stroke-width="1.35468" stroke-miterlimit="10"/>
<path d="M820.045 61.6509V102.047H833.05V61.6509H820.045Z" fill="white"/>
<path d="M826.548 61.6642V32.4438" stroke="white" stroke-width="1.35468" stroke-miterlimit="10"/>
<path d="M868.16 26.559C868.4 23.0808 865.775 20.0665 862.297 19.8263C858.819 19.5861 855.804 22.2111 855.564 25.6893C855.324 29.1675 857.949 32.1818 861.427 32.4219C864.905 32.6621 867.92 30.0372 868.16 26.559Z" stroke="white" stroke-width="1.35468" stroke-miterlimit="10"/>
<path d="M855.334 61.6509V102.047H868.339V61.6509H855.334Z" fill="white"/>
<path d="M861.851 61.6642V32.4438" stroke="white" stroke-width="1.35468" stroke-miterlimit="10"/>
<path d="M903.47 26.5617C903.71 23.0835 901.085 20.0692 897.607 19.829C894.129 19.5888 891.114 22.2138 890.874 25.692C890.634 29.1702 893.259 32.1844 896.737 32.4246C900.215 32.6648 903.23 30.0399 903.47 26.5617Z" stroke="white" stroke-width="1.35468" stroke-miterlimit="10"/>
<path d="M890.638 61.6509V102.047H903.643V61.6509H890.638Z" fill="white"/>
<path d="M897.153 61.6509V32.4441" stroke="white" stroke-width="1.35468" stroke-miterlimit="10"/>
<path d="M938.765 26.5776C939.005 23.0994 936.381 20.085 932.902 19.8449C929.424 19.6047 926.41 22.2297 926.17 25.7079C925.93 29.186 928.554 32.2003 932.033 32.4405C935.511 32.6806 938.525 30.0558 938.765 26.5776Z" stroke="white" stroke-width="1.35468" stroke-miterlimit="10"/>
<path d="M925.94 61.6504V102.047H938.945V61.6504H925.94Z" fill="white"/>
<path d="M932.443 61.6507V32.4438" stroke="white" stroke-width="1.35468" stroke-miterlimit="10"/>
<path d="M974.062 26.5666C974.302 23.0884 971.677 20.074 968.199 19.8339C964.721 19.5937 961.706 22.2187 961.466 25.6969C961.226 29.175 963.851 32.1893 967.329 32.4295C970.807 32.6697 973.822 30.0448 974.062 26.5666Z" stroke="white" stroke-width="1.35468" stroke-miterlimit="10"/>
<path d="M961.243 61.6504V102.047H974.248V61.6504H961.243Z" fill="white"/>
<path d="M967.746 61.6507V32.4438" stroke="white" stroke-width="1.35468" stroke-miterlimit="10"/>
<path d="M1009.37 26.5692C1009.61 23.091 1006.99 20.0767 1003.51 19.8366C1000.03 19.5964 997.016 22.2213 996.776 25.6995C996.536 29.1776 999.16 32.192 1002.64 32.4322C1006.12 32.6723 1009.13 30.0474 1009.37 26.5692Z" stroke="white" stroke-width="1.35468" stroke-miterlimit="10"/>
<path d="M996.546 61.6509V102.047H1009.55V61.6509H996.546Z" fill="white"/>
<path d="M1003.05 61.6507V32.4438" stroke="white" stroke-width="1.35468" stroke-miterlimit="10"/>
<path d="M1044.67 26.5582C1044.91 23.08 1042.28 20.0657 1038.8 19.8256C1035.33 19.5854 1032.31 22.2103 1032.07 25.6885C1031.83 29.1667 1034.46 32.181 1037.94 32.4212C1041.41 32.6614 1044.43 30.0364 1044.67 26.5582Z" stroke="white" stroke-width="1.35468" stroke-miterlimit="10"/>
<path d="M1031.84 61.6509V102.047H1044.84V61.6509H1031.84Z" fill="white"/>
<path d="M1038.35 61.6507V32.4438" stroke="white" stroke-width="1.35468" stroke-miterlimit="10"/>
<path d="M1253.15 370.718C1254.18 361.913 1247.88 353.938 1239.07 352.907C1230.27 351.876 1222.29 358.178 1221.26 366.984C1220.23 375.789 1226.53 383.764 1235.34 384.795C1244.15 385.826 1252.12 379.524 1253.15 370.718Z" stroke="white" stroke-width="1.35468" stroke-miterlimit="10"/>
<path d="M1310.24 370.206C1311.27 361.401 1304.97 353.426 1296.17 352.395C1287.36 351.364 1279.39 357.666 1278.36 366.472C1277.32 375.277 1283.63 383.252 1292.43 384.283C1301.24 385.314 1309.21 379.012 1310.24 370.206Z" stroke="white" stroke-width="1.35468" stroke-miterlimit="10"/>
<path d="M1366.87 370.809C1367.9 362.003 1361.6 354.029 1352.79 352.997C1343.98 351.966 1336.01 358.268 1334.98 367.074C1333.95 375.88 1340.25 383.854 1349.05 384.885C1357.86 385.917 1365.83 379.614 1366.87 370.809Z" stroke="white" stroke-width="1.35468" stroke-miterlimit="10"/>
<path d="M1423.43 370.862C1424.47 362.056 1418.16 354.082 1409.36 353.051C1400.55 352.019 1392.58 358.322 1391.55 367.127C1390.51 375.933 1396.82 383.907 1405.62 384.939C1414.43 385.97 1422.4 379.668 1423.43 370.862Z" stroke="white" stroke-width="1.35468" stroke-miterlimit="10"/>
<path d="M362.706 17.109C366.193 17.109 369.019 14.2827 369.019 10.7962C369.019 7.30973 366.193 4.4834 362.706 4.4834C359.22 4.4834 356.394 7.30973 356.394 10.7962C356.394 14.2827 359.22 17.109 362.706 17.109Z" fill="white"/>
<path d="M391.317 49.296C394.804 49.296 397.63 46.4697 397.63 42.9832C397.63 39.4967 394.804 36.6704 391.317 36.6704C387.831 36.6704 385.004 39.4967 385.004 42.9832C385.004 46.4697 387.831 49.296 391.317 49.296Z" fill="white"/>
<path d="M419.67 78.1915C423.157 78.1915 425.983 75.3652 425.983 71.8787C425.983 68.3923 423.157 65.5659 419.67 65.5659C416.184 65.5659 413.357 68.3923 413.357 71.8787C413.357 75.3652 416.184 78.1915 419.67 78.1915Z" fill="white"/>
<path d="M1311.64 89.8145V139.734L1328 156.085H1372.65V106.084L1356.39 89.8145H1311.64Z" fill="white"/>
<path d="M1316.51 96.073V137.066L1330.24 150.802H1367.8V108.766L1354.11 95.0977L1316.51 96.073Z" stroke="#00050B" stroke-width="1.35468" stroke-miterlimit="10"/>
<path d="M1311.64 58.7517H1359.99L1397.35 96.1273V139.734L1412.78 155.151H1440" stroke="white" stroke-width="1.35468" stroke-miterlimit="10"/>
<path d="M1311.64 65.0643C1315.13 65.0643 1317.96 62.238 1317.96 58.7515C1317.96 55.2651 1315.13 52.4387 1311.64 52.4387C1308.16 52.4387 1305.33 55.2651 1305.33 58.7515C1305.33 62.238 1308.16 65.0643 1311.64 65.0643Z" fill="white"/>
<path d="M1328.09 38.4858H1376.44L1413.8 75.8478V119.455L1429.04 134.695H1440" stroke="white" stroke-width="1.35468" stroke-miterlimit="10"/>
<path d="M1328.09 44.7984C1331.58 44.7984 1334.4 41.9721 1334.4 38.4856C1334.4 34.9992 1331.58 32.1729 1328.09 32.1729C1324.6 32.1729 1321.78 34.9992 1321.78 38.4856C1321.78 41.9721 1324.6 44.7984 1328.09 44.7984Z" fill="white"/>
<path d="M1321.24 101.045V134.451L1332.44 145.654H1363.05V111.394L1351.91 100.245L1321.24 101.045Z" stroke="#00050B" stroke-width="1.35468" stroke-miterlimit="10"/>
<path d="M972.117 367.431V383.484L948.599 407.015H918.566L898.964 387.412H774.374L754.623 367.661V346H972.117V367.431Z" fill="white"/>
<path d="M889.969 372.105V388.876" stroke="#00050B" stroke-width="1.35468" stroke-miterlimit="10"/>
<path d="M884.618 372.105V388.876" stroke="#00050B" stroke-width="1.35468" stroke-miterlimit="10"/>
<path d="M879.253 372.105V388.876" stroke="#00050B" stroke-width="1.35468" stroke-miterlimit="10"/>
<path d="M873.902 372.105V388.876" stroke="#00050B" stroke-width="1.35468" stroke-miterlimit="10"/>
<path d="M868.552 372.105V388.876" stroke="#00050B" stroke-width="1.35468" stroke-miterlimit="10"/>
<path d="M863.187 372.105V388.876" stroke="#00050B" stroke-width="1.35468" stroke-miterlimit="10"/>
<path d="M857.836 372.105V388.876" stroke="#00050B" stroke-width="1.35468" stroke-miterlimit="10"/>
<path d="M852.485 372.105V388.876" stroke="#00050B" stroke-width="1.35468" stroke-miterlimit="10"/>
<path d="M847.121 372.105V388.876" stroke="#00050B" stroke-width="1.35468" stroke-miterlimit="10"/>
<path d="M841.77 372.105V388.876" stroke="#00050B" stroke-width="1.35468" stroke-miterlimit="10"/>
<path d="M836.418 372.105V388.876" stroke="#00050B" stroke-width="1.35468" stroke-miterlimit="10"/>
<path d="M831.067 372.105V388.876" stroke="#00050B" stroke-width="1.35468" stroke-miterlimit="10"/>
<path d="M825.703 372.105V388.876" stroke="#00050B" stroke-width="1.35468" stroke-miterlimit="10"/>
<path d="M820.352 372.105V388.876" stroke="#00050B" stroke-width="1.35468" stroke-miterlimit="10"/>
<path d="M815.001 372.105V388.876" stroke="#00050B" stroke-width="1.35468" stroke-miterlimit="10"/>
<path d="M809.637 372.105V388.876" stroke="#00050B" stroke-width="1.35468" stroke-miterlimit="10"/>
<path d="M804.286 372.105V388.876" stroke="#00050B" stroke-width="1.35468" stroke-miterlimit="10"/>
<path d="M798.935 372.105V388.876" stroke="#00050B" stroke-width="1.35468" stroke-miterlimit="10"/>
<path d="M793.583 372.105V388.876" stroke="#00050B" stroke-width="1.35468" stroke-miterlimit="10"/>
<path d="M788.219 372.105V388.876" stroke="#00050B" stroke-width="1.35468" stroke-miterlimit="10"/>
<path d="M943.012 446L981.99 407.022H1164.99" stroke="white" stroke-width="1.35468" stroke-miterlimit="10"/>
<path d="M987.402 480.07V461.186L1004.3 444.306H1253.04L1294.26 403.07V384.348" stroke="white" stroke-width="1.35468" stroke-miterlimit="10"/>
<path d="M1208.14 413.863C1211.35 413.863 1213.95 411.037 1213.95 407.55C1213.95 404.064 1211.35 401.238 1208.14 401.238C1204.92 401.238 1202.32 404.064 1202.32 407.55C1202.32 411.037 1204.92 413.863 1208.14 413.863Z" fill="white"/>
<path d="M1187.12 413.863C1190.33 413.863 1192.94 411.037 1192.94 407.55C1192.94 404.064 1190.33 401.238 1187.12 401.238C1183.91 401.238 1181.31 404.064 1181.31 407.55C1181.31 411.037 1183.91 413.863 1187.12 413.863Z" fill="white"/>
<path d="M1166.1 413.863C1169.31 413.863 1171.91 411.037 1171.91 407.55C1171.91 404.064 1169.31 401.238 1166.1 401.238C1162.89 401.238 1160.29 404.064 1160.29 407.55C1160.29 411.037 1162.89 413.863 1166.1 413.863Z" fill="white"/>
<path d="M1350.84 386.34V407.256L1294.44 463.651V504" stroke="white" stroke-width="1.35468" stroke-miterlimit="10"/>
<rect x="-1" y="511" width="131" height="1441" transform="rotate(-90 -1 511)" fill="url(#paint0_linear_9652_22564)"/>
</g>
<defs>
<filter id="filter0_f_9652_22564" x="-17" y="0.483398" width="1461" height="514.517" filterUnits="userSpaceOnUse" color-interpolation-filters="sRGB">
<feFlood flood-opacity="0" result="BackgroundImageFix"/>
<feBlend mode="normal" in="SourceGraphic" in2="BackgroundImageFix" result="shape"/>
<feGaussianBlur stdDeviation="2" result="effect1_foregroundBlur_9652_22564"/>
</filter>
<linearGradient id="paint0_linear_9652_22564" x1="-1" y1="1131.74" x2="122.406" y2="1131.74" gradientUnits="userSpaceOnUse">
<stop stop-color="#00050B"/>
<stop offset="1" stop-color="#00050B" stop-opacity="0"/>
</linearGradient>
</defs>
</svg>
