<svg width="14" height="13" viewBox="0 0 14 13" fill="none" xmlns="http://www.w3.org/2000/svg">
<path d="M5 11.9999V3.44482C5 3.16868 5.22386 2.94482 5.5 2.94482H9.53651C9.65937 2.94482 9.77792 2.99006 9.86956 3.07189L12.833 5.71845C12.9393 5.81331 13 5.94896 13 6.09138V11.9999C13 12.276 12.7761 12.4999 12.5 12.4999H5.5C5.22386 12.4999 5 12.276 5 11.9999Z" stroke="white" stroke-linecap="round"/>
<path d="M9.5 6.28909V2.94482L13 6.28909H9.5Z" stroke="white" stroke-linecap="round" stroke-linejoin="round"/>
<path d="M8.5 2.46723L6.36816 0.621958C6.27729 0.543299 6.16112 0.500006 6.04093 0.500006H3.61364H1.5C1.22386 0.500006 1 0.723864 1 1.00001L1.00001 9.13349C1.00001 9.40963 1.22386 9.63349 1.50001 9.63349H4.50001" stroke="white" stroke-linecap="round"/>
</svg>
