<svg width="734" height="658" viewBox="0 0 734 658" fill="none" xmlns="http://www.w3.org/2000/svg">
<g opacity="0.5">
<g filter="url(#filter0_d_9678_18148)">
<path d="M643.977 148.449V154.65L639.684 158.945V590.656H643.977V638.836H648.748V643.846H654.477V650.287H597.209V644.919H603.294V639.195H607.946V148.449H643.977Z" stroke="white" stroke-width="0.378262" stroke-miterlimit="10"/>
<path d="M385.27 208.08H607.946V191.861H91.466V208.08H378.18" stroke="white" stroke-width="0.378262" stroke-miterlimit="10"/>
<path d="M606.514 32.4106H636.937V57.8121H606.514V32.4106Z" stroke="white" stroke-width="0.378262" stroke-miterlimit="10"/>
<path d="M622.262 57.8123H630.493V148.449H622.262V57.8123Z" stroke="white" stroke-width="0.378262" stroke-miterlimit="10"/>
<path d="M626.378 82.3185C625.44 82.3185 624.679 81.5583 624.679 80.6205C624.679 79.6828 625.44 78.9226 626.378 78.9226C627.316 78.9226 628.076 79.6828 628.076 80.6205C628.076 81.5583 627.316 82.3185 626.378 82.3185Z" stroke="white" stroke-width="0.378262" stroke-miterlimit="10"/>
<path d="M626.378 106.824C625.44 106.824 624.679 106.064 624.679 105.126C624.679 104.189 625.44 103.428 626.378 103.428C627.316 103.428 628.076 104.189 628.076 105.126C628.076 106.064 627.316 106.824 626.378 106.824Z" stroke="white" stroke-width="0.378262" stroke-miterlimit="10"/>
<path d="M626.378 127.846C625.44 127.846 624.679 127.086 624.679 126.148C624.679 125.21 625.44 124.45 626.378 124.45C627.316 124.45 628.076 125.21 628.076 126.148C628.076 127.086 627.316 127.846 626.378 127.846Z" stroke="white" stroke-width="0.378262" stroke-miterlimit="10"/>
<path d="M500.145 20.3731H639.126V17.5305H652.99V21.4375H647.302V25.3444L636.941 32.4065H500.145" stroke="white" stroke-width="0.378262" stroke-miterlimit="10"/>
<path d="M639.046 23.4648H495.239" stroke="white" stroke-width="0.378262" stroke-miterlimit="10"/>
<path d="M635.289 28.9514H491.482" stroke="white" stroke-width="0.378262" stroke-miterlimit="10"/>
<path d="M86.9364 59.9241L56.5127 59.9241V34.5226H86.9364V59.9241Z" stroke="white" stroke-width="0.378262" stroke-miterlimit="10"/>
<path d="M71.1837 150.561H62.9524L62.9524 59.9241H71.1837L71.1837 150.561Z" stroke="white" stroke-width="0.378262" stroke-miterlimit="10"/>
<path d="M67.068 84.4303C66.1299 84.4303 65.3693 83.6701 65.3693 82.7324C65.3693 81.7946 66.1299 81.0344 67.068 81.0344C68.0061 81.0344 68.7667 81.7946 68.7667 82.7324C68.7667 83.6701 68.0061 84.4303 67.068 84.4303Z" stroke="white" stroke-width="0.378262" stroke-miterlimit="10"/>
<path d="M67.068 108.936C66.1299 108.936 65.3693 108.176 65.3693 107.238C65.3693 106.3 66.1299 105.54 67.068 105.54C68.0061 105.54 68.7667 106.3 68.7667 107.238C68.7667 108.176 68.0061 108.936 67.068 108.936Z" stroke="white" stroke-width="0.378262" stroke-miterlimit="10"/>
<path d="M67.068 129.958C66.1299 129.958 65.3693 129.198 65.3693 128.26C65.3693 127.322 66.1299 126.562 67.068 126.562C68.0061 126.562 68.7667 127.322 68.7667 128.26C68.7667 129.198 68.0061 129.958 67.068 129.958Z" stroke="white" stroke-width="0.378262" stroke-miterlimit="10"/>
<path d="M71.5977 328.887H63.3665L63.3665 239.939H71.5977L71.5977 328.887Z" stroke="white" stroke-width="0.378262" stroke-miterlimit="10"/>
<path d="M67.4821 262.756C66.544 262.756 65.7835 261.996 65.7835 261.058C65.7835 260.12 66.544 259.36 67.4821 259.36C68.4203 259.36 69.1808 260.12 69.1808 261.058C69.1808 261.996 68.4203 262.756 67.4821 262.756Z" stroke="white" stroke-width="0.378262" stroke-miterlimit="10"/>
<path d="M67.4821 287.262C66.544 287.262 65.7835 286.502 65.7835 285.564C65.7835 284.626 66.544 283.866 67.4821 283.866C68.4203 283.866 69.1808 284.626 69.1808 285.564C69.1808 286.502 68.4203 287.262 67.4821 287.262Z" stroke="white" stroke-width="0.378262" stroke-miterlimit="10"/>
<path d="M67.4821 308.283C66.544 308.283 65.7835 307.523 65.7835 306.585C65.7835 305.648 66.544 304.887 67.4821 304.887C68.4203 304.887 69.1808 305.648 69.1808 306.585C69.1808 307.523 68.4203 308.283 67.4821 308.283Z" stroke="white" stroke-width="0.378262" stroke-miterlimit="10"/>
<path d="M193.305 22.4849C193.305 22.4849 55.3887 22.4849 54.3238 22.4849V19.6423H40.46V23.5493H46.1475V27.4562L56.5084 34.5183H193.305" stroke="white" stroke-width="0.378262" stroke-miterlimit="10"/>
<path d="M54.3999 25.5769H198.207" stroke="white" stroke-width="0.378262" stroke-miterlimit="10"/>
<path d="M58.1606 31.0632H201.967" stroke="white" stroke-width="0.378262" stroke-miterlimit="10"/>
<path d="M585.754 201.668C584.816 201.668 584.055 200.908 584.055 199.97C584.055 199.032 584.816 198.272 585.754 198.272C586.692 198.272 587.452 199.032 587.452 199.97C587.452 200.908 586.692 201.668 585.754 201.668Z" stroke="white" stroke-width="0.378262" stroke-miterlimit="10"/>
<path d="M514.647 201.668C513.709 201.668 512.948 200.908 512.948 199.97C512.948 199.032 513.709 198.272 514.647 198.272C515.585 198.272 516.345 199.032 516.345 199.97C516.345 200.908 515.585 201.668 514.647 201.668Z" stroke="white" stroke-width="0.378262" stroke-miterlimit="10"/>
<path d="M443.54 201.668C442.602 201.668 441.841 200.908 441.841 199.97C441.841 199.032 442.602 198.272 443.54 198.272C444.478 198.272 445.238 199.032 445.238 199.97C445.238 200.908 444.478 201.668 443.54 201.668Z" stroke="white" stroke-width="0.378262" stroke-miterlimit="10"/>
<path d="M372.433 201.668C371.495 201.668 370.734 200.908 370.734 199.97C370.734 199.032 371.495 198.272 372.433 198.272C373.371 198.272 374.132 199.032 374.132 199.97C374.132 200.908 373.371 201.668 372.433 201.668Z" stroke="white" stroke-width="0.378262" stroke-miterlimit="10"/>
<path d="M301.322 201.668C300.384 201.668 299.623 200.908 299.623 199.97C299.623 199.032 300.384 198.272 301.322 198.272C302.26 198.272 303.021 199.032 303.021 199.97C303.021 200.908 302.26 201.668 301.322 201.668Z" stroke="white" stroke-width="0.378262" stroke-miterlimit="10"/>
<path d="M230.215 201.668C229.277 201.668 228.516 200.908 228.516 199.97C228.516 199.032 229.277 198.272 230.215 198.272C231.153 198.272 231.914 199.032 231.914 199.97C231.914 200.908 231.153 201.668 230.215 201.668Z" stroke="white" stroke-width="0.378262" stroke-miterlimit="10"/>
<path d="M159.108 201.668C158.17 201.668 157.409 200.908 157.409 199.97C157.409 199.032 158.17 198.272 159.108 198.272C160.046 198.272 160.807 199.032 160.807 199.97C160.807 200.908 160.046 201.668 159.108 201.668Z" stroke="white" stroke-width="0.378262" stroke-miterlimit="10"/>
<path d="M47.9138 649.332H96.5917V639.791H91.3393V328.886H51.2519V337.828H56.0268V489.109L51.5224 493.612V641.223H47.9138V649.332Z" stroke="white" stroke-width="0.378262" stroke-miterlimit="10"/>
<path d="M56.5043 240.041H91.4661V150.835H50.7744V156.081L56.5043 161.804V240.041Z" stroke="white" stroke-width="0.378262" stroke-miterlimit="10"/>
<path d="M489.129 107.124L207.786 191.861" stroke="white" stroke-width="0.378262" stroke-miterlimit="10"/>
<path d="M517.021 128.733L544.234 120.302L535.643 93.114L508.135 101.397" stroke="white" stroke-width="0.378262" stroke-miterlimit="10"/>
<path d="M313.255 191.861L497.571 134.76" stroke="white" stroke-width="0.378262" stroke-miterlimit="10"/>
<path d="M488.123 104.028L506.998 97.8977L517.925 131.512L499.049 137.643L488.123 104.028Z" stroke="white" stroke-width="0.378262" stroke-miterlimit="10"/>
<path d="M523.711 96.7932C523.043 94.6644 524.23 92.3963 526.36 91.7289C528.49 91.0616 530.759 92.2442 531.426 94.3772L523.715 96.7932H523.711Z" stroke="white" stroke-width="0.378262" stroke-miterlimit="10"/>
<path d="M539.121 121.861C539.789 123.99 538.61 126.258 536.48 126.925C534.35 127.592 532.09 126.41 531.418 124.281L539.117 121.861H539.121Z" stroke="white" stroke-width="0.378262" stroke-miterlimit="10"/>
<path d="M528.735 94.4868L536.843 122.017" stroke="white" stroke-width="0.378262" stroke-miterlimit="10"/>
<path d="M526.001 95.5217L534.105 123.052" stroke="white" stroke-width="0.378262" stroke-miterlimit="10"/>
<path d="M513.138 99.737C512.471 97.6083 513.658 95.3401 515.788 94.6728C517.917 94.0054 520.186 95.1881 520.854 97.3211L513.142 99.737H513.138Z" stroke="white" stroke-width="0.378262" stroke-miterlimit="10"/>
<path d="M528.549 124.805C529.216 126.933 528.037 129.202 525.908 129.869C523.778 130.536 521.517 129.354 520.846 127.225L528.544 124.805H528.549Z" stroke="white" stroke-width="0.378262" stroke-miterlimit="10"/>
<path d="M518.471 98.4656L526.271 124.961" stroke="white" stroke-width="0.378262" stroke-miterlimit="10"/>
<path d="M515.428 98.4656L523.533 125.996" stroke="white" stroke-width="0.378262" stroke-miterlimit="10"/>
<path d="M454.374 117.675C453.719 115.542 454.915 113.282 457.049 112.623C459.183 111.964 461.443 113.164 462.098 115.297L454.374 117.675Z" stroke="white" stroke-width="0.378262" stroke-miterlimit="10"/>
<path d="M469.658 142.823C470.317 144.956 469.121 147.216 466.991 147.875C464.862 148.533 462.601 147.334 461.946 145.205L469.658 142.827V142.823Z" stroke="white" stroke-width="0.378262" stroke-miterlimit="10"/>
<path d="M459.715 116.429L467.38 142.962" stroke="white" stroke-width="0.378262" stroke-miterlimit="10"/>
<path d="M456.673 116.416L464.638 143.985" stroke="white" stroke-width="0.378262" stroke-miterlimit="10"/>
<path d="M372.619 142.24C371.934 140.018 373.181 137.666 375.403 136.982C377.626 136.297 379.98 137.543 380.664 139.765L372.623 142.24H372.619Z" stroke="white" stroke-width="0.378262" stroke-miterlimit="10"/>
<path d="M388.532 168.423C389.217 170.645 387.974 172.997 385.756 173.682C383.538 174.366 381.184 173.12 380.499 170.902L388.528 168.423H388.532Z" stroke="white" stroke-width="0.378262" stroke-miterlimit="10"/>
<path d="M378.18 140.948L386.162 168.571" stroke="white" stroke-width="0.378262" stroke-miterlimit="10"/>
<path d="M375.011 140.931L383.305 169.635" stroke="white" stroke-width="0.378262" stroke-miterlimit="10"/>
<path d="M361.231 145.805C360.547 143.583 361.793 141.231 364.016 140.546C366.238 139.862 368.592 141.108 369.277 143.33L361.235 145.805H361.231Z" stroke="white" stroke-width="0.378262" stroke-miterlimit="10"/>
<path d="M377.144 171.992C377.829 174.214 376.587 176.566 374.368 177.251C372.15 177.935 369.796 176.689 369.112 174.472L377.14 171.992H377.144Z" stroke="white" stroke-width="0.378262" stroke-miterlimit="10"/>
<path d="M366.788 144.512L374.774 172.14" stroke="white" stroke-width="0.378262" stroke-miterlimit="10"/>
<path d="M363.623 144.495L371.917 173.204" stroke="white" stroke-width="0.378262" stroke-miterlimit="10"/>
<path d="M319.056 157.982C318.372 155.697 319.618 153.277 321.841 152.571C324.064 151.866 326.417 153.15 327.102 155.435L319.061 157.982H319.056Z" stroke="white" stroke-width="0.378262" stroke-miterlimit="10"/>
<path d="M334.974 184.925C335.658 187.21 334.416 189.63 332.198 190.336C329.979 191.041 327.626 189.757 326.941 187.472L334.97 184.921L334.974 184.925Z" stroke="white" stroke-width="0.378262" stroke-miterlimit="10"/>
<path d="M324.617 156.652L332.599 185.077" stroke="white" stroke-width="0.378262" stroke-miterlimit="10"/>
<path d="M321.448 156.635L329.743 186.171" stroke="white" stroke-width="0.378262" stroke-miterlimit="10"/>
<path d="M503.022 119.474C502.084 119.474 501.324 118.714 501.324 117.776C501.324 116.839 502.084 116.078 503.022 116.078C503.96 116.078 504.721 116.839 504.721 117.776C504.721 118.714 503.96 119.474 503.022 119.474Z" stroke="white" stroke-width="0.378262" stroke-miterlimit="10"/>
<path d="M503.022 99.1919L500.567 91.5427L504.666 90.1954C504.26 88.5059 502.481 87.5386 500.842 88.1215L485.001 93.7602L488.123 104.028" stroke="white" stroke-width="0.378262" stroke-miterlimit="10"/>
<path d="M91.3393 590.656H607.946V608.784H91.3393V590.656Z" stroke="white" stroke-width="0.378262" stroke-miterlimit="10"/>
<path d="M515.124 608.784H560.937V650.287H515.124V608.784Z" stroke="white" stroke-width="0.378262" stroke-miterlimit="10"/>
<path d="M362.883 608.784H405.836V651.719H362.883V608.784Z" stroke="white" stroke-width="0.378262" stroke-miterlimit="10"/>
<path d="M538.031 617.844C536.584 617.844 535.411 616.672 535.411 615.226C535.411 613.779 536.584 612.607 538.031 612.607C539.478 612.607 540.651 613.779 540.651 615.226C540.651 616.672 539.478 617.844 538.031 617.844Z" stroke="white" stroke-width="0.378262" stroke-miterlimit="10"/>
<path d="M384.362 582.779C382.915 582.779 381.742 581.607 381.742 580.16C381.742 578.714 382.915 577.542 384.362 577.542C385.808 577.542 386.981 578.714 386.981 580.16C386.981 581.607 385.808 582.779 384.362 582.779Z" stroke="white" stroke-width="0.378262" stroke-miterlimit="10"/>
<path d="M384.362 616.472C382.915 616.472 381.742 615.299 381.742 613.853C381.742 612.407 382.915 611.234 384.362 611.234C385.808 611.234 386.981 612.407 386.981 613.853C386.981 615.299 385.808 616.472 384.362 616.472Z" stroke="white" stroke-width="0.378262" stroke-miterlimit="10"/>
<path d="M457.974 590.656H464.059V608.784H457.974V590.656Z" stroke="white" stroke-width="0.378262" stroke-miterlimit="10"/>
<path d="M462.956 608.78H459.077V616.987C459.077 618.056 459.948 618.926 461.017 618.926C462.086 618.926 462.956 618.056 462.956 616.987V608.78Z" stroke="white" stroke-width="0.378262" stroke-miterlimit="10"/>
<path d="M370.046 569.668H396.772V590.656H370.046V569.668Z" stroke="white" stroke-width="0.378262" stroke-miterlimit="10"/>
<path d="M370.046 231.931H392.952V569.668H370.046V231.931Z" stroke="white" stroke-width="0.378262" stroke-miterlimit="10"/>
<path d="M391.034 231.931V211.416H388.612L381.725 204.536L375.437 210.821H371.964V231.931" stroke="white" stroke-width="0.378262" stroke-miterlimit="10"/>
<path d="M383.305 231.931V569.668" stroke="white" stroke-width="0.378262" stroke-miterlimit="10"/>
<path d="M380.009 231.931V569.668" stroke="white" stroke-width="0.378262" stroke-miterlimit="10"/>
<path d="M534 126.9L539.307 173.867C539.307 173.867 532.74 174.809 532.787 174.497C532.833 174.184 527.678 128.733 527.678 128.733" stroke="white" stroke-width="0.378262" stroke-miterlimit="10"/>
<path d="M539.307 173.872L544.234 173.035V176.486L538.487 181.504H535.364L530.053 179.101L528.735 174.564L532.791 174.497" stroke="white" stroke-width="0.378262" stroke-miterlimit="10"/>
<path d="M533.497 181.504H538.487V190.906H533.497V181.504Z" stroke="white" stroke-width="0.378262" stroke-miterlimit="10"/>
<path d="M370.046 311.472C367.421 311.113 313.255 311.472 313.255 311.472V315.552L370.046 331.007V311.472Z" stroke="white" stroke-width="0.378262" stroke-miterlimit="10"/>
<path d="M302.37 325.905C296.349 325.905 291.468 321.026 291.468 315.008C291.468 308.989 296.349 304.11 302.37 304.11C308.391 304.11 313.272 308.989 313.272 315.008C313.272 321.026 308.391 325.905 302.37 325.905Z" stroke="white" stroke-width="0.378262" stroke-miterlimit="10"/>
<path d="M302.37 321.309C298.888 321.309 296.065 318.488 296.065 315.008C296.065 311.527 298.888 308.706 302.37 308.706C305.852 308.706 308.674 311.527 308.674 315.008C308.674 318.488 305.852 321.309 302.37 321.309Z" stroke="white" stroke-width="0.378262" stroke-miterlimit="10"/>
<path d="M324.617 295.815C321.135 295.815 318.313 292.993 318.313 289.513C318.313 286.033 321.135 283.211 324.617 283.211C328.099 283.211 330.922 286.033 330.922 289.513C330.922 292.993 328.099 295.815 324.617 295.815Z" stroke="white" stroke-width="0.378262" stroke-miterlimit="10"/>
<path d="M287.762 295.815C284.28 295.815 281.458 292.993 281.458 289.513C281.458 286.033 284.28 283.211 287.762 283.211C291.244 283.211 294.067 286.033 294.067 289.513C294.067 292.993 291.244 295.815 287.762 295.815Z" stroke="white" stroke-width="0.378262" stroke-miterlimit="10"/>
<path d="M382.169 225.114C380.267 225.114 378.725 223.573 378.725 221.672C378.725 219.77 380.267 218.229 382.169 218.229C384.07 218.229 385.612 219.77 385.612 221.672C385.612 223.573 384.07 225.114 382.169 225.114Z" stroke="white" stroke-width="0.378262" stroke-miterlimit="10"/>
<path d="M396.168 225.114H412.542V241.481H396.168V225.114Z" stroke="white" stroke-width="0.378262" stroke-miterlimit="10"/>
<path d="M400.44 241.481H408.392V278.582H400.44V241.481Z" stroke="white" stroke-width="0.378262" stroke-miterlimit="10"/>
<path d="M396.168 278.582H412.542V281.349H396.168V278.582Z" stroke="white" stroke-width="0.378262" stroke-miterlimit="10"/>
<path d="M406.854 281.344C406.744 282.725 406.854 301.111 406.854 301.111L392.952 315.007" stroke="white" stroke-width="0.378262" stroke-miterlimit="10"/>
<path d="M401.513 281.344C401.403 282.725 401.513 297.732 401.513 297.732L392.952 306.29" stroke="white" stroke-width="0.378262" stroke-miterlimit="10"/>
<path d="M369.272 243.855L341.65 227.04L311.281 224.502V221.49L341.65 221.672L370.046 231.931" stroke="white" stroke-width="0.378262" stroke-miterlimit="10"/>
<path d="M306.828 227.445C304.368 227.445 302.374 225.452 302.374 222.994C302.374 220.535 304.368 218.542 306.828 218.542C309.287 218.542 311.281 220.535 311.281 222.994C311.281 225.452 309.287 227.445 306.828 227.445Z" stroke="white" stroke-width="0.378262" stroke-miterlimit="10"/>
<path d="M302.911 225.114C299.851 227.585 294.067 237.266 294.067 237.266L302.374 245.109" stroke="white" stroke-width="0.378262" stroke-miterlimit="10"/>
<path d="M306.828 245.109L315.215 237.599L308.674 227.445" stroke="white" stroke-width="0.378262" stroke-miterlimit="10"/>
<path d="M302.37 244.167C302.37 242.935 303.368 241.937 304.599 241.937C305.83 241.937 306.828 242.935 306.828 244.167V252.226C306.828 253.458 305.83 254.456 304.599 254.456C303.368 254.456 302.37 253.458 302.37 252.226V244.167Z" stroke="white" stroke-width="0.378262" stroke-miterlimit="10"/>
<path d="M306.828 252.23L322.728 283.211" stroke="white" stroke-width="0.378262" stroke-miterlimit="10"/>
<path d="M302.37 252.23L287.762 283.211" stroke="white" stroke-width="0.378262" stroke-miterlimit="10"/>
<path d="M325.568 272.149C325.568 272.149 319.889 279.963 305.197 279.963C290.505 279.963 284.492 274.151 284.492 274.151" stroke="white" stroke-width="0.378262" stroke-miterlimit="10"/>
<path d="M318.532 291.156C318.532 291.156 312.515 293.813 304.597 293.813C296.678 293.813 293.847 291.156 293.847 291.156" stroke="white" stroke-width="0.378262" stroke-miterlimit="10"/>
<path d="M304.597 254.456V304.106" stroke="white" stroke-width="0.378262" stroke-miterlimit="10"/>
<path d="M228.899 27.277L228.864 25.0429C228.864 24.6882 228.872 24.377 228.888 24.109C228.911 23.8332 228.97 23.6953 229.065 23.6953H229.857C229.857 23.8214 229.869 24.0657 229.892 24.4282C229.916 24.7907 229.932 25.1571 229.94 25.5275C229.948 25.89 229.951 26.2013 229.951 26.4613C229.951 26.7214 229.948 27.0603 229.94 27.4779C229.932 27.8877 229.892 28.3408 229.821 28.8373C229.656 29.98 229.341 30.6853 228.876 30.9532C228.521 31.1502 227.958 31.1975 227.185 31.0951C226.405 30.9847 225.72 30.7562 225.129 30.4095C224.435 30.0075 224.037 29.5347 223.935 28.991C223.935 28.8097 223.994 28.6521 224.112 28.5181C224.325 28.266 224.518 28.1399 224.691 28.1399C224.699 28.5891 224.821 28.9594 225.058 29.251C225.609 29.913 226.496 30.244 227.717 30.244C227.922 30.244 228.123 30.2321 228.32 30.2085C228.706 30.0036 228.899 29.0264 228.899 27.277ZM238.952 29.1801C238.361 30.11 237.573 30.6853 236.588 30.9059C236.36 30.9532 236.151 30.9768 235.962 30.9768C235.78 30.9768 235.627 30.9768 235.501 30.9768C235.382 30.969 235.248 30.9493 235.099 30.9177C234.949 30.8862 234.811 30.835 234.685 30.7641C234.393 30.5986 234.248 30.3661 234.248 30.0667C234.216 29.9248 234.2 29.7672 234.2 29.5938C234.2 29.4126 234.24 29.1762 234.319 28.8846C234.397 28.593 234.539 28.2778 234.744 27.9389C234.957 27.6001 235.213 27.2888 235.512 27.0051C236.135 26.4062 236.809 26.02 237.534 25.8467C237.747 25.7994 237.94 25.7757 238.113 25.7757C238.294 25.7757 238.456 25.7876 238.598 25.8112C239.055 25.8112 239.362 26.1225 239.52 26.745C239.622 27.1391 239.681 27.6907 239.697 28.3999C239.721 29.1013 239.74 29.645 239.756 30.0312C239.78 30.4095 239.831 30.7562 239.91 31.0714H239.212C239.181 30.8586 239.157 30.6695 239.141 30.504C239.126 30.3385 239.11 30.1849 239.094 30.043C239.055 29.712 239.007 29.4244 238.952 29.1801ZM238.905 27.3479C238.905 26.8908 238.68 26.6623 238.231 26.6623C238.176 26.6544 238.121 26.6505 238.066 26.6505C237.49 26.6505 236.884 26.9263 236.245 27.4779C235.946 27.7301 235.69 28.0138 235.477 28.329C235.162 28.7782 235.004 29.1801 235.004 29.5347C235.004 29.9997 235.272 30.2755 235.808 30.3622C236.517 30.3464 237.195 30.0233 237.841 29.3929C238.117 29.1171 238.345 28.8176 238.527 28.4945C238.779 28.0611 238.905 27.6789 238.905 27.3479ZM245.199 30.9532C244.876 31.0872 244.659 31.1542 244.549 31.1542C244.446 31.1542 244.375 31.1423 244.336 31.1187C244.296 31.0951 244.253 31.0399 244.206 30.9532C244.206 30.6931 244.214 30.3661 244.229 29.9721C244.253 29.5781 244.273 29.1565 244.289 28.7073C244.304 28.2581 244.312 27.805 244.312 27.3479C244.312 26.8908 244.289 26.4732 244.241 26.0949C244.241 25.8427 244.411 25.7166 244.75 25.7166C244.828 25.7166 244.887 25.8585 244.927 26.1422C244.974 26.4259 245.006 26.6465 245.021 26.8041C245.045 26.9618 245.065 27.076 245.081 27.1469C245.285 26.7766 245.691 26.485 246.298 26.2722C246.621 26.1698 246.925 26.1185 247.208 26.1185C247.492 26.1185 247.74 26.154 247.953 26.2249C248.174 26.288 248.359 26.4101 248.509 26.5914C248.666 26.7647 248.745 26.9972 248.745 27.2888C248.95 26.9027 249.411 26.5559 250.128 26.2486C250.782 25.957 251.369 25.8112 251.889 25.8112C252.638 25.8112 253.004 26.0949 252.989 26.6623L253.237 31.0596C253.237 31.099 253.123 31.1266 252.894 31.1423C252.453 31.1739 252.232 31.1345 252.232 31.0241C252.224 30.8665 252.22 30.7089 252.22 30.5513L252.279 28.6482C252.279 27.7577 252.193 27.0524 252.019 26.5323C251.499 26.5717 251.097 26.6584 250.814 26.7923C250.538 26.9184 250.293 27.08 250.081 27.277C249.868 27.4661 249.679 27.7222 249.513 28.0453C249.143 28.7703 248.958 29.7317 248.958 30.9296C248.91 31.0951 248.757 31.1778 248.497 31.1778C248.323 31.1778 248.181 31.1502 248.071 31.0951C247.961 31.032 247.917 30.9768 247.941 30.9296C248.091 30.0942 248.166 29.4441 248.166 28.9792C248.166 28.6088 248.126 28.2581 248.048 27.9271C247.977 27.5883 247.886 27.2021 247.776 26.7687C246.641 26.7687 245.876 27.2218 245.482 28.1281C245.309 28.53 245.211 28.9082 245.187 29.2628C245.171 29.6096 245.163 29.909 245.163 30.1612C245.163 30.4055 245.175 30.6695 245.199 30.9532ZM259.802 30.3149C260.496 30.3149 261.54 29.9997 262.935 29.3692C263.022 29.3692 263.093 29.4008 263.148 29.4638C263.203 29.519 263.23 29.5859 263.23 29.6647C262.915 30.2006 262.312 30.6183 261.422 30.9177C260.531 31.2172 259.7 31.2684 258.928 31.0714C258.053 30.8429 257.521 30.3503 257.332 29.5938C257.316 29.4441 257.308 29.2431 257.308 28.991C257.308 28.7388 257.371 28.4078 257.497 27.998C257.631 27.5804 257.856 27.1863 258.171 26.816C258.486 26.4456 258.857 26.154 259.282 25.9412C259.708 25.7285 260.161 25.6221 260.642 25.6221C261.099 25.6221 261.611 25.7797 262.178 26.0949C262.446 26.2446 262.659 26.4141 262.817 26.6032C262.974 26.7923 263.053 26.9854 263.053 27.1824C263.053 27.2376 263.049 27.2927 263.041 27.3479C263.026 27.8286 262.793 28.132 262.344 28.2581C262.147 28.3133 261.918 28.3408 261.658 28.3408L259.956 28.2699C259.389 28.2699 258.955 28.3921 258.656 28.6364C258.482 28.7703 258.36 28.9713 258.289 29.2392C258.486 29.9563 258.991 30.3149 259.802 30.3149ZM261.907 26.6623C261.733 26.5362 261.552 26.4456 261.363 26.3904C261.174 26.3353 261.016 26.3077 260.89 26.3077C260.764 26.3077 260.559 26.351 260.275 26.4377C259.992 26.5165 259.739 26.6071 259.519 26.7096C258.975 26.9618 258.703 27.2258 258.703 27.5016C259.334 27.5567 259.806 27.5843 260.122 27.5843C260.996 27.5843 261.587 27.5094 261.895 27.3597C262.084 27.2809 262.178 27.1824 262.178 27.0642C262.178 26.9224 262.088 26.7884 261.907 26.6623ZM271.735 28.0926C272.602 28.0926 273.035 28.3133 273.035 28.7546C273.035 29.0855 272.795 29.4717 272.314 29.913C271.597 30.5671 270.631 31.0911 269.418 31.4851C269.363 31.4851 269.3 31.43 269.229 31.3196C269.166 31.2093 269.114 31.1266 269.075 31.0714C269.044 31.0084 269.02 30.969 269.004 30.9532C269.91 30.6537 270.655 30.2912 271.238 29.8657C271.632 29.582 271.829 29.3495 271.829 29.1683C271.829 28.987 271.597 28.8964 271.132 28.8964C270.667 28.8964 269.985 29.0067 269.087 29.2274C268.677 29.2116 268.322 29.0658 268.023 28.79C267.763 28.5457 267.633 28.3014 267.633 28.0571C267.633 27.805 267.704 27.5764 267.846 27.3715C267.988 27.1588 268.177 26.9618 268.413 26.7805C268.65 26.5993 268.925 26.4338 269.241 26.284C270.013 25.9137 270.813 25.7285 271.64 25.7285C271.884 25.7285 272.121 25.7521 272.349 25.7994C272.539 25.7994 272.649 25.8821 272.68 26.0476C272.712 26.2131 272.728 26.485 272.728 26.8632C272.263 26.6505 271.739 26.5441 271.156 26.5441C270.431 26.5441 269.832 26.6899 269.359 26.9815C268.87 27.2652 268.618 27.6355 268.602 28.0926C268.602 28.3133 268.764 28.4236 269.087 28.4236L269.95 28.329C270.691 28.1714 271.286 28.0926 271.735 28.0926ZM294.819 29.1801C295.213 27.9035 295.67 25.5709 296.19 22.1823C296.687 22.1823 296.947 22.3359 296.97 22.6433C296.978 22.7378 296.982 22.8048 296.982 22.8442C296.99 22.8836 296.978 23.0215 296.947 23.2579C296.915 23.4865 296.868 23.8096 296.805 24.2272C296.75 24.6449 296.679 25.1296 296.592 25.6812C296.506 26.2328 296.407 26.8081 296.297 27.407C296.029 28.8176 295.753 30.0075 295.469 30.9768C295.186 31.1739 294.965 31.2054 294.807 31.0714C294.736 31.0005 294.673 30.9059 294.618 30.7877C294.563 30.6616 294.5 30.5198 294.429 30.3622C294.327 30.2282 294.137 29.8736 293.862 29.2983C293.586 28.723 293.361 28.266 293.188 27.9271C293.022 27.5883 292.861 27.273 292.703 26.9815C292.341 26.3274 292.037 25.9452 291.793 25.8349C291.509 26.2762 291.005 27.4858 290.28 29.4638C290.154 29.8105 290.04 30.1336 289.937 30.4331C289.835 30.7247 289.748 30.9611 289.677 31.1423L288.944 31.1069L285.989 24.2745C285.973 24.2351 285.965 24.1957 285.965 24.1563C285.965 24.1169 285.977 24.0775 286.001 24.0381C286.032 23.9987 286.084 23.9632 286.155 23.9317C286.288 23.8844 286.422 23.8608 286.556 23.8608C286.69 23.8608 286.785 23.8884 286.84 23.9435C286.903 23.9908 286.95 24.0539 286.982 24.1327C287.021 24.2115 287.053 24.2982 287.077 24.3927C287.1 24.4873 287.144 24.6094 287.207 24.7592C287.277 24.9089 287.376 25.1296 287.502 25.4211C287.636 25.7127 287.778 26.02 287.928 26.3431C288.077 26.6662 288.227 26.9893 288.377 27.3124C288.527 27.6277 288.668 27.9192 288.802 28.1872C289.086 28.7782 289.263 29.1092 289.334 29.1801C290.248 26.9263 290.812 25.5906 291.025 25.1729C291.237 24.7473 291.371 24.4873 291.427 24.3927C291.513 24.2588 291.58 24.1918 291.628 24.1918C291.966 24.1918 292.538 24.9483 293.342 26.4613C293.562 26.8632 293.767 27.2494 293.956 27.6198C294.421 28.5181 294.709 29.0383 294.819 29.1801ZM305.9 29.1801C305.309 30.11 304.521 30.6853 303.536 30.9059C303.308 30.9532 303.099 30.9768 302.91 30.9768C302.728 30.9768 302.575 30.9768 302.449 30.9768C302.33 30.969 302.196 30.9493 302.047 30.9177C301.897 30.8862 301.759 30.835 301.633 30.7641C301.341 30.5986 301.196 30.3661 301.196 30.0667C301.164 29.9248 301.148 29.7672 301.148 29.5938C301.148 29.4126 301.188 29.1762 301.267 28.8846C301.345 28.593 301.487 28.2778 301.692 27.9389C301.905 27.6001 302.161 27.2888 302.46 27.0051C303.083 26.4062 303.757 26.02 304.482 25.8467C304.695 25.7994 304.888 25.7757 305.061 25.7757C305.242 25.7757 305.404 25.7876 305.546 25.8112C306.003 25.8112 306.31 26.1225 306.468 26.745C306.57 27.1391 306.629 27.6907 306.645 28.3999C306.669 29.1013 306.688 29.645 306.704 30.0312C306.728 30.4095 306.779 30.7562 306.858 31.0714H306.16C306.129 30.8586 306.105 30.6695 306.089 30.504C306.074 30.3385 306.058 30.1849 306.042 30.043C306.003 29.712 305.955 29.4244 305.9 29.1801ZM305.853 27.3479C305.853 26.8908 305.628 26.6623 305.179 26.6623C305.124 26.6544 305.069 26.6505 305.014 26.6505C304.438 26.6505 303.832 26.9263 303.193 27.4779C302.894 27.7301 302.638 28.0138 302.425 28.329C302.11 28.7782 301.952 29.1801 301.952 29.5347C301.952 29.9997 302.22 30.2755 302.756 30.3622C303.465 30.3464 304.143 30.0233 304.789 29.3929C305.065 29.1171 305.293 28.8176 305.475 28.4945C305.727 28.0611 305.853 27.6789 305.853 27.3479ZM312.951 30.0075L312.974 28.1162C312.974 27.8168 312.947 27.5607 312.891 27.3479H311.059L311.036 26.5323H312.809V23.4825C312.832 23.4116 312.88 23.3407 312.951 23.2698C313.061 23.1594 313.152 23.1043 313.222 23.1043C313.301 23.1043 313.368 23.1122 313.423 23.1279C313.479 23.1437 313.538 23.1988 313.601 23.2934C313.727 23.8135 313.79 24.5976 313.79 25.6457C313.79 25.9058 313.802 26.1619 313.825 26.4141C314.077 26.3825 314.33 26.3668 314.582 26.3668C314.582 26.3668 314.787 26.3668 315.197 26.3668C315.346 26.3668 315.484 26.3589 315.61 26.3431L315.575 27.1942L313.849 27.1469L313.908 31.2251C313.766 31.2881 313.644 31.3196 313.542 31.3196C313.148 31.3196 312.951 30.8823 312.951 30.0075ZM321.597 30.0075L321.62 28.1162C321.62 27.8168 321.593 27.5607 321.538 27.3479H319.705L319.682 26.5323H321.455V23.4825C321.478 23.4116 321.526 23.3407 321.597 23.2698C321.707 23.1594 321.798 23.1043 321.869 23.1043C321.947 23.1043 322.014 23.1122 322.07 23.1279C322.125 23.1437 322.184 23.1988 322.247 23.2934C322.373 23.8135 322.436 24.5976 322.436 25.6457C322.436 25.9058 322.448 26.1619 322.471 26.4141C322.724 26.3825 322.976 26.3668 323.228 26.3668C323.228 26.3668 323.433 26.3668 323.843 26.3668C323.992 26.3668 324.13 26.3589 324.256 26.3431L324.221 27.1942L322.495 27.1469L322.554 31.2251C322.412 31.2881 322.29 31.3196 322.188 31.3196C321.794 31.3196 321.597 30.8823 321.597 30.0075ZM337.683 28.5891C337.289 28.5891 337.092 28.4866 337.092 28.2817C337.092 28.1793 337.136 28.1084 337.222 28.069C337.317 28.0296 337.474 27.9941 337.695 27.9626C337.924 27.9311 338.207 27.8838 338.546 27.8207C338.893 27.7577 339.255 27.7065 339.634 27.6671C339.791 27.6671 339.925 27.6946 340.036 27.7498C340.193 27.8286 340.272 27.9232 340.272 28.0335C340.272 28.0729 340.252 28.1241 340.213 28.1872C340.181 28.2502 340.095 28.3054 339.953 28.3527L337.683 28.5891ZM353.025 30.1139C353.025 29.9642 353.084 29.8342 353.202 29.7239C353.328 29.6056 353.423 29.5268 353.486 29.4874C353.557 29.4402 353.604 29.4047 353.628 29.3811C353.667 30.0982 354.152 30.4567 355.082 30.4567C355.815 30.4567 356.67 30.2282 357.647 29.7711C358.34 29.4559 358.805 29.1328 359.042 28.8018C359.121 28.6994 359.16 28.6166 359.16 28.5536C359.16 28.4827 359.148 28.4275 359.125 28.3881L354.219 27.2888C354.077 27.2573 353.939 27.1903 353.805 27.0878C353.561 26.9145 353.439 26.7569 353.439 26.615C353.439 26.0713 353.825 25.5787 354.597 25.1374C355.448 24.6567 356.587 24.2942 358.013 24.0499C358.336 23.9948 358.577 23.9632 358.734 23.9554C358.782 23.9711 358.853 23.9869 358.947 24.0026C359.05 24.0105 359.152 24.0263 359.255 24.0499C359.499 24.1051 359.601 24.2075 359.562 24.3573C359.562 24.6252 359.05 24.838 358.025 24.9956C356.701 25.1926 355.874 25.3581 355.543 25.4921C355.22 25.626 354.983 25.7639 354.834 25.9058C354.692 26.0476 354.617 26.2171 354.609 26.4141C354.609 26.4535 354.7 26.4968 354.881 26.5441C355.062 26.5914 355.279 26.6505 355.531 26.7214C355.783 26.7844 356.11 26.8711 356.512 26.9815C357.489 27.2494 358.687 27.5883 360.106 27.998C360.184 28.1714 360.224 28.333 360.224 28.4827C360.224 28.9003 359.98 29.3022 359.491 29.6884C358.939 30.1218 358.175 30.4883 357.198 30.7877C356.386 31.032 355.74 31.1542 355.259 31.1542C354.857 31.1542 354.475 31.0832 354.113 30.9414C353.75 30.7995 353.478 30.6616 353.297 30.5277C353.116 30.3937 353.025 30.2558 353.025 30.1139ZM366.482 30.0075L366.506 28.1162C366.506 27.8168 366.478 27.5607 366.423 27.3479H364.591L364.567 26.5323H366.34V23.4825C366.364 23.4116 366.411 23.3407 366.482 23.2698C366.592 23.1594 366.683 23.1043 366.754 23.1043C366.833 23.1043 366.9 23.1122 366.955 23.1279C367.01 23.1437 367.069 23.1988 367.132 23.2934C367.258 23.8135 367.321 24.5976 367.321 25.6457C367.321 25.9058 367.333 26.1619 367.357 26.4141C367.609 26.3825 367.861 26.3668 368.113 26.3668C368.113 26.3668 368.318 26.3668 368.728 26.3668C368.878 26.3668 369.016 26.3589 369.142 26.3431L369.106 27.1942L367.381 27.1469L367.44 31.2251C367.298 31.2881 367.176 31.3196 367.073 31.3196C366.679 31.3196 366.482 30.8823 366.482 30.0075ZM375.755 30.3149C376.448 30.3149 377.492 29.9997 378.887 29.3692C378.974 29.3692 379.045 29.4008 379.1 29.4638C379.155 29.519 379.183 29.5859 379.183 29.6647C378.868 30.2006 378.265 30.6183 377.374 30.9177C376.484 31.2172 375.652 31.2684 374.88 31.0714C374.005 30.8429 373.473 30.3503 373.284 29.5938C373.268 29.4441 373.261 29.2431 373.261 28.991C373.261 28.7388 373.324 28.4078 373.45 27.998C373.584 27.5804 373.808 27.1863 374.124 26.816C374.439 26.4456 374.809 26.154 375.235 25.9412C375.66 25.7285 376.113 25.6221 376.594 25.6221C377.051 25.6221 377.563 25.7797 378.131 26.0949C378.399 26.2446 378.611 26.4141 378.769 26.6032C378.927 26.7923 379.005 26.9854 379.005 27.1824C379.005 27.2376 379.002 27.2927 378.994 27.3479C378.978 27.8286 378.745 28.132 378.296 28.2581C378.099 28.3133 377.871 28.3408 377.611 28.3408L375.908 28.2699C375.341 28.2699 374.908 28.3921 374.608 28.6364C374.435 28.7703 374.313 28.9713 374.242 29.2392C374.439 29.9563 374.943 30.3149 375.755 30.3149ZM377.859 26.6623C377.685 26.5362 377.504 26.4456 377.315 26.3904C377.126 26.3353 376.968 26.3077 376.842 26.3077C376.716 26.3077 376.511 26.351 376.228 26.4377C375.944 26.5165 375.692 26.6071 375.471 26.7096C374.927 26.9618 374.655 27.2258 374.655 27.5016C375.286 27.5567 375.759 27.5843 376.074 27.5843C376.949 27.5843 377.54 27.5094 377.847 27.3597C378.036 27.2809 378.131 27.1824 378.131 27.0642C378.131 26.9224 378.04 26.7884 377.859 26.6623ZM388.29 29.1801C387.699 30.11 386.911 30.6853 385.926 30.9059C385.697 30.9532 385.488 30.9768 385.299 30.9768C385.118 30.9768 384.964 30.9768 384.838 30.9768C384.72 30.969 384.586 30.9493 384.436 30.9177C384.287 30.8862 384.149 30.835 384.023 30.7641C383.731 30.5986 383.585 30.3661 383.585 30.0667C383.554 29.9248 383.538 29.7672 383.538 29.5938C383.538 29.4126 383.577 29.1762 383.656 28.8846C383.735 28.593 383.877 28.2778 384.082 27.9389C384.295 27.6001 384.551 27.2888 384.85 27.0051C385.473 26.4062 386.146 26.02 386.871 25.8467C387.084 25.7994 387.277 25.7757 387.451 25.7757C387.632 25.7757 387.793 25.7876 387.935 25.8112C388.392 25.8112 388.7 26.1225 388.857 26.745C388.96 27.1391 389.019 27.6907 389.035 28.3999C389.058 29.1013 389.078 29.645 389.094 30.0312C389.117 30.4095 389.169 30.7562 389.247 31.0714H388.55C388.518 30.8586 388.495 30.6695 388.479 30.504C388.463 30.3385 388.448 30.1849 388.432 30.043C388.392 29.712 388.345 29.4244 388.29 29.1801ZM388.243 27.3479C388.243 26.8908 388.018 26.6623 387.569 26.6623C387.514 26.6544 387.459 26.6505 387.403 26.6505C386.828 26.6505 386.221 26.9263 385.583 27.4779C385.284 27.7301 385.027 28.0138 384.815 28.329C384.499 28.7782 384.342 29.1801 384.342 29.5347C384.342 29.9997 384.61 30.2755 385.146 30.3622C385.855 30.3464 386.533 30.0233 387.179 29.3929C387.455 29.1171 387.683 28.8176 387.864 28.4945C388.117 28.0611 388.243 27.6789 388.243 27.3479ZM394.536 30.9532C394.213 31.0872 393.997 31.1542 393.886 31.1542C393.784 31.1542 393.713 31.1423 393.673 31.1187C393.634 31.0951 393.591 31.0399 393.543 30.9532C393.543 30.6931 393.551 30.3661 393.567 29.9721C393.591 29.5781 393.61 29.1565 393.626 28.7073C393.642 28.2581 393.65 27.805 393.65 27.3479C393.65 26.8908 393.626 26.4732 393.579 26.0949C393.579 25.8427 393.748 25.7166 394.087 25.7166C394.166 25.7166 394.225 25.8585 394.265 26.1422C394.312 26.4259 394.343 26.6465 394.359 26.8041C394.383 26.9618 394.402 27.076 394.418 27.1469C394.623 26.7766 395.029 26.485 395.636 26.2722C395.959 26.1698 396.262 26.1185 396.546 26.1185C396.83 26.1185 397.078 26.154 397.291 26.2249C397.511 26.288 397.696 26.4101 397.846 26.5914C398.004 26.7647 398.083 26.9972 398.083 27.2888C398.287 26.9027 398.749 26.5559 399.466 26.2486C400.12 25.957 400.707 25.8112 401.227 25.8112C401.976 25.8112 402.342 26.0949 402.326 26.6623L402.574 31.0596C402.574 31.099 402.46 31.1266 402.232 31.1423C401.79 31.1739 401.57 31.1345 401.57 31.0241C401.562 30.8665 401.558 30.7089 401.558 30.5513L401.617 28.6482C401.617 27.7577 401.53 27.0524 401.357 26.5323C400.837 26.5717 400.435 26.6584 400.151 26.7923C399.875 26.9184 399.631 27.08 399.418 27.277C399.206 27.4661 399.016 27.7222 398.851 28.0453C398.481 28.7703 398.295 29.7317 398.295 30.9296C398.248 31.0951 398.094 31.1778 397.834 31.1778C397.661 31.1778 397.519 31.1502 397.409 31.0951C397.299 31.032 397.255 30.9768 397.279 30.9296C397.429 30.0942 397.503 29.4441 397.503 28.9792C397.503 28.6088 397.464 28.2581 397.385 27.9271C397.314 27.5883 397.224 27.2021 397.113 26.7687C395.979 26.7687 395.214 27.2218 394.82 28.1281C394.647 28.53 394.548 28.9082 394.525 29.2628C394.509 29.6096 394.501 29.909 394.501 30.1612C394.501 30.4055 394.513 30.6695 394.536 30.9532ZM419.181 23.6362C419.969 23.6362 420.493 23.6874 420.753 23.7899V24.3691C420.54 24.4006 420.249 24.4203 419.879 24.4282C419.508 24.4282 419.114 24.4321 418.696 24.44C417.53 24.4637 416.734 24.5228 416.309 24.6173C416.175 25.2478 416.112 25.6772 416.12 25.9058C416.127 26.1343 416.135 26.3116 416.143 26.4377C416.175 26.745 416.19 27.1075 416.19 27.5252C416.726 27.5252 417.337 27.4779 418.023 27.3834C418.716 27.2888 419.252 27.2218 419.63 27.1824C420.009 27.1351 420.399 27.1115 420.801 27.1115V27.7616L416.273 28.329L416.344 30.2676C417.124 30.2676 417.92 30.2321 418.732 30.1612C419.551 30.0824 420.17 30.0273 420.588 29.9957C421.013 29.9563 421.462 29.9366 421.935 29.9366C421.935 30.0942 421.888 30.244 421.793 30.3858C421.604 30.638 421.435 30.7128 421.285 30.6104C419.898 30.7601 418.657 30.8783 417.562 30.965C416.474 31.0517 415.741 31.1108 415.363 31.1423L415.41 23.6007C415.615 23.6638 415.993 23.6953 416.545 23.6953L419.181 23.6362ZM430.853 28.5536C430.853 27.6158 430.802 26.9263 430.7 26.485C430.763 26.3668 430.668 26.3077 430.416 26.3077C430.148 26.3077 429.801 26.3747 429.376 26.5086C428.95 26.6426 428.603 26.7766 428.336 26.9105C427.697 27.2179 427.343 27.5173 427.272 27.8089V31.0241H426.48C426.377 30.7562 426.326 30.0036 426.326 28.7664C426.326 27.6631 426.346 26.8514 426.385 26.3313C426.432 25.8112 426.468 25.5157 426.491 25.4448C426.696 25.3108 426.862 25.2438 426.988 25.2438C427.185 25.2438 427.283 25.4763 427.283 25.9412C427.283 26.1225 427.272 26.2998 427.248 26.4732C427.232 26.6387 427.224 26.7529 427.224 26.816C428.501 25.8782 429.49 25.4093 430.191 25.4093C430.987 25.4093 431.44 26.0516 431.551 27.3361C431.598 27.7853 431.622 28.4078 431.622 29.2037L431.61 30.1376C431.61 30.4843 431.618 30.8192 431.633 31.1423C431.555 31.1896 431.492 31.2133 431.444 31.2133C431.421 31.2054 431.369 31.1936 431.291 31.1778C431.212 31.162 431.109 31.1502 430.983 31.1423C430.905 30.8271 430.861 30.508 430.853 30.1849C430.845 29.8539 430.841 29.5505 430.841 29.2747L430.853 28.5536ZM439.464 36.2016L439.298 36.1898C439.062 36.1898 438.81 36.2055 438.542 36.237H438.093C437.62 36.237 437.25 36.1464 436.982 35.9652C436.84 35.8706 436.769 35.7288 436.769 35.5396L439.488 35.4096C440.323 35.386 440.741 34.9368 440.741 34.062C440.741 34.0305 440.741 33.9754 440.741 33.8966C440.741 33.8256 440.741 33.6641 440.741 33.4119L440.8 29.6056C440.8 29.4717 440.796 29.3614 440.788 29.2747C439.511 30.4646 438.282 31.0596 437.1 31.0596C436.997 31.0596 436.895 31.0556 436.792 31.0478C436.264 31.0478 436 30.8153 436 30.3503C436.016 29.9878 436.123 29.5899 436.32 29.1565C436.517 28.7152 436.769 28.2936 437.076 27.8916C437.391 27.4819 437.746 27.1154 438.14 26.7923C438.747 26.2959 439.334 26.0476 439.901 26.0476C440.563 26.0476 441.107 26.3983 441.533 27.0997C441.659 28.9752 441.722 30.307 441.722 31.0951C441.722 31.8831 441.71 32.5293 441.686 33.0336C441.663 33.538 441.607 33.999 441.521 34.4167C441.442 34.8343 441.336 35.1653 441.202 35.4096C441.068 35.6539 440.91 35.8312 440.729 35.9415C440.429 36.1149 440.008 36.2016 439.464 36.2016ZM440.173 26.9105C440.079 26.879 439.945 26.8632 439.771 26.8632C439.606 26.8632 439.389 26.9342 439.121 27.076C438.853 27.2179 438.597 27.4031 438.353 27.6316C438.109 27.8522 437.88 28.1005 437.667 28.3763C437.147 29.054 436.887 29.5938 436.887 29.9957C436.887 30.1218 436.923 30.2164 436.993 30.2794C437.049 30.3109 437.116 30.3267 437.194 30.3267C437.281 30.3267 437.403 30.3149 437.561 30.2912C437.718 30.2597 437.931 30.1888 438.199 30.0785C438.475 29.9603 438.759 29.8105 439.05 29.6293C439.342 29.448 439.606 29.2471 439.842 29.0264C440.394 28.5221 440.67 28.0296 440.67 27.5488C440.67 27.2573 440.504 27.0445 440.173 26.9105ZM447.105 25.5866C447.208 27.0603 447.294 28.7664 447.365 30.705C447.318 30.9493 447.129 31.0714 446.798 31.0714C446.711 31.0714 446.621 31.0556 446.526 31.0241C446.439 30.9847 446.384 30.9335 446.361 30.8705V25.5866H447.105ZM446.006 23.979C446.006 23.7032 446.168 23.5653 446.491 23.5653C446.703 23.5653 446.877 23.6126 447.011 23.7071C447.034 23.7938 447.046 23.8805 447.046 23.9672C447.046 24.046 447.015 24.1248 446.952 24.2036C446.889 24.2824 446.794 24.3218 446.668 24.3218C446.542 24.3218 446.416 24.2942 446.29 24.2391C446.164 24.176 446.069 24.0893 446.006 23.979ZM456.236 28.5536C456.236 27.6158 456.185 26.9263 456.082 26.485C456.145 26.3668 456.051 26.3077 455.799 26.3077C455.531 26.3077 455.184 26.3747 454.758 26.5086C454.333 26.6426 453.986 26.7766 453.718 26.9105C453.08 27.2179 452.725 27.5173 452.654 27.8089V31.0241H451.862C451.76 30.7562 451.709 30.0036 451.709 28.7664C451.709 27.6631 451.728 26.8514 451.768 26.3313C451.815 25.8112 451.851 25.5157 451.874 25.4448C452.079 25.3108 452.245 25.2438 452.371 25.2438C452.568 25.2438 452.666 25.4763 452.666 25.9412C452.666 26.1225 452.654 26.2998 452.631 26.4732C452.615 26.6387 452.607 26.7529 452.607 26.816C453.884 25.8782 454.873 25.4093 455.574 25.4093C456.37 25.4093 456.823 26.0516 456.933 27.3361C456.981 27.7853 457.004 28.4078 457.004 29.2037L456.993 30.1376C456.993 30.4843 457 30.8192 457.016 31.1423C456.937 31.1896 456.874 31.2133 456.827 31.2133C456.803 31.2054 456.752 31.1936 456.673 31.1778C456.595 31.162 456.492 31.1502 456.366 31.1423C456.287 30.8271 456.244 30.508 456.236 30.1849C456.228 29.8539 456.224 29.5505 456.224 29.2747L456.236 28.5536ZM463.842 30.3149C464.535 30.3149 465.58 29.9997 466.974 29.3692C467.061 29.3692 467.132 29.4008 467.187 29.4638C467.242 29.519 467.27 29.5859 467.27 29.6647C466.955 30.2006 466.352 30.6183 465.461 30.9177C464.571 31.2172 463.74 31.2684 462.967 31.0714C462.093 30.8429 461.561 30.3503 461.371 29.5938C461.356 29.4441 461.348 29.2431 461.348 28.991C461.348 28.7388 461.411 28.4078 461.537 27.998C461.671 27.5804 461.896 27.1863 462.211 26.816C462.526 26.4456 462.896 26.154 463.322 25.9412C463.747 25.7285 464.201 25.6221 464.681 25.6221C465.138 25.6221 465.651 25.7797 466.218 26.0949C466.486 26.2446 466.699 26.4141 466.856 26.6032C467.014 26.7923 467.093 26.9854 467.093 27.1824C467.093 27.2376 467.089 27.2927 467.081 27.3479C467.065 27.8286 466.833 28.132 466.383 28.2581C466.186 28.3133 465.958 28.3408 465.698 28.3408L463.996 28.2699C463.428 28.2699 462.995 28.3921 462.695 28.6364C462.522 28.7703 462.4 28.9713 462.329 29.2392C462.526 29.9563 463.03 30.3149 463.842 30.3149ZM465.946 26.6623C465.773 26.5362 465.591 26.4456 465.402 26.3904C465.213 26.3353 465.056 26.3077 464.929 26.3077C464.803 26.3077 464.599 26.351 464.315 26.4377C464.031 26.5165 463.779 26.6071 463.558 26.7096C463.015 26.9618 462.743 27.2258 462.743 27.5016C463.373 27.5567 463.846 27.5843 464.161 27.5843C465.036 27.5843 465.627 27.5094 465.934 27.3597C466.123 27.2809 466.218 27.1824 466.218 27.0642C466.218 26.9224 466.127 26.7884 465.946 26.6623Z" fill="white" fill-opacity="0.7"/>
</g>
<path d="M248.588 208.08C245.723 209.153 214.944 221.676 214.944 221.676L209.218 208.08" stroke="white" stroke-width="0.567392" stroke-miterlimit="10"/>
<path d="M650.505 278.354V309.208" stroke="white" stroke-width="0.567392" stroke-miterlimit="10"/>
<path d="M643.977 590.656H684.064V522.443H750.401V589.926H810.53V418.924" stroke="white" stroke-width="0.567392" stroke-miterlimit="10"/>
<path d="M639.684 415.313H813.872V419.131H639.684V415.313Z" stroke="white" stroke-width="0.567392" stroke-miterlimit="10"/>
<path d="M783.33 415.313C783.33 415.313 778.678 348.324 715.684 348.324C652.69 348.324 651.258 415.313 651.258 415.313" stroke="white" stroke-width="0.567392" stroke-miterlimit="10"/>
<path d="M777.212 415.414C774.752 399.491 763.546 353.824 715.937 353.824C669.778 353.824 659.197 398.186 657.025 415.313" stroke="white" stroke-width="0.567392" stroke-miterlimit="10"/>
<path d="M750.401 528.166C749.606 528.006 684.064 528.166 684.064 528.166" stroke="white" stroke-width="0.567392" stroke-miterlimit="10"/>
<path d="M741.65 522.443V487.779C741.65 487.779 737.83 479.67 715.244 479.67C692.659 479.67 687.407 489.367 687.407 489.367V521.328" stroke="white" stroke-width="0.567392" stroke-miterlimit="10"/>
<path d="M741.65 487.779L732.379 500.18C732.379 500.18 726.142 497.317 715.722 497.317C705.302 497.317 699.335 501.054 699.335 501.054L687.403 489.367" stroke="white" stroke-width="0.567392" stroke-miterlimit="10"/>
<path d="M732.379 500.18V522.443" stroke="white" stroke-width="0.567392" stroke-miterlimit="10"/>
<path d="M699.335 501.054V522.443" stroke="white" stroke-width="0.567392" stroke-miterlimit="10"/>
<path d="M658.327 464.946H675.474V469.17H658.327V464.946Z" stroke="white" stroke-width="0.567392" stroke-miterlimit="10"/>
<path d="M664.788 469.165H681.935V473.389H664.788V469.165Z" stroke="white" stroke-width="0.567392" stroke-miterlimit="10"/>
<path d="M746.463 242.423L753.654 241.164V225.828H734.048V240.569L740.205 242.423" stroke="white" stroke-width="0.567392" stroke-miterlimit="10"/>
<path d="M725.584 236.539H734.048V239.242H725.584V236.539Z" stroke="white" stroke-width="0.567392" stroke-miterlimit="10"/>
<path d="M757.5 214.597H717.353V217.3H757.5" stroke="white" stroke-width="0.567392" stroke-miterlimit="10"/>
<path d="M722.242 231.133H725.584V242.423H722.242V231.133Z" stroke="white" stroke-width="0.567392" stroke-miterlimit="10"/>
<path d="M714.767 218.534C713.339 218.534 712.181 217.376 712.181 215.949C712.181 214.521 713.339 213.364 714.767 213.364C716.195 213.364 717.353 214.521 717.353 215.949C717.353 217.376 716.195 218.534 714.767 218.534Z" stroke="white" stroke-width="0.567392" stroke-miterlimit="10"/>
<path d="M726.856 339.184C725.428 339.184 724.27 338.027 724.27 336.599C724.27 335.172 725.428 334.014 726.856 334.014C728.284 334.014 729.442 335.172 729.442 336.599C729.442 338.027 728.284 339.184 726.856 339.184Z" stroke="white" stroke-width="0.567392" stroke-miterlimit="10"/>
<path d="M655.749 283.596C652.853 283.596 650.505 281.249 650.505 278.354C650.505 275.459 652.853 273.113 655.749 273.113C658.645 273.113 660.993 275.459 660.993 278.354C660.993 281.249 658.645 283.596 655.749 283.596Z" stroke="white" stroke-width="0.567392" stroke-miterlimit="10"/>
<path d="M715.05 280.588H722.242V282.975H715.05V280.588Z" stroke="white" stroke-width="0.567392" stroke-miterlimit="10"/>
<path d="M714.767 218.534V327.696" stroke="white" stroke-width="0.567392" stroke-miterlimit="10"/>
<path d="M715.054 316.203H746.462V319.443H715.054V316.203Z" stroke="white" stroke-width="0.567392" stroke-miterlimit="10"/>
<path d="M710.66 327.696H719.964V336.996H710.66V327.696Z" stroke="white" stroke-width="0.567392" stroke-miterlimit="10"/>
<path d="M706.996 336.996H723.915V348.324H706.996V336.996Z" stroke="white" stroke-width="0.567392" stroke-miterlimit="10"/>
<path d="M726.856 316.203V334.015" stroke="white" stroke-width="0.567392" stroke-miterlimit="10"/>
<path d="M710.66 327.696H719.964V332.346H710.66V327.696Z" stroke="white" stroke-width="0.567392" stroke-miterlimit="10"/>
<path d="M701.004 334.014C701.004 334.014 696.948 323.337 686.688 317.825C676.429 312.313 661.395 312.072 661.395 312.072L657.021 309.208H648.27C648.27 309.208 645.405 310.079 645.405 316.203C645.405 322.327 647.793 323.996 647.793 323.996H657.021L660.917 321.609C660.917 321.609 674.075 320.655 682.869 327.692C690.31 333.647 694.256 341.355 694.256 341.355" stroke="white" stroke-width="0.567392" stroke-miterlimit="10"/>
<path d="M706.992 336.996V332.346H705.775C702.72 332.346 699.792 333.558 697.628 335.716C695.469 337.875 694.256 340.806 694.256 343.86V351.382" stroke="white" stroke-width="0.567392" stroke-miterlimit="10"/>
<path d="M657.021 309.208C657.021 309.208 654.477 311.734 654.477 315.7C654.477 319.666 657.021 323.996 657.021 323.996" stroke="white" stroke-width="0.567392" stroke-miterlimit="10"/>
<path d="M660.993 278.354V312.072" stroke="white" stroke-width="0.567392" stroke-miterlimit="10"/>
<path d="M660.917 321.609V331.468C660.917 331.468 664.335 333.136 664.335 336.595V348.32H657.017V336.992C657.017 336.992 656.434 331.476 660.913 331.468" stroke="white" stroke-width="0.567392" stroke-miterlimit="10"/>
<path d="M658.327 385.109L651.253 379.014V323.996" stroke="white" stroke-width="0.567392" stroke-miterlimit="10"/>
<path d="M651.253 379.014C649.703 379.969 639.68 386.169 639.68 386.169" stroke="white" stroke-width="0.567392" stroke-miterlimit="10"/>
<path d="M674.282 343.86H694.26V346.179H674.282V343.86Z" stroke="white" stroke-width="0.567392" stroke-miterlimit="10"/>
<path d="M223.653 479.387C213.533 476.688 206.075 467.459 206.075 456.494C206.075 445.529 213.883 435.87 224.363 433.424" stroke="white" stroke-width="0.567392" stroke-miterlimit="10"/>
<path d="M235.045 433.386C245.6 435.781 253.476 445.217 253.476 456.49C253.476 467.763 245.385 477.452 234.618 479.687" stroke="white" stroke-width="0.567392" stroke-miterlimit="10"/>
<path d="M224.029 474.255C216.529 471.83 211.107 464.794 211.107 456.494C211.107 448.194 216.605 441.061 224.181 438.683" stroke="white" stroke-width="0.567392" stroke-miterlimit="10"/>
<path d="M235.193 438.624C242.866 440.942 248.452 448.064 248.452 456.49C248.452 464.916 242.613 472.358 234.673 474.504" stroke="white" stroke-width="0.567392" stroke-miterlimit="10"/>
<path d="M234.842 478.875C244.227 481.401 251.131 489.963 251.131 500.142C251.131 512.302 241.269 522.164 229.099 522.164C216.93 522.164 207.068 512.306 207.068 500.142C207.068 489.912 214.048 481.308 223.505 478.837" stroke="white" stroke-width="0.567392" stroke-miterlimit="10"/>
<path d="M234.673 483.357C241.708 485.689 246.787 492.32 246.787 500.138C246.787 509.899 238.869 517.814 229.104 517.814C219.339 517.814 211.42 509.899 211.42 500.138C211.42 492.265 216.567 485.596 223.682 483.306" stroke="white" stroke-width="0.567392" stroke-miterlimit="10"/>
<path d="M246.783 448.786L235.188 452.08" stroke="white" stroke-width="0.567392" stroke-miterlimit="10"/>
<path d="M248.063 452.697C247.489 453.086 235.193 455.831 235.193 455.831L244.776 467.607" stroke="white" stroke-width="0.567392" stroke-miterlimit="10"/>
<path d="M240.986 471.416L234.77 463.543" stroke="white" stroke-width="0.567392" stroke-miterlimit="10"/>
<path d="M215.73 444.199C215.73 444.199 222.127 451.708 223.501 453.82L211.416 457.938" stroke="white" stroke-width="0.567392" stroke-miterlimit="10"/>
<path d="M224.079 446.75L219.613 440.837" stroke="white" stroke-width="0.567392" stroke-miterlimit="10"/>
<path d="M224.367 457.943L212.058 462.386" stroke="white" stroke-width="0.567392" stroke-miterlimit="10"/>
<path d="M94.8718 467.606C94.6099 464.185 94.4789 460.73 94.4789 457.246C94.4789 384.555 152.106 325.322 224.185 322.703" stroke="white" stroke-width="0.567392" stroke-miterlimit="10"/>
<path d="M141.868 559.776C120.622 541.682 105.068 517.108 98.2691 489.109" stroke="white" stroke-width="0.567392" stroke-miterlimit="10"/>
<path d="M304.313 569.001C282.848 583.451 256.996 591.886 229.171 591.886C201.346 591.886 176.53 583.789 155.326 569.867" stroke="white" stroke-width="0.567392" stroke-miterlimit="10"/>
<path d="M329.122 547.6C325.331 551.76 321.271 555.684 316.956 559.363" stroke="white" stroke-width="0.567392" stroke-miterlimit="10"/>
<path d="M360.196 488.573C357.217 501.063 352.594 512.796 346.509 523.575" stroke="white" stroke-width="0.567392" stroke-miterlimit="10"/>
<path d="M236.752 322.822C307.614 326.754 363.864 385.434 363.864 457.246C363.864 460.73 363.733 464.185 363.471 467.607" stroke="white" stroke-width="0.567392" stroke-miterlimit="10"/>
<path d="M103.221 467.315C102.959 463.995 102.824 460.638 102.824 457.25C102.824 388.699 157.464 332.908 225.584 331.011" stroke="white" stroke-width="0.567392" stroke-miterlimit="10"/>
<path d="M145.341 551.739C126.762 535.258 113.075 513.383 106.741 488.573" stroke="white" stroke-width="0.567392" stroke-miterlimit="10"/>
<path d="M299.674 562.062C279.535 575.624 255.276 583.539 229.171 583.539C203.066 583.539 179.268 575.776 159.248 562.45" stroke="white" stroke-width="0.567392" stroke-miterlimit="10"/>
<path d="M327.457 536.753C323.083 542.117 318.253 547.122 312.997 551.739" stroke="white" stroke-width="0.567392" stroke-miterlimit="10"/>
<path d="M351.622 488.468C349.472 496.923 346.526 504.987 342.846 512.593" stroke="white" stroke-width="0.567392" stroke-miterlimit="10"/>
<path d="M235.987 331.138C302.594 334.678 355.514 389.785 355.514 457.246C355.514 460.735 355.375 464.19 355.096 467.607" stroke="white" stroke-width="0.567392" stroke-miterlimit="10"/>
<path d="M221.388 218.234C221.388 218.234 220.196 222.356 221.388 225.114C222.579 227.872 226.877 231.931 226.877 231.931L223.534 488.468V491.673H234.512L236.9 231.931L237.808 230.981C241.146 227.479 242.524 222.483 241.235 217.824C240.559 215.383 239.228 213.292 236.71 212.848" stroke="white" stroke-width="0.567392" stroke-miterlimit="10"/>
<path d="M224.363 417.729H235.188V424.651H224.363V417.729Z" stroke="white" stroke-width="0.567392" stroke-miterlimit="10"/>
<path d="M229.099 502.406C227.849 502.406 226.835 501.392 226.835 500.142C226.835 498.892 227.849 497.878 229.099 497.878C230.35 497.878 231.364 498.892 231.364 500.142C231.364 501.392 230.35 502.406 229.099 502.406Z" stroke="white" stroke-width="0.567392" stroke-miterlimit="10"/>
<path d="M217.213 437.086L144.281 364.733" stroke="white" stroke-width="0.567392" stroke-miterlimit="10"/>
<path d="M212.058 442.062L139.121 369.709" stroke="white" stroke-width="0.567392" stroke-miterlimit="10"/>
<path d="M213.499 438.682L140.562 366.33" stroke="white" stroke-width="0.567392" stroke-miterlimit="10"/>
<path d="M352.632 430.32L253.481 456.494" stroke="white" stroke-width="0.567392" stroke-miterlimit="10"/>
<path d="M351.673 424.651L253.067 452.08" stroke="white" stroke-width="0.567392" stroke-miterlimit="10"/>
<path d="M349.645 419.093L251.389 446.75" stroke="white" stroke-width="0.567392" stroke-miterlimit="10"/>
<path d="M259.865 334.711C259.329 336.874 235.188 417.729 235.188 417.729" stroke="white" stroke-width="0.567392" stroke-miterlimit="10"/>
<path d="M267.23 336.789L240.466 435.341" stroke="white" stroke-width="0.567392" stroke-miterlimit="10"/>
<path d="M263.385 334.711L235.045 433.386" stroke="white" stroke-width="0.567392" stroke-miterlimit="10"/>
<path d="M187.723 576.583C188.936 574.437 208.707 509.797 208.707 509.797" stroke="white" stroke-width="0.567392" stroke-miterlimit="10"/>
<path d="M212.84 514.997L193.592 578.463" stroke="white" stroke-width="0.567392" stroke-miterlimit="10"/>
<path d="M217.213 518.676L198.215 579.717" stroke="white" stroke-width="0.567392" stroke-miterlimit="10"/>
<path d="M315.034 590.656L260.491 489.109" stroke="white" stroke-width="0.567392" stroke-miterlimit="10"/>
<path d="M329.122 581.339L279.341 488.468" stroke="white" stroke-width="0.567392" stroke-miterlimit="10"/>
<path d="M198.215 489.109L144.281 590.656" stroke="white" stroke-width="0.567392" stroke-miterlimit="10"/>
<path d="M124.391 591.881L180.747 489.109" stroke="white" stroke-width="0.567392" stroke-miterlimit="10"/>
<path d="M349.645 445.639H321.368V462.335L326.379 467.345H342.842L349.645 462.335V445.639Z" stroke="white" stroke-width="0.567392" stroke-miterlimit="10"/>
<path d="M329.122 467.345H342.842V520.416H329.122V467.345Z" stroke="white" stroke-width="0.567392" stroke-miterlimit="10"/>
<path d="M329.122 537.585H342.842V590.656H329.122V537.585Z" stroke="white" stroke-width="0.567392" stroke-miterlimit="10"/>
<path d="M342.842 520.416L346.007 523.575H351.673V531.862H347.257L342.364 536.753H326.616L321.368 531.503V524.348L329.122 520.416" stroke="white" stroke-width="0.567392" stroke-miterlimit="10"/>
<path d="M329.122 493.878H342.842V496.801H329.122V493.878Z" stroke="white" stroke-width="0.567392" stroke-miterlimit="10"/>
<path d="M329.122 546.89H342.842V549.813H329.122V546.89Z" stroke="white" stroke-width="0.567392" stroke-miterlimit="10"/>
<path d="M342.842 472.591H355.966V483.087H342.842V472.591Z" stroke="white" stroke-width="0.567392" stroke-miterlimit="10"/>
<path d="M312.536 473.786H329.122V483.087H312.536V473.786Z" stroke="white" stroke-width="0.567392" stroke-miterlimit="10"/>
<path d="M351.673 480.105C350.422 480.105 349.408 479.091 349.408 477.841C349.408 476.59 350.422 475.577 351.673 475.577C352.924 475.577 353.938 476.59 353.938 477.841C353.938 479.091 352.924 480.105 351.673 480.105Z" stroke="white" stroke-width="0.567392" stroke-miterlimit="10"/>
<path d="M319.099 480.105C317.848 480.105 316.834 479.091 316.834 477.841C316.834 476.59 317.848 475.577 319.099 475.577C320.349 475.577 321.363 476.59 321.363 477.841C321.363 479.091 320.349 480.105 319.099 480.105Z" stroke="white" stroke-width="0.567392" stroke-miterlimit="10"/>
<path d="M370.046 468.126C368.613 468.604 342.842 468.126 342.842 468.126" stroke="white" stroke-width="0.567392" stroke-miterlimit="10"/>
<path d="M329.122 468.232H250.371" stroke="white" stroke-width="0.567392" stroke-miterlimit="10"/>
<path d="M370.046 488.468C368.613 488.945 342.842 488.468 342.842 488.468" stroke="white" stroke-width="0.567392" stroke-miterlimit="10"/>
<path d="M329.122 488.573H248.448" stroke="white" stroke-width="0.567392" stroke-miterlimit="10"/>
<path d="M210.034 489.11H91.3393" stroke="white" stroke-width="0.567392" stroke-miterlimit="10"/>
<path d="M208.707 467.345H91.3393" stroke="white" stroke-width="0.567392" stroke-miterlimit="10"/>
<path d="M226.628 246.478H236.765V251.014H226.628V246.478Z" stroke="white" stroke-width="0.567392" stroke-miterlimit="10"/>
<path d="M231.918 224.683C230.254 224.683 228.905 223.335 228.905 221.672C228.905 220.008 230.254 218.66 231.918 218.66C233.582 218.66 234.931 220.008 234.931 221.672C234.931 223.335 233.582 224.683 231.918 224.683Z" stroke="white" stroke-width="0.567392" stroke-miterlimit="10"/>
<path d="M509.766 322.821H563.215V326.302H509.766V322.821Z" stroke="white" stroke-width="0.567392" stroke-miterlimit="10"/>
<path d="M509.766 374.482H563.215V377.962H509.766V374.482Z" stroke="white" stroke-width="0.567392" stroke-miterlimit="10"/>
<path d="M509.766 404.145H563.215V407.626H509.766V404.145Z" stroke="white" stroke-width="0.567392" stroke-miterlimit="10"/>
<path d="M559.032 326.429V374.482" stroke="white" stroke-width="0.567392" stroke-miterlimit="10"/>
<path d="M538.72 326.429V419.131" stroke="white" stroke-width="0.567392" stroke-miterlimit="10"/>
<path d="M535.572 326.429V419.131" stroke="white" stroke-width="0.567392" stroke-miterlimit="10"/>
<path d="M514.161 326.429V374.482" stroke="white" stroke-width="0.567392" stroke-miterlimit="10"/>
<path d="M559.032 377.962V404.145" stroke="white" stroke-width="0.567392" stroke-miterlimit="10"/>
<path d="M514.161 377.962V404.145" stroke="white" stroke-width="0.567392" stroke-miterlimit="10"/>
<path d="M559.032 407.625V432.761H543.968" stroke="white" stroke-width="0.567392" stroke-miterlimit="10"/>
<path d="M514.161 407.625V432.761H529.487" stroke="white" stroke-width="0.567392" stroke-miterlimit="10"/>
<path d="M536.911 431.084C533.548 431.084 530.822 428.359 530.822 424.998C530.822 421.636 533.548 418.911 536.911 418.911C540.274 418.911 543 421.636 543 424.998C543 428.359 540.274 431.084 536.911 431.084Z" stroke="white" stroke-width="0.567392" stroke-miterlimit="10"/>
<path d="M542.218 427.984L546.909 448.917H543.968L541.031 445.981H533.471L532.005 448.917H526.546L531.08 426.738" stroke="white" stroke-width="0.567392" stroke-miterlimit="10"/>
<path d="M514.647 313.28H559.032V322.821H514.647V313.28Z" stroke="white" stroke-width="0.567392" stroke-miterlimit="10"/>
<path d="M525.312 304.757H547.826V313.28H525.312V304.757Z" stroke="white" stroke-width="0.567392" stroke-miterlimit="10"/>
<path d="M529.483 297.466H543.165V304.761H529.483V297.466Z" stroke="white" stroke-width="0.567392" stroke-miterlimit="10"/>
<path d="M533.387 208.08H536.569V297.467H533.387V208.08Z" stroke="white" stroke-width="0.567392" stroke-miterlimit="10"/>
<path d="M535.411 445.981H541.031V572.798H535.411V445.981Z" stroke="white" stroke-width="0.567392" stroke-miterlimit="10"/>
<path d="M529.043 572.799H546.909V590.657H529.043V572.799Z" stroke="white" stroke-width="0.567392" stroke-miterlimit="10"/>
<path d="M537.972 584.127C536.646 584.127 535.572 583.052 535.572 581.727C535.572 580.402 536.646 579.328 537.972 579.328C539.297 579.328 540.372 580.402 540.372 581.727C540.372 583.052 539.297 584.127 537.972 584.127Z" stroke="white" stroke-width="0.567392" stroke-miterlimit="10"/>
<path d="M607.946 317.825C602.221 317.918 559.032 313.284 559.032 313.284" stroke="white" stroke-width="0.567392" stroke-miterlimit="10"/>
<path d="M607.946 306.29L543.968 301.112" stroke="white" stroke-width="0.567392" stroke-miterlimit="10"/>
<path d="M496.633 575.155H509.766V590.661H496.633V575.155Z" stroke="white" stroke-width="0.567392" stroke-miterlimit="10"/>
<path d="M486.965 562.062H519.181V575.155H486.965V562.062Z" stroke="white" stroke-width="0.567392" stroke-miterlimit="10"/>
<path d="M490.904 496.801H515.124V562.062H490.904V496.801Z" stroke="white" stroke-width="0.567392" stroke-miterlimit="10"/>
<path d="M496.633 489.11H509.766V496.801H496.633V489.11Z" stroke="white" stroke-width="0.567392" stroke-miterlimit="10"/>
<path d="M498.78 459.235H505.938V489.11H498.78V459.235Z" stroke="white" stroke-width="0.567392" stroke-miterlimit="10"/>
<path d="M454.577 575.155H467.71V590.661H454.577V575.155Z" stroke="white" stroke-width="0.567392" stroke-miterlimit="10"/>
<path d="M444.909 562.062H477.124V575.155H444.909V562.062Z" stroke="white" stroke-width="0.567392" stroke-miterlimit="10"/>
<path d="M448.847 496.801H473.068V562.062H448.847V496.801Z" stroke="white" stroke-width="0.567392" stroke-miterlimit="10"/>
<path d="M454.577 489.11H467.71V496.801H454.577V489.11Z" stroke="white" stroke-width="0.567392" stroke-miterlimit="10"/>
<path d="M456.723 459.235H463.881V489.11H456.723V459.235Z" stroke="white" stroke-width="0.567392" stroke-miterlimit="10"/>
<path d="M392.952 452.08H535.572V459.235H392.952V452.08Z" stroke="white" stroke-width="0.567392" stroke-miterlimit="10"/>
<path d="M541.031 452.08H607.946V459.235H541.031V452.08Z" stroke="white" stroke-width="0.567392" stroke-miterlimit="10"/>
<path d="M448.847 531.503H473.068V534.899H448.847V531.503Z" stroke="white" stroke-width="0.567392" stroke-miterlimit="10"/>
<g filter="url(#filter1_f_9678_18148)">
<path d="M606.514 47.2234H441.837" stroke="white" stroke-opacity="0.7" stroke-width="0.378262" stroke-miterlimit="10"/>
<path d="M248.587 51.3711H86.9321" stroke="white" stroke-opacity="0.7" stroke-width="0.378262" stroke-miterlimit="10"/>
<path d="M606.514 57.8123V150.561" stroke="white" stroke-opacity="0.7" stroke-width="0.378262" stroke-miterlimit="10"/>
<path d="M686.688 317.825V195.438L678.812 187.73V10.5868L660.993 2L652.99 10.5868L639.684 2L630.498 6.29131C630.498 6.29131 625.486 12.0145 621.73 12.0145C617.973 12.0145 606.518 7.72315 606.518 7.72315V19.6425" stroke="white" stroke-opacity="0.7" stroke-width="0.378262" stroke-miterlimit="10"/>
<path d="M686.688 195.438H639.684" stroke="white" stroke-opacity="0.7" stroke-width="0.378262" stroke-miterlimit="10"/>
<path d="M678.816 187.726H639.684" stroke="white" stroke-opacity="0.7" stroke-width="0.378262" stroke-miterlimit="10"/>
<path d="M663.186 187.726V2" stroke="white" stroke-opacity="0.7" stroke-width="0.378262" stroke-miterlimit="10"/>
<path d="M534 126.9L237.804 230.977C237.804 230.977 226.628 214.01 226.628 182.792C226.628 151.575 231.369 134.756 231.369 134.756L534.98 221.486" stroke="white" stroke-opacity="0.7" stroke-width="0.378262" stroke-miterlimit="10"/>
<path d="M532.791 170.865L469.839 190.53" stroke="white" stroke-opacity="0.7" stroke-width="0.378262" stroke-miterlimit="10"/>
<path d="M313.255 315.552L248.448 471.083" stroke="white" stroke-opacity="0.7" stroke-width="0.378262" stroke-miterlimit="10"/>
<path d="M292.11 311.316L207.072 448.786" stroke="white" stroke-opacity="0.7" stroke-width="0.378262" stroke-miterlimit="10"/>
<path d="M226.412 512.264C198.499 512.264 175.871 489.646 175.871 461.744C175.871 433.843 198.499 411.224 226.412 411.224C254.325 411.224 276.953 433.843 276.953 461.744C276.953 489.646 254.325 512.264 226.412 512.264Z" stroke="white" stroke-opacity="0.7" stroke-width="0.378262" stroke-miterlimit="10"/>
<path d="M226.309 516.178C196.017 516.178 171.461 491.791 171.461 461.708C171.461 431.626 196.017 407.239 226.309 407.239C256.601 407.239 281.157 431.626 281.157 461.708C281.157 491.791 256.601 516.178 226.309 516.178Z" stroke="white" stroke-opacity="0.7" stroke-width="0.378262" stroke-miterlimit="10"/>
<path d="M246.783 514.997V616.476" stroke="white" stroke-opacity="0.7" stroke-width="0.378262" stroke-miterlimit="10"/>
<path d="M236.752 522.16V583.535" stroke="white" stroke-opacity="0.7" stroke-width="0.378262" stroke-miterlimit="10"/>
<path d="M220.855 520.154V583.062" stroke="white" stroke-opacity="0.7" stroke-width="0.378262" stroke-miterlimit="10"/>
<path d="M208.707 508.484V618.926" stroke="white" stroke-opacity="0.7" stroke-width="0.378262" stroke-miterlimit="10"/>
<path d="M597.209 650.287H2" stroke="white" stroke-opacity="0.7" stroke-width="0.378262" stroke-miterlimit="10"/>
<path d="M342.842 587.797V629.536" stroke="white" stroke-opacity="0.7" stroke-width="0.378262" stroke-miterlimit="10"/>
<path d="M329.121 587.32V629.536" stroke="white" stroke-opacity="0.7" stroke-width="0.378262" stroke-miterlimit="10"/>
<path d="M715.451 236.78H646.601" stroke="white" stroke-opacity="0.7" stroke-width="0.378262" stroke-miterlimit="10"/>
<path d="M458.147 222.994V448.917" stroke="white" stroke-opacity="0.7" stroke-width="0.378262" stroke-miterlimit="10"/>
<path d="M454.192 224.683V451.071" stroke="white" stroke-opacity="0.7" stroke-width="0.378262" stroke-miterlimit="10"/>
<path d="M521.822 472.591V568.609" stroke="white" stroke-opacity="0.7" stroke-width="0.378262" stroke-miterlimit="10"/>
<path d="M86.9321 59.9241V150.836" stroke="white" stroke-opacity="0.7" stroke-width="0.378262" stroke-miterlimit="10"/>
<path d="M56.5085 59.9241V150.836" stroke="white" stroke-opacity="0.7" stroke-width="0.378262" stroke-miterlimit="10"/>
<path d="M91.4661 240.041V328.887" stroke="white" stroke-opacity="0.7" stroke-width="0.378262" stroke-miterlimit="10"/>
<path d="M56.5042 240.041V330.019" stroke="white" stroke-opacity="0.7" stroke-width="0.378262" stroke-miterlimit="10"/>
<path d="M636.937 57.8123V149.492" stroke="white" stroke-opacity="0.7" stroke-width="0.378262" stroke-miterlimit="10"/>
<path d="M335.16 212.49V440.837" stroke="white" stroke-opacity="0.7" stroke-width="0.378262" stroke-miterlimit="10"/>
<line x1="786.063" y1="328.028" x2="730.08" y2="404.436" stroke="white" stroke-opacity="0.7" stroke-width="0.756523"/>
<path d="M527.471 487.779H441.837" stroke="white" stroke-opacity="0.7" stroke-width="0.378262" stroke-miterlimit="10"/>
<path d="M534.105 576.583H433.994" stroke="white" stroke-opacity="0.7" stroke-width="0.378262" stroke-miterlimit="10"/>
<path d="M445.239 475.573V590.656" stroke="white" stroke-opacity="0.7" stroke-width="0.378262" stroke-miterlimit="10"/>
<path d="M512.952 295.211V212.358" stroke="white" stroke-opacity="0.7" stroke-width="0.378262" stroke-miterlimit="10"/>
<path d="M516.345 222.994H433.994" stroke="white" stroke-opacity="0.7" stroke-width="0.378262" stroke-miterlimit="10"/>
<path d="M441.837 217.3V239.242" stroke="white" stroke-opacity="0.7" stroke-width="0.378262" stroke-miterlimit="10"/>
<path d="M441.837 239.242H412.541" stroke="white" stroke-opacity="0.7" stroke-width="0.378262" stroke-miterlimit="10"/>
<path d="M778.931 208.08H701.004" stroke="white" stroke-opacity="0.7" stroke-width="0.378262" stroke-miterlimit="10"/>
</g>
<rect x="10" y="658" width="239" height="877" transform="rotate(-90 10 658)" fill="url(#paint0_linear_9678_18148)"/>
</g>
<defs>
<filter id="filter0_d_9678_18148" x="37.2447" y="17.3413" width="620.448" height="640.619" filterUnits="userSpaceOnUse" color-interpolation-filters="sRGB">
<feFlood flood-opacity="0" result="BackgroundImageFix"/>
<feColorMatrix in="SourceAlpha" type="matrix" values="0 0 0 0 0 0 0 0 0 0 0 0 0 0 0 0 0 0 127 0" result="hardAlpha"/>
<feOffset dy="3.02609"/>
<feGaussianBlur stdDeviation="1.51305"/>
<feComposite in2="hardAlpha" operator="out"/>
<feColorMatrix type="matrix" values="0 0 0 0 0 0 0 0 0 0 0 0 0 0 0 0 0 0 0.25 0"/>
<feBlend mode="normal" in2="BackgroundImageFix" result="effect1_dropShadow_9678_18148"/>
<feBlend mode="normal" in="SourceGraphic" in2="effect1_dropShadow_9678_18148" result="shape"/>
</filter>
<filter id="filter1_f_9678_18148" x="0.486954" y="0.255997" width="811.745" height="651.733" filterUnits="userSpaceOnUse" color-interpolation-filters="sRGB">
<feFlood flood-opacity="0" result="BackgroundImageFix"/>
<feBlend mode="normal" in="SourceGraphic" in2="BackgroundImageFix" result="shape"/>
<feGaussianBlur stdDeviation="0.756523" result="effect1_foregroundBlur_9678_18148"/>
</filter>
<linearGradient id="paint0_linear_9678_18148" x1="10" y1="1035.78" x2="235.145" y2="1035.78" gradientUnits="userSpaceOnUse">
<stop stop-color="#00050B"/>
<stop offset="1" stop-color="#00050B" stop-opacity="0"/>
</linearGradient>
</defs>
</svg>
