<svg width="19" height="19" viewBox="0 0 19 19" fill="none" xmlns="http://www.w3.org/2000/svg">
<path d="M13.4227 13.1705C13.4056 13.1667 13.3879 13.1655 13.3709 13.1661C13.3403 13.168 13.3111 13.1755 13.2836 13.1894C13.1738 13.2441 13.1256 13.3774 13.1738 13.4931L13.1719 13.4956L13.6924 14.7909C14.1903 14.4633 14.568 13.9747 14.7663 13.4013L13.4252 13.168L13.4227 13.1711V13.1705ZM11.3365 13.3541C11.3133 13.2491 11.2236 13.1736 11.1187 13.1724C11.1034 13.1724 11.0888 13.1736 11.0741 13.1768L11.0717 13.1743L9.74272 13.4069C9.94225 13.976 10.3187 14.4608 10.813 14.7871L11.328 13.5044L11.3237 13.4994C11.3426 13.4541 11.3469 13.4038 11.3365 13.3554V13.3541ZM12.4495 13.8571C12.3903 13.7433 12.253 13.7006 12.1426 13.7616C12.1029 13.7836 12.0706 13.8169 12.0498 13.8578H12.0486L11.3951 15.0757C11.8631 15.2399 12.3665 15.2669 12.8485 15.1531C12.9376 15.1323 13.0255 15.1072 13.1103 15.0776L12.455 13.8571H12.4501H12.4495ZM14.5192 11.0276L13.5136 11.955V11.9582C13.4197 12.0431 13.4099 12.1915 13.4929 12.2889C13.5222 12.3235 13.5606 12.348 13.6033 12.3606L13.6046 12.3663L14.9073 12.753C14.9634 12.15 14.8274 11.5444 14.5192 11.0282V11.0276ZM12.6502 11.132C12.6557 11.2615 12.7625 11.3608 12.8876 11.3552C12.9321 11.3533 12.9748 11.3376 13.0108 11.3105L13.0151 11.3124L14.1159 10.5082C13.6967 10.0856 13.1549 9.8159 12.5727 9.7417L12.649 11.1313H12.6502V11.132ZM11.4848 11.3156C11.5861 11.3916 11.7282 11.3684 11.8021 11.264C11.8283 11.2269 11.8436 11.1823 11.8454 11.1364L11.8509 11.1338L11.9272 9.7417C11.835 9.75302 11.7435 9.76937 11.6526 9.79074C11.1699 9.90267 10.7275 10.151 10.3749 10.5082L11.4823 11.3175L11.4848 11.3162V11.3156ZM10.8947 12.3675C11.0156 12.3336 11.0869 12.2047 11.054 12.0802C11.0424 12.0355 11.018 11.9953 10.9838 11.9651L10.985 11.9594L9.97398 11.0276C9.66522 11.5451 9.53282 12.1537 9.59749 12.7574L10.8941 12.3719L10.8953 12.3675H10.8947ZM11.8765 12.7769L12.2493 12.9617L12.6216 12.7775L12.7137 12.3638L12.4562 12.0318H12.0419L11.7838 12.3631L11.8765 12.7769Z" fill="white"/>
<path d="M18.4171 13.5924L17.3541 8.83367C17.2961 8.58467 17.1326 8.37528 16.9093 8.26336L12.6063 6.14622C12.3805 6.03492 12.1182 6.03492 11.8918 6.14622L7.58939 8.26462C7.36545 8.37654 7.20192 8.58593 7.14395 8.83493L6.08285 13.593C6.05661 13.7131 6.05661 13.8382 6.08285 13.9583C6.09078 13.9948 6.10054 14.0313 6.11275 14.0665C6.13349 14.1268 6.16095 14.1841 6.19451 14.2381C6.20916 14.2614 6.22441 14.2834 6.2415 14.3048L9.21918 18.1203C9.23199 18.1366 9.24664 18.1524 9.26067 18.1675C9.30766 18.219 9.36013 18.2637 9.41749 18.3014C9.4901 18.3485 9.56942 18.3844 9.65302 18.407C9.72136 18.4265 9.79153 18.4366 9.86231 18.4366H9.90868L14.6376 18.4353C14.6663 18.4353 14.6949 18.4334 14.7236 18.4303C14.7645 18.4253 14.8054 18.4177 14.845 18.4064C14.8737 18.3989 14.9018 18.3894 14.9293 18.3787C14.9506 18.3706 14.9726 18.3618 14.9927 18.3517C15.0238 18.3366 15.0537 18.319 15.083 18.3001C15.1581 18.2517 15.2246 18.1907 15.2807 18.1197L15.3716 18.0033L18.2578 14.3035C18.3133 14.2318 18.3566 14.1514 18.3865 14.0652C18.3987 14.03 18.4091 13.9935 18.4171 13.9571C18.4433 13.837 18.4433 13.7118 18.4171 13.5917V13.5924ZM13.9542 15.4429C13.9664 15.4794 13.9804 15.5152 13.9969 15.5498C13.9707 15.597 13.9633 15.6535 13.9768 15.7064C14.0396 15.8541 14.1159 15.995 14.205 16.1277C14.255 16.1956 14.3008 16.266 14.3429 16.3389C14.3532 16.3591 14.3667 16.3892 14.3764 16.4106C14.4497 16.537 14.41 16.7005 14.2873 16.7766C14.1647 16.8527 14.0061 16.8112 13.9322 16.6848C13.9237 16.6697 13.9164 16.654 13.9109 16.6376C13.9011 16.6169 13.8877 16.5892 13.8791 16.5697C13.8498 16.4905 13.8248 16.4087 13.8041 16.3264C13.7595 16.1723 13.7004 16.0226 13.6271 15.8799C13.5954 15.8359 13.5484 15.8063 13.4959 15.7975C13.488 15.7831 13.4575 15.7252 13.441 15.6957C12.6752 15.9944 11.8289 15.9925 11.0644 15.6894L11.0058 15.7982C10.9643 15.8051 10.9252 15.8246 10.8947 15.8541C10.8069 16.0025 10.7398 16.1629 10.6952 16.3308C10.6751 16.4131 10.6501 16.4942 10.6208 16.5741C10.6122 16.5936 10.5988 16.6206 10.589 16.6414V16.6426C10.5408 16.781 10.3932 16.8533 10.2583 16.8042C10.1241 16.7546 10.0539 16.6024 10.1015 16.4634C10.1076 16.4465 10.1149 16.4307 10.1235 16.415C10.1332 16.3936 10.146 16.3635 10.1564 16.344C10.1985 16.2704 10.2443 16.2 10.2943 16.1321C10.3852 15.9962 10.4633 15.8516 10.5274 15.7001C10.5341 15.6485 10.5262 15.5963 10.5042 15.5498L10.5512 15.4341C9.84645 15.0053 9.31803 14.3255 9.06602 13.5232L8.95375 13.5427C8.91043 13.5106 8.85917 13.4924 8.80548 13.4892C8.65171 13.5194 8.50161 13.5653 8.35638 13.6251C8.28133 13.6596 8.20384 13.6905 8.12513 13.7162C8.10621 13.7213 8.07997 13.7269 8.05862 13.7313C8.05679 13.7313 8.05556 13.7326 8.05373 13.7332C8.05251 13.7332 8.05129 13.7332 8.05007 13.7332C7.91461 13.7791 7.76817 13.703 7.72363 13.5634C7.67908 13.4239 7.75292 13.2729 7.88838 13.227C7.90363 13.222 7.91949 13.2182 7.93536 13.2157H7.93902L7.94146 13.2138C7.96282 13.2088 7.99089 13.2013 8.01041 13.1975C8.09218 13.1855 8.17455 13.1786 8.25753 13.1767C8.41374 13.166 8.56812 13.1403 8.71883 13.0988C8.76338 13.0692 8.80121 13.0302 8.82927 12.9837L8.93728 12.951C8.82012 12.1135 9.00745 11.2608 9.46264 10.5572L9.38027 10.4811C9.37722 10.4258 9.35952 10.373 9.3284 10.3277C9.21003 10.2227 9.08128 10.1296 8.94521 10.0504C8.87199 10.012 8.8006 9.96864 8.73165 9.92148C8.71578 9.90953 8.69503 9.8913 8.67856 9.87747L8.6749 9.87495C8.55286 9.78441 8.52479 9.6096 8.61144 9.48384C8.66147 9.42096 8.73775 9.38575 8.81646 9.39015C8.88175 9.3933 8.94521 9.41782 8.99585 9.45995C9.01355 9.47378 9.03735 9.49327 9.05321 9.50711C9.11301 9.56559 9.16976 9.62721 9.22284 9.6926C9.32779 9.81207 9.44434 9.92022 9.57003 10.0158C9.61702 10.0416 9.67193 10.0466 9.72319 10.0309C9.7537 10.0542 9.78482 10.0768 9.81594 10.0988C10.2687 9.60331 10.8545 9.25811 11.4988 9.10845C11.652 9.07261 11.8076 9.04809 11.9644 9.03489L11.9705 8.92296C12.0108 8.88649 12.0394 8.8387 12.0541 8.78588C12.0596 8.62491 12.0498 8.46394 12.0254 8.30486C12.0089 8.22123 11.9973 8.13697 11.99 8.05271C11.9894 8.03322 11.99 8.00681 11.9906 7.9848C11.9906 7.98229 11.99 7.97977 11.99 7.97726C11.9754 7.83075 12.0791 7.69996 12.2213 7.68487C12.3634 7.66978 12.4904 7.77667 12.505 7.92318C12.5068 7.94079 12.5068 7.95902 12.505 7.97663C12.505 7.99989 12.5062 8.03071 12.505 8.05208C12.4977 8.13697 12.4861 8.22123 12.4696 8.30423C12.4446 8.46331 12.4348 8.62428 12.4403 8.78588C12.4507 8.83996 12.4806 8.88712 12.5245 8.91856C12.5251 8.93805 12.5288 9.00156 12.5306 9.03677C13.3446 9.11286 14.1043 9.49139 14.6681 10.1013L14.7663 10.029C14.8188 10.0384 14.8731 10.0321 14.9225 10.0114C15.0482 9.91519 15.1642 9.80704 15.2697 9.68757C15.3228 9.62218 15.3796 9.56056 15.44 9.50208C15.4558 9.48824 15.4796 9.46938 15.4973 9.45492C15.5992 9.3518 15.7628 9.35243 15.8634 9.45743C15.9635 9.56244 15.9629 9.73096 15.861 9.83471C15.8482 9.84791 15.8335 9.85986 15.8183 9.86992C15.8012 9.88438 15.778 9.9045 15.7615 9.91708C15.6926 9.96424 15.6212 10.007 15.5474 10.046C15.4113 10.1252 15.2832 10.2183 15.1642 10.3233C15.1294 10.3648 15.1123 10.4189 15.116 10.4736C15.1013 10.4874 15.0513 10.5333 15.0244 10.5578C15.4809 11.2596 15.6718 12.109 15.5608 12.946L15.6645 12.9774C15.6908 13.0258 15.7292 13.0654 15.7756 13.0925C15.9269 13.134 16.0813 13.1604 16.2375 13.1711C16.3199 13.173 16.4022 13.1799 16.4846 13.1912C16.506 13.1956 16.5377 13.2044 16.5597 13.2094C16.7012 13.2283 16.8007 13.3622 16.7824 13.5081C16.7641 13.654 16.6341 13.7565 16.4925 13.7376C16.4767 13.7357 16.4608 13.732 16.4456 13.7263H16.4419C16.4419 13.7263 16.4388 13.7244 16.437 13.7238C16.4157 13.7194 16.3888 13.7144 16.3705 13.7093C16.2918 13.6835 16.2149 13.6527 16.1392 13.6175C15.994 13.5572 15.8439 13.5119 15.6902 13.4817C15.6371 13.4798 15.5852 13.4999 15.5461 13.537C15.5095 13.5301 15.4729 13.5232 15.4363 13.5169C15.1874 14.3243 14.6589 15.009 13.9517 15.441L13.9542 15.4429Z" fill="white"/>
<path d="M9.29852 6.20133C8.45668 5.55116 6.70084 3.99076 6.4122 2.9505C6.05141 1.65017 6.05141 1 4.96904 1C4.10315 1 4.1272 2.08361 4.24747 2.62542L4.96904 5.22608H2.08273C1.72194 5.22608 1.00036 5.42113 1.00036 6.20133C1.00036 6.98153 1.48141 7.17658 1.72194 7.17658C1.48141 7.28494 1.00036 7.63169 1.00036 8.15183C1.00036 8.67196 1.72194 8.80199 2.08273 8.80199C1.96246 8.91035 1.72194 9.19209 1.72194 9.45216C1.72194 9.71223 2.20299 9.99396 2.44352 10.1023C2.32325 10.5358 2.44352 11.4027 3.88668 11.4027C4.52827 11.4027 5.14609 11.4027 5.67674 11.4027L7.75018 11.5" stroke="white" stroke-width="1.5" stroke-linecap="round" stroke-linejoin="round"/>
<path d="M9.29882 8.49988V5.87634H11.4636V7.74988" stroke="white" stroke-width="1.5" stroke-linecap="round" stroke-linejoin="round"/>
</svg>
